G04 #@! TF.GenerationSoftware,KiCad,Pcbnew,(5.1.5)-3*
G04 #@! TF.CreationDate,2020-07-09T22:20:04+02:00*
G04 #@! TF.ProjectId,2x3_macropad,3278335f-6d61-4637-926f-7061642e6b69,rev?*
G04 #@! TF.SameCoordinates,Original*
G04 #@! TF.FileFunction,Legend,Top*
G04 #@! TF.FilePolarity,Positive*
%FSLAX46Y46*%
G04 Gerber Fmt 4.6, Leading zero omitted, Abs format (unit mm)*
G04 Created by KiCad (PCBNEW (5.1.5)-3) date 2020-07-09 22:20:04*
%MOMM*%
%LPD*%
G04 APERTURE LIST*
%ADD10C,0.200000*%
%ADD11C,0.300000*%
%ADD12C,0.010000*%
%ADD13C,0.120000*%
%ADD14C,0.150000*%
%ADD15C,0.381000*%
%ADD16C,0.203200*%
%ADD17R,2.102000X2.102000*%
%ADD18C,2.102000*%
%ADD19R,2.102000X3.302000*%
%ADD20R,1.702000X1.302000*%
%ADD21C,1.702000*%
%ADD22R,1.702000X1.702000*%
%ADD23C,2.388000*%
%ADD24C,4.089800*%
%ADD25C,1.902000*%
%ADD26R,1.854600X1.854600*%
%ADD27C,1.854600*%
G04 APERTURE END LIST*
D10*
X61640476Y-122488095D02*
X61640476Y-121188095D01*
X61950000Y-121188095D01*
X62135714Y-121250000D01*
X62259523Y-121373809D01*
X62321428Y-121497619D01*
X62383333Y-121745238D01*
X62383333Y-121930952D01*
X62321428Y-122178571D01*
X62259523Y-122302380D01*
X62135714Y-122426190D01*
X61950000Y-122488095D01*
X61640476Y-122488095D01*
X63435714Y-122426190D02*
X63311904Y-122488095D01*
X63064285Y-122488095D01*
X62940476Y-122426190D01*
X62878571Y-122302380D01*
X62878571Y-121807142D01*
X62940476Y-121683333D01*
X63064285Y-121621428D01*
X63311904Y-121621428D01*
X63435714Y-121683333D01*
X63497619Y-121807142D01*
X63497619Y-121930952D01*
X62878571Y-122054761D01*
X63992857Y-122426190D02*
X64116666Y-122488095D01*
X64364285Y-122488095D01*
X64488095Y-122426190D01*
X64550000Y-122302380D01*
X64550000Y-122240476D01*
X64488095Y-122116666D01*
X64364285Y-122054761D01*
X64178571Y-122054761D01*
X64054761Y-121992857D01*
X63992857Y-121869047D01*
X63992857Y-121807142D01*
X64054761Y-121683333D01*
X64178571Y-121621428D01*
X64364285Y-121621428D01*
X64488095Y-121683333D01*
X65107142Y-122488095D02*
X65107142Y-121621428D01*
X65107142Y-121188095D02*
X65045238Y-121250000D01*
X65107142Y-121311904D01*
X65169047Y-121250000D01*
X65107142Y-121188095D01*
X65107142Y-121311904D01*
X66283333Y-121621428D02*
X66283333Y-122673809D01*
X66221428Y-122797619D01*
X66159523Y-122859523D01*
X66035714Y-122921428D01*
X65850000Y-122921428D01*
X65726190Y-122859523D01*
X66283333Y-122426190D02*
X66159523Y-122488095D01*
X65911904Y-122488095D01*
X65788095Y-122426190D01*
X65726190Y-122364285D01*
X65664285Y-122240476D01*
X65664285Y-121869047D01*
X65726190Y-121745238D01*
X65788095Y-121683333D01*
X65911904Y-121621428D01*
X66159523Y-121621428D01*
X66283333Y-121683333D01*
X66902380Y-121621428D02*
X66902380Y-122488095D01*
X66902380Y-121745238D02*
X66964285Y-121683333D01*
X67088095Y-121621428D01*
X67273809Y-121621428D01*
X67397619Y-121683333D01*
X67459523Y-121807142D01*
X67459523Y-122488095D01*
X68573809Y-122426190D02*
X68450000Y-122488095D01*
X68202380Y-122488095D01*
X68078571Y-122426190D01*
X68016666Y-122302380D01*
X68016666Y-121807142D01*
X68078571Y-121683333D01*
X68202380Y-121621428D01*
X68450000Y-121621428D01*
X68573809Y-121683333D01*
X68635714Y-121807142D01*
X68635714Y-121930952D01*
X68016666Y-122054761D01*
X69750000Y-122488095D02*
X69750000Y-121188095D01*
X69750000Y-122426190D02*
X69626190Y-122488095D01*
X69378571Y-122488095D01*
X69254761Y-122426190D01*
X69192857Y-122364285D01*
X69130952Y-122240476D01*
X69130952Y-121869047D01*
X69192857Y-121745238D01*
X69254761Y-121683333D01*
X69378571Y-121621428D01*
X69626190Y-121621428D01*
X69750000Y-121683333D01*
X71359523Y-122488095D02*
X71359523Y-121188095D01*
X71359523Y-121683333D02*
X71483333Y-121621428D01*
X71730952Y-121621428D01*
X71854761Y-121683333D01*
X71916666Y-121745238D01*
X71978571Y-121869047D01*
X71978571Y-122240476D01*
X71916666Y-122364285D01*
X71854761Y-122426190D01*
X71730952Y-122488095D01*
X71483333Y-122488095D01*
X71359523Y-122426190D01*
X72411904Y-121621428D02*
X72721428Y-122488095D01*
X73030952Y-121621428D02*
X72721428Y-122488095D01*
X72597619Y-122797619D01*
X72535714Y-122859523D01*
X72411904Y-122921428D01*
X74516666Y-122488095D02*
X74516666Y-121188095D01*
X74826190Y-121188095D01*
X75011904Y-121250000D01*
X75135714Y-121373809D01*
X75197619Y-121497619D01*
X75259523Y-121745238D01*
X75259523Y-121930952D01*
X75197619Y-122178571D01*
X75135714Y-122302380D01*
X75011904Y-122426190D01*
X74826190Y-122488095D01*
X74516666Y-122488095D01*
X76373809Y-122488095D02*
X76373809Y-121807142D01*
X76311904Y-121683333D01*
X76188095Y-121621428D01*
X75940476Y-121621428D01*
X75816666Y-121683333D01*
X76373809Y-122426190D02*
X76250000Y-122488095D01*
X75940476Y-122488095D01*
X75816666Y-122426190D01*
X75754761Y-122302380D01*
X75754761Y-122178571D01*
X75816666Y-122054761D01*
X75940476Y-121992857D01*
X76250000Y-121992857D01*
X76373809Y-121930952D01*
X76992857Y-121621428D02*
X76992857Y-122488095D01*
X76992857Y-121745238D02*
X77054761Y-121683333D01*
X77178571Y-121621428D01*
X77364285Y-121621428D01*
X77488095Y-121683333D01*
X77550000Y-121807142D01*
X77550000Y-122488095D01*
X78169047Y-122488095D02*
X78169047Y-121621428D01*
X78169047Y-121188095D02*
X78107142Y-121250000D01*
X78169047Y-121311904D01*
X78230952Y-121250000D01*
X78169047Y-121188095D01*
X78169047Y-121311904D01*
X79283333Y-122426190D02*
X79159523Y-122488095D01*
X78911904Y-122488095D01*
X78788095Y-122426190D01*
X78726190Y-122302380D01*
X78726190Y-121807142D01*
X78788095Y-121683333D01*
X78911904Y-121621428D01*
X79159523Y-121621428D01*
X79283333Y-121683333D01*
X79345238Y-121807142D01*
X79345238Y-121930952D01*
X78726190Y-122054761D01*
X80088095Y-122488095D02*
X79964285Y-122426190D01*
X79902380Y-122302380D01*
X79902380Y-121188095D01*
X82440476Y-122611904D02*
X82316666Y-122550000D01*
X82192857Y-122426190D01*
X82007142Y-122240476D01*
X81883333Y-122178571D01*
X81759523Y-122178571D01*
X81821428Y-122488095D02*
X81697619Y-122426190D01*
X81573809Y-122302380D01*
X81511904Y-122054761D01*
X81511904Y-121621428D01*
X81573809Y-121373809D01*
X81697619Y-121250000D01*
X81821428Y-121188095D01*
X82069047Y-121188095D01*
X82192857Y-121250000D01*
X82316666Y-121373809D01*
X82378571Y-121621428D01*
X82378571Y-122054761D01*
X82316666Y-122302380D01*
X82192857Y-122426190D01*
X82069047Y-122488095D01*
X81821428Y-122488095D01*
X83492857Y-121621428D02*
X83492857Y-122488095D01*
X82935714Y-121621428D02*
X82935714Y-122302380D01*
X82997619Y-122426190D01*
X83121428Y-122488095D01*
X83307142Y-122488095D01*
X83430952Y-122426190D01*
X83492857Y-122364285D01*
X84669047Y-122488095D02*
X84669047Y-121807142D01*
X84607142Y-121683333D01*
X84483333Y-121621428D01*
X84235714Y-121621428D01*
X84111904Y-121683333D01*
X84669047Y-122426190D02*
X84545238Y-122488095D01*
X84235714Y-122488095D01*
X84111904Y-122426190D01*
X84050000Y-122302380D01*
X84050000Y-122178571D01*
X84111904Y-122054761D01*
X84235714Y-121992857D01*
X84545238Y-121992857D01*
X84669047Y-121930952D01*
X85845238Y-122426190D02*
X85721428Y-122488095D01*
X85473809Y-122488095D01*
X85350000Y-122426190D01*
X85288095Y-122364285D01*
X85226190Y-122240476D01*
X85226190Y-121869047D01*
X85288095Y-121745238D01*
X85350000Y-121683333D01*
X85473809Y-121621428D01*
X85721428Y-121621428D01*
X85845238Y-121683333D01*
X86402380Y-122488095D02*
X86402380Y-121188095D01*
X86959523Y-122488095D02*
X86959523Y-121807142D01*
X86897619Y-121683333D01*
X86773809Y-121621428D01*
X86588095Y-121621428D01*
X86464285Y-121683333D01*
X86402380Y-121745238D01*
X61621428Y-118421428D02*
X61692857Y-118350000D01*
X61835714Y-118278571D01*
X62192857Y-118278571D01*
X62335714Y-118350000D01*
X62407142Y-118421428D01*
X62478571Y-118564285D01*
X62478571Y-118707142D01*
X62407142Y-118921428D01*
X61550000Y-119778571D01*
X62478571Y-119778571D01*
X62978571Y-119778571D02*
X63764285Y-118778571D01*
X62978571Y-118778571D02*
X63764285Y-119778571D01*
X64192857Y-118278571D02*
X65121428Y-118278571D01*
X64621428Y-118850000D01*
X64835714Y-118850000D01*
X64978571Y-118921428D01*
X65050000Y-118992857D01*
X65121428Y-119135714D01*
X65121428Y-119492857D01*
X65050000Y-119635714D01*
X64978571Y-119707142D01*
X64835714Y-119778571D01*
X64407142Y-119778571D01*
X64264285Y-119707142D01*
X64192857Y-119635714D01*
X66907142Y-119778571D02*
X66907142Y-118278571D01*
X67407142Y-119350000D01*
X67907142Y-118278571D01*
X67907142Y-119778571D01*
X69264285Y-119778571D02*
X69264285Y-118992857D01*
X69192857Y-118850000D01*
X69050000Y-118778571D01*
X68764285Y-118778571D01*
X68621428Y-118850000D01*
X69264285Y-119707142D02*
X69121428Y-119778571D01*
X68764285Y-119778571D01*
X68621428Y-119707142D01*
X68550000Y-119564285D01*
X68550000Y-119421428D01*
X68621428Y-119278571D01*
X68764285Y-119207142D01*
X69121428Y-119207142D01*
X69264285Y-119135714D01*
X70621428Y-119707142D02*
X70478571Y-119778571D01*
X70192857Y-119778571D01*
X70050000Y-119707142D01*
X69978571Y-119635714D01*
X69907142Y-119492857D01*
X69907142Y-119064285D01*
X69978571Y-118921428D01*
X70050000Y-118850000D01*
X70192857Y-118778571D01*
X70478571Y-118778571D01*
X70621428Y-118850000D01*
X71264285Y-119778571D02*
X71264285Y-118778571D01*
X71264285Y-119064285D02*
X71335714Y-118921428D01*
X71407142Y-118850000D01*
X71550000Y-118778571D01*
X71692857Y-118778571D01*
X72407142Y-119778571D02*
X72264285Y-119707142D01*
X72192857Y-119635714D01*
X72121428Y-119492857D01*
X72121428Y-119064285D01*
X72192857Y-118921428D01*
X72264285Y-118850000D01*
X72407142Y-118778571D01*
X72621428Y-118778571D01*
X72764285Y-118850000D01*
X72835714Y-118921428D01*
X72907142Y-119064285D01*
X72907142Y-119492857D01*
X72835714Y-119635714D01*
X72764285Y-119707142D01*
X72621428Y-119778571D01*
X72407142Y-119778571D01*
X73550000Y-118778571D02*
X73550000Y-120278571D01*
X73550000Y-118850000D02*
X73692857Y-118778571D01*
X73978571Y-118778571D01*
X74121428Y-118850000D01*
X74192857Y-118921428D01*
X74264285Y-119064285D01*
X74264285Y-119492857D01*
X74192857Y-119635714D01*
X74121428Y-119707142D01*
X73978571Y-119778571D01*
X73692857Y-119778571D01*
X73550000Y-119707142D01*
X75550000Y-119778571D02*
X75550000Y-118992857D01*
X75478571Y-118850000D01*
X75335714Y-118778571D01*
X75050000Y-118778571D01*
X74907142Y-118850000D01*
X75550000Y-119707142D02*
X75407142Y-119778571D01*
X75050000Y-119778571D01*
X74907142Y-119707142D01*
X74835714Y-119564285D01*
X74835714Y-119421428D01*
X74907142Y-119278571D01*
X75050000Y-119207142D01*
X75407142Y-119207142D01*
X75550000Y-119135714D01*
X76907142Y-119778571D02*
X76907142Y-118278571D01*
X76907142Y-119707142D02*
X76764285Y-119778571D01*
X76478571Y-119778571D01*
X76335714Y-119707142D01*
X76264285Y-119635714D01*
X76192857Y-119492857D01*
X76192857Y-119064285D01*
X76264285Y-118921428D01*
X76335714Y-118850000D01*
X76478571Y-118778571D01*
X76764285Y-118778571D01*
X76907142Y-118850000D01*
D11*
X71428571Y-144678571D02*
X72571428Y-145107142D01*
X71428571Y-145535714D01*
X67928571Y-144678571D02*
X69071428Y-145107142D01*
X67928571Y-145535714D01*
D12*
G36*
X126234079Y-154226914D02*
G01*
X126430404Y-154227157D01*
X126598776Y-154227991D01*
X126742351Y-154229643D01*
X126864282Y-154232343D01*
X126967723Y-154236322D01*
X127055827Y-154241809D01*
X127131750Y-154249032D01*
X127198646Y-154258223D01*
X127259667Y-154269610D01*
X127317969Y-154283423D01*
X127376706Y-154299892D01*
X127420151Y-154313243D01*
X127595333Y-154378806D01*
X127753423Y-154461246D01*
X127904673Y-154566224D01*
X127960444Y-154611481D01*
X128041953Y-154680043D01*
X127977559Y-154774868D01*
X127926722Y-154856515D01*
X127873342Y-154953615D01*
X127822729Y-155055553D01*
X127780196Y-155151712D01*
X127754327Y-155221079D01*
X127738292Y-155267541D01*
X127727083Y-155288519D01*
X127716834Y-155288400D01*
X127706354Y-155275519D01*
X127592966Y-155136482D01*
X127460984Y-155022368D01*
X127310563Y-154933298D01*
X127208392Y-154890805D01*
X127070116Y-154841501D01*
X126113534Y-154831063D01*
X126113534Y-156668831D01*
X125475812Y-156668831D01*
X125475812Y-154226822D01*
X126234079Y-154226914D01*
G37*
X126234079Y-154226914D02*
X126430404Y-154227157D01*
X126598776Y-154227991D01*
X126742351Y-154229643D01*
X126864282Y-154232343D01*
X126967723Y-154236322D01*
X127055827Y-154241809D01*
X127131750Y-154249032D01*
X127198646Y-154258223D01*
X127259667Y-154269610D01*
X127317969Y-154283423D01*
X127376706Y-154299892D01*
X127420151Y-154313243D01*
X127595333Y-154378806D01*
X127753423Y-154461246D01*
X127904673Y-154566224D01*
X127960444Y-154611481D01*
X128041953Y-154680043D01*
X127977559Y-154774868D01*
X127926722Y-154856515D01*
X127873342Y-154953615D01*
X127822729Y-155055553D01*
X127780196Y-155151712D01*
X127754327Y-155221079D01*
X127738292Y-155267541D01*
X127727083Y-155288519D01*
X127716834Y-155288400D01*
X127706354Y-155275519D01*
X127592966Y-155136482D01*
X127460984Y-155022368D01*
X127310563Y-154933298D01*
X127208392Y-154890805D01*
X127070116Y-154841501D01*
X126113534Y-154831063D01*
X126113534Y-156668831D01*
X125475812Y-156668831D01*
X125475812Y-154226822D01*
X126234079Y-154226914D01*
G36*
X129746009Y-154234527D02*
G01*
X129937227Y-154255489D01*
X130101559Y-154288623D01*
X130309956Y-154357305D01*
X130502093Y-154451914D01*
X130676647Y-154571087D01*
X130832297Y-154713464D01*
X130967718Y-154877682D01*
X131081590Y-155062380D01*
X131172588Y-155266198D01*
X131230167Y-155450343D01*
X131274618Y-155680818D01*
X131291827Y-155915989D01*
X131282380Y-156151532D01*
X131246864Y-156383125D01*
X131185866Y-156606444D01*
X131099970Y-156817167D01*
X131026423Y-156953076D01*
X130991001Y-157011785D01*
X131184201Y-157205450D01*
X131377401Y-157399116D01*
X131331500Y-157447026D01*
X131293392Y-157478813D01*
X131238994Y-157514730D01*
X131184676Y-157544621D01*
X131133617Y-157568389D01*
X131091192Y-157583064D01*
X131046672Y-157590768D01*
X130989326Y-157593623D01*
X130935661Y-157593872D01*
X130860761Y-157592483D01*
X130806605Y-157587588D01*
X130762872Y-157577320D01*
X130719240Y-157559811D01*
X130702021Y-157551596D01*
X130648221Y-157523125D01*
X130600111Y-157494041D01*
X130576857Y-157477467D01*
X130537241Y-157445182D01*
X130413538Y-157506260D01*
X130265207Y-157571846D01*
X130117611Y-157620385D01*
X129963556Y-157653358D01*
X129795851Y-157672241D01*
X129607303Y-157678516D01*
X129576193Y-157678457D01*
X129481006Y-157676402D01*
X129384879Y-157671747D01*
X129297688Y-157665134D01*
X129229312Y-157657203D01*
X129216595Y-157655139D01*
X129055957Y-157617931D01*
X128895457Y-157564306D01*
X128743764Y-157497849D01*
X128609548Y-157422144D01*
X128546654Y-157378118D01*
X128484346Y-157328917D01*
X128429297Y-157282456D01*
X128387316Y-157243841D01*
X128364207Y-157218180D01*
X128363462Y-157217026D01*
X128367005Y-157197557D01*
X128385044Y-157158693D01*
X128414423Y-157106655D01*
X128440839Y-157064505D01*
X128478836Y-157002538D01*
X128519183Y-156930635D01*
X128558806Y-156855041D01*
X128594629Y-156782000D01*
X128623577Y-156717756D01*
X128642577Y-156668554D01*
X128648626Y-156642529D01*
X128655675Y-156619185D01*
X128675792Y-156623984D01*
X128708896Y-156656874D01*
X128742267Y-156700041D01*
X128853505Y-156827398D01*
X128986623Y-156932777D01*
X129141163Y-157015851D01*
X129232150Y-157050910D01*
X129366011Y-157084450D01*
X129514969Y-157101839D01*
X129667262Y-157102625D01*
X129811131Y-157086351D01*
X129862576Y-157075243D01*
X130033925Y-157017138D01*
X130188107Y-156934149D01*
X130323691Y-156828228D01*
X130439247Y-156701327D01*
X130533343Y-156555396D01*
X130604550Y-156392386D01*
X130651438Y-156214249D01*
X130672574Y-156022936D01*
X130673682Y-155968892D01*
X130661582Y-155755901D01*
X130624509Y-155561427D01*
X130562440Y-155385407D01*
X130475352Y-155227777D01*
X130363222Y-155088473D01*
X130349975Y-155074887D01*
X130228304Y-154973784D01*
X130086768Y-154893584D01*
X129929534Y-154835434D01*
X129760768Y-154800483D01*
X129584639Y-154789879D01*
X129405313Y-154804772D01*
X129383271Y-154808416D01*
X129204221Y-154852933D01*
X129045753Y-154920658D01*
X128907180Y-155012093D01*
X128787814Y-155127745D01*
X128686970Y-155268117D01*
X128639910Y-155354501D01*
X128587158Y-155471410D01*
X128549919Y-155580637D01*
X128526056Y-155691889D01*
X128513433Y-155814874D01*
X128509913Y-155945151D01*
X128495759Y-156183482D01*
X128454719Y-156410100D01*
X128387442Y-156623254D01*
X128294574Y-156821192D01*
X128176763Y-157002161D01*
X128074584Y-157123400D01*
X127958114Y-157237240D01*
X127840111Y-157329402D01*
X127709659Y-157407868D01*
X127634004Y-157445567D01*
X127558780Y-157480240D01*
X127489486Y-157509934D01*
X127423025Y-157535033D01*
X127356298Y-157555920D01*
X127286205Y-157572979D01*
X127209648Y-157586593D01*
X127123527Y-157597145D01*
X127024745Y-157605019D01*
X126910201Y-157610599D01*
X126776797Y-157614267D01*
X126621434Y-157616407D01*
X126441014Y-157617402D01*
X126243211Y-157617636D01*
X125475812Y-157617636D01*
X125475812Y-157013323D01*
X126249633Y-157007305D01*
X126425654Y-157005882D01*
X126573541Y-157004497D01*
X126696267Y-157003019D01*
X126796806Y-157001314D01*
X126878132Y-156999252D01*
X126943219Y-156996699D01*
X126995040Y-156993524D01*
X127036569Y-156989595D01*
X127070779Y-156984779D01*
X127100644Y-156978944D01*
X127129139Y-156971958D01*
X127145613Y-156967492D01*
X127309879Y-156906550D01*
X127457495Y-156820309D01*
X127586251Y-156711023D01*
X127693936Y-156580947D01*
X127778342Y-156432335D01*
X127837258Y-156267441D01*
X127839221Y-156259883D01*
X127850998Y-156201349D01*
X127862911Y-156120219D01*
X127873904Y-156024984D01*
X127882921Y-155924134D01*
X127885490Y-155887931D01*
X127902195Y-155703595D01*
X127927472Y-155542069D01*
X127963086Y-155395811D01*
X128010803Y-155257276D01*
X128059007Y-155146668D01*
X128169122Y-154946976D01*
X128298938Y-154771357D01*
X128448464Y-154619803D01*
X128617708Y-154492309D01*
X128806681Y-154388867D01*
X129015391Y-154309469D01*
X129185487Y-154265568D01*
X129359713Y-154239304D01*
X129550029Y-154229044D01*
X129746009Y-154234527D01*
G37*
X129746009Y-154234527D02*
X129937227Y-154255489D01*
X130101559Y-154288623D01*
X130309956Y-154357305D01*
X130502093Y-154451914D01*
X130676647Y-154571087D01*
X130832297Y-154713464D01*
X130967718Y-154877682D01*
X131081590Y-155062380D01*
X131172588Y-155266198D01*
X131230167Y-155450343D01*
X131274618Y-155680818D01*
X131291827Y-155915989D01*
X131282380Y-156151532D01*
X131246864Y-156383125D01*
X131185866Y-156606444D01*
X131099970Y-156817167D01*
X131026423Y-156953076D01*
X130991001Y-157011785D01*
X131184201Y-157205450D01*
X131377401Y-157399116D01*
X131331500Y-157447026D01*
X131293392Y-157478813D01*
X131238994Y-157514730D01*
X131184676Y-157544621D01*
X131133617Y-157568389D01*
X131091192Y-157583064D01*
X131046672Y-157590768D01*
X130989326Y-157593623D01*
X130935661Y-157593872D01*
X130860761Y-157592483D01*
X130806605Y-157587588D01*
X130762872Y-157577320D01*
X130719240Y-157559811D01*
X130702021Y-157551596D01*
X130648221Y-157523125D01*
X130600111Y-157494041D01*
X130576857Y-157477467D01*
X130537241Y-157445182D01*
X130413538Y-157506260D01*
X130265207Y-157571846D01*
X130117611Y-157620385D01*
X129963556Y-157653358D01*
X129795851Y-157672241D01*
X129607303Y-157678516D01*
X129576193Y-157678457D01*
X129481006Y-157676402D01*
X129384879Y-157671747D01*
X129297688Y-157665134D01*
X129229312Y-157657203D01*
X129216595Y-157655139D01*
X129055957Y-157617931D01*
X128895457Y-157564306D01*
X128743764Y-157497849D01*
X128609548Y-157422144D01*
X128546654Y-157378118D01*
X128484346Y-157328917D01*
X128429297Y-157282456D01*
X128387316Y-157243841D01*
X128364207Y-157218180D01*
X128363462Y-157217026D01*
X128367005Y-157197557D01*
X128385044Y-157158693D01*
X128414423Y-157106655D01*
X128440839Y-157064505D01*
X128478836Y-157002538D01*
X128519183Y-156930635D01*
X128558806Y-156855041D01*
X128594629Y-156782000D01*
X128623577Y-156717756D01*
X128642577Y-156668554D01*
X128648626Y-156642529D01*
X128655675Y-156619185D01*
X128675792Y-156623984D01*
X128708896Y-156656874D01*
X128742267Y-156700041D01*
X128853505Y-156827398D01*
X128986623Y-156932777D01*
X129141163Y-157015851D01*
X129232150Y-157050910D01*
X129366011Y-157084450D01*
X129514969Y-157101839D01*
X129667262Y-157102625D01*
X129811131Y-157086351D01*
X129862576Y-157075243D01*
X130033925Y-157017138D01*
X130188107Y-156934149D01*
X130323691Y-156828228D01*
X130439247Y-156701327D01*
X130533343Y-156555396D01*
X130604550Y-156392386D01*
X130651438Y-156214249D01*
X130672574Y-156022936D01*
X130673682Y-155968892D01*
X130661582Y-155755901D01*
X130624509Y-155561427D01*
X130562440Y-155385407D01*
X130475352Y-155227777D01*
X130363222Y-155088473D01*
X130349975Y-155074887D01*
X130228304Y-154973784D01*
X130086768Y-154893584D01*
X129929534Y-154835434D01*
X129760768Y-154800483D01*
X129584639Y-154789879D01*
X129405313Y-154804772D01*
X129383271Y-154808416D01*
X129204221Y-154852933D01*
X129045753Y-154920658D01*
X128907180Y-155012093D01*
X128787814Y-155127745D01*
X128686970Y-155268117D01*
X128639910Y-155354501D01*
X128587158Y-155471410D01*
X128549919Y-155580637D01*
X128526056Y-155691889D01*
X128513433Y-155814874D01*
X128509913Y-155945151D01*
X128495759Y-156183482D01*
X128454719Y-156410100D01*
X128387442Y-156623254D01*
X128294574Y-156821192D01*
X128176763Y-157002161D01*
X128074584Y-157123400D01*
X127958114Y-157237240D01*
X127840111Y-157329402D01*
X127709659Y-157407868D01*
X127634004Y-157445567D01*
X127558780Y-157480240D01*
X127489486Y-157509934D01*
X127423025Y-157535033D01*
X127356298Y-157555920D01*
X127286205Y-157572979D01*
X127209648Y-157586593D01*
X127123527Y-157597145D01*
X127024745Y-157605019D01*
X126910201Y-157610599D01*
X126776797Y-157614267D01*
X126621434Y-157616407D01*
X126441014Y-157617402D01*
X126243211Y-157617636D01*
X125475812Y-157617636D01*
X125475812Y-157013323D01*
X126249633Y-157007305D01*
X126425654Y-157005882D01*
X126573541Y-157004497D01*
X126696267Y-157003019D01*
X126796806Y-157001314D01*
X126878132Y-156999252D01*
X126943219Y-156996699D01*
X126995040Y-156993524D01*
X127036569Y-156989595D01*
X127070779Y-156984779D01*
X127100644Y-156978944D01*
X127129139Y-156971958D01*
X127145613Y-156967492D01*
X127309879Y-156906550D01*
X127457495Y-156820309D01*
X127586251Y-156711023D01*
X127693936Y-156580947D01*
X127778342Y-156432335D01*
X127837258Y-156267441D01*
X127839221Y-156259883D01*
X127850998Y-156201349D01*
X127862911Y-156120219D01*
X127873904Y-156024984D01*
X127882921Y-155924134D01*
X127885490Y-155887931D01*
X127902195Y-155703595D01*
X127927472Y-155542069D01*
X127963086Y-155395811D01*
X128010803Y-155257276D01*
X128059007Y-155146668D01*
X128169122Y-154946976D01*
X128298938Y-154771357D01*
X128448464Y-154619803D01*
X128617708Y-154492309D01*
X128806681Y-154388867D01*
X129015391Y-154309469D01*
X129185487Y-154265568D01*
X129359713Y-154239304D01*
X129550029Y-154229044D01*
X129746009Y-154234527D01*
G36*
X128519553Y-149011683D02*
G01*
X128650240Y-149015796D01*
X128785362Y-149022127D01*
X128918221Y-149030251D01*
X129042119Y-149039746D01*
X129150357Y-149050184D01*
X129236238Y-149061143D01*
X129257041Y-149064539D01*
X129359704Y-149082534D01*
X129757420Y-150275990D01*
X129821423Y-150292913D01*
X129870069Y-150306091D01*
X129934087Y-150323841D01*
X129994305Y-150340816D01*
X130057554Y-150358796D01*
X130116865Y-150375630D01*
X130157624Y-150387170D01*
X130230145Y-150409453D01*
X130320705Y-150439908D01*
X130419307Y-150474920D01*
X130515951Y-150510874D01*
X130600640Y-150544154D01*
X130651931Y-150565914D01*
X130698098Y-150585834D01*
X130732296Y-150599190D01*
X130744601Y-150602695D01*
X130764792Y-150609650D01*
X130807386Y-150628820D01*
X130867398Y-150657660D01*
X130939848Y-150693625D01*
X131019751Y-150734173D01*
X131102126Y-150776758D01*
X131181989Y-150818837D01*
X131254359Y-150857864D01*
X131314252Y-150891297D01*
X131344178Y-150908850D01*
X131402199Y-150943355D01*
X131450267Y-150970802D01*
X131482259Y-150987759D01*
X131491802Y-150991549D01*
X131507675Y-150984816D01*
X131548316Y-150965607D01*
X131610693Y-150935408D01*
X131691776Y-150895706D01*
X131788533Y-150847986D01*
X131897933Y-150793736D01*
X132016944Y-150734440D01*
X132054923Y-150715462D01*
X132176279Y-150654792D01*
X132288906Y-150598505D01*
X132389778Y-150548114D01*
X132475865Y-150505131D01*
X132544140Y-150471067D01*
X132591574Y-150447435D01*
X132615138Y-150435745D01*
X132617113Y-150434788D01*
X132632686Y-150442118D01*
X132667250Y-150465696D01*
X132715949Y-150501789D01*
X132773929Y-150546668D01*
X132836334Y-150596599D01*
X132898310Y-150647853D01*
X132934048Y-150678362D01*
X133040980Y-150773384D01*
X133151340Y-150875849D01*
X133262918Y-150983340D01*
X133373503Y-151093441D01*
X133480886Y-151203735D01*
X133582857Y-151311806D01*
X133677204Y-151415237D01*
X133761719Y-151511612D01*
X133834191Y-151598514D01*
X133892410Y-151673526D01*
X133934165Y-151734233D01*
X133957247Y-151778218D01*
X133960521Y-151800693D01*
X133951575Y-151821033D01*
X133930240Y-151865897D01*
X133898118Y-151932027D01*
X133856809Y-152016162D01*
X133807916Y-152115044D01*
X133753039Y-152225410D01*
X133693779Y-152344003D01*
X133687730Y-152356076D01*
X133628421Y-152475161D01*
X133573768Y-152586310D01*
X133525315Y-152686277D01*
X133484602Y-152771820D01*
X133453172Y-152839694D01*
X133432568Y-152886656D01*
X133424330Y-152909463D01*
X133424245Y-152910332D01*
X133431838Y-152935817D01*
X133452396Y-152980056D01*
X133482251Y-153035515D01*
X133499984Y-153065874D01*
X133531355Y-153120959D01*
X133572187Y-153196726D01*
X133619036Y-153286365D01*
X133668460Y-153383067D01*
X133717014Y-153480020D01*
X133761255Y-153570415D01*
X133797739Y-153647442D01*
X133823022Y-153704290D01*
X133823980Y-153706601D01*
X133922276Y-153961371D01*
X134011477Y-154224973D01*
X134078271Y-154452358D01*
X134097834Y-154523892D01*
X134114576Y-154583642D01*
X134126805Y-154625681D01*
X134132833Y-154644080D01*
X134132999Y-154644357D01*
X134148179Y-154650301D01*
X134189721Y-154665017D01*
X134254478Y-154687431D01*
X134339306Y-154716466D01*
X134441056Y-154751047D01*
X134556584Y-154790099D01*
X134682743Y-154832547D01*
X134729951Y-154848383D01*
X134859233Y-154891814D01*
X134979078Y-154932260D01*
X135086329Y-154968640D01*
X135177827Y-154999877D01*
X135250415Y-155024889D01*
X135300935Y-155042598D01*
X135326229Y-155051924D01*
X135328546Y-155053016D01*
X135333997Y-155072541D01*
X135340833Y-155118965D01*
X135348672Y-155188128D01*
X135357127Y-155275872D01*
X135365815Y-155378038D01*
X135374351Y-155490466D01*
X135382350Y-155608997D01*
X135386868Y-155683670D01*
X135394360Y-155901019D01*
X135393503Y-156137770D01*
X135384631Y-156383453D01*
X135368081Y-156627598D01*
X135351096Y-156801041D01*
X135333631Y-156956583D01*
X134794893Y-157134814D01*
X134638209Y-157186595D01*
X134508385Y-157229580D01*
X134402810Y-157264938D01*
X134318872Y-157293835D01*
X134253961Y-157317437D01*
X134205465Y-157336911D01*
X134170774Y-157353425D01*
X134147276Y-157368145D01*
X134132361Y-157382238D01*
X134123418Y-157396870D01*
X134117836Y-157413208D01*
X134113003Y-157432420D01*
X134110885Y-157440480D01*
X134072511Y-157576955D01*
X134033944Y-157707470D01*
X133996774Y-157827029D01*
X133962593Y-157930635D01*
X133932991Y-158013291D01*
X133912646Y-158063282D01*
X133897612Y-158101443D01*
X133890683Y-158128283D01*
X133890631Y-158129598D01*
X133883603Y-158156927D01*
X133875661Y-158173910D01*
X133860404Y-158204362D01*
X133839846Y-158248951D01*
X133817865Y-158298758D01*
X133798341Y-158344866D01*
X133785152Y-158378357D01*
X133781752Y-158389820D01*
X133774873Y-158409098D01*
X133755953Y-158450741D01*
X133727566Y-158509649D01*
X133692285Y-158580725D01*
X133652684Y-158658870D01*
X133611336Y-158738988D01*
X133570816Y-158815980D01*
X133533697Y-158884748D01*
X133513982Y-158920202D01*
X133478562Y-158984631D01*
X133449705Y-159040368D01*
X133430500Y-159081225D01*
X133424005Y-159100543D01*
X133430759Y-159118677D01*
X133450023Y-159161479D01*
X133480299Y-159225837D01*
X133520089Y-159308643D01*
X133567897Y-159406786D01*
X133622223Y-159517156D01*
X133681572Y-159636645D01*
X133698563Y-159670667D01*
X133779166Y-159833082D01*
X133844953Y-159968278D01*
X133895913Y-160076235D01*
X133932038Y-160156931D01*
X133953317Y-160210348D01*
X133959741Y-160236463D01*
X133959096Y-160238634D01*
X133940937Y-160264012D01*
X133915932Y-160299974D01*
X133914238Y-160302442D01*
X133856787Y-160379833D01*
X133780020Y-160473707D01*
X133687886Y-160579897D01*
X133584337Y-160694240D01*
X133473323Y-160812568D01*
X133358797Y-160930718D01*
X133244708Y-161044524D01*
X133135009Y-161149821D01*
X133033650Y-161242443D01*
X132972504Y-161295225D01*
X132915422Y-161343311D01*
X132867322Y-161384312D01*
X132833088Y-161414030D01*
X132817603Y-161428271D01*
X132817391Y-161428523D01*
X132800134Y-161443864D01*
X132766459Y-161469845D01*
X132724204Y-161500849D01*
X132681202Y-161531257D01*
X132645290Y-161555453D01*
X132624304Y-161567818D01*
X132622297Y-161568402D01*
X132606677Y-161561686D01*
X132566285Y-161542531D01*
X132504166Y-161512430D01*
X132423363Y-161472874D01*
X132326921Y-161425354D01*
X132217882Y-161371363D01*
X132099291Y-161312391D01*
X132066822Y-161296203D01*
X131945777Y-161236071D01*
X131833053Y-161180544D01*
X131731765Y-161131120D01*
X131645026Y-161089299D01*
X131575952Y-161056580D01*
X131527657Y-161034462D01*
X131503257Y-161024443D01*
X131501248Y-161024005D01*
X131477474Y-161031076D01*
X131437092Y-161048892D01*
X131390269Y-161072359D01*
X131347169Y-161096385D01*
X131318044Y-161115803D01*
X131298471Y-161127669D01*
X131257403Y-161149955D01*
X131200406Y-161179850D01*
X131133040Y-161214540D01*
X131060870Y-161251213D01*
X130989458Y-161287057D01*
X130924367Y-161319259D01*
X130871160Y-161345005D01*
X130835400Y-161361484D01*
X130822991Y-161366109D01*
X130803792Y-161372231D01*
X130765774Y-161387975D01*
X130729666Y-161404199D01*
X130598122Y-161460898D01*
X130444149Y-161520233D01*
X130275946Y-161579388D01*
X130101713Y-161635544D01*
X129929646Y-161685885D01*
X129840796Y-161709589D01*
X129791264Y-161725842D01*
X129762551Y-161746910D01*
X129745643Y-161777036D01*
X129736413Y-161802428D01*
X129718619Y-161853744D01*
X129693481Y-161927376D01*
X129662222Y-162019718D01*
X129626060Y-162127162D01*
X129586217Y-162246103D01*
X129543914Y-162372934D01*
X129541555Y-162380024D01*
X129356882Y-162935001D01*
X129224522Y-162945550D01*
X129152797Y-162952252D01*
X129083410Y-162960391D01*
X129029485Y-162968397D01*
X129022168Y-162969755D01*
X128982604Y-162974423D01*
X128917002Y-162978682D01*
X128830427Y-162982457D01*
X128727948Y-162985678D01*
X128614632Y-162988271D01*
X128495546Y-162990165D01*
X128375758Y-162991286D01*
X128260334Y-162991562D01*
X128154342Y-162990920D01*
X128062850Y-162989290D01*
X127990925Y-162986596D01*
X127964483Y-162984877D01*
X127880881Y-162977770D01*
X127791936Y-162969450D01*
X127703162Y-162960521D01*
X127620074Y-162951589D01*
X127548189Y-162943258D01*
X127493022Y-162936135D01*
X127460087Y-162930824D01*
X127453327Y-162928794D01*
X127447295Y-162913281D01*
X127432626Y-162871567D01*
X127410451Y-162806988D01*
X127381902Y-162722878D01*
X127348111Y-162622571D01*
X127310209Y-162509402D01*
X127270332Y-162389722D01*
X127218212Y-162232625D01*
X127175033Y-162102392D01*
X127139671Y-161996453D01*
X127111000Y-161912237D01*
X127087896Y-161847173D01*
X127069235Y-161798692D01*
X127053890Y-161764222D01*
X127040738Y-161741193D01*
X127028652Y-161727034D01*
X127016510Y-161719175D01*
X127003185Y-161715046D01*
X126987552Y-161712075D01*
X126972327Y-161708727D01*
X126870576Y-161681834D01*
X126771674Y-161654585D01*
X126680575Y-161628451D01*
X126602232Y-161604902D01*
X126541598Y-161585408D01*
X126503628Y-161571440D01*
X126494611Y-161566936D01*
X126469736Y-161556756D01*
X126429787Y-161545913D01*
X126425128Y-161544889D01*
X126381485Y-161533358D01*
X126348772Y-161521053D01*
X126347357Y-161520307D01*
X126308856Y-161501259D01*
X126260745Y-161480030D01*
X126213070Y-161460730D01*
X126175880Y-161447473D01*
X126160838Y-161443968D01*
X126134031Y-161437118D01*
X126117211Y-161429424D01*
X126094811Y-161418169D01*
X126049472Y-161395993D01*
X125986326Y-161365383D01*
X125910502Y-161328830D01*
X125841335Y-161295624D01*
X125748773Y-161250332D01*
X125655221Y-161202918D01*
X125568805Y-161157610D01*
X125497649Y-161118639D01*
X125465874Y-161100186D01*
X125407604Y-161066908D01*
X125356680Y-161041058D01*
X125320628Y-161026308D01*
X125310332Y-161024245D01*
X125290280Y-161031080D01*
X125245727Y-161050445D01*
X125179918Y-161080799D01*
X125096097Y-161120600D01*
X124997507Y-161168305D01*
X124887391Y-161222372D01*
X124768994Y-161281261D01*
X124756076Y-161287730D01*
X124636820Y-161347348D01*
X124525443Y-161402748D01*
X124425210Y-161452328D01*
X124339384Y-161494487D01*
X124271230Y-161527620D01*
X124224011Y-161550126D01*
X124200993Y-161560401D01*
X124200159Y-161560691D01*
X124171398Y-161555437D01*
X124124226Y-161529263D01*
X124060982Y-161484429D01*
X123984000Y-161423196D01*
X123895618Y-161347823D01*
X123798171Y-161260571D01*
X123693995Y-161163701D01*
X123585428Y-161059472D01*
X123474805Y-160950145D01*
X123364463Y-160837981D01*
X123256737Y-160725240D01*
X123153964Y-160614181D01*
X123058481Y-160507066D01*
X122972623Y-160406155D01*
X122898727Y-160313708D01*
X122865728Y-160269627D01*
X122831765Y-160222964D01*
X123111657Y-159664787D01*
X123172705Y-159542759D01*
X123229162Y-159429362D01*
X123279544Y-159327614D01*
X123322372Y-159240532D01*
X123356164Y-159171131D01*
X123379438Y-159122430D01*
X123390712Y-159097444D01*
X123391549Y-159094865D01*
X123384077Y-159077443D01*
X123363843Y-159039362D01*
X123334128Y-158986616D01*
X123305537Y-158937560D01*
X123237603Y-158818527D01*
X123172474Y-158695419D01*
X123107948Y-158563489D01*
X123041821Y-158417992D01*
X122971891Y-158254182D01*
X122895957Y-158067313D01*
X122862668Y-157983160D01*
X122835701Y-157908669D01*
X122804360Y-157812653D01*
X122771310Y-157703889D01*
X122739210Y-157591153D01*
X122710726Y-157483221D01*
X122709329Y-157477649D01*
X122680186Y-157360992D01*
X122145390Y-157181646D01*
X122022270Y-157140247D01*
X121908296Y-157101709D01*
X121806877Y-157067204D01*
X121721424Y-157037899D01*
X121655345Y-157014964D01*
X121612051Y-156999567D01*
X121595040Y-156992937D01*
X121569671Y-156983220D01*
X121531298Y-156973250D01*
X121505351Y-156965689D01*
X121489046Y-156951789D01*
X121478036Y-156924015D01*
X121467971Y-156874836D01*
X121465152Y-156858653D01*
X121455071Y-156786533D01*
X121444995Y-156690084D01*
X121435365Y-156576081D01*
X121426622Y-156451300D01*
X121419206Y-156322517D01*
X121413560Y-156196506D01*
X121410124Y-156080044D01*
X121409628Y-156033985D01*
X123623307Y-156033985D01*
X123625400Y-156190974D01*
X123630359Y-156340160D01*
X123638180Y-156475084D01*
X123648860Y-156589289D01*
X123656480Y-156644201D01*
X123683634Y-156804464D01*
X123709960Y-156947613D01*
X123734683Y-157069718D01*
X123757026Y-157166849D01*
X123767241Y-157205450D01*
X123786688Y-157274933D01*
X123806473Y-157346345D01*
X123820140Y-157396255D01*
X123837363Y-157452570D01*
X123863616Y-157529756D01*
X123895986Y-157619957D01*
X123931560Y-157715321D01*
X123967425Y-157807992D01*
X124000667Y-157890118D01*
X124020538Y-157936497D01*
X124173419Y-158248672D01*
X124351963Y-158555361D01*
X124550887Y-158847903D01*
X124675076Y-159009618D01*
X124817434Y-159175769D01*
X124982463Y-159349393D01*
X125164560Y-159524986D01*
X125358124Y-159697044D01*
X125468034Y-159788657D01*
X125517809Y-159826760D01*
X125587076Y-159876562D01*
X125668885Y-159933377D01*
X125756285Y-159992518D01*
X125842326Y-160049299D01*
X125920057Y-160099034D01*
X125982528Y-160137036D01*
X125996877Y-160145237D01*
X126113142Y-160209678D01*
X126208377Y-160261036D01*
X126288237Y-160302216D01*
X126358378Y-160336125D01*
X126424453Y-160365667D01*
X126432630Y-160369165D01*
X126495885Y-160396200D01*
X126553729Y-160421107D01*
X126595955Y-160439484D01*
X126603491Y-160442817D01*
X126652493Y-160462827D01*
X126722817Y-160489243D01*
X126806109Y-160519137D01*
X126894015Y-160549584D01*
X126978181Y-160577655D01*
X127050253Y-160600424D01*
X127070116Y-160606321D01*
X127137721Y-160625106D01*
X127209704Y-160643234D01*
X127292798Y-160662249D01*
X127393732Y-160683699D01*
X127505634Y-160706414D01*
X127753002Y-160747011D01*
X128017569Y-160774348D01*
X128289511Y-160788062D01*
X128559005Y-160787790D01*
X128816229Y-160773172D01*
X128944397Y-160759461D01*
X129071476Y-160742681D01*
X129181727Y-160726383D01*
X129287589Y-160708497D01*
X129401500Y-160686948D01*
X129504348Y-160666182D01*
X129574726Y-160649758D01*
X129662478Y-160626391D01*
X129759485Y-160598542D01*
X129857633Y-160568672D01*
X129948803Y-160539240D01*
X130024880Y-160512708D01*
X130072076Y-160494072D01*
X130103573Y-160481110D01*
X130151748Y-160462136D01*
X130188733Y-160447912D01*
X130389737Y-160363283D01*
X130602266Y-160258930D01*
X130818291Y-160139321D01*
X131029781Y-160008927D01*
X131228707Y-159872216D01*
X131246418Y-159859241D01*
X131410080Y-159730634D01*
X131581128Y-159581698D01*
X131753118Y-159418877D01*
X131919602Y-159248616D01*
X132074134Y-159077361D01*
X132210268Y-158911556D01*
X132259437Y-158846418D01*
X132384086Y-158666961D01*
X132505159Y-158474640D01*
X132618526Y-158276877D01*
X132720054Y-158081093D01*
X132805611Y-157894710D01*
X132848221Y-157788733D01*
X132868316Y-157736256D01*
X132885898Y-157691763D01*
X132894072Y-157672076D01*
X132917175Y-157612710D01*
X132945216Y-157530515D01*
X132975960Y-157432934D01*
X133007167Y-157327406D01*
X133036601Y-157221375D01*
X133062026Y-157122280D01*
X133071771Y-157081017D01*
X133123298Y-156813902D01*
X133160631Y-156530927D01*
X133183221Y-156241122D01*
X133190520Y-155953517D01*
X133181980Y-155677142D01*
X133167417Y-155505411D01*
X133156871Y-155411435D01*
X133147370Y-155335196D01*
X133137381Y-155267142D01*
X133125369Y-155197718D01*
X133109802Y-155117371D01*
X133089146Y-155016547D01*
X133088266Y-155012309D01*
X133059657Y-154885661D01*
X133025099Y-154750482D01*
X132986743Y-154613974D01*
X132946742Y-154483336D01*
X132907246Y-154365769D01*
X132870408Y-154268474D01*
X132855891Y-154234599D01*
X132839017Y-154195881D01*
X132815701Y-154140870D01*
X132793209Y-154086834D01*
X132760478Y-154012684D01*
X132716284Y-153920001D01*
X132664820Y-153817135D01*
X132610279Y-153712434D01*
X132556856Y-153614247D01*
X132547099Y-153596877D01*
X132404685Y-153366759D01*
X132237123Y-153133721D01*
X132049282Y-152903006D01*
X131846033Y-152679856D01*
X131632245Y-152469514D01*
X131412788Y-152277224D01*
X131192531Y-152108228D01*
X131114207Y-152054252D01*
X131053895Y-152013948D01*
X130994738Y-151974340D01*
X130948244Y-151943134D01*
X130943111Y-151939679D01*
X130828735Y-151868659D01*
X130688037Y-151791472D01*
X130524749Y-151709976D01*
X130342603Y-151626030D01*
X130145332Y-151541492D01*
X130134293Y-151536935D01*
X129992707Y-151483167D01*
X129841917Y-151433677D01*
X129745438Y-151406238D01*
X129713424Y-151397393D01*
X129664478Y-151383435D01*
X129628782Y-151373090D01*
X129502774Y-151340561D01*
X129352866Y-151309006D01*
X129186262Y-151279732D01*
X129010168Y-151254048D01*
X128897734Y-151240315D01*
X128833761Y-151235301D01*
X128744998Y-151231414D01*
X128637747Y-151228655D01*
X128518307Y-151227030D01*
X128392977Y-151226539D01*
X128268058Y-151227186D01*
X128149848Y-151228973D01*
X128044648Y-151231904D01*
X127958757Y-151235981D01*
X127910043Y-151239872D01*
X127701325Y-151265160D01*
X127508775Y-151296296D01*
X127322351Y-151335469D01*
X127132014Y-151384866D01*
X126927723Y-151446675D01*
X126860135Y-151468651D01*
X126790560Y-151491886D01*
X126729538Y-151512806D01*
X126684639Y-151528783D01*
X126665707Y-151536113D01*
X126635112Y-151549569D01*
X126587567Y-151570550D01*
X126544701Y-151589499D01*
X126496496Y-151610192D01*
X126460249Y-151624576D01*
X126445055Y-151629271D01*
X126421039Y-151636900D01*
X126374898Y-151658112D01*
X126311130Y-151690393D01*
X126234229Y-151731232D01*
X126148694Y-151778116D01*
X126059019Y-151828531D01*
X125969702Y-151879965D01*
X125885239Y-151929906D01*
X125810126Y-151975841D01*
X125748860Y-152015257D01*
X125724679Y-152031838D01*
X125676979Y-152065316D01*
X125633319Y-152095517D01*
X125615799Y-152107413D01*
X125502381Y-152189883D01*
X125375817Y-152293089D01*
X125240833Y-152412306D01*
X125102155Y-152542808D01*
X124964509Y-152679868D01*
X124832621Y-152818761D01*
X124711216Y-152954761D01*
X124605021Y-153083142D01*
X124518761Y-153199177D01*
X124507449Y-153215799D01*
X124482205Y-153252722D01*
X124449690Y-153299417D01*
X124437377Y-153316902D01*
X124335179Y-153472515D01*
X124231477Y-153650685D01*
X124130117Y-153843448D01*
X124034947Y-154042840D01*
X123949813Y-154240898D01*
X123878563Y-154429658D01*
X123836286Y-154561237D01*
X123819342Y-154617946D01*
X123803763Y-154667929D01*
X123795301Y-154693448D01*
X123778441Y-154749707D01*
X123758140Y-154831195D01*
X123735558Y-154932377D01*
X123711857Y-155047714D01*
X123688198Y-155171670D01*
X123665742Y-155298709D01*
X123655918Y-155358004D01*
X123643643Y-155457145D01*
X123634247Y-155580772D01*
X123627727Y-155722426D01*
X123624082Y-155875649D01*
X123623307Y-156033985D01*
X121409628Y-156033985D01*
X121409261Y-156000000D01*
X121410646Y-155899392D01*
X121414474Y-155784801D01*
X121420324Y-155662433D01*
X121427777Y-155538497D01*
X121436411Y-155419200D01*
X121445805Y-155310749D01*
X121455540Y-155219353D01*
X121465195Y-155151220D01*
X121467668Y-155137942D01*
X121486161Y-155045816D01*
X122072683Y-154850189D01*
X122201749Y-154806877D01*
X122321693Y-154766118D01*
X122429272Y-154729052D01*
X122521247Y-154696818D01*
X122594375Y-154670555D01*
X122645415Y-154651404D01*
X122671127Y-154640504D01*
X122673421Y-154639008D01*
X122683600Y-154617150D01*
X122697513Y-154573584D01*
X122712427Y-154517033D01*
X122714855Y-154506797D01*
X122736279Y-154424570D01*
X122766598Y-154321319D01*
X122803247Y-154204937D01*
X122843655Y-154083319D01*
X122885255Y-153964359D01*
X122925478Y-153855952D01*
X122932452Y-153837967D01*
X122966073Y-153756654D01*
X123009793Y-153657887D01*
X123060548Y-153547968D01*
X123115278Y-153433198D01*
X123170918Y-153319875D01*
X123224408Y-153214301D01*
X123272685Y-153122776D01*
X123312687Y-153051601D01*
X123322831Y-153034810D01*
X123354320Y-152982411D01*
X123378170Y-152939794D01*
X123390496Y-152914012D01*
X123391372Y-152910377D01*
X123384580Y-152893972D01*
X123365273Y-152852816D01*
X123334934Y-152789938D01*
X123295046Y-152708366D01*
X123247095Y-152611130D01*
X123192562Y-152501258D01*
X123132933Y-152381781D01*
X123111485Y-152338957D01*
X122831775Y-151780976D01*
X122912380Y-151677904D01*
X123156973Y-151384311D01*
X123425735Y-151096846D01*
X123711736Y-150822391D01*
X124008048Y-150567830D01*
X124116876Y-150481633D01*
X124181150Y-150431886D01*
X124742051Y-150711718D01*
X124864407Y-150772630D01*
X124978089Y-150828974D01*
X125080090Y-150879277D01*
X125167401Y-150922068D01*
X125237016Y-150955873D01*
X125285926Y-150979222D01*
X125311123Y-150990642D01*
X125313819Y-150991549D01*
X125331426Y-150983814D01*
X125367648Y-150963437D01*
X125414973Y-150934665D01*
X125419691Y-150931702D01*
X125479706Y-150896373D01*
X125561488Y-150851708D01*
X125658389Y-150801031D01*
X125763761Y-150747667D01*
X125870955Y-150694941D01*
X125973323Y-150646175D01*
X126064217Y-150604696D01*
X126129088Y-150576999D01*
X126191575Y-150551482D01*
X126245916Y-150528978D01*
X126283566Y-150513037D01*
X126292407Y-150509126D01*
X126322216Y-150497685D01*
X126375760Y-150479233D01*
X126446972Y-150455687D01*
X126529788Y-150428969D01*
X126618144Y-150400996D01*
X126705975Y-150373690D01*
X126787215Y-150348969D01*
X126855801Y-150328753D01*
X126905666Y-150314961D01*
X126906797Y-150314670D01*
X126961996Y-150299699D01*
X127006869Y-150286092D01*
X127030304Y-150277385D01*
X127040115Y-150260475D01*
X127058416Y-150217031D01*
X127084097Y-150150111D01*
X127116044Y-150062769D01*
X127153143Y-149958063D01*
X127194283Y-149839048D01*
X127238351Y-149708779D01*
X127249262Y-149676109D01*
X127445816Y-149086161D01*
X127537942Y-149067647D01*
X127605053Y-149057017D01*
X127697042Y-149046546D01*
X127807676Y-149036648D01*
X127930725Y-149027738D01*
X128059958Y-149020232D01*
X128189145Y-149014545D01*
X128312054Y-149011091D01*
X128400000Y-149010214D01*
X128519553Y-149011683D01*
G37*
X128519553Y-149011683D02*
X128650240Y-149015796D01*
X128785362Y-149022127D01*
X128918221Y-149030251D01*
X129042119Y-149039746D01*
X129150357Y-149050184D01*
X129236238Y-149061143D01*
X129257041Y-149064539D01*
X129359704Y-149082534D01*
X129757420Y-150275990D01*
X129821423Y-150292913D01*
X129870069Y-150306091D01*
X129934087Y-150323841D01*
X129994305Y-150340816D01*
X130057554Y-150358796D01*
X130116865Y-150375630D01*
X130157624Y-150387170D01*
X130230145Y-150409453D01*
X130320705Y-150439908D01*
X130419307Y-150474920D01*
X130515951Y-150510874D01*
X130600640Y-150544154D01*
X130651931Y-150565914D01*
X130698098Y-150585834D01*
X130732296Y-150599190D01*
X130744601Y-150602695D01*
X130764792Y-150609650D01*
X130807386Y-150628820D01*
X130867398Y-150657660D01*
X130939848Y-150693625D01*
X131019751Y-150734173D01*
X131102126Y-150776758D01*
X131181989Y-150818837D01*
X131254359Y-150857864D01*
X131314252Y-150891297D01*
X131344178Y-150908850D01*
X131402199Y-150943355D01*
X131450267Y-150970802D01*
X131482259Y-150987759D01*
X131491802Y-150991549D01*
X131507675Y-150984816D01*
X131548316Y-150965607D01*
X131610693Y-150935408D01*
X131691776Y-150895706D01*
X131788533Y-150847986D01*
X131897933Y-150793736D01*
X132016944Y-150734440D01*
X132054923Y-150715462D01*
X132176279Y-150654792D01*
X132288906Y-150598505D01*
X132389778Y-150548114D01*
X132475865Y-150505131D01*
X132544140Y-150471067D01*
X132591574Y-150447435D01*
X132615138Y-150435745D01*
X132617113Y-150434788D01*
X132632686Y-150442118D01*
X132667250Y-150465696D01*
X132715949Y-150501789D01*
X132773929Y-150546668D01*
X132836334Y-150596599D01*
X132898310Y-150647853D01*
X132934048Y-150678362D01*
X133040980Y-150773384D01*
X133151340Y-150875849D01*
X133262918Y-150983340D01*
X133373503Y-151093441D01*
X133480886Y-151203735D01*
X133582857Y-151311806D01*
X133677204Y-151415237D01*
X133761719Y-151511612D01*
X133834191Y-151598514D01*
X133892410Y-151673526D01*
X133934165Y-151734233D01*
X133957247Y-151778218D01*
X133960521Y-151800693D01*
X133951575Y-151821033D01*
X133930240Y-151865897D01*
X133898118Y-151932027D01*
X133856809Y-152016162D01*
X133807916Y-152115044D01*
X133753039Y-152225410D01*
X133693779Y-152344003D01*
X133687730Y-152356076D01*
X133628421Y-152475161D01*
X133573768Y-152586310D01*
X133525315Y-152686277D01*
X133484602Y-152771820D01*
X133453172Y-152839694D01*
X133432568Y-152886656D01*
X133424330Y-152909463D01*
X133424245Y-152910332D01*
X133431838Y-152935817D01*
X133452396Y-152980056D01*
X133482251Y-153035515D01*
X133499984Y-153065874D01*
X133531355Y-153120959D01*
X133572187Y-153196726D01*
X133619036Y-153286365D01*
X133668460Y-153383067D01*
X133717014Y-153480020D01*
X133761255Y-153570415D01*
X133797739Y-153647442D01*
X133823022Y-153704290D01*
X133823980Y-153706601D01*
X133922276Y-153961371D01*
X134011477Y-154224973D01*
X134078271Y-154452358D01*
X134097834Y-154523892D01*
X134114576Y-154583642D01*
X134126805Y-154625681D01*
X134132833Y-154644080D01*
X134132999Y-154644357D01*
X134148179Y-154650301D01*
X134189721Y-154665017D01*
X134254478Y-154687431D01*
X134339306Y-154716466D01*
X134441056Y-154751047D01*
X134556584Y-154790099D01*
X134682743Y-154832547D01*
X134729951Y-154848383D01*
X134859233Y-154891814D01*
X134979078Y-154932260D01*
X135086329Y-154968640D01*
X135177827Y-154999877D01*
X135250415Y-155024889D01*
X135300935Y-155042598D01*
X135326229Y-155051924D01*
X135328546Y-155053016D01*
X135333997Y-155072541D01*
X135340833Y-155118965D01*
X135348672Y-155188128D01*
X135357127Y-155275872D01*
X135365815Y-155378038D01*
X135374351Y-155490466D01*
X135382350Y-155608997D01*
X135386868Y-155683670D01*
X135394360Y-155901019D01*
X135393503Y-156137770D01*
X135384631Y-156383453D01*
X135368081Y-156627598D01*
X135351096Y-156801041D01*
X135333631Y-156956583D01*
X134794893Y-157134814D01*
X134638209Y-157186595D01*
X134508385Y-157229580D01*
X134402810Y-157264938D01*
X134318872Y-157293835D01*
X134253961Y-157317437D01*
X134205465Y-157336911D01*
X134170774Y-157353425D01*
X134147276Y-157368145D01*
X134132361Y-157382238D01*
X134123418Y-157396870D01*
X134117836Y-157413208D01*
X134113003Y-157432420D01*
X134110885Y-157440480D01*
X134072511Y-157576955D01*
X134033944Y-157707470D01*
X133996774Y-157827029D01*
X133962593Y-157930635D01*
X133932991Y-158013291D01*
X133912646Y-158063282D01*
X133897612Y-158101443D01*
X133890683Y-158128283D01*
X133890631Y-158129598D01*
X133883603Y-158156927D01*
X133875661Y-158173910D01*
X133860404Y-158204362D01*
X133839846Y-158248951D01*
X133817865Y-158298758D01*
X133798341Y-158344866D01*
X133785152Y-158378357D01*
X133781752Y-158389820D01*
X133774873Y-158409098D01*
X133755953Y-158450741D01*
X133727566Y-158509649D01*
X133692285Y-158580725D01*
X133652684Y-158658870D01*
X133611336Y-158738988D01*
X133570816Y-158815980D01*
X133533697Y-158884748D01*
X133513982Y-158920202D01*
X133478562Y-158984631D01*
X133449705Y-159040368D01*
X133430500Y-159081225D01*
X133424005Y-159100543D01*
X133430759Y-159118677D01*
X133450023Y-159161479D01*
X133480299Y-159225837D01*
X133520089Y-159308643D01*
X133567897Y-159406786D01*
X133622223Y-159517156D01*
X133681572Y-159636645D01*
X133698563Y-159670667D01*
X133779166Y-159833082D01*
X133844953Y-159968278D01*
X133895913Y-160076235D01*
X133932038Y-160156931D01*
X133953317Y-160210348D01*
X133959741Y-160236463D01*
X133959096Y-160238634D01*
X133940937Y-160264012D01*
X133915932Y-160299974D01*
X133914238Y-160302442D01*
X133856787Y-160379833D01*
X133780020Y-160473707D01*
X133687886Y-160579897D01*
X133584337Y-160694240D01*
X133473323Y-160812568D01*
X133358797Y-160930718D01*
X133244708Y-161044524D01*
X133135009Y-161149821D01*
X133033650Y-161242443D01*
X132972504Y-161295225D01*
X132915422Y-161343311D01*
X132867322Y-161384312D01*
X132833088Y-161414030D01*
X132817603Y-161428271D01*
X132817391Y-161428523D01*
X132800134Y-161443864D01*
X132766459Y-161469845D01*
X132724204Y-161500849D01*
X132681202Y-161531257D01*
X132645290Y-161555453D01*
X132624304Y-161567818D01*
X132622297Y-161568402D01*
X132606677Y-161561686D01*
X132566285Y-161542531D01*
X132504166Y-161512430D01*
X132423363Y-161472874D01*
X132326921Y-161425354D01*
X132217882Y-161371363D01*
X132099291Y-161312391D01*
X132066822Y-161296203D01*
X131945777Y-161236071D01*
X131833053Y-161180544D01*
X131731765Y-161131120D01*
X131645026Y-161089299D01*
X131575952Y-161056580D01*
X131527657Y-161034462D01*
X131503257Y-161024443D01*
X131501248Y-161024005D01*
X131477474Y-161031076D01*
X131437092Y-161048892D01*
X131390269Y-161072359D01*
X131347169Y-161096385D01*
X131318044Y-161115803D01*
X131298471Y-161127669D01*
X131257403Y-161149955D01*
X131200406Y-161179850D01*
X131133040Y-161214540D01*
X131060870Y-161251213D01*
X130989458Y-161287057D01*
X130924367Y-161319259D01*
X130871160Y-161345005D01*
X130835400Y-161361484D01*
X130822991Y-161366109D01*
X130803792Y-161372231D01*
X130765774Y-161387975D01*
X130729666Y-161404199D01*
X130598122Y-161460898D01*
X130444149Y-161520233D01*
X130275946Y-161579388D01*
X130101713Y-161635544D01*
X129929646Y-161685885D01*
X129840796Y-161709589D01*
X129791264Y-161725842D01*
X129762551Y-161746910D01*
X129745643Y-161777036D01*
X129736413Y-161802428D01*
X129718619Y-161853744D01*
X129693481Y-161927376D01*
X129662222Y-162019718D01*
X129626060Y-162127162D01*
X129586217Y-162246103D01*
X129543914Y-162372934D01*
X129541555Y-162380024D01*
X129356882Y-162935001D01*
X129224522Y-162945550D01*
X129152797Y-162952252D01*
X129083410Y-162960391D01*
X129029485Y-162968397D01*
X129022168Y-162969755D01*
X128982604Y-162974423D01*
X128917002Y-162978682D01*
X128830427Y-162982457D01*
X128727948Y-162985678D01*
X128614632Y-162988271D01*
X128495546Y-162990165D01*
X128375758Y-162991286D01*
X128260334Y-162991562D01*
X128154342Y-162990920D01*
X128062850Y-162989290D01*
X127990925Y-162986596D01*
X127964483Y-162984877D01*
X127880881Y-162977770D01*
X127791936Y-162969450D01*
X127703162Y-162960521D01*
X127620074Y-162951589D01*
X127548189Y-162943258D01*
X127493022Y-162936135D01*
X127460087Y-162930824D01*
X127453327Y-162928794D01*
X127447295Y-162913281D01*
X127432626Y-162871567D01*
X127410451Y-162806988D01*
X127381902Y-162722878D01*
X127348111Y-162622571D01*
X127310209Y-162509402D01*
X127270332Y-162389722D01*
X127218212Y-162232625D01*
X127175033Y-162102392D01*
X127139671Y-161996453D01*
X127111000Y-161912237D01*
X127087896Y-161847173D01*
X127069235Y-161798692D01*
X127053890Y-161764222D01*
X127040738Y-161741193D01*
X127028652Y-161727034D01*
X127016510Y-161719175D01*
X127003185Y-161715046D01*
X126987552Y-161712075D01*
X126972327Y-161708727D01*
X126870576Y-161681834D01*
X126771674Y-161654585D01*
X126680575Y-161628451D01*
X126602232Y-161604902D01*
X126541598Y-161585408D01*
X126503628Y-161571440D01*
X126494611Y-161566936D01*
X126469736Y-161556756D01*
X126429787Y-161545913D01*
X126425128Y-161544889D01*
X126381485Y-161533358D01*
X126348772Y-161521053D01*
X126347357Y-161520307D01*
X126308856Y-161501259D01*
X126260745Y-161480030D01*
X126213070Y-161460730D01*
X126175880Y-161447473D01*
X126160838Y-161443968D01*
X126134031Y-161437118D01*
X126117211Y-161429424D01*
X126094811Y-161418169D01*
X126049472Y-161395993D01*
X125986326Y-161365383D01*
X125910502Y-161328830D01*
X125841335Y-161295624D01*
X125748773Y-161250332D01*
X125655221Y-161202918D01*
X125568805Y-161157610D01*
X125497649Y-161118639D01*
X125465874Y-161100186D01*
X125407604Y-161066908D01*
X125356680Y-161041058D01*
X125320628Y-161026308D01*
X125310332Y-161024245D01*
X125290280Y-161031080D01*
X125245727Y-161050445D01*
X125179918Y-161080799D01*
X125096097Y-161120600D01*
X124997507Y-161168305D01*
X124887391Y-161222372D01*
X124768994Y-161281261D01*
X124756076Y-161287730D01*
X124636820Y-161347348D01*
X124525443Y-161402748D01*
X124425210Y-161452328D01*
X124339384Y-161494487D01*
X124271230Y-161527620D01*
X124224011Y-161550126D01*
X124200993Y-161560401D01*
X124200159Y-161560691D01*
X124171398Y-161555437D01*
X124124226Y-161529263D01*
X124060982Y-161484429D01*
X123984000Y-161423196D01*
X123895618Y-161347823D01*
X123798171Y-161260571D01*
X123693995Y-161163701D01*
X123585428Y-161059472D01*
X123474805Y-160950145D01*
X123364463Y-160837981D01*
X123256737Y-160725240D01*
X123153964Y-160614181D01*
X123058481Y-160507066D01*
X122972623Y-160406155D01*
X122898727Y-160313708D01*
X122865728Y-160269627D01*
X122831765Y-160222964D01*
X123111657Y-159664787D01*
X123172705Y-159542759D01*
X123229162Y-159429362D01*
X123279544Y-159327614D01*
X123322372Y-159240532D01*
X123356164Y-159171131D01*
X123379438Y-159122430D01*
X123390712Y-159097444D01*
X123391549Y-159094865D01*
X123384077Y-159077443D01*
X123363843Y-159039362D01*
X123334128Y-158986616D01*
X123305537Y-158937560D01*
X123237603Y-158818527D01*
X123172474Y-158695419D01*
X123107948Y-158563489D01*
X123041821Y-158417992D01*
X122971891Y-158254182D01*
X122895957Y-158067313D01*
X122862668Y-157983160D01*
X122835701Y-157908669D01*
X122804360Y-157812653D01*
X122771310Y-157703889D01*
X122739210Y-157591153D01*
X122710726Y-157483221D01*
X122709329Y-157477649D01*
X122680186Y-157360992D01*
X122145390Y-157181646D01*
X122022270Y-157140247D01*
X121908296Y-157101709D01*
X121806877Y-157067204D01*
X121721424Y-157037899D01*
X121655345Y-157014964D01*
X121612051Y-156999567D01*
X121595040Y-156992937D01*
X121569671Y-156983220D01*
X121531298Y-156973250D01*
X121505351Y-156965689D01*
X121489046Y-156951789D01*
X121478036Y-156924015D01*
X121467971Y-156874836D01*
X121465152Y-156858653D01*
X121455071Y-156786533D01*
X121444995Y-156690084D01*
X121435365Y-156576081D01*
X121426622Y-156451300D01*
X121419206Y-156322517D01*
X121413560Y-156196506D01*
X121410124Y-156080044D01*
X121409628Y-156033985D01*
X123623307Y-156033985D01*
X123625400Y-156190974D01*
X123630359Y-156340160D01*
X123638180Y-156475084D01*
X123648860Y-156589289D01*
X123656480Y-156644201D01*
X123683634Y-156804464D01*
X123709960Y-156947613D01*
X123734683Y-157069718D01*
X123757026Y-157166849D01*
X123767241Y-157205450D01*
X123786688Y-157274933D01*
X123806473Y-157346345D01*
X123820140Y-157396255D01*
X123837363Y-157452570D01*
X123863616Y-157529756D01*
X123895986Y-157619957D01*
X123931560Y-157715321D01*
X123967425Y-157807992D01*
X124000667Y-157890118D01*
X124020538Y-157936497D01*
X124173419Y-158248672D01*
X124351963Y-158555361D01*
X124550887Y-158847903D01*
X124675076Y-159009618D01*
X124817434Y-159175769D01*
X124982463Y-159349393D01*
X125164560Y-159524986D01*
X125358124Y-159697044D01*
X125468034Y-159788657D01*
X125517809Y-159826760D01*
X125587076Y-159876562D01*
X125668885Y-159933377D01*
X125756285Y-159992518D01*
X125842326Y-160049299D01*
X125920057Y-160099034D01*
X125982528Y-160137036D01*
X125996877Y-160145237D01*
X126113142Y-160209678D01*
X126208377Y-160261036D01*
X126288237Y-160302216D01*
X126358378Y-160336125D01*
X126424453Y-160365667D01*
X126432630Y-160369165D01*
X126495885Y-160396200D01*
X126553729Y-160421107D01*
X126595955Y-160439484D01*
X126603491Y-160442817D01*
X126652493Y-160462827D01*
X126722817Y-160489243D01*
X126806109Y-160519137D01*
X126894015Y-160549584D01*
X126978181Y-160577655D01*
X127050253Y-160600424D01*
X127070116Y-160606321D01*
X127137721Y-160625106D01*
X127209704Y-160643234D01*
X127292798Y-160662249D01*
X127393732Y-160683699D01*
X127505634Y-160706414D01*
X127753002Y-160747011D01*
X128017569Y-160774348D01*
X128289511Y-160788062D01*
X128559005Y-160787790D01*
X128816229Y-160773172D01*
X128944397Y-160759461D01*
X129071476Y-160742681D01*
X129181727Y-160726383D01*
X129287589Y-160708497D01*
X129401500Y-160686948D01*
X129504348Y-160666182D01*
X129574726Y-160649758D01*
X129662478Y-160626391D01*
X129759485Y-160598542D01*
X129857633Y-160568672D01*
X129948803Y-160539240D01*
X130024880Y-160512708D01*
X130072076Y-160494072D01*
X130103573Y-160481110D01*
X130151748Y-160462136D01*
X130188733Y-160447912D01*
X130389737Y-160363283D01*
X130602266Y-160258930D01*
X130818291Y-160139321D01*
X131029781Y-160008927D01*
X131228707Y-159872216D01*
X131246418Y-159859241D01*
X131410080Y-159730634D01*
X131581128Y-159581698D01*
X131753118Y-159418877D01*
X131919602Y-159248616D01*
X132074134Y-159077361D01*
X132210268Y-158911556D01*
X132259437Y-158846418D01*
X132384086Y-158666961D01*
X132505159Y-158474640D01*
X132618526Y-158276877D01*
X132720054Y-158081093D01*
X132805611Y-157894710D01*
X132848221Y-157788733D01*
X132868316Y-157736256D01*
X132885898Y-157691763D01*
X132894072Y-157672076D01*
X132917175Y-157612710D01*
X132945216Y-157530515D01*
X132975960Y-157432934D01*
X133007167Y-157327406D01*
X133036601Y-157221375D01*
X133062026Y-157122280D01*
X133071771Y-157081017D01*
X133123298Y-156813902D01*
X133160631Y-156530927D01*
X133183221Y-156241122D01*
X133190520Y-155953517D01*
X133181980Y-155677142D01*
X133167417Y-155505411D01*
X133156871Y-155411435D01*
X133147370Y-155335196D01*
X133137381Y-155267142D01*
X133125369Y-155197718D01*
X133109802Y-155117371D01*
X133089146Y-155016547D01*
X133088266Y-155012309D01*
X133059657Y-154885661D01*
X133025099Y-154750482D01*
X132986743Y-154613974D01*
X132946742Y-154483336D01*
X132907246Y-154365769D01*
X132870408Y-154268474D01*
X132855891Y-154234599D01*
X132839017Y-154195881D01*
X132815701Y-154140870D01*
X132793209Y-154086834D01*
X132760478Y-154012684D01*
X132716284Y-153920001D01*
X132664820Y-153817135D01*
X132610279Y-153712434D01*
X132556856Y-153614247D01*
X132547099Y-153596877D01*
X132404685Y-153366759D01*
X132237123Y-153133721D01*
X132049282Y-152903006D01*
X131846033Y-152679856D01*
X131632245Y-152469514D01*
X131412788Y-152277224D01*
X131192531Y-152108228D01*
X131114207Y-152054252D01*
X131053895Y-152013948D01*
X130994738Y-151974340D01*
X130948244Y-151943134D01*
X130943111Y-151939679D01*
X130828735Y-151868659D01*
X130688037Y-151791472D01*
X130524749Y-151709976D01*
X130342603Y-151626030D01*
X130145332Y-151541492D01*
X130134293Y-151536935D01*
X129992707Y-151483167D01*
X129841917Y-151433677D01*
X129745438Y-151406238D01*
X129713424Y-151397393D01*
X129664478Y-151383435D01*
X129628782Y-151373090D01*
X129502774Y-151340561D01*
X129352866Y-151309006D01*
X129186262Y-151279732D01*
X129010168Y-151254048D01*
X128897734Y-151240315D01*
X128833761Y-151235301D01*
X128744998Y-151231414D01*
X128637747Y-151228655D01*
X128518307Y-151227030D01*
X128392977Y-151226539D01*
X128268058Y-151227186D01*
X128149848Y-151228973D01*
X128044648Y-151231904D01*
X127958757Y-151235981D01*
X127910043Y-151239872D01*
X127701325Y-151265160D01*
X127508775Y-151296296D01*
X127322351Y-151335469D01*
X127132014Y-151384866D01*
X126927723Y-151446675D01*
X126860135Y-151468651D01*
X126790560Y-151491886D01*
X126729538Y-151512806D01*
X126684639Y-151528783D01*
X126665707Y-151536113D01*
X126635112Y-151549569D01*
X126587567Y-151570550D01*
X126544701Y-151589499D01*
X126496496Y-151610192D01*
X126460249Y-151624576D01*
X126445055Y-151629271D01*
X126421039Y-151636900D01*
X126374898Y-151658112D01*
X126311130Y-151690393D01*
X126234229Y-151731232D01*
X126148694Y-151778116D01*
X126059019Y-151828531D01*
X125969702Y-151879965D01*
X125885239Y-151929906D01*
X125810126Y-151975841D01*
X125748860Y-152015257D01*
X125724679Y-152031838D01*
X125676979Y-152065316D01*
X125633319Y-152095517D01*
X125615799Y-152107413D01*
X125502381Y-152189883D01*
X125375817Y-152293089D01*
X125240833Y-152412306D01*
X125102155Y-152542808D01*
X124964509Y-152679868D01*
X124832621Y-152818761D01*
X124711216Y-152954761D01*
X124605021Y-153083142D01*
X124518761Y-153199177D01*
X124507449Y-153215799D01*
X124482205Y-153252722D01*
X124449690Y-153299417D01*
X124437377Y-153316902D01*
X124335179Y-153472515D01*
X124231477Y-153650685D01*
X124130117Y-153843448D01*
X124034947Y-154042840D01*
X123949813Y-154240898D01*
X123878563Y-154429658D01*
X123836286Y-154561237D01*
X123819342Y-154617946D01*
X123803763Y-154667929D01*
X123795301Y-154693448D01*
X123778441Y-154749707D01*
X123758140Y-154831195D01*
X123735558Y-154932377D01*
X123711857Y-155047714D01*
X123688198Y-155171670D01*
X123665742Y-155298709D01*
X123655918Y-155358004D01*
X123643643Y-155457145D01*
X123634247Y-155580772D01*
X123627727Y-155722426D01*
X123624082Y-155875649D01*
X123623307Y-156033985D01*
X121409628Y-156033985D01*
X121409261Y-156000000D01*
X121410646Y-155899392D01*
X121414474Y-155784801D01*
X121420324Y-155662433D01*
X121427777Y-155538497D01*
X121436411Y-155419200D01*
X121445805Y-155310749D01*
X121455540Y-155219353D01*
X121465195Y-155151220D01*
X121467668Y-155137942D01*
X121486161Y-155045816D01*
X122072683Y-154850189D01*
X122201749Y-154806877D01*
X122321693Y-154766118D01*
X122429272Y-154729052D01*
X122521247Y-154696818D01*
X122594375Y-154670555D01*
X122645415Y-154651404D01*
X122671127Y-154640504D01*
X122673421Y-154639008D01*
X122683600Y-154617150D01*
X122697513Y-154573584D01*
X122712427Y-154517033D01*
X122714855Y-154506797D01*
X122736279Y-154424570D01*
X122766598Y-154321319D01*
X122803247Y-154204937D01*
X122843655Y-154083319D01*
X122885255Y-153964359D01*
X122925478Y-153855952D01*
X122932452Y-153837967D01*
X122966073Y-153756654D01*
X123009793Y-153657887D01*
X123060548Y-153547968D01*
X123115278Y-153433198D01*
X123170918Y-153319875D01*
X123224408Y-153214301D01*
X123272685Y-153122776D01*
X123312687Y-153051601D01*
X123322831Y-153034810D01*
X123354320Y-152982411D01*
X123378170Y-152939794D01*
X123390496Y-152914012D01*
X123391372Y-152910377D01*
X123384580Y-152893972D01*
X123365273Y-152852816D01*
X123334934Y-152789938D01*
X123295046Y-152708366D01*
X123247095Y-152611130D01*
X123192562Y-152501258D01*
X123132933Y-152381781D01*
X123111485Y-152338957D01*
X122831775Y-151780976D01*
X122912380Y-151677904D01*
X123156973Y-151384311D01*
X123425735Y-151096846D01*
X123711736Y-150822391D01*
X124008048Y-150567830D01*
X124116876Y-150481633D01*
X124181150Y-150431886D01*
X124742051Y-150711718D01*
X124864407Y-150772630D01*
X124978089Y-150828974D01*
X125080090Y-150879277D01*
X125167401Y-150922068D01*
X125237016Y-150955873D01*
X125285926Y-150979222D01*
X125311123Y-150990642D01*
X125313819Y-150991549D01*
X125331426Y-150983814D01*
X125367648Y-150963437D01*
X125414973Y-150934665D01*
X125419691Y-150931702D01*
X125479706Y-150896373D01*
X125561488Y-150851708D01*
X125658389Y-150801031D01*
X125763761Y-150747667D01*
X125870955Y-150694941D01*
X125973323Y-150646175D01*
X126064217Y-150604696D01*
X126129088Y-150576999D01*
X126191575Y-150551482D01*
X126245916Y-150528978D01*
X126283566Y-150513037D01*
X126292407Y-150509126D01*
X126322216Y-150497685D01*
X126375760Y-150479233D01*
X126446972Y-150455687D01*
X126529788Y-150428969D01*
X126618144Y-150400996D01*
X126705975Y-150373690D01*
X126787215Y-150348969D01*
X126855801Y-150328753D01*
X126905666Y-150314961D01*
X126906797Y-150314670D01*
X126961996Y-150299699D01*
X127006869Y-150286092D01*
X127030304Y-150277385D01*
X127040115Y-150260475D01*
X127058416Y-150217031D01*
X127084097Y-150150111D01*
X127116044Y-150062769D01*
X127153143Y-149958063D01*
X127194283Y-149839048D01*
X127238351Y-149708779D01*
X127249262Y-149676109D01*
X127445816Y-149086161D01*
X127537942Y-149067647D01*
X127605053Y-149057017D01*
X127697042Y-149046546D01*
X127807676Y-149036648D01*
X127930725Y-149027738D01*
X128059958Y-149020232D01*
X128189145Y-149014545D01*
X128312054Y-149011091D01*
X128400000Y-149010214D01*
X128519553Y-149011683D01*
D13*
X73500000Y-133800000D02*
G75*
G03X73500000Y-133800000I-3000000J0D01*
G01*
X64600000Y-131800000D02*
X64600000Y-127700000D01*
X76400000Y-127700000D02*
X76400000Y-131800000D01*
X76400000Y-135800000D02*
X76400000Y-139900000D01*
X64600000Y-135800000D02*
X64600000Y-139900000D01*
X64600000Y-139900000D02*
X76400000Y-139900000D01*
X66700000Y-141300000D02*
X66400000Y-141600000D01*
X66400000Y-141600000D02*
X66400000Y-141000000D01*
X66400000Y-141000000D02*
X66700000Y-141300000D01*
X64600000Y-127700000D02*
X67000000Y-127700000D01*
X69200000Y-127700000D02*
X71800000Y-127700000D01*
X74000000Y-127700000D02*
X76400000Y-127700000D01*
X70000000Y-133800000D02*
X71000000Y-133800000D01*
X70500000Y-134300000D02*
X70500000Y-133300000D01*
D14*
X71978000Y-144362000D02*
X71978000Y-142838000D01*
X72105000Y-144362000D02*
X72105000Y-142838000D01*
X72232000Y-142838000D02*
X72232000Y-144362000D01*
X72613000Y-144362000D02*
X72613000Y-142838000D01*
X72486000Y-142838000D02*
X72486000Y-144362000D01*
X72359000Y-144362000D02*
X72359000Y-142838000D01*
X67660000Y-144362000D02*
X68168000Y-144362000D01*
X67660000Y-142838000D02*
X67660000Y-144362000D01*
X72740000Y-142838000D02*
X67660000Y-142838000D01*
X72740000Y-144362000D02*
X72740000Y-142838000D01*
X67660000Y-144362000D02*
X72740000Y-144362000D01*
X68060000Y-163162000D02*
X73140000Y-163162000D01*
X73140000Y-163162000D02*
X73140000Y-161638000D01*
X73140000Y-161638000D02*
X68060000Y-161638000D01*
X68060000Y-161638000D02*
X68060000Y-163162000D01*
X68060000Y-163162000D02*
X68568000Y-163162000D01*
X72759000Y-163162000D02*
X72759000Y-161638000D01*
X72886000Y-161638000D02*
X72886000Y-163162000D01*
X73013000Y-163162000D02*
X73013000Y-161638000D01*
X72632000Y-161638000D02*
X72632000Y-163162000D01*
X72505000Y-163162000D02*
X72505000Y-161638000D01*
X72378000Y-163162000D02*
X72378000Y-161638000D01*
X91178000Y-144362000D02*
X91178000Y-142838000D01*
X91305000Y-144362000D02*
X91305000Y-142838000D01*
X91432000Y-142838000D02*
X91432000Y-144362000D01*
X91813000Y-144362000D02*
X91813000Y-142838000D01*
X91686000Y-142838000D02*
X91686000Y-144362000D01*
X91559000Y-144362000D02*
X91559000Y-142838000D01*
X86860000Y-144362000D02*
X87368000Y-144362000D01*
X86860000Y-142838000D02*
X86860000Y-144362000D01*
X91940000Y-142838000D02*
X86860000Y-142838000D01*
X91940000Y-144362000D02*
X91940000Y-142838000D01*
X86860000Y-144362000D02*
X91940000Y-144362000D01*
X86960000Y-163162000D02*
X92040000Y-163162000D01*
X92040000Y-163162000D02*
X92040000Y-161638000D01*
X92040000Y-161638000D02*
X86960000Y-161638000D01*
X86960000Y-161638000D02*
X86960000Y-163162000D01*
X86960000Y-163162000D02*
X87468000Y-163162000D01*
X91659000Y-163162000D02*
X91659000Y-161638000D01*
X91786000Y-161638000D02*
X91786000Y-163162000D01*
X91913000Y-163162000D02*
X91913000Y-161638000D01*
X91532000Y-161638000D02*
X91532000Y-163162000D01*
X91405000Y-163162000D02*
X91405000Y-161638000D01*
X91278000Y-163162000D02*
X91278000Y-161638000D01*
X110178000Y-144462000D02*
X110178000Y-142938000D01*
X110305000Y-144462000D02*
X110305000Y-142938000D01*
X110432000Y-142938000D02*
X110432000Y-144462000D01*
X110813000Y-144462000D02*
X110813000Y-142938000D01*
X110686000Y-142938000D02*
X110686000Y-144462000D01*
X110559000Y-144462000D02*
X110559000Y-142938000D01*
X105860000Y-144462000D02*
X106368000Y-144462000D01*
X105860000Y-142938000D02*
X105860000Y-144462000D01*
X110940000Y-142938000D02*
X105860000Y-142938000D01*
X110940000Y-144462000D02*
X110940000Y-142938000D01*
X105860000Y-144462000D02*
X110940000Y-144462000D01*
X106160000Y-162862000D02*
X111240000Y-162862000D01*
X111240000Y-162862000D02*
X111240000Y-161338000D01*
X111240000Y-161338000D02*
X106160000Y-161338000D01*
X106160000Y-161338000D02*
X106160000Y-162862000D01*
X106160000Y-162862000D02*
X106668000Y-162862000D01*
X110859000Y-162862000D02*
X110859000Y-161338000D01*
X110986000Y-161338000D02*
X110986000Y-162862000D01*
X111113000Y-162862000D02*
X111113000Y-161338000D01*
X110732000Y-161338000D02*
X110732000Y-162862000D01*
X110605000Y-162862000D02*
X110605000Y-161338000D01*
X110478000Y-162862000D02*
X110478000Y-161338000D01*
D15*
X64150000Y-146367500D02*
X65928000Y-146367500D01*
X75072000Y-146367500D02*
X76850000Y-146367500D01*
X76850000Y-146367500D02*
X76850000Y-148145500D01*
X76850000Y-157289500D02*
X76850000Y-159067500D01*
X76850000Y-159067500D02*
X75072000Y-159067500D01*
X65928000Y-159067500D02*
X64150000Y-159067500D01*
X64150000Y-159067500D02*
X64150000Y-157289500D01*
X64150000Y-148145500D02*
X64150000Y-146367500D01*
X83110000Y-129095500D02*
X83110000Y-127317500D01*
X83110000Y-140017500D02*
X83110000Y-138239500D01*
X84888000Y-140017500D02*
X83110000Y-140017500D01*
X95810000Y-140017500D02*
X94032000Y-140017500D01*
X95810000Y-138239500D02*
X95810000Y-140017500D01*
X95810000Y-127317500D02*
X95810000Y-129095500D01*
X94032000Y-127317500D02*
X95810000Y-127317500D01*
X83110000Y-127317500D02*
X84888000Y-127317500D01*
X83110000Y-148145500D02*
X83110000Y-146367500D01*
X83110000Y-159067500D02*
X83110000Y-157289500D01*
X84888000Y-159067500D02*
X83110000Y-159067500D01*
X95810000Y-159067500D02*
X94032000Y-159067500D01*
X95810000Y-157289500D02*
X95810000Y-159067500D01*
X95810000Y-146367500D02*
X95810000Y-148145500D01*
X94032000Y-146367500D02*
X95810000Y-146367500D01*
X83110000Y-146367500D02*
X84888000Y-146367500D01*
X102150000Y-129095500D02*
X102150000Y-127317500D01*
X102150000Y-140017500D02*
X102150000Y-138239500D01*
X103928000Y-140017500D02*
X102150000Y-140017500D01*
X114850000Y-140017500D02*
X113072000Y-140017500D01*
X114850000Y-138239500D02*
X114850000Y-140017500D01*
X114850000Y-127317500D02*
X114850000Y-129095500D01*
X113072000Y-127317500D02*
X114850000Y-127317500D01*
X102150000Y-127317500D02*
X103928000Y-127317500D01*
X102110000Y-146367500D02*
X103888000Y-146367500D01*
X113032000Y-146367500D02*
X114810000Y-146367500D01*
X114810000Y-146367500D02*
X114810000Y-148145500D01*
X114810000Y-157289500D02*
X114810000Y-159067500D01*
X114810000Y-159067500D02*
X113032000Y-159067500D01*
X103888000Y-159067500D02*
X102110000Y-159067500D01*
X102110000Y-159067500D02*
X102110000Y-157289500D01*
X102110000Y-148145500D02*
X102110000Y-146367500D01*
X64135000Y-127350000D02*
X65913000Y-127350000D01*
X75057000Y-127350000D02*
X76835000Y-127350000D01*
X76835000Y-127350000D02*
X76835000Y-129128000D01*
X76835000Y-138272000D02*
X76835000Y-140050000D01*
X76835000Y-140050000D02*
X75057000Y-140050000D01*
X65913000Y-140050000D02*
X64135000Y-140050000D01*
X64135000Y-140050000D02*
X64135000Y-138272000D01*
X64135000Y-129128000D02*
X64135000Y-127350000D01*
D13*
X108500000Y-134200000D02*
X108500000Y-133200000D01*
X108000000Y-133700000D02*
X109000000Y-133700000D01*
X112000000Y-127600000D02*
X114400000Y-127600000D01*
X107200000Y-127600000D02*
X109800000Y-127600000D01*
X102600000Y-127600000D02*
X105000000Y-127600000D01*
X104400000Y-140900000D02*
X104700000Y-141200000D01*
X104400000Y-141500000D02*
X104400000Y-140900000D01*
X104700000Y-141200000D02*
X104400000Y-141500000D01*
X102600000Y-139800000D02*
X114400000Y-139800000D01*
X102600000Y-135700000D02*
X102600000Y-139800000D01*
X114400000Y-135700000D02*
X114400000Y-139800000D01*
X114400000Y-127600000D02*
X114400000Y-131700000D01*
X102600000Y-131700000D02*
X102600000Y-127600000D01*
X111500000Y-133700000D02*
G75*
G03X111500000Y-133700000I-3000000J0D01*
G01*
D15*
X135255000Y-120332500D02*
X137795000Y-120332500D01*
X135255000Y-117792500D02*
X135255000Y-120332500D01*
D14*
G36*
X122860365Y-124081530D02*
G01*
X122860365Y-124181530D01*
X122760365Y-124181530D01*
X122760365Y-124081530D01*
X122860365Y-124081530D01*
G37*
X122860365Y-124081530D02*
X122860365Y-124181530D01*
X122760365Y-124181530D01*
X122760365Y-124081530D01*
X122860365Y-124081530D01*
G36*
X122660365Y-123681530D02*
G01*
X122660365Y-124481530D01*
X122560365Y-124481530D01*
X122560365Y-123681530D01*
X122660365Y-123681530D01*
G37*
X122660365Y-123681530D02*
X122660365Y-124481530D01*
X122560365Y-124481530D01*
X122560365Y-123681530D01*
X122660365Y-123681530D01*
G36*
X123060365Y-124281530D02*
G01*
X123060365Y-124481530D01*
X122960365Y-124481530D01*
X122960365Y-124281530D01*
X123060365Y-124281530D01*
G37*
X123060365Y-124281530D02*
X123060365Y-124481530D01*
X122960365Y-124481530D01*
X122960365Y-124281530D01*
X123060365Y-124281530D01*
G36*
X123060365Y-123681530D02*
G01*
X123060365Y-123981530D01*
X122960365Y-123981530D01*
X122960365Y-123681530D01*
X123060365Y-123681530D01*
G37*
X123060365Y-123681530D02*
X123060365Y-123981530D01*
X122960365Y-123981530D01*
X122960365Y-123681530D01*
X123060365Y-123681530D01*
G36*
X123060365Y-123681530D02*
G01*
X123060365Y-123781530D01*
X122560365Y-123781530D01*
X122560365Y-123681530D01*
X123060365Y-123681530D01*
G37*
X123060365Y-123681530D02*
X123060365Y-123781530D01*
X122560365Y-123781530D01*
X122560365Y-123681530D01*
X123060365Y-123681530D01*
D15*
X120015000Y-148272500D02*
X120015000Y-115252500D01*
X137795000Y-148272500D02*
X120015000Y-148272500D01*
X137795000Y-115252500D02*
X137795000Y-148272500D01*
X120015000Y-115252500D02*
X137795000Y-115252500D01*
X135255000Y-117792500D02*
X137795000Y-117792500D01*
D14*
X63704761Y-139833333D02*
X63752380Y-139690476D01*
X63752380Y-139452380D01*
X63704761Y-139357142D01*
X63657142Y-139309523D01*
X63561904Y-139261904D01*
X63466666Y-139261904D01*
X63371428Y-139309523D01*
X63323809Y-139357142D01*
X63276190Y-139452380D01*
X63228571Y-139642857D01*
X63180952Y-139738095D01*
X63133333Y-139785714D01*
X63038095Y-139833333D01*
X62942857Y-139833333D01*
X62847619Y-139785714D01*
X62800000Y-139738095D01*
X62752380Y-139642857D01*
X62752380Y-139404761D01*
X62800000Y-139261904D01*
X62752380Y-138928571D02*
X63752380Y-138690476D01*
X63038095Y-138500000D01*
X63752380Y-138309523D01*
X62752380Y-138071428D01*
X62752380Y-137785714D02*
X62752380Y-137166666D01*
X63133333Y-137500000D01*
X63133333Y-137357142D01*
X63180952Y-137261904D01*
X63228571Y-137214285D01*
X63323809Y-137166666D01*
X63561904Y-137166666D01*
X63657142Y-137214285D01*
X63704761Y-137261904D01*
X63752380Y-137357142D01*
X63752380Y-137642857D01*
X63704761Y-137738095D01*
X63657142Y-137785714D01*
X69584123Y-145361904D02*
X69584123Y-144561904D01*
X69774600Y-144561904D01*
X69888885Y-144600000D01*
X69965076Y-144676190D01*
X70003171Y-144752380D01*
X70041266Y-144904761D01*
X70041266Y-145019047D01*
X70003171Y-145171428D01*
X69965076Y-145247619D01*
X69888885Y-145323809D01*
X69774600Y-145361904D01*
X69584123Y-145361904D01*
X70307933Y-144561904D02*
X70803171Y-144561904D01*
X70536504Y-144866666D01*
X70650790Y-144866666D01*
X70726980Y-144904761D01*
X70765076Y-144942857D01*
X70803171Y-145019047D01*
X70803171Y-145209523D01*
X70765076Y-145285714D01*
X70726980Y-145323809D01*
X70650790Y-145361904D01*
X70422219Y-145361904D01*
X70346028Y-145323809D01*
X70307933Y-145285714D01*
X69984123Y-164161904D02*
X69984123Y-163361904D01*
X70174600Y-163361904D01*
X70288885Y-163400000D01*
X70365076Y-163476190D01*
X70403171Y-163552380D01*
X70441266Y-163704761D01*
X70441266Y-163819047D01*
X70403171Y-163971428D01*
X70365076Y-164047619D01*
X70288885Y-164123809D01*
X70174600Y-164161904D01*
X69984123Y-164161904D01*
X71126980Y-163361904D02*
X70974600Y-163361904D01*
X70898409Y-163400000D01*
X70860314Y-163438095D01*
X70784123Y-163552380D01*
X70746028Y-163704761D01*
X70746028Y-164009523D01*
X70784123Y-164085714D01*
X70822219Y-164123809D01*
X70898409Y-164161904D01*
X71050790Y-164161904D01*
X71126980Y-164123809D01*
X71165076Y-164085714D01*
X71203171Y-164009523D01*
X71203171Y-163819047D01*
X71165076Y-163742857D01*
X71126980Y-163704761D01*
X71050790Y-163666666D01*
X70898409Y-163666666D01*
X70822219Y-163704761D01*
X70784123Y-163742857D01*
X70746028Y-163819047D01*
X88784123Y-145361904D02*
X88784123Y-144561904D01*
X88974600Y-144561904D01*
X89088885Y-144600000D01*
X89165076Y-144676190D01*
X89203171Y-144752380D01*
X89241266Y-144904761D01*
X89241266Y-145019047D01*
X89203171Y-145171428D01*
X89165076Y-145247619D01*
X89088885Y-145323809D01*
X88974600Y-145361904D01*
X88784123Y-145361904D01*
X89926980Y-144828571D02*
X89926980Y-145361904D01*
X89736504Y-144523809D02*
X89546028Y-145095238D01*
X90041266Y-145095238D01*
X88884123Y-164161904D02*
X88884123Y-163361904D01*
X89074600Y-163361904D01*
X89188885Y-163400000D01*
X89265076Y-163476190D01*
X89303171Y-163552380D01*
X89341266Y-163704761D01*
X89341266Y-163819047D01*
X89303171Y-163971428D01*
X89265076Y-164047619D01*
X89188885Y-164123809D01*
X89074600Y-164161904D01*
X88884123Y-164161904D01*
X89607933Y-163361904D02*
X90141266Y-163361904D01*
X89798409Y-164161904D01*
X107784123Y-145461904D02*
X107784123Y-144661904D01*
X107974600Y-144661904D01*
X108088885Y-144700000D01*
X108165076Y-144776190D01*
X108203171Y-144852380D01*
X108241266Y-145004761D01*
X108241266Y-145119047D01*
X108203171Y-145271428D01*
X108165076Y-145347619D01*
X108088885Y-145423809D01*
X107974600Y-145461904D01*
X107784123Y-145461904D01*
X108965076Y-144661904D02*
X108584123Y-144661904D01*
X108546028Y-145042857D01*
X108584123Y-145004761D01*
X108660314Y-144966666D01*
X108850790Y-144966666D01*
X108926980Y-145004761D01*
X108965076Y-145042857D01*
X109003171Y-145119047D01*
X109003171Y-145309523D01*
X108965076Y-145385714D01*
X108926980Y-145423809D01*
X108850790Y-145461904D01*
X108660314Y-145461904D01*
X108584123Y-145423809D01*
X108546028Y-145385714D01*
X108084123Y-163861904D02*
X108084123Y-163061904D01*
X108274600Y-163061904D01*
X108388885Y-163100000D01*
X108465076Y-163176190D01*
X108503171Y-163252380D01*
X108541266Y-163404761D01*
X108541266Y-163519047D01*
X108503171Y-163671428D01*
X108465076Y-163747619D01*
X108388885Y-163823809D01*
X108274600Y-163861904D01*
X108084123Y-163861904D01*
X108998409Y-163404761D02*
X108922219Y-163366666D01*
X108884123Y-163328571D01*
X108846028Y-163252380D01*
X108846028Y-163214285D01*
X108884123Y-163138095D01*
X108922219Y-163100000D01*
X108998409Y-163061904D01*
X109150790Y-163061904D01*
X109226980Y-163100000D01*
X109265076Y-163138095D01*
X109303171Y-163214285D01*
X109303171Y-163252380D01*
X109265076Y-163328571D01*
X109226980Y-163366666D01*
X109150790Y-163404761D01*
X108998409Y-163404761D01*
X108922219Y-163442857D01*
X108884123Y-163480952D01*
X108846028Y-163557142D01*
X108846028Y-163709523D01*
X108884123Y-163785714D01*
X108922219Y-163823809D01*
X108998409Y-163861904D01*
X109150790Y-163861904D01*
X109226980Y-163823809D01*
X109265076Y-163785714D01*
X109303171Y-163709523D01*
X109303171Y-163557142D01*
X109265076Y-163480952D01*
X109226980Y-163442857D01*
X109150790Y-163404761D01*
D16*
X69375142Y-156467023D02*
X69375142Y-155197023D01*
X70246000Y-156467023D02*
X69592857Y-155741309D01*
X70246000Y-155197023D02*
X69375142Y-155922738D01*
X71552285Y-155620357D02*
X71552285Y-156467023D01*
X71189428Y-155136547D02*
X70826571Y-156043690D01*
X71770000Y-156043690D01*
X88335142Y-137417023D02*
X88335142Y-136147023D01*
X89206000Y-137417023D02*
X88552857Y-136691309D01*
X89206000Y-136147023D02*
X88335142Y-136872738D01*
X89786571Y-136267976D02*
X89859142Y-136207500D01*
X90004285Y-136147023D01*
X90367142Y-136147023D01*
X90512285Y-136207500D01*
X90584857Y-136267976D01*
X90657428Y-136388928D01*
X90657428Y-136509880D01*
X90584857Y-136691309D01*
X89714000Y-137417023D01*
X90657428Y-137417023D01*
X88335142Y-156467023D02*
X88335142Y-155197023D01*
X89206000Y-156467023D02*
X88552857Y-155741309D01*
X89206000Y-155197023D02*
X88335142Y-155922738D01*
X90584857Y-155197023D02*
X89859142Y-155197023D01*
X89786571Y-155801785D01*
X89859142Y-155741309D01*
X90004285Y-155680833D01*
X90367142Y-155680833D01*
X90512285Y-155741309D01*
X90584857Y-155801785D01*
X90657428Y-155922738D01*
X90657428Y-156225119D01*
X90584857Y-156346071D01*
X90512285Y-156406547D01*
X90367142Y-156467023D01*
X90004285Y-156467023D01*
X89859142Y-156406547D01*
X89786571Y-156346071D01*
X107375142Y-137417023D02*
X107375142Y-136147023D01*
X108246000Y-137417023D02*
X107592857Y-136691309D01*
X108246000Y-136147023D02*
X107375142Y-136872738D01*
X108754000Y-136147023D02*
X109697428Y-136147023D01*
X109189428Y-136630833D01*
X109407142Y-136630833D01*
X109552285Y-136691309D01*
X109624857Y-136751785D01*
X109697428Y-136872738D01*
X109697428Y-137175119D01*
X109624857Y-137296071D01*
X109552285Y-137356547D01*
X109407142Y-137417023D01*
X108971714Y-137417023D01*
X108826571Y-137356547D01*
X108754000Y-137296071D01*
X107335142Y-156467023D02*
X107335142Y-155197023D01*
X108206000Y-156467023D02*
X107552857Y-155741309D01*
X108206000Y-155197023D02*
X107335142Y-155922738D01*
X109512285Y-155197023D02*
X109222000Y-155197023D01*
X109076857Y-155257500D01*
X109004285Y-155317976D01*
X108859142Y-155499404D01*
X108786571Y-155741309D01*
X108786571Y-156225119D01*
X108859142Y-156346071D01*
X108931714Y-156406547D01*
X109076857Y-156467023D01*
X109367142Y-156467023D01*
X109512285Y-156406547D01*
X109584857Y-156346071D01*
X109657428Y-156225119D01*
X109657428Y-155922738D01*
X109584857Y-155801785D01*
X109512285Y-155741309D01*
X109367142Y-155680833D01*
X109076857Y-155680833D01*
X108931714Y-155741309D01*
X108859142Y-155801785D01*
X108786571Y-155922738D01*
X69360142Y-137449523D02*
X69360142Y-136179523D01*
X70231000Y-137449523D02*
X69577857Y-136723809D01*
X70231000Y-136179523D02*
X69360142Y-136905238D01*
X71682428Y-137449523D02*
X70811571Y-137449523D01*
X71247000Y-137449523D02*
X71247000Y-136179523D01*
X71101857Y-136360952D01*
X70956714Y-136481904D01*
X70811571Y-136542380D01*
D14*
X101704761Y-139733333D02*
X101752380Y-139590476D01*
X101752380Y-139352380D01*
X101704761Y-139257142D01*
X101657142Y-139209523D01*
X101561904Y-139161904D01*
X101466666Y-139161904D01*
X101371428Y-139209523D01*
X101323809Y-139257142D01*
X101276190Y-139352380D01*
X101228571Y-139542857D01*
X101180952Y-139638095D01*
X101133333Y-139685714D01*
X101038095Y-139733333D01*
X100942857Y-139733333D01*
X100847619Y-139685714D01*
X100800000Y-139638095D01*
X100752380Y-139542857D01*
X100752380Y-139304761D01*
X100800000Y-139161904D01*
X100752380Y-138828571D02*
X101752380Y-138590476D01*
X101038095Y-138400000D01*
X101752380Y-138209523D01*
X100752380Y-137971428D01*
X100847619Y-137638095D02*
X100800000Y-137590476D01*
X100752380Y-137495238D01*
X100752380Y-137257142D01*
X100800000Y-137161904D01*
X100847619Y-137114285D01*
X100942857Y-137066666D01*
X101038095Y-137066666D01*
X101180952Y-137114285D01*
X101752380Y-137685714D01*
X101752380Y-137066666D01*
X133775523Y-121964404D02*
X133775523Y-121164404D01*
X133966000Y-121164404D01*
X134080285Y-121202500D01*
X134156476Y-121278690D01*
X134194571Y-121354880D01*
X134232666Y-121507261D01*
X134232666Y-121621547D01*
X134194571Y-121773928D01*
X134156476Y-121850119D01*
X134080285Y-121926309D01*
X133966000Y-121964404D01*
X133775523Y-121964404D01*
X134537428Y-121240595D02*
X134575523Y-121202500D01*
X134651714Y-121164404D01*
X134842190Y-121164404D01*
X134918380Y-121202500D01*
X134956476Y-121240595D01*
X134994571Y-121316785D01*
X134994571Y-121392976D01*
X134956476Y-121507261D01*
X134499333Y-121964404D01*
X134994571Y-121964404D01*
X133775523Y-132124404D02*
X133775523Y-131324404D01*
X133966000Y-131324404D01*
X134080285Y-131362500D01*
X134156476Y-131438690D01*
X134194571Y-131514880D01*
X134232666Y-131667261D01*
X134232666Y-131781547D01*
X134194571Y-131933928D01*
X134156476Y-132010119D01*
X134080285Y-132086309D01*
X133966000Y-132124404D01*
X133775523Y-132124404D01*
X134727904Y-131324404D02*
X134804095Y-131324404D01*
X134880285Y-131362500D01*
X134918380Y-131400595D01*
X134956476Y-131476785D01*
X134994571Y-131629166D01*
X134994571Y-131819642D01*
X134956476Y-131972023D01*
X134918380Y-132048214D01*
X134880285Y-132086309D01*
X134804095Y-132124404D01*
X134727904Y-132124404D01*
X134651714Y-132086309D01*
X134613619Y-132048214D01*
X134575523Y-131972023D01*
X134537428Y-131819642D01*
X134537428Y-131629166D01*
X134575523Y-131476785D01*
X134613619Y-131400595D01*
X134651714Y-131362500D01*
X134727904Y-131324404D01*
X133775523Y-129584404D02*
X133775523Y-128784404D01*
X133966000Y-128784404D01*
X134080285Y-128822500D01*
X134156476Y-128898690D01*
X134194571Y-128974880D01*
X134232666Y-129127261D01*
X134232666Y-129241547D01*
X134194571Y-129393928D01*
X134156476Y-129470119D01*
X134080285Y-129546309D01*
X133966000Y-129584404D01*
X133775523Y-129584404D01*
X134994571Y-129584404D02*
X134537428Y-129584404D01*
X134766000Y-129584404D02*
X134766000Y-128784404D01*
X134689809Y-128898690D01*
X134613619Y-128974880D01*
X134537428Y-129012976D01*
X133756476Y-126282500D02*
X133680285Y-126244404D01*
X133566000Y-126244404D01*
X133451714Y-126282500D01*
X133375523Y-126358690D01*
X133337428Y-126434880D01*
X133299333Y-126587261D01*
X133299333Y-126701547D01*
X133337428Y-126853928D01*
X133375523Y-126930119D01*
X133451714Y-127006309D01*
X133566000Y-127044404D01*
X133642190Y-127044404D01*
X133756476Y-127006309D01*
X133794571Y-126968214D01*
X133794571Y-126701547D01*
X133642190Y-126701547D01*
X134137428Y-127044404D02*
X134137428Y-126244404D01*
X134594571Y-127044404D01*
X134594571Y-126244404D01*
X134975523Y-127044404D02*
X134975523Y-126244404D01*
X135166000Y-126244404D01*
X135280285Y-126282500D01*
X135356476Y-126358690D01*
X135394571Y-126434880D01*
X135432666Y-126587261D01*
X135432666Y-126701547D01*
X135394571Y-126853928D01*
X135356476Y-126930119D01*
X135280285Y-127006309D01*
X135166000Y-127044404D01*
X134975523Y-127044404D01*
X133756476Y-123742500D02*
X133680285Y-123704404D01*
X133566000Y-123704404D01*
X133451714Y-123742500D01*
X133375523Y-123818690D01*
X133337428Y-123894880D01*
X133299333Y-124047261D01*
X133299333Y-124161547D01*
X133337428Y-124313928D01*
X133375523Y-124390119D01*
X133451714Y-124466309D01*
X133566000Y-124504404D01*
X133642190Y-124504404D01*
X133756476Y-124466309D01*
X133794571Y-124428214D01*
X133794571Y-124161547D01*
X133642190Y-124161547D01*
X134137428Y-124504404D02*
X134137428Y-123704404D01*
X134594571Y-124504404D01*
X134594571Y-123704404D01*
X134975523Y-124504404D02*
X134975523Y-123704404D01*
X135166000Y-123704404D01*
X135280285Y-123742500D01*
X135356476Y-123818690D01*
X135394571Y-123894880D01*
X135432666Y-124047261D01*
X135432666Y-124161547D01*
X135394571Y-124313928D01*
X135356476Y-124390119D01*
X135280285Y-124466309D01*
X135166000Y-124504404D01*
X134975523Y-124504404D01*
X133775523Y-134664404D02*
X133775523Y-133864404D01*
X133966000Y-133864404D01*
X134080285Y-133902500D01*
X134156476Y-133978690D01*
X134194571Y-134054880D01*
X134232666Y-134207261D01*
X134232666Y-134321547D01*
X134194571Y-134473928D01*
X134156476Y-134550119D01*
X134080285Y-134626309D01*
X133966000Y-134664404D01*
X133775523Y-134664404D01*
X134918380Y-134131071D02*
X134918380Y-134664404D01*
X134727904Y-133826309D02*
X134537428Y-134397738D01*
X135032666Y-134397738D01*
X134232666Y-137128214D02*
X134194571Y-137166309D01*
X134080285Y-137204404D01*
X134004095Y-137204404D01*
X133889809Y-137166309D01*
X133813619Y-137090119D01*
X133775523Y-137013928D01*
X133737428Y-136861547D01*
X133737428Y-136747261D01*
X133775523Y-136594880D01*
X133813619Y-136518690D01*
X133889809Y-136442500D01*
X134004095Y-136404404D01*
X134080285Y-136404404D01*
X134194571Y-136442500D01*
X134232666Y-136480595D01*
X134918380Y-136404404D02*
X134766000Y-136404404D01*
X134689809Y-136442500D01*
X134651714Y-136480595D01*
X134575523Y-136594880D01*
X134537428Y-136747261D01*
X134537428Y-137052023D01*
X134575523Y-137128214D01*
X134613619Y-137166309D01*
X134689809Y-137204404D01*
X134842190Y-137204404D01*
X134918380Y-137166309D01*
X134956476Y-137128214D01*
X134994571Y-137052023D01*
X134994571Y-136861547D01*
X134956476Y-136785357D01*
X134918380Y-136747261D01*
X134842190Y-136709166D01*
X134689809Y-136709166D01*
X134613619Y-136747261D01*
X134575523Y-136785357D01*
X134537428Y-136861547D01*
X133775523Y-139744404D02*
X133775523Y-138944404D01*
X133966000Y-138944404D01*
X134080285Y-138982500D01*
X134156476Y-139058690D01*
X134194571Y-139134880D01*
X134232666Y-139287261D01*
X134232666Y-139401547D01*
X134194571Y-139553928D01*
X134156476Y-139630119D01*
X134080285Y-139706309D01*
X133966000Y-139744404D01*
X133775523Y-139744404D01*
X134499333Y-138944404D02*
X135032666Y-138944404D01*
X134689809Y-139744404D01*
X133813619Y-141865357D02*
X134080285Y-141865357D01*
X134194571Y-142284404D02*
X133813619Y-142284404D01*
X133813619Y-141484404D01*
X134194571Y-141484404D01*
X134880285Y-141484404D02*
X134727904Y-141484404D01*
X134651714Y-141522500D01*
X134613619Y-141560595D01*
X134537428Y-141674880D01*
X134499333Y-141827261D01*
X134499333Y-142132023D01*
X134537428Y-142208214D01*
X134575523Y-142246309D01*
X134651714Y-142284404D01*
X134804095Y-142284404D01*
X134880285Y-142246309D01*
X134918380Y-142208214D01*
X134956476Y-142132023D01*
X134956476Y-141941547D01*
X134918380Y-141865357D01*
X134880285Y-141827261D01*
X134804095Y-141789166D01*
X134651714Y-141789166D01*
X134575523Y-141827261D01*
X134537428Y-141865357D01*
X134499333Y-141941547D01*
X134042190Y-144405357D02*
X134156476Y-144443452D01*
X134194571Y-144481547D01*
X134232666Y-144557738D01*
X134232666Y-144672023D01*
X134194571Y-144748214D01*
X134156476Y-144786309D01*
X134080285Y-144824404D01*
X133775523Y-144824404D01*
X133775523Y-144024404D01*
X134042190Y-144024404D01*
X134118380Y-144062500D01*
X134156476Y-144100595D01*
X134194571Y-144176785D01*
X134194571Y-144252976D01*
X134156476Y-144329166D01*
X134118380Y-144367261D01*
X134042190Y-144405357D01*
X133775523Y-144405357D01*
X134918380Y-144291071D02*
X134918380Y-144824404D01*
X134727904Y-143986309D02*
X134537428Y-144557738D01*
X135032666Y-144557738D01*
X134042190Y-146945357D02*
X134156476Y-146983452D01*
X134194571Y-147021547D01*
X134232666Y-147097738D01*
X134232666Y-147212023D01*
X134194571Y-147288214D01*
X134156476Y-147326309D01*
X134080285Y-147364404D01*
X133775523Y-147364404D01*
X133775523Y-146564404D01*
X134042190Y-146564404D01*
X134118380Y-146602500D01*
X134156476Y-146640595D01*
X134194571Y-146716785D01*
X134194571Y-146792976D01*
X134156476Y-146869166D01*
X134118380Y-146907261D01*
X134042190Y-146945357D01*
X133775523Y-146945357D01*
X134956476Y-146564404D02*
X134575523Y-146564404D01*
X134537428Y-146945357D01*
X134575523Y-146907261D01*
X134651714Y-146869166D01*
X134842190Y-146869166D01*
X134918380Y-146907261D01*
X134956476Y-146945357D01*
X134994571Y-147021547D01*
X134994571Y-147212023D01*
X134956476Y-147288214D01*
X134918380Y-147326309D01*
X134842190Y-147364404D01*
X134651714Y-147364404D01*
X134575523Y-147326309D01*
X134537428Y-147288214D01*
X123120190Y-146945357D02*
X123234476Y-146983452D01*
X123272571Y-147021547D01*
X123310666Y-147097738D01*
X123310666Y-147212023D01*
X123272571Y-147288214D01*
X123234476Y-147326309D01*
X123158285Y-147364404D01*
X122853523Y-147364404D01*
X122853523Y-146564404D01*
X123120190Y-146564404D01*
X123196380Y-146602500D01*
X123234476Y-146640595D01*
X123272571Y-146716785D01*
X123272571Y-146792976D01*
X123234476Y-146869166D01*
X123196380Y-146907261D01*
X123120190Y-146945357D01*
X122853523Y-146945357D01*
X123996380Y-146564404D02*
X123844000Y-146564404D01*
X123767809Y-146602500D01*
X123729714Y-146640595D01*
X123653523Y-146754880D01*
X123615428Y-146907261D01*
X123615428Y-147212023D01*
X123653523Y-147288214D01*
X123691619Y-147326309D01*
X123767809Y-147364404D01*
X123920190Y-147364404D01*
X123996380Y-147326309D01*
X124034476Y-147288214D01*
X124072571Y-147212023D01*
X124072571Y-147021547D01*
X124034476Y-146945357D01*
X123996380Y-146907261D01*
X123920190Y-146869166D01*
X123767809Y-146869166D01*
X123691619Y-146907261D01*
X123653523Y-146945357D01*
X123615428Y-147021547D01*
X123120190Y-141865357D02*
X123234476Y-141903452D01*
X123272571Y-141941547D01*
X123310666Y-142017738D01*
X123310666Y-142132023D01*
X123272571Y-142208214D01*
X123234476Y-142246309D01*
X123158285Y-142284404D01*
X122853523Y-142284404D01*
X122853523Y-141484404D01*
X123120190Y-141484404D01*
X123196380Y-141522500D01*
X123234476Y-141560595D01*
X123272571Y-141636785D01*
X123272571Y-141712976D01*
X123234476Y-141789166D01*
X123196380Y-141827261D01*
X123120190Y-141865357D01*
X122853523Y-141865357D01*
X123577333Y-141484404D02*
X124072571Y-141484404D01*
X123805904Y-141789166D01*
X123920190Y-141789166D01*
X123996380Y-141827261D01*
X124034476Y-141865357D01*
X124072571Y-141941547D01*
X124072571Y-142132023D01*
X124034476Y-142208214D01*
X123996380Y-142246309D01*
X123920190Y-142284404D01*
X123691619Y-142284404D01*
X123615428Y-142246309D01*
X123577333Y-142208214D01*
X123120190Y-139325357D02*
X123234476Y-139363452D01*
X123272571Y-139401547D01*
X123310666Y-139477738D01*
X123310666Y-139592023D01*
X123272571Y-139668214D01*
X123234476Y-139706309D01*
X123158285Y-139744404D01*
X122853523Y-139744404D01*
X122853523Y-138944404D01*
X123120190Y-138944404D01*
X123196380Y-138982500D01*
X123234476Y-139020595D01*
X123272571Y-139096785D01*
X123272571Y-139172976D01*
X123234476Y-139249166D01*
X123196380Y-139287261D01*
X123120190Y-139325357D01*
X122853523Y-139325357D01*
X124072571Y-139744404D02*
X123615428Y-139744404D01*
X123844000Y-139744404D02*
X123844000Y-138944404D01*
X123767809Y-139058690D01*
X123691619Y-139134880D01*
X123615428Y-139172976D01*
X123177333Y-129165357D02*
X122910666Y-129165357D01*
X122910666Y-129584404D02*
X122910666Y-128784404D01*
X123291619Y-128784404D01*
X123939238Y-129051071D02*
X123939238Y-129584404D01*
X123748761Y-128746309D02*
X123558285Y-129317738D01*
X124053523Y-129317738D01*
X122377333Y-126244404D02*
X122644000Y-127044404D01*
X122910666Y-126244404D01*
X123634476Y-126968214D02*
X123596380Y-127006309D01*
X123482095Y-127044404D01*
X123405904Y-127044404D01*
X123291619Y-127006309D01*
X123215428Y-126930119D01*
X123177333Y-126853928D01*
X123139238Y-126701547D01*
X123139238Y-126587261D01*
X123177333Y-126434880D01*
X123215428Y-126358690D01*
X123291619Y-126282500D01*
X123405904Y-126244404D01*
X123482095Y-126244404D01*
X123596380Y-126282500D01*
X123634476Y-126320595D01*
X124434476Y-126968214D02*
X124396380Y-127006309D01*
X124282095Y-127044404D01*
X124205904Y-127044404D01*
X124091619Y-127006309D01*
X124015428Y-126930119D01*
X123977333Y-126853928D01*
X123939238Y-126701547D01*
X123939238Y-126587261D01*
X123977333Y-126434880D01*
X124015428Y-126358690D01*
X124091619Y-126282500D01*
X124205904Y-126244404D01*
X124282095Y-126244404D01*
X124396380Y-126282500D01*
X124434476Y-126320595D01*
X122834476Y-121202500D02*
X122758285Y-121164404D01*
X122644000Y-121164404D01*
X122529714Y-121202500D01*
X122453523Y-121278690D01*
X122415428Y-121354880D01*
X122377333Y-121507261D01*
X122377333Y-121621547D01*
X122415428Y-121773928D01*
X122453523Y-121850119D01*
X122529714Y-121926309D01*
X122644000Y-121964404D01*
X122720190Y-121964404D01*
X122834476Y-121926309D01*
X122872571Y-121888214D01*
X122872571Y-121621547D01*
X122720190Y-121621547D01*
X123215428Y-121964404D02*
X123215428Y-121164404D01*
X123672571Y-121964404D01*
X123672571Y-121164404D01*
X124053523Y-121964404D02*
X124053523Y-121164404D01*
X124244000Y-121164404D01*
X124358285Y-121202500D01*
X124434476Y-121278690D01*
X124472571Y-121354880D01*
X124510666Y-121507261D01*
X124510666Y-121621547D01*
X124472571Y-121773928D01*
X124434476Y-121850119D01*
X124358285Y-121926309D01*
X124244000Y-121964404D01*
X124053523Y-121964404D01*
X122891619Y-119424404D02*
X122624952Y-119043452D01*
X122434476Y-119424404D02*
X122434476Y-118624404D01*
X122739238Y-118624404D01*
X122815428Y-118662500D01*
X122853523Y-118700595D01*
X122891619Y-118776785D01*
X122891619Y-118891071D01*
X122853523Y-118967261D01*
X122815428Y-119005357D01*
X122739238Y-119043452D01*
X122434476Y-119043452D01*
X123196380Y-119195833D02*
X123577333Y-119195833D01*
X123120190Y-119424404D02*
X123386857Y-118624404D01*
X123653523Y-119424404D01*
X123844000Y-118624404D02*
X124034476Y-119424404D01*
X124186857Y-118852976D01*
X124339238Y-119424404D01*
X124529714Y-118624404D01*
X123177333Y-131705357D02*
X122910666Y-131705357D01*
X122910666Y-132124404D02*
X122910666Y-131324404D01*
X123291619Y-131324404D01*
X123977333Y-131324404D02*
X123596380Y-131324404D01*
X123558285Y-131705357D01*
X123596380Y-131667261D01*
X123672571Y-131629166D01*
X123863047Y-131629166D01*
X123939238Y-131667261D01*
X123977333Y-131705357D01*
X124015428Y-131781547D01*
X124015428Y-131972023D01*
X123977333Y-132048214D01*
X123939238Y-132086309D01*
X123863047Y-132124404D01*
X123672571Y-132124404D01*
X123596380Y-132086309D01*
X123558285Y-132048214D01*
X123177333Y-134245357D02*
X122910666Y-134245357D01*
X122910666Y-134664404D02*
X122910666Y-133864404D01*
X123291619Y-133864404D01*
X123939238Y-133864404D02*
X123786857Y-133864404D01*
X123710666Y-133902500D01*
X123672571Y-133940595D01*
X123596380Y-134054880D01*
X123558285Y-134207261D01*
X123558285Y-134512023D01*
X123596380Y-134588214D01*
X123634476Y-134626309D01*
X123710666Y-134664404D01*
X123863047Y-134664404D01*
X123939238Y-134626309D01*
X123977333Y-134588214D01*
X124015428Y-134512023D01*
X124015428Y-134321547D01*
X123977333Y-134245357D01*
X123939238Y-134207261D01*
X123863047Y-134169166D01*
X123710666Y-134169166D01*
X123634476Y-134207261D01*
X123596380Y-134245357D01*
X123558285Y-134321547D01*
X123177333Y-136785357D02*
X122910666Y-136785357D01*
X122910666Y-137204404D02*
X122910666Y-136404404D01*
X123291619Y-136404404D01*
X123520190Y-136404404D02*
X124053523Y-136404404D01*
X123710666Y-137204404D01*
X123120190Y-144405357D02*
X123234476Y-144443452D01*
X123272571Y-144481547D01*
X123310666Y-144557738D01*
X123310666Y-144672023D01*
X123272571Y-144748214D01*
X123234476Y-144786309D01*
X123158285Y-144824404D01*
X122853523Y-144824404D01*
X122853523Y-144024404D01*
X123120190Y-144024404D01*
X123196380Y-144062500D01*
X123234476Y-144100595D01*
X123272571Y-144176785D01*
X123272571Y-144252976D01*
X123234476Y-144329166D01*
X123196380Y-144367261D01*
X123120190Y-144405357D01*
X122853523Y-144405357D01*
X123615428Y-144100595D02*
X123653523Y-144062500D01*
X123729714Y-144024404D01*
X123920190Y-144024404D01*
X123996380Y-144062500D01*
X124034476Y-144100595D01*
X124072571Y-144176785D01*
X124072571Y-144252976D01*
X124034476Y-144367261D01*
X123577333Y-144824404D01*
X124072571Y-144824404D01*
X130286395Y-118624404D02*
X130743538Y-118624404D01*
X130514967Y-119424404D02*
X130514967Y-118624404D01*
X130934014Y-118624404D02*
X131467348Y-119424404D01*
X131467348Y-118624404D02*
X130934014Y-119424404D01*
X131924491Y-118624404D02*
X132000681Y-118624404D01*
X132076872Y-118662500D01*
X132114967Y-118700595D01*
X132153062Y-118776785D01*
X132191157Y-118929166D01*
X132191157Y-119119642D01*
X132153062Y-119272023D01*
X132114967Y-119348214D01*
X132076872Y-119386309D01*
X132000681Y-119424404D01*
X131924491Y-119424404D01*
X131848300Y-119386309D01*
X131810205Y-119348214D01*
X131772110Y-119272023D01*
X131734014Y-119119642D01*
X131734014Y-118929166D01*
X131772110Y-118776785D01*
X131810205Y-118700595D01*
X131848300Y-118662500D01*
X131924491Y-118624404D01*
X133105443Y-118586309D02*
X132419729Y-119614880D01*
X133372110Y-119424404D02*
X133372110Y-118624404D01*
X133562586Y-118624404D01*
X133676872Y-118662500D01*
X133753062Y-118738690D01*
X133791157Y-118814880D01*
X133829252Y-118967261D01*
X133829252Y-119081547D01*
X133791157Y-119233928D01*
X133753062Y-119310119D01*
X133676872Y-119386309D01*
X133562586Y-119424404D01*
X133372110Y-119424404D01*
X134095919Y-118624404D02*
X134591157Y-118624404D01*
X134324491Y-118929166D01*
X134438776Y-118929166D01*
X134514967Y-118967261D01*
X134553062Y-119005357D01*
X134591157Y-119081547D01*
X134591157Y-119272023D01*
X134553062Y-119348214D01*
X134514967Y-119386309D01*
X134438776Y-119424404D01*
X134210205Y-119424404D01*
X134134014Y-119386309D01*
X134095919Y-119348214D01*
X123331666Y-124446309D02*
X123445952Y-124484404D01*
X123636428Y-124484404D01*
X123712619Y-124446309D01*
X123750714Y-124408214D01*
X123788809Y-124332023D01*
X123788809Y-124255833D01*
X123750714Y-124179642D01*
X123712619Y-124141547D01*
X123636428Y-124103452D01*
X123484047Y-124065357D01*
X123407857Y-124027261D01*
X123369761Y-123989166D01*
X123331666Y-123912976D01*
X123331666Y-123836785D01*
X123369761Y-123760595D01*
X123407857Y-123722500D01*
X123484047Y-123684404D01*
X123674523Y-123684404D01*
X123788809Y-123722500D01*
X124017380Y-123684404D02*
X124474523Y-123684404D01*
X124245952Y-124484404D02*
X124245952Y-123684404D01*
%LPC*%
D17*
X68000000Y-141300000D03*
D18*
X70500000Y-141300000D03*
X73000000Y-141300000D03*
D19*
X64900000Y-133800000D03*
X76100000Y-133800000D03*
D18*
X68000000Y-126800000D03*
X73000000Y-126800000D03*
D20*
X71600000Y-143600000D03*
X68800000Y-143600000D03*
D21*
X66300000Y-143600000D03*
D22*
X74100000Y-143600000D03*
X74500000Y-162400000D03*
D21*
X66700000Y-162400000D03*
D20*
X69200000Y-162400000D03*
X72000000Y-162400000D03*
X90800000Y-143600000D03*
X88000000Y-143600000D03*
D21*
X85500000Y-143600000D03*
D22*
X93300000Y-143600000D03*
X93400000Y-162400000D03*
D21*
X85600000Y-162400000D03*
D20*
X88100000Y-162400000D03*
X90900000Y-162400000D03*
X109800000Y-143700000D03*
X107000000Y-143700000D03*
D21*
X104500000Y-143700000D03*
D22*
X112300000Y-143700000D03*
X112600000Y-162100000D03*
D21*
X104800000Y-162100000D03*
D20*
X107300000Y-162100000D03*
X110100000Y-162100000D03*
D23*
X73040000Y-147637500D03*
X66690000Y-150177500D03*
D24*
X70500000Y-152717500D03*
D25*
X65420000Y-152717500D03*
X75580000Y-152717500D03*
X94540000Y-133667500D03*
X84380000Y-133667500D03*
D24*
X89460000Y-133667500D03*
D23*
X85650000Y-131127500D03*
X92000000Y-128587500D03*
D25*
X94540000Y-152717500D03*
X84380000Y-152717500D03*
D24*
X89460000Y-152717500D03*
D23*
X85650000Y-150177500D03*
X92000000Y-147637500D03*
D25*
X113580000Y-133667500D03*
X103420000Y-133667500D03*
D24*
X108500000Y-133667500D03*
D23*
X104690000Y-131127500D03*
X111040000Y-128587500D03*
X111000000Y-147637500D03*
X104650000Y-150177500D03*
D24*
X108460000Y-152717500D03*
D25*
X103380000Y-152717500D03*
X113540000Y-152717500D03*
D23*
X73025000Y-128620000D03*
X66675000Y-131160000D03*
D24*
X70485000Y-133700000D03*
D25*
X65405000Y-133700000D03*
X75565000Y-133700000D03*
D18*
X111000000Y-126700000D03*
X106000000Y-126700000D03*
D19*
X114100000Y-133700000D03*
X102900000Y-133700000D03*
D18*
X111000000Y-141200000D03*
X108500000Y-141200000D03*
D17*
X106000000Y-141200000D03*
D26*
X136525000Y-119062500D03*
D27*
X136525000Y-121602500D03*
X136525000Y-124142500D03*
X136525000Y-126682500D03*
X136525000Y-129222500D03*
X136525000Y-131762500D03*
X136525000Y-134302500D03*
X136525000Y-136842500D03*
X136525000Y-139382500D03*
X136525000Y-141922500D03*
X136525000Y-144462500D03*
X121285000Y-147002500D03*
X121285000Y-144462500D03*
X121285000Y-141922500D03*
X121285000Y-139382500D03*
X121285000Y-136842500D03*
X121285000Y-134302500D03*
X121285000Y-131762500D03*
X121285000Y-129222500D03*
X121285000Y-126682500D03*
X121285000Y-124142500D03*
X121285000Y-121602500D03*
X136525000Y-147002500D03*
X121285000Y-119062500D03*
M02*
