G04 #@! TF.GenerationSoftware,KiCad,Pcbnew,(5.1.5)-3*
G04 #@! TF.CreationDate,2020-07-09T22:20:04+02:00*
G04 #@! TF.ProjectId,2x3_macropad,3278335f-6d61-4637-926f-7061642e6b69,rev?*
G04 #@! TF.SameCoordinates,Original*
G04 #@! TF.FileFunction,Soldermask,Bot*
G04 #@! TF.FilePolarity,Negative*
%FSLAX46Y46*%
G04 Gerber Fmt 4.6, Leading zero omitted, Abs format (unit mm)*
G04 Created by KiCad (PCBNEW (5.1.5)-3) date 2020-07-09 22:20:04*
%MOMM*%
%LPD*%
G04 APERTURE LIST*
%ADD10C,0.100000*%
G04 APERTURE END LIST*
D10*
G36*
X94251000Y-163251000D02*
G01*
X92549000Y-163251000D01*
X92549000Y-161549000D01*
X94251000Y-161549000D01*
X94251000Y-163251000D01*
G37*
G36*
X75351000Y-163251000D02*
G01*
X73649000Y-163251000D01*
X73649000Y-161549000D01*
X75351000Y-161549000D01*
X75351000Y-163251000D01*
G37*
G36*
X66948228Y-161581703D02*
G01*
X67103100Y-161645853D01*
X67242481Y-161738985D01*
X67361015Y-161857519D01*
X67454147Y-161996900D01*
X67518297Y-162151772D01*
X67551000Y-162316184D01*
X67551000Y-162483816D01*
X67518297Y-162648228D01*
X67454147Y-162803100D01*
X67361015Y-162942481D01*
X67242481Y-163061015D01*
X67103100Y-163154147D01*
X66948228Y-163218297D01*
X66783816Y-163251000D01*
X66616184Y-163251000D01*
X66451772Y-163218297D01*
X66296900Y-163154147D01*
X66157519Y-163061015D01*
X66038985Y-162942481D01*
X65945853Y-162803100D01*
X65881703Y-162648228D01*
X65849000Y-162483816D01*
X65849000Y-162316184D01*
X65881703Y-162151772D01*
X65945853Y-161996900D01*
X66038985Y-161857519D01*
X66157519Y-161738985D01*
X66296900Y-161645853D01*
X66451772Y-161581703D01*
X66616184Y-161549000D01*
X66783816Y-161549000D01*
X66948228Y-161581703D01*
G37*
G36*
X85848228Y-161581703D02*
G01*
X86003100Y-161645853D01*
X86142481Y-161738985D01*
X86261015Y-161857519D01*
X86354147Y-161996900D01*
X86418297Y-162151772D01*
X86451000Y-162316184D01*
X86451000Y-162483816D01*
X86418297Y-162648228D01*
X86354147Y-162803100D01*
X86261015Y-162942481D01*
X86142481Y-163061015D01*
X86003100Y-163154147D01*
X85848228Y-163218297D01*
X85683816Y-163251000D01*
X85516184Y-163251000D01*
X85351772Y-163218297D01*
X85196900Y-163154147D01*
X85057519Y-163061015D01*
X84938985Y-162942481D01*
X84845853Y-162803100D01*
X84781703Y-162648228D01*
X84749000Y-162483816D01*
X84749000Y-162316184D01*
X84781703Y-162151772D01*
X84845853Y-161996900D01*
X84938985Y-161857519D01*
X85057519Y-161738985D01*
X85196900Y-161645853D01*
X85351772Y-161581703D01*
X85516184Y-161549000D01*
X85683816Y-161549000D01*
X85848228Y-161581703D01*
G37*
G36*
X72851000Y-163051000D02*
G01*
X71149000Y-163051000D01*
X71149000Y-161749000D01*
X72851000Y-161749000D01*
X72851000Y-163051000D01*
G37*
G36*
X88951000Y-163051000D02*
G01*
X87249000Y-163051000D01*
X87249000Y-161749000D01*
X88951000Y-161749000D01*
X88951000Y-163051000D01*
G37*
G36*
X91751000Y-163051000D02*
G01*
X90049000Y-163051000D01*
X90049000Y-161749000D01*
X91751000Y-161749000D01*
X91751000Y-163051000D01*
G37*
G36*
X70051000Y-163051000D02*
G01*
X68349000Y-163051000D01*
X68349000Y-161749000D01*
X70051000Y-161749000D01*
X70051000Y-163051000D01*
G37*
G36*
X105048228Y-161281703D02*
G01*
X105203100Y-161345853D01*
X105342481Y-161438985D01*
X105461015Y-161557519D01*
X105554147Y-161696900D01*
X105618297Y-161851772D01*
X105651000Y-162016184D01*
X105651000Y-162183816D01*
X105618297Y-162348228D01*
X105554147Y-162503100D01*
X105461015Y-162642481D01*
X105342481Y-162761015D01*
X105203100Y-162854147D01*
X105048228Y-162918297D01*
X104883816Y-162951000D01*
X104716184Y-162951000D01*
X104551772Y-162918297D01*
X104396900Y-162854147D01*
X104257519Y-162761015D01*
X104138985Y-162642481D01*
X104045853Y-162503100D01*
X103981703Y-162348228D01*
X103949000Y-162183816D01*
X103949000Y-162016184D01*
X103981703Y-161851772D01*
X104045853Y-161696900D01*
X104138985Y-161557519D01*
X104257519Y-161438985D01*
X104396900Y-161345853D01*
X104551772Y-161281703D01*
X104716184Y-161249000D01*
X104883816Y-161249000D01*
X105048228Y-161281703D01*
G37*
G36*
X113451000Y-162951000D02*
G01*
X111749000Y-162951000D01*
X111749000Y-161249000D01*
X113451000Y-161249000D01*
X113451000Y-162951000D01*
G37*
G36*
X108151000Y-162751000D02*
G01*
X106449000Y-162751000D01*
X106449000Y-161449000D01*
X108151000Y-161449000D01*
X108151000Y-162751000D01*
G37*
G36*
X110951000Y-162751000D02*
G01*
X109249000Y-162751000D01*
X109249000Y-161449000D01*
X110951000Y-161449000D01*
X110951000Y-162751000D01*
G37*
G36*
X131351000Y-161851000D02*
G01*
X129749000Y-161851000D01*
X129749000Y-160749000D01*
X131351000Y-160749000D01*
X131351000Y-161851000D01*
G37*
G36*
X126451000Y-161851000D02*
G01*
X124849000Y-161851000D01*
X124849000Y-160749000D01*
X126451000Y-160749000D01*
X126451000Y-161851000D01*
G37*
G36*
X131351000Y-158651000D02*
G01*
X129749000Y-158651000D01*
X129749000Y-157549000D01*
X131351000Y-157549000D01*
X131351000Y-158651000D01*
G37*
G36*
X126451000Y-158651000D02*
G01*
X124849000Y-158651000D01*
X124849000Y-157549000D01*
X126451000Y-157549000D01*
X126451000Y-158651000D01*
G37*
G36*
X71096474Y-150751184D02*
G01*
X71314474Y-150841483D01*
X71468623Y-150905333D01*
X71803548Y-151129123D01*
X72088377Y-151413952D01*
X72312167Y-151748877D01*
X72334604Y-151803046D01*
X72466316Y-152121026D01*
X72544900Y-152516094D01*
X72544900Y-152918906D01*
X72466316Y-153313974D01*
X72376017Y-153531974D01*
X72312167Y-153686123D01*
X72088377Y-154021048D01*
X71803548Y-154305877D01*
X71468623Y-154529667D01*
X71314474Y-154593517D01*
X71096474Y-154683816D01*
X70701406Y-154762400D01*
X70298594Y-154762400D01*
X69903526Y-154683816D01*
X69685526Y-154593517D01*
X69531377Y-154529667D01*
X69196452Y-154305877D01*
X68911623Y-154021048D01*
X68687833Y-153686123D01*
X68623983Y-153531974D01*
X68533684Y-153313974D01*
X68455100Y-152918906D01*
X68455100Y-152516094D01*
X68533684Y-152121026D01*
X68665396Y-151803046D01*
X68687833Y-151748877D01*
X68911623Y-151413952D01*
X69196452Y-151129123D01*
X69531377Y-150905333D01*
X69685526Y-150841483D01*
X69903526Y-150751184D01*
X70298594Y-150672600D01*
X70701406Y-150672600D01*
X71096474Y-150751184D01*
G37*
G36*
X90056474Y-150751184D02*
G01*
X90274474Y-150841483D01*
X90428623Y-150905333D01*
X90763548Y-151129123D01*
X91048377Y-151413952D01*
X91272167Y-151748877D01*
X91294604Y-151803046D01*
X91426316Y-152121026D01*
X91504900Y-152516094D01*
X91504900Y-152918906D01*
X91426316Y-153313974D01*
X91336017Y-153531974D01*
X91272167Y-153686123D01*
X91048377Y-154021048D01*
X90763548Y-154305877D01*
X90428623Y-154529667D01*
X90274474Y-154593517D01*
X90056474Y-154683816D01*
X89661406Y-154762400D01*
X89258594Y-154762400D01*
X88863526Y-154683816D01*
X88645526Y-154593517D01*
X88491377Y-154529667D01*
X88156452Y-154305877D01*
X87871623Y-154021048D01*
X87647833Y-153686123D01*
X87583983Y-153531974D01*
X87493684Y-153313974D01*
X87415100Y-152918906D01*
X87415100Y-152516094D01*
X87493684Y-152121026D01*
X87625396Y-151803046D01*
X87647833Y-151748877D01*
X87871623Y-151413952D01*
X88156452Y-151129123D01*
X88491377Y-150905333D01*
X88645526Y-150841483D01*
X88863526Y-150751184D01*
X89258594Y-150672600D01*
X89661406Y-150672600D01*
X90056474Y-150751184D01*
G37*
G36*
X109056474Y-150751184D02*
G01*
X109274474Y-150841483D01*
X109428623Y-150905333D01*
X109763548Y-151129123D01*
X110048377Y-151413952D01*
X110272167Y-151748877D01*
X110294604Y-151803046D01*
X110426316Y-152121026D01*
X110504900Y-152516094D01*
X110504900Y-152918906D01*
X110426316Y-153313974D01*
X110336017Y-153531974D01*
X110272167Y-153686123D01*
X110048377Y-154021048D01*
X109763548Y-154305877D01*
X109428623Y-154529667D01*
X109274474Y-154593517D01*
X109056474Y-154683816D01*
X108661406Y-154762400D01*
X108258594Y-154762400D01*
X107863526Y-154683816D01*
X107645526Y-154593517D01*
X107491377Y-154529667D01*
X107156452Y-154305877D01*
X106871623Y-154021048D01*
X106647833Y-153686123D01*
X106583983Y-153531974D01*
X106493684Y-153313974D01*
X106415100Y-152918906D01*
X106415100Y-152516094D01*
X106493684Y-152121026D01*
X106625396Y-151803046D01*
X106647833Y-151748877D01*
X106871623Y-151413952D01*
X107156452Y-151129123D01*
X107491377Y-150905333D01*
X107645526Y-150841483D01*
X107863526Y-150751184D01*
X108258594Y-150672600D01*
X108661406Y-150672600D01*
X109056474Y-150751184D01*
G37*
G36*
X103657395Y-151803046D02*
G01*
X103830466Y-151874734D01*
X103830467Y-151874735D01*
X103986227Y-151978810D01*
X104118690Y-152111273D01*
X104171081Y-152189682D01*
X104222766Y-152267034D01*
X104294454Y-152440105D01*
X104331000Y-152623833D01*
X104331000Y-152811167D01*
X104294454Y-152994895D01*
X104222766Y-153167966D01*
X104222765Y-153167967D01*
X104118690Y-153323727D01*
X103986227Y-153456190D01*
X103907818Y-153508581D01*
X103830466Y-153560266D01*
X103657395Y-153631954D01*
X103473667Y-153668500D01*
X103286333Y-153668500D01*
X103102605Y-153631954D01*
X102929534Y-153560266D01*
X102852182Y-153508581D01*
X102773773Y-153456190D01*
X102641310Y-153323727D01*
X102537235Y-153167967D01*
X102537234Y-153167966D01*
X102465546Y-152994895D01*
X102429000Y-152811167D01*
X102429000Y-152623833D01*
X102465546Y-152440105D01*
X102537234Y-152267034D01*
X102588919Y-152189682D01*
X102641310Y-152111273D01*
X102773773Y-151978810D01*
X102929533Y-151874735D01*
X102929534Y-151874734D01*
X103102605Y-151803046D01*
X103286333Y-151766500D01*
X103473667Y-151766500D01*
X103657395Y-151803046D01*
G37*
G36*
X65697395Y-151803046D02*
G01*
X65870466Y-151874734D01*
X65870467Y-151874735D01*
X66026227Y-151978810D01*
X66158690Y-152111273D01*
X66211081Y-152189682D01*
X66262766Y-152267034D01*
X66334454Y-152440105D01*
X66371000Y-152623833D01*
X66371000Y-152811167D01*
X66334454Y-152994895D01*
X66262766Y-153167966D01*
X66262765Y-153167967D01*
X66158690Y-153323727D01*
X66026227Y-153456190D01*
X65947818Y-153508581D01*
X65870466Y-153560266D01*
X65697395Y-153631954D01*
X65513667Y-153668500D01*
X65326333Y-153668500D01*
X65142605Y-153631954D01*
X64969534Y-153560266D01*
X64892182Y-153508581D01*
X64813773Y-153456190D01*
X64681310Y-153323727D01*
X64577235Y-153167967D01*
X64577234Y-153167966D01*
X64505546Y-152994895D01*
X64469000Y-152811167D01*
X64469000Y-152623833D01*
X64505546Y-152440105D01*
X64577234Y-152267034D01*
X64628919Y-152189682D01*
X64681310Y-152111273D01*
X64813773Y-151978810D01*
X64969533Y-151874735D01*
X64969534Y-151874734D01*
X65142605Y-151803046D01*
X65326333Y-151766500D01*
X65513667Y-151766500D01*
X65697395Y-151803046D01*
G37*
G36*
X75857395Y-151803046D02*
G01*
X76030466Y-151874734D01*
X76030467Y-151874735D01*
X76186227Y-151978810D01*
X76318690Y-152111273D01*
X76371081Y-152189682D01*
X76422766Y-152267034D01*
X76494454Y-152440105D01*
X76531000Y-152623833D01*
X76531000Y-152811167D01*
X76494454Y-152994895D01*
X76422766Y-153167966D01*
X76422765Y-153167967D01*
X76318690Y-153323727D01*
X76186227Y-153456190D01*
X76107818Y-153508581D01*
X76030466Y-153560266D01*
X75857395Y-153631954D01*
X75673667Y-153668500D01*
X75486333Y-153668500D01*
X75302605Y-153631954D01*
X75129534Y-153560266D01*
X75052182Y-153508581D01*
X74973773Y-153456190D01*
X74841310Y-153323727D01*
X74737235Y-153167967D01*
X74737234Y-153167966D01*
X74665546Y-152994895D01*
X74629000Y-152811167D01*
X74629000Y-152623833D01*
X74665546Y-152440105D01*
X74737234Y-152267034D01*
X74788919Y-152189682D01*
X74841310Y-152111273D01*
X74973773Y-151978810D01*
X75129533Y-151874735D01*
X75129534Y-151874734D01*
X75302605Y-151803046D01*
X75486333Y-151766500D01*
X75673667Y-151766500D01*
X75857395Y-151803046D01*
G37*
G36*
X113817395Y-151803046D02*
G01*
X113990466Y-151874734D01*
X113990467Y-151874735D01*
X114146227Y-151978810D01*
X114278690Y-152111273D01*
X114331081Y-152189682D01*
X114382766Y-152267034D01*
X114454454Y-152440105D01*
X114491000Y-152623833D01*
X114491000Y-152811167D01*
X114454454Y-152994895D01*
X114382766Y-153167966D01*
X114382765Y-153167967D01*
X114278690Y-153323727D01*
X114146227Y-153456190D01*
X114067818Y-153508581D01*
X113990466Y-153560266D01*
X113817395Y-153631954D01*
X113633667Y-153668500D01*
X113446333Y-153668500D01*
X113262605Y-153631954D01*
X113089534Y-153560266D01*
X113012182Y-153508581D01*
X112933773Y-153456190D01*
X112801310Y-153323727D01*
X112697235Y-153167967D01*
X112697234Y-153167966D01*
X112625546Y-152994895D01*
X112589000Y-152811167D01*
X112589000Y-152623833D01*
X112625546Y-152440105D01*
X112697234Y-152267034D01*
X112748919Y-152189682D01*
X112801310Y-152111273D01*
X112933773Y-151978810D01*
X113089533Y-151874735D01*
X113089534Y-151874734D01*
X113262605Y-151803046D01*
X113446333Y-151766500D01*
X113633667Y-151766500D01*
X113817395Y-151803046D01*
G37*
G36*
X84657395Y-151803046D02*
G01*
X84830466Y-151874734D01*
X84830467Y-151874735D01*
X84986227Y-151978810D01*
X85118690Y-152111273D01*
X85171081Y-152189682D01*
X85222766Y-152267034D01*
X85294454Y-152440105D01*
X85331000Y-152623833D01*
X85331000Y-152811167D01*
X85294454Y-152994895D01*
X85222766Y-153167966D01*
X85222765Y-153167967D01*
X85118690Y-153323727D01*
X84986227Y-153456190D01*
X84907818Y-153508581D01*
X84830466Y-153560266D01*
X84657395Y-153631954D01*
X84473667Y-153668500D01*
X84286333Y-153668500D01*
X84102605Y-153631954D01*
X83929534Y-153560266D01*
X83852182Y-153508581D01*
X83773773Y-153456190D01*
X83641310Y-153323727D01*
X83537235Y-153167967D01*
X83537234Y-153167966D01*
X83465546Y-152994895D01*
X83429000Y-152811167D01*
X83429000Y-152623833D01*
X83465546Y-152440105D01*
X83537234Y-152267034D01*
X83588919Y-152189682D01*
X83641310Y-152111273D01*
X83773773Y-151978810D01*
X83929533Y-151874735D01*
X83929534Y-151874734D01*
X84102605Y-151803046D01*
X84286333Y-151766500D01*
X84473667Y-151766500D01*
X84657395Y-151803046D01*
G37*
G36*
X94817395Y-151803046D02*
G01*
X94990466Y-151874734D01*
X94990467Y-151874735D01*
X95146227Y-151978810D01*
X95278690Y-152111273D01*
X95331081Y-152189682D01*
X95382766Y-152267034D01*
X95454454Y-152440105D01*
X95491000Y-152623833D01*
X95491000Y-152811167D01*
X95454454Y-152994895D01*
X95382766Y-153167966D01*
X95382765Y-153167967D01*
X95278690Y-153323727D01*
X95146227Y-153456190D01*
X95067818Y-153508581D01*
X94990466Y-153560266D01*
X94817395Y-153631954D01*
X94633667Y-153668500D01*
X94446333Y-153668500D01*
X94262605Y-153631954D01*
X94089534Y-153560266D01*
X94012182Y-153508581D01*
X93933773Y-153456190D01*
X93801310Y-153323727D01*
X93697235Y-153167967D01*
X93697234Y-153167966D01*
X93625546Y-152994895D01*
X93589000Y-152811167D01*
X93589000Y-152623833D01*
X93625546Y-152440105D01*
X93697234Y-152267034D01*
X93748919Y-152189682D01*
X93801310Y-152111273D01*
X93933773Y-151978810D01*
X94089533Y-151874735D01*
X94089534Y-151874734D01*
X94262605Y-151803046D01*
X94446333Y-151766500D01*
X94633667Y-151766500D01*
X94817395Y-151803046D01*
G37*
G36*
X67038276Y-149029384D02*
G01*
X67255569Y-149119390D01*
X67255571Y-149119391D01*
X67451130Y-149250060D01*
X67617440Y-149416370D01*
X67748110Y-149611931D01*
X67838116Y-149829224D01*
X67884000Y-150059900D01*
X67884000Y-150295100D01*
X67838116Y-150525776D01*
X67777299Y-150672600D01*
X67748109Y-150743071D01*
X67617440Y-150938630D01*
X67451130Y-151104940D01*
X67255571Y-151235609D01*
X67255570Y-151235610D01*
X67255569Y-151235610D01*
X67038276Y-151325616D01*
X66807600Y-151371500D01*
X66572400Y-151371500D01*
X66341724Y-151325616D01*
X66124431Y-151235610D01*
X66124430Y-151235610D01*
X66124429Y-151235609D01*
X65928870Y-151104940D01*
X65762560Y-150938630D01*
X65631891Y-150743071D01*
X65602701Y-150672600D01*
X65541884Y-150525776D01*
X65496000Y-150295100D01*
X65496000Y-150059900D01*
X65541884Y-149829224D01*
X65631890Y-149611931D01*
X65762560Y-149416370D01*
X65928870Y-149250060D01*
X66124429Y-149119391D01*
X66124431Y-149119390D01*
X66341724Y-149029384D01*
X66572400Y-148983500D01*
X66807600Y-148983500D01*
X67038276Y-149029384D01*
G37*
G36*
X104998276Y-149029384D02*
G01*
X105215569Y-149119390D01*
X105215571Y-149119391D01*
X105411130Y-149250060D01*
X105577440Y-149416370D01*
X105708110Y-149611931D01*
X105798116Y-149829224D01*
X105844000Y-150059900D01*
X105844000Y-150295100D01*
X105798116Y-150525776D01*
X105737299Y-150672600D01*
X105708109Y-150743071D01*
X105577440Y-150938630D01*
X105411130Y-151104940D01*
X105215571Y-151235609D01*
X105215570Y-151235610D01*
X105215569Y-151235610D01*
X104998276Y-151325616D01*
X104767600Y-151371500D01*
X104532400Y-151371500D01*
X104301724Y-151325616D01*
X104084431Y-151235610D01*
X104084430Y-151235610D01*
X104084429Y-151235609D01*
X103888870Y-151104940D01*
X103722560Y-150938630D01*
X103591891Y-150743071D01*
X103562701Y-150672600D01*
X103501884Y-150525776D01*
X103456000Y-150295100D01*
X103456000Y-150059900D01*
X103501884Y-149829224D01*
X103591890Y-149611931D01*
X103722560Y-149416370D01*
X103888870Y-149250060D01*
X104084429Y-149119391D01*
X104084431Y-149119390D01*
X104301724Y-149029384D01*
X104532400Y-148983500D01*
X104767600Y-148983500D01*
X104998276Y-149029384D01*
G37*
G36*
X85998276Y-149029384D02*
G01*
X86215569Y-149119390D01*
X86215571Y-149119391D01*
X86411130Y-149250060D01*
X86577440Y-149416370D01*
X86708110Y-149611931D01*
X86798116Y-149829224D01*
X86844000Y-150059900D01*
X86844000Y-150295100D01*
X86798116Y-150525776D01*
X86737299Y-150672600D01*
X86708109Y-150743071D01*
X86577440Y-150938630D01*
X86411130Y-151104940D01*
X86215571Y-151235609D01*
X86215570Y-151235610D01*
X86215569Y-151235610D01*
X85998276Y-151325616D01*
X85767600Y-151371500D01*
X85532400Y-151371500D01*
X85301724Y-151325616D01*
X85084431Y-151235610D01*
X85084430Y-151235610D01*
X85084429Y-151235609D01*
X84888870Y-151104940D01*
X84722560Y-150938630D01*
X84591891Y-150743071D01*
X84562701Y-150672600D01*
X84501884Y-150525776D01*
X84456000Y-150295100D01*
X84456000Y-150059900D01*
X84501884Y-149829224D01*
X84591890Y-149611931D01*
X84722560Y-149416370D01*
X84888870Y-149250060D01*
X85084429Y-149119391D01*
X85084431Y-149119390D01*
X85301724Y-149029384D01*
X85532400Y-148983500D01*
X85767600Y-148983500D01*
X85998276Y-149029384D01*
G37*
G36*
X73388276Y-146489384D02*
G01*
X73605569Y-146579390D01*
X73605571Y-146579391D01*
X73801130Y-146710060D01*
X73967440Y-146876370D01*
X74098110Y-147071931D01*
X74188116Y-147289224D01*
X74234000Y-147519900D01*
X74234000Y-147755100D01*
X74188116Y-147985776D01*
X74098110Y-148203069D01*
X74098109Y-148203071D01*
X73967440Y-148398630D01*
X73801130Y-148564940D01*
X73605571Y-148695609D01*
X73605570Y-148695610D01*
X73605569Y-148695610D01*
X73388276Y-148785616D01*
X73157600Y-148831500D01*
X72922400Y-148831500D01*
X72691724Y-148785616D01*
X72474431Y-148695610D01*
X72474430Y-148695610D01*
X72474429Y-148695609D01*
X72278870Y-148564940D01*
X72112560Y-148398630D01*
X71981891Y-148203071D01*
X71981890Y-148203069D01*
X71891884Y-147985776D01*
X71846000Y-147755100D01*
X71846000Y-147519900D01*
X71891884Y-147289224D01*
X71981890Y-147071931D01*
X72112560Y-146876370D01*
X72278870Y-146710060D01*
X72474429Y-146579391D01*
X72474431Y-146579390D01*
X72691724Y-146489384D01*
X72922400Y-146443500D01*
X73157600Y-146443500D01*
X73388276Y-146489384D01*
G37*
G36*
X111348276Y-146489384D02*
G01*
X111565569Y-146579390D01*
X111565571Y-146579391D01*
X111761130Y-146710060D01*
X111927440Y-146876370D01*
X112058110Y-147071931D01*
X112148116Y-147289224D01*
X112194000Y-147519900D01*
X112194000Y-147755100D01*
X112148116Y-147985776D01*
X112058110Y-148203069D01*
X112058109Y-148203071D01*
X111927440Y-148398630D01*
X111761130Y-148564940D01*
X111565571Y-148695609D01*
X111565570Y-148695610D01*
X111565569Y-148695610D01*
X111348276Y-148785616D01*
X111117600Y-148831500D01*
X110882400Y-148831500D01*
X110651724Y-148785616D01*
X110434431Y-148695610D01*
X110434430Y-148695610D01*
X110434429Y-148695609D01*
X110238870Y-148564940D01*
X110072560Y-148398630D01*
X109941891Y-148203071D01*
X109941890Y-148203069D01*
X109851884Y-147985776D01*
X109806000Y-147755100D01*
X109806000Y-147519900D01*
X109851884Y-147289224D01*
X109941890Y-147071931D01*
X110072560Y-146876370D01*
X110238870Y-146710060D01*
X110434429Y-146579391D01*
X110434431Y-146579390D01*
X110651724Y-146489384D01*
X110882400Y-146443500D01*
X111117600Y-146443500D01*
X111348276Y-146489384D01*
G37*
G36*
X92348276Y-146489384D02*
G01*
X92565569Y-146579390D01*
X92565571Y-146579391D01*
X92761130Y-146710060D01*
X92927440Y-146876370D01*
X93058110Y-147071931D01*
X93148116Y-147289224D01*
X93194000Y-147519900D01*
X93194000Y-147755100D01*
X93148116Y-147985776D01*
X93058110Y-148203069D01*
X93058109Y-148203071D01*
X92927440Y-148398630D01*
X92761130Y-148564940D01*
X92565571Y-148695609D01*
X92565570Y-148695610D01*
X92565569Y-148695610D01*
X92348276Y-148785616D01*
X92117600Y-148831500D01*
X91882400Y-148831500D01*
X91651724Y-148785616D01*
X91434431Y-148695610D01*
X91434430Y-148695610D01*
X91434429Y-148695609D01*
X91238870Y-148564940D01*
X91072560Y-148398630D01*
X90941891Y-148203071D01*
X90941890Y-148203069D01*
X90851884Y-147985776D01*
X90806000Y-147755100D01*
X90806000Y-147519900D01*
X90851884Y-147289224D01*
X90941890Y-147071931D01*
X91072560Y-146876370D01*
X91238870Y-146710060D01*
X91434429Y-146579391D01*
X91434431Y-146579390D01*
X91651724Y-146489384D01*
X91882400Y-146443500D01*
X92117600Y-146443500D01*
X92348276Y-146489384D01*
G37*
G36*
X136795483Y-146110835D02*
G01*
X136964240Y-146180736D01*
X137116118Y-146282218D01*
X137245282Y-146411382D01*
X137346764Y-146563260D01*
X137416665Y-146732017D01*
X137452300Y-146911168D01*
X137452300Y-147093832D01*
X137416665Y-147272983D01*
X137346764Y-147441740D01*
X137245282Y-147593618D01*
X137116118Y-147722782D01*
X136964240Y-147824264D01*
X136795483Y-147894165D01*
X136616332Y-147929800D01*
X136433668Y-147929800D01*
X136254517Y-147894165D01*
X136085760Y-147824264D01*
X135933882Y-147722782D01*
X135804718Y-147593618D01*
X135703236Y-147441740D01*
X135633335Y-147272983D01*
X135597700Y-147093832D01*
X135597700Y-146911168D01*
X135633335Y-146732017D01*
X135703236Y-146563260D01*
X135804718Y-146411382D01*
X135933882Y-146282218D01*
X136085760Y-146180736D01*
X136254517Y-146110835D01*
X136433668Y-146075200D01*
X136616332Y-146075200D01*
X136795483Y-146110835D01*
G37*
G36*
X121555483Y-146110835D02*
G01*
X121724240Y-146180736D01*
X121876118Y-146282218D01*
X122005282Y-146411382D01*
X122106764Y-146563260D01*
X122176665Y-146732017D01*
X122212300Y-146911168D01*
X122212300Y-147093832D01*
X122176665Y-147272983D01*
X122106764Y-147441740D01*
X122005282Y-147593618D01*
X121876118Y-147722782D01*
X121724240Y-147824264D01*
X121555483Y-147894165D01*
X121376332Y-147929800D01*
X121193668Y-147929800D01*
X121014517Y-147894165D01*
X120845760Y-147824264D01*
X120693882Y-147722782D01*
X120564718Y-147593618D01*
X120463236Y-147441740D01*
X120393335Y-147272983D01*
X120357700Y-147093832D01*
X120357700Y-146911168D01*
X120393335Y-146732017D01*
X120463236Y-146563260D01*
X120564718Y-146411382D01*
X120693882Y-146282218D01*
X120845760Y-146180736D01*
X121014517Y-146110835D01*
X121193668Y-146075200D01*
X121376332Y-146075200D01*
X121555483Y-146110835D01*
G37*
G36*
X136795483Y-143570835D02*
G01*
X136964240Y-143640736D01*
X137116118Y-143742218D01*
X137245282Y-143871382D01*
X137346764Y-144023260D01*
X137416665Y-144192017D01*
X137452300Y-144371168D01*
X137452300Y-144553832D01*
X137416665Y-144732983D01*
X137346764Y-144901740D01*
X137245282Y-145053618D01*
X137116118Y-145182782D01*
X136964240Y-145284264D01*
X136795483Y-145354165D01*
X136616332Y-145389800D01*
X136433668Y-145389800D01*
X136254517Y-145354165D01*
X136085760Y-145284264D01*
X135933882Y-145182782D01*
X135804718Y-145053618D01*
X135703236Y-144901740D01*
X135633335Y-144732983D01*
X135597700Y-144553832D01*
X135597700Y-144371168D01*
X135633335Y-144192017D01*
X135703236Y-144023260D01*
X135804718Y-143871382D01*
X135933882Y-143742218D01*
X136085760Y-143640736D01*
X136254517Y-143570835D01*
X136433668Y-143535200D01*
X136616332Y-143535200D01*
X136795483Y-143570835D01*
G37*
G36*
X121555483Y-143570835D02*
G01*
X121724240Y-143640736D01*
X121876118Y-143742218D01*
X122005282Y-143871382D01*
X122106764Y-144023260D01*
X122176665Y-144192017D01*
X122212300Y-144371168D01*
X122212300Y-144553832D01*
X122176665Y-144732983D01*
X122106764Y-144901740D01*
X122005282Y-145053618D01*
X121876118Y-145182782D01*
X121724240Y-145284264D01*
X121555483Y-145354165D01*
X121376332Y-145389800D01*
X121193668Y-145389800D01*
X121014517Y-145354165D01*
X120845760Y-145284264D01*
X120693882Y-145182782D01*
X120564718Y-145053618D01*
X120463236Y-144901740D01*
X120393335Y-144732983D01*
X120357700Y-144553832D01*
X120357700Y-144371168D01*
X120393335Y-144192017D01*
X120463236Y-144023260D01*
X120564718Y-143871382D01*
X120693882Y-143742218D01*
X120845760Y-143640736D01*
X121014517Y-143570835D01*
X121193668Y-143535200D01*
X121376332Y-143535200D01*
X121555483Y-143570835D01*
G37*
G36*
X113151000Y-144551000D02*
G01*
X111449000Y-144551000D01*
X111449000Y-142849000D01*
X113151000Y-142849000D01*
X113151000Y-144551000D01*
G37*
G36*
X104748228Y-142881703D02*
G01*
X104903100Y-142945853D01*
X105042481Y-143038985D01*
X105161015Y-143157519D01*
X105254147Y-143296900D01*
X105318297Y-143451772D01*
X105351000Y-143616184D01*
X105351000Y-143783816D01*
X105318297Y-143948228D01*
X105254147Y-144103100D01*
X105161015Y-144242481D01*
X105042481Y-144361015D01*
X104903100Y-144454147D01*
X104748228Y-144518297D01*
X104583816Y-144551000D01*
X104416184Y-144551000D01*
X104251772Y-144518297D01*
X104096900Y-144454147D01*
X103957519Y-144361015D01*
X103838985Y-144242481D01*
X103745853Y-144103100D01*
X103681703Y-143948228D01*
X103649000Y-143783816D01*
X103649000Y-143616184D01*
X103681703Y-143451772D01*
X103745853Y-143296900D01*
X103838985Y-143157519D01*
X103957519Y-143038985D01*
X104096900Y-142945853D01*
X104251772Y-142881703D01*
X104416184Y-142849000D01*
X104583816Y-142849000D01*
X104748228Y-142881703D01*
G37*
G36*
X85748228Y-142781703D02*
G01*
X85903100Y-142845853D01*
X86042481Y-142938985D01*
X86161015Y-143057519D01*
X86254147Y-143196900D01*
X86318297Y-143351772D01*
X86351000Y-143516184D01*
X86351000Y-143683816D01*
X86318297Y-143848228D01*
X86254147Y-144003100D01*
X86161015Y-144142481D01*
X86042481Y-144261015D01*
X85903100Y-144354147D01*
X85748228Y-144418297D01*
X85583816Y-144451000D01*
X85416184Y-144451000D01*
X85251772Y-144418297D01*
X85096900Y-144354147D01*
X84957519Y-144261015D01*
X84838985Y-144142481D01*
X84745853Y-144003100D01*
X84681703Y-143848228D01*
X84649000Y-143683816D01*
X84649000Y-143516184D01*
X84681703Y-143351772D01*
X84745853Y-143196900D01*
X84838985Y-143057519D01*
X84957519Y-142938985D01*
X85096900Y-142845853D01*
X85251772Y-142781703D01*
X85416184Y-142749000D01*
X85583816Y-142749000D01*
X85748228Y-142781703D01*
G37*
G36*
X94151000Y-144451000D02*
G01*
X92449000Y-144451000D01*
X92449000Y-142749000D01*
X94151000Y-142749000D01*
X94151000Y-144451000D01*
G37*
G36*
X74951000Y-144451000D02*
G01*
X73249000Y-144451000D01*
X73249000Y-142749000D01*
X74951000Y-142749000D01*
X74951000Y-144451000D01*
G37*
G36*
X66548228Y-142781703D02*
G01*
X66703100Y-142845853D01*
X66842481Y-142938985D01*
X66961015Y-143057519D01*
X67054147Y-143196900D01*
X67118297Y-143351772D01*
X67151000Y-143516184D01*
X67151000Y-143683816D01*
X67118297Y-143848228D01*
X67054147Y-144003100D01*
X66961015Y-144142481D01*
X66842481Y-144261015D01*
X66703100Y-144354147D01*
X66548228Y-144418297D01*
X66383816Y-144451000D01*
X66216184Y-144451000D01*
X66051772Y-144418297D01*
X65896900Y-144354147D01*
X65757519Y-144261015D01*
X65638985Y-144142481D01*
X65545853Y-144003100D01*
X65481703Y-143848228D01*
X65449000Y-143683816D01*
X65449000Y-143516184D01*
X65481703Y-143351772D01*
X65545853Y-143196900D01*
X65638985Y-143057519D01*
X65757519Y-142938985D01*
X65896900Y-142845853D01*
X66051772Y-142781703D01*
X66216184Y-142749000D01*
X66383816Y-142749000D01*
X66548228Y-142781703D01*
G37*
G36*
X110651000Y-144351000D02*
G01*
X108949000Y-144351000D01*
X108949000Y-143049000D01*
X110651000Y-143049000D01*
X110651000Y-144351000D01*
G37*
G36*
X107851000Y-144351000D02*
G01*
X106149000Y-144351000D01*
X106149000Y-143049000D01*
X107851000Y-143049000D01*
X107851000Y-144351000D01*
G37*
G36*
X69651000Y-144251000D02*
G01*
X67949000Y-144251000D01*
X67949000Y-142949000D01*
X69651000Y-142949000D01*
X69651000Y-144251000D01*
G37*
G36*
X91651000Y-144251000D02*
G01*
X89949000Y-144251000D01*
X89949000Y-142949000D01*
X91651000Y-142949000D01*
X91651000Y-144251000D01*
G37*
G36*
X72451000Y-144251000D02*
G01*
X70749000Y-144251000D01*
X70749000Y-142949000D01*
X72451000Y-142949000D01*
X72451000Y-144251000D01*
G37*
G36*
X88851000Y-144251000D02*
G01*
X87149000Y-144251000D01*
X87149000Y-142949000D01*
X88851000Y-142949000D01*
X88851000Y-144251000D01*
G37*
G36*
X121555483Y-141030835D02*
G01*
X121724240Y-141100736D01*
X121876118Y-141202218D01*
X122005282Y-141331382D01*
X122106764Y-141483260D01*
X122176665Y-141652017D01*
X122212300Y-141831168D01*
X122212300Y-142013832D01*
X122176665Y-142192983D01*
X122106764Y-142361740D01*
X122005282Y-142513618D01*
X121876118Y-142642782D01*
X121724240Y-142744264D01*
X121555483Y-142814165D01*
X121376332Y-142849800D01*
X121193668Y-142849800D01*
X121014517Y-142814165D01*
X120845760Y-142744264D01*
X120693882Y-142642782D01*
X120564718Y-142513618D01*
X120463236Y-142361740D01*
X120393335Y-142192983D01*
X120357700Y-142013832D01*
X120357700Y-141831168D01*
X120393335Y-141652017D01*
X120463236Y-141483260D01*
X120564718Y-141331382D01*
X120693882Y-141202218D01*
X120845760Y-141100736D01*
X121014517Y-141030835D01*
X121193668Y-140995200D01*
X121376332Y-140995200D01*
X121555483Y-141030835D01*
G37*
G36*
X136795483Y-141030835D02*
G01*
X136964240Y-141100736D01*
X137116118Y-141202218D01*
X137245282Y-141331382D01*
X137346764Y-141483260D01*
X137416665Y-141652017D01*
X137452300Y-141831168D01*
X137452300Y-142013832D01*
X137416665Y-142192983D01*
X137346764Y-142361740D01*
X137245282Y-142513618D01*
X137116118Y-142642782D01*
X136964240Y-142744264D01*
X136795483Y-142814165D01*
X136616332Y-142849800D01*
X136433668Y-142849800D01*
X136254517Y-142814165D01*
X136085760Y-142744264D01*
X135933882Y-142642782D01*
X135804718Y-142513618D01*
X135703236Y-142361740D01*
X135633335Y-142192983D01*
X135597700Y-142013832D01*
X135597700Y-141831168D01*
X135633335Y-141652017D01*
X135703236Y-141483260D01*
X135804718Y-141331382D01*
X135933882Y-141202218D01*
X136085760Y-141100736D01*
X136254517Y-141030835D01*
X136433668Y-140995200D01*
X136616332Y-140995200D01*
X136795483Y-141030835D01*
G37*
G36*
X69051000Y-142351000D02*
G01*
X66949000Y-142351000D01*
X66949000Y-140249000D01*
X69051000Y-140249000D01*
X69051000Y-142351000D01*
G37*
G36*
X70806564Y-140289389D02*
G01*
X70997833Y-140368615D01*
X70997835Y-140368616D01*
X71169973Y-140483635D01*
X71316365Y-140630027D01*
X71431385Y-140802167D01*
X71510611Y-140993436D01*
X71551000Y-141196484D01*
X71551000Y-141403516D01*
X71510611Y-141606564D01*
X71472806Y-141697833D01*
X71431384Y-141797835D01*
X71316365Y-141969973D01*
X71169973Y-142116365D01*
X70997835Y-142231384D01*
X70997834Y-142231385D01*
X70997833Y-142231385D01*
X70806564Y-142310611D01*
X70603516Y-142351000D01*
X70396484Y-142351000D01*
X70193436Y-142310611D01*
X70002167Y-142231385D01*
X70002166Y-142231385D01*
X70002165Y-142231384D01*
X69830027Y-142116365D01*
X69683635Y-141969973D01*
X69568616Y-141797835D01*
X69527194Y-141697833D01*
X69489389Y-141606564D01*
X69449000Y-141403516D01*
X69449000Y-141196484D01*
X69489389Y-140993436D01*
X69568615Y-140802167D01*
X69683635Y-140630027D01*
X69830027Y-140483635D01*
X70002165Y-140368616D01*
X70002167Y-140368615D01*
X70193436Y-140289389D01*
X70396484Y-140249000D01*
X70603516Y-140249000D01*
X70806564Y-140289389D01*
G37*
G36*
X73306564Y-140289389D02*
G01*
X73497833Y-140368615D01*
X73497835Y-140368616D01*
X73669973Y-140483635D01*
X73816365Y-140630027D01*
X73931385Y-140802167D01*
X74010611Y-140993436D01*
X74051000Y-141196484D01*
X74051000Y-141403516D01*
X74010611Y-141606564D01*
X73972806Y-141697833D01*
X73931384Y-141797835D01*
X73816365Y-141969973D01*
X73669973Y-142116365D01*
X73497835Y-142231384D01*
X73497834Y-142231385D01*
X73497833Y-142231385D01*
X73306564Y-142310611D01*
X73103516Y-142351000D01*
X72896484Y-142351000D01*
X72693436Y-142310611D01*
X72502167Y-142231385D01*
X72502166Y-142231385D01*
X72502165Y-142231384D01*
X72330027Y-142116365D01*
X72183635Y-141969973D01*
X72068616Y-141797835D01*
X72027194Y-141697833D01*
X71989389Y-141606564D01*
X71949000Y-141403516D01*
X71949000Y-141196484D01*
X71989389Y-140993436D01*
X72068615Y-140802167D01*
X72183635Y-140630027D01*
X72330027Y-140483635D01*
X72502165Y-140368616D01*
X72502167Y-140368615D01*
X72693436Y-140289389D01*
X72896484Y-140249000D01*
X73103516Y-140249000D01*
X73306564Y-140289389D01*
G37*
G36*
X111306564Y-140189389D02*
G01*
X111497833Y-140268615D01*
X111497835Y-140268616D01*
X111528924Y-140289389D01*
X111669973Y-140383635D01*
X111816365Y-140530027D01*
X111931385Y-140702167D01*
X112010611Y-140893436D01*
X112051000Y-141096484D01*
X112051000Y-141303516D01*
X112010611Y-141506564D01*
X111931385Y-141697833D01*
X111931384Y-141697835D01*
X111816365Y-141869973D01*
X111669973Y-142016365D01*
X111497835Y-142131384D01*
X111497834Y-142131385D01*
X111497833Y-142131385D01*
X111306564Y-142210611D01*
X111103516Y-142251000D01*
X110896484Y-142251000D01*
X110693436Y-142210611D01*
X110502167Y-142131385D01*
X110502166Y-142131385D01*
X110502165Y-142131384D01*
X110330027Y-142016365D01*
X110183635Y-141869973D01*
X110068616Y-141697835D01*
X110068615Y-141697833D01*
X109989389Y-141506564D01*
X109949000Y-141303516D01*
X109949000Y-141096484D01*
X109989389Y-140893436D01*
X110068615Y-140702167D01*
X110183635Y-140530027D01*
X110330027Y-140383635D01*
X110471076Y-140289389D01*
X110502165Y-140268616D01*
X110502167Y-140268615D01*
X110693436Y-140189389D01*
X110896484Y-140149000D01*
X111103516Y-140149000D01*
X111306564Y-140189389D01*
G37*
G36*
X108806564Y-140189389D02*
G01*
X108997833Y-140268615D01*
X108997835Y-140268616D01*
X109028924Y-140289389D01*
X109169973Y-140383635D01*
X109316365Y-140530027D01*
X109431385Y-140702167D01*
X109510611Y-140893436D01*
X109551000Y-141096484D01*
X109551000Y-141303516D01*
X109510611Y-141506564D01*
X109431385Y-141697833D01*
X109431384Y-141697835D01*
X109316365Y-141869973D01*
X109169973Y-142016365D01*
X108997835Y-142131384D01*
X108997834Y-142131385D01*
X108997833Y-142131385D01*
X108806564Y-142210611D01*
X108603516Y-142251000D01*
X108396484Y-142251000D01*
X108193436Y-142210611D01*
X108002167Y-142131385D01*
X108002166Y-142131385D01*
X108002165Y-142131384D01*
X107830027Y-142016365D01*
X107683635Y-141869973D01*
X107568616Y-141697835D01*
X107568615Y-141697833D01*
X107489389Y-141506564D01*
X107449000Y-141303516D01*
X107449000Y-141096484D01*
X107489389Y-140893436D01*
X107568615Y-140702167D01*
X107683635Y-140530027D01*
X107830027Y-140383635D01*
X107971076Y-140289389D01*
X108002165Y-140268616D01*
X108002167Y-140268615D01*
X108193436Y-140189389D01*
X108396484Y-140149000D01*
X108603516Y-140149000D01*
X108806564Y-140189389D01*
G37*
G36*
X107051000Y-142251000D02*
G01*
X104949000Y-142251000D01*
X104949000Y-140149000D01*
X107051000Y-140149000D01*
X107051000Y-142251000D01*
G37*
G36*
X121555483Y-138490835D02*
G01*
X121724240Y-138560736D01*
X121876118Y-138662218D01*
X122005282Y-138791382D01*
X122106764Y-138943260D01*
X122176665Y-139112017D01*
X122212300Y-139291168D01*
X122212300Y-139473832D01*
X122176665Y-139652983D01*
X122106764Y-139821740D01*
X122005282Y-139973618D01*
X121876118Y-140102782D01*
X121724240Y-140204264D01*
X121555483Y-140274165D01*
X121376332Y-140309800D01*
X121193668Y-140309800D01*
X121014517Y-140274165D01*
X120845760Y-140204264D01*
X120693882Y-140102782D01*
X120564718Y-139973618D01*
X120463236Y-139821740D01*
X120393335Y-139652983D01*
X120357700Y-139473832D01*
X120357700Y-139291168D01*
X120393335Y-139112017D01*
X120463236Y-138943260D01*
X120564718Y-138791382D01*
X120693882Y-138662218D01*
X120845760Y-138560736D01*
X121014517Y-138490835D01*
X121193668Y-138455200D01*
X121376332Y-138455200D01*
X121555483Y-138490835D01*
G37*
G36*
X136795483Y-138490835D02*
G01*
X136964240Y-138560736D01*
X137116118Y-138662218D01*
X137245282Y-138791382D01*
X137346764Y-138943260D01*
X137416665Y-139112017D01*
X137452300Y-139291168D01*
X137452300Y-139473832D01*
X137416665Y-139652983D01*
X137346764Y-139821740D01*
X137245282Y-139973618D01*
X137116118Y-140102782D01*
X136964240Y-140204264D01*
X136795483Y-140274165D01*
X136616332Y-140309800D01*
X136433668Y-140309800D01*
X136254517Y-140274165D01*
X136085760Y-140204264D01*
X135933882Y-140102782D01*
X135804718Y-139973618D01*
X135703236Y-139821740D01*
X135633335Y-139652983D01*
X135597700Y-139473832D01*
X135597700Y-139291168D01*
X135633335Y-139112017D01*
X135703236Y-138943260D01*
X135804718Y-138791382D01*
X135933882Y-138662218D01*
X136085760Y-138560736D01*
X136254517Y-138490835D01*
X136433668Y-138455200D01*
X136616332Y-138455200D01*
X136795483Y-138490835D01*
G37*
G36*
X136795483Y-135950835D02*
G01*
X136964240Y-136020736D01*
X137116118Y-136122218D01*
X137245282Y-136251382D01*
X137346764Y-136403260D01*
X137416665Y-136572017D01*
X137452300Y-136751168D01*
X137452300Y-136933832D01*
X137416665Y-137112983D01*
X137346764Y-137281740D01*
X137245282Y-137433618D01*
X137116118Y-137562782D01*
X136964240Y-137664264D01*
X136795483Y-137734165D01*
X136616332Y-137769800D01*
X136433668Y-137769800D01*
X136254517Y-137734165D01*
X136085760Y-137664264D01*
X135933882Y-137562782D01*
X135804718Y-137433618D01*
X135703236Y-137281740D01*
X135633335Y-137112983D01*
X135597700Y-136933832D01*
X135597700Y-136751168D01*
X135633335Y-136572017D01*
X135703236Y-136403260D01*
X135804718Y-136251382D01*
X135933882Y-136122218D01*
X136085760Y-136020736D01*
X136254517Y-135950835D01*
X136433668Y-135915200D01*
X136616332Y-135915200D01*
X136795483Y-135950835D01*
G37*
G36*
X121555483Y-135950835D02*
G01*
X121724240Y-136020736D01*
X121876118Y-136122218D01*
X122005282Y-136251382D01*
X122106764Y-136403260D01*
X122176665Y-136572017D01*
X122212300Y-136751168D01*
X122212300Y-136933832D01*
X122176665Y-137112983D01*
X122106764Y-137281740D01*
X122005282Y-137433618D01*
X121876118Y-137562782D01*
X121724240Y-137664264D01*
X121555483Y-137734165D01*
X121376332Y-137769800D01*
X121193668Y-137769800D01*
X121014517Y-137734165D01*
X120845760Y-137664264D01*
X120693882Y-137562782D01*
X120564718Y-137433618D01*
X120463236Y-137281740D01*
X120393335Y-137112983D01*
X120357700Y-136933832D01*
X120357700Y-136751168D01*
X120393335Y-136572017D01*
X120463236Y-136403260D01*
X120564718Y-136251382D01*
X120693882Y-136122218D01*
X120845760Y-136020736D01*
X121014517Y-135950835D01*
X121193668Y-135915200D01*
X121376332Y-135915200D01*
X121555483Y-135950835D01*
G37*
G36*
X71081474Y-131733684D02*
G01*
X71299474Y-131823983D01*
X71453623Y-131887833D01*
X71788548Y-132111623D01*
X72073377Y-132396452D01*
X72297167Y-132731377D01*
X72335837Y-132824735D01*
X72451316Y-133103526D01*
X72529900Y-133498594D01*
X72529900Y-133901406D01*
X72451316Y-134296474D01*
X72377189Y-134475432D01*
X72297167Y-134668623D01*
X72073377Y-135003548D01*
X71788548Y-135288377D01*
X71453623Y-135512167D01*
X71299474Y-135576017D01*
X71081474Y-135666316D01*
X70686406Y-135744900D01*
X70283594Y-135744900D01*
X69888526Y-135666316D01*
X69670526Y-135576017D01*
X69516377Y-135512167D01*
X69181452Y-135288377D01*
X68896623Y-135003548D01*
X68672833Y-134668623D01*
X68592811Y-134475432D01*
X68518684Y-134296474D01*
X68440100Y-133901406D01*
X68440100Y-133498594D01*
X68518684Y-133103526D01*
X68634163Y-132824735D01*
X68672833Y-132731377D01*
X68896623Y-132396452D01*
X69181452Y-132111623D01*
X69516377Y-131887833D01*
X69670526Y-131823983D01*
X69888526Y-131733684D01*
X70283594Y-131655100D01*
X70686406Y-131655100D01*
X71081474Y-131733684D01*
G37*
G36*
X90056474Y-131701184D02*
G01*
X90274474Y-131791483D01*
X90428623Y-131855333D01*
X90763548Y-132079123D01*
X91048377Y-132363952D01*
X91272167Y-132698877D01*
X91294604Y-132753046D01*
X91426316Y-133071026D01*
X91504900Y-133466094D01*
X91504900Y-133868906D01*
X91426316Y-134263974D01*
X91367407Y-134406192D01*
X91272167Y-134636123D01*
X91048377Y-134971048D01*
X90763548Y-135255877D01*
X90428623Y-135479667D01*
X90274474Y-135543517D01*
X90056474Y-135633816D01*
X89661406Y-135712400D01*
X89258594Y-135712400D01*
X88863526Y-135633816D01*
X88645526Y-135543517D01*
X88491377Y-135479667D01*
X88156452Y-135255877D01*
X87871623Y-134971048D01*
X87647833Y-134636123D01*
X87552593Y-134406192D01*
X87493684Y-134263974D01*
X87415100Y-133868906D01*
X87415100Y-133466094D01*
X87493684Y-133071026D01*
X87625396Y-132753046D01*
X87647833Y-132698877D01*
X87871623Y-132363952D01*
X88156452Y-132079123D01*
X88491377Y-131855333D01*
X88645526Y-131791483D01*
X88863526Y-131701184D01*
X89258594Y-131622600D01*
X89661406Y-131622600D01*
X90056474Y-131701184D01*
G37*
G36*
X109096474Y-131701184D02*
G01*
X109314474Y-131791483D01*
X109468623Y-131855333D01*
X109803548Y-132079123D01*
X110088377Y-132363952D01*
X110312167Y-132698877D01*
X110334604Y-132753046D01*
X110466316Y-133071026D01*
X110544900Y-133466094D01*
X110544900Y-133868906D01*
X110466316Y-134263974D01*
X110407407Y-134406192D01*
X110312167Y-134636123D01*
X110088377Y-134971048D01*
X109803548Y-135255877D01*
X109468623Y-135479667D01*
X109314474Y-135543517D01*
X109096474Y-135633816D01*
X108701406Y-135712400D01*
X108298594Y-135712400D01*
X107903526Y-135633816D01*
X107685526Y-135543517D01*
X107531377Y-135479667D01*
X107196452Y-135255877D01*
X106911623Y-134971048D01*
X106687833Y-134636123D01*
X106592593Y-134406192D01*
X106533684Y-134263974D01*
X106455100Y-133868906D01*
X106455100Y-133466094D01*
X106533684Y-133071026D01*
X106665396Y-132753046D01*
X106687833Y-132698877D01*
X106911623Y-132363952D01*
X107196452Y-132079123D01*
X107531377Y-131855333D01*
X107685526Y-131791483D01*
X107903526Y-131701184D01*
X108298594Y-131622600D01*
X108701406Y-131622600D01*
X109096474Y-131701184D01*
G37*
G36*
X67023276Y-130011884D02*
G01*
X67240569Y-130101890D01*
X67240571Y-130101891D01*
X67436130Y-130232560D01*
X67602440Y-130398870D01*
X67733110Y-130594431D01*
X67823116Y-130811724D01*
X67869000Y-131042400D01*
X67869000Y-131277600D01*
X67823116Y-131508276D01*
X67743210Y-131701185D01*
X67733109Y-131725571D01*
X67602440Y-131921130D01*
X67436130Y-132087440D01*
X67240571Y-132218109D01*
X67240570Y-132218110D01*
X67240569Y-132218110D01*
X67023276Y-132308116D01*
X66792600Y-132354000D01*
X66557400Y-132354000D01*
X66326724Y-132308116D01*
X66123834Y-132224076D01*
X66100385Y-132216963D01*
X66075999Y-132214561D01*
X66051613Y-132216963D01*
X66028164Y-132224076D01*
X66006553Y-132235627D01*
X65987611Y-132251172D01*
X65972066Y-132270114D01*
X65960515Y-132291725D01*
X65953402Y-132315174D01*
X65951000Y-132339560D01*
X65951000Y-132854254D01*
X65953402Y-132878640D01*
X65960515Y-132902089D01*
X65972066Y-132923700D01*
X65987611Y-132942642D01*
X66006551Y-132958185D01*
X66011223Y-132961307D01*
X66011227Y-132961310D01*
X66143690Y-133093773D01*
X66196081Y-133172182D01*
X66247766Y-133249534D01*
X66319454Y-133422605D01*
X66356000Y-133606333D01*
X66356000Y-133793667D01*
X66319454Y-133977395D01*
X66247766Y-134150466D01*
X66247765Y-134150467D01*
X66143690Y-134306227D01*
X66011227Y-134438690D01*
X66011224Y-134438692D01*
X66011223Y-134438693D01*
X66006551Y-134441815D01*
X65987609Y-134457360D01*
X65972065Y-134476302D01*
X65960514Y-134497913D01*
X65953401Y-134521362D01*
X65951000Y-134545746D01*
X65951000Y-135451000D01*
X63849000Y-135451000D01*
X63849000Y-132149000D01*
X65673655Y-132149000D01*
X65698041Y-132146598D01*
X65721490Y-132139485D01*
X65743101Y-132127934D01*
X65762043Y-132112389D01*
X65777588Y-132093447D01*
X65789139Y-132071836D01*
X65796252Y-132048387D01*
X65798654Y-132024001D01*
X65796252Y-131999615D01*
X65789139Y-131976166D01*
X65777588Y-131954555D01*
X65762043Y-131935613D01*
X65747560Y-131921130D01*
X65616890Y-131725569D01*
X65526884Y-131508276D01*
X65481000Y-131277600D01*
X65481000Y-131042400D01*
X65526884Y-130811724D01*
X65616890Y-130594431D01*
X65747560Y-130398870D01*
X65913870Y-130232560D01*
X66109429Y-130101891D01*
X66109431Y-130101890D01*
X66326724Y-130011884D01*
X66557400Y-129966000D01*
X66792600Y-129966000D01*
X67023276Y-130011884D01*
G37*
G36*
X77151000Y-135451000D02*
G01*
X75049000Y-135451000D01*
X75049000Y-134565791D01*
X75046598Y-134541405D01*
X75039485Y-134517956D01*
X75027934Y-134496345D01*
X75012389Y-134477403D01*
X74993447Y-134461858D01*
X74963450Y-134441815D01*
X74958773Y-134438690D01*
X74826310Y-134306227D01*
X74722235Y-134150467D01*
X74722234Y-134150466D01*
X74650546Y-133977395D01*
X74614000Y-133793667D01*
X74614000Y-133606333D01*
X74650546Y-133422605D01*
X74722234Y-133249534D01*
X74773919Y-133172182D01*
X74826310Y-133093773D01*
X74958773Y-132961310D01*
X74993449Y-132938140D01*
X75012389Y-132922597D01*
X75027934Y-132903655D01*
X75039485Y-132882044D01*
X75046598Y-132858595D01*
X75049000Y-132834209D01*
X75049000Y-132149000D01*
X77151000Y-132149000D01*
X77151000Y-135451000D01*
G37*
G36*
X115151000Y-135351000D02*
G01*
X113049000Y-135351000D01*
X113049000Y-134523268D01*
X113046598Y-134498882D01*
X113039485Y-134475433D01*
X113027934Y-134453822D01*
X113012389Y-134434880D01*
X112993446Y-134419335D01*
X112973776Y-134406192D01*
X112973773Y-134406190D01*
X112841310Y-134273727D01*
X112737235Y-134117967D01*
X112737234Y-134117966D01*
X112665546Y-133944895D01*
X112629000Y-133761167D01*
X112629000Y-133573833D01*
X112665546Y-133390105D01*
X112737234Y-133217034D01*
X112819594Y-133093773D01*
X112841310Y-133061273D01*
X112973773Y-132928810D01*
X112993446Y-132915665D01*
X113012388Y-132900120D01*
X113027934Y-132881178D01*
X113039485Y-132859568D01*
X113046598Y-132836119D01*
X113049000Y-132811732D01*
X113049000Y-132049000D01*
X115151000Y-132049000D01*
X115151000Y-135351000D01*
G37*
G36*
X105038276Y-129979384D02*
G01*
X105255569Y-130069390D01*
X105255571Y-130069391D01*
X105375911Y-130149800D01*
X105451130Y-130200060D01*
X105617440Y-130366370D01*
X105748110Y-130561931D01*
X105838116Y-130779224D01*
X105884000Y-131009900D01*
X105884000Y-131245100D01*
X105838116Y-131475776D01*
X105777299Y-131622600D01*
X105748109Y-131693071D01*
X105617440Y-131888630D01*
X105451130Y-132054940D01*
X105255571Y-132185609D01*
X105255570Y-132185610D01*
X105255569Y-132185610D01*
X105038276Y-132275616D01*
X104807600Y-132321500D01*
X104572400Y-132321500D01*
X104341724Y-132275616D01*
X104123834Y-132185363D01*
X104100385Y-132178250D01*
X104075999Y-132175848D01*
X104051613Y-132178250D01*
X104028164Y-132185363D01*
X104006553Y-132196914D01*
X103987611Y-132212459D01*
X103972066Y-132231401D01*
X103960515Y-132253012D01*
X103953402Y-132276461D01*
X103951000Y-132300847D01*
X103951000Y-132811732D01*
X103953402Y-132836118D01*
X103960515Y-132859567D01*
X103972066Y-132881178D01*
X103987611Y-132900120D01*
X104006554Y-132915665D01*
X104026227Y-132928810D01*
X104158690Y-133061273D01*
X104180406Y-133093773D01*
X104262766Y-133217034D01*
X104334454Y-133390105D01*
X104371000Y-133573833D01*
X104371000Y-133761167D01*
X104334454Y-133944895D01*
X104262766Y-134117966D01*
X104262765Y-134117967D01*
X104158690Y-134273727D01*
X104026227Y-134406190D01*
X104026224Y-134406192D01*
X104006554Y-134419335D01*
X103987612Y-134434880D01*
X103972066Y-134453822D01*
X103960515Y-134475432D01*
X103953402Y-134498881D01*
X103951000Y-134523268D01*
X103951000Y-135351000D01*
X101849000Y-135351000D01*
X101849000Y-132049000D01*
X103635859Y-132049000D01*
X103660245Y-132046598D01*
X103683694Y-132039485D01*
X103705305Y-132027934D01*
X103724247Y-132012389D01*
X103739792Y-131993447D01*
X103751343Y-131971836D01*
X103758456Y-131948387D01*
X103760858Y-131924001D01*
X103758456Y-131899615D01*
X103751343Y-131876166D01*
X103739792Y-131854555D01*
X103631890Y-131693069D01*
X103541884Y-131475776D01*
X103496000Y-131245100D01*
X103496000Y-131009900D01*
X103541884Y-130779224D01*
X103631890Y-130561931D01*
X103762560Y-130366370D01*
X103928870Y-130200060D01*
X104004089Y-130149800D01*
X104124429Y-130069391D01*
X104124431Y-130069390D01*
X104341724Y-129979384D01*
X104572400Y-129933500D01*
X104807600Y-129933500D01*
X105038276Y-129979384D01*
G37*
G36*
X136795483Y-133410835D02*
G01*
X136964240Y-133480736D01*
X137116118Y-133582218D01*
X137245282Y-133711382D01*
X137346764Y-133863260D01*
X137416665Y-134032017D01*
X137452300Y-134211168D01*
X137452300Y-134393832D01*
X137416665Y-134572983D01*
X137346764Y-134741740D01*
X137245282Y-134893618D01*
X137116118Y-135022782D01*
X136964240Y-135124264D01*
X136795483Y-135194165D01*
X136616332Y-135229800D01*
X136433668Y-135229800D01*
X136254517Y-135194165D01*
X136085760Y-135124264D01*
X135933882Y-135022782D01*
X135804718Y-134893618D01*
X135703236Y-134741740D01*
X135633335Y-134572983D01*
X135597700Y-134393832D01*
X135597700Y-134211168D01*
X135633335Y-134032017D01*
X135703236Y-133863260D01*
X135804718Y-133711382D01*
X135933882Y-133582218D01*
X136085760Y-133480736D01*
X136254517Y-133410835D01*
X136433668Y-133375200D01*
X136616332Y-133375200D01*
X136795483Y-133410835D01*
G37*
G36*
X121555483Y-133410835D02*
G01*
X121724240Y-133480736D01*
X121876118Y-133582218D01*
X122005282Y-133711382D01*
X122106764Y-133863260D01*
X122176665Y-134032017D01*
X122212300Y-134211168D01*
X122212300Y-134393832D01*
X122176665Y-134572983D01*
X122106764Y-134741740D01*
X122005282Y-134893618D01*
X121876118Y-135022782D01*
X121724240Y-135124264D01*
X121555483Y-135194165D01*
X121376332Y-135229800D01*
X121193668Y-135229800D01*
X121014517Y-135194165D01*
X120845760Y-135124264D01*
X120693882Y-135022782D01*
X120564718Y-134893618D01*
X120463236Y-134741740D01*
X120393335Y-134572983D01*
X120357700Y-134393832D01*
X120357700Y-134211168D01*
X120393335Y-134032017D01*
X120463236Y-133863260D01*
X120564718Y-133711382D01*
X120693882Y-133582218D01*
X120845760Y-133480736D01*
X121014517Y-133410835D01*
X121193668Y-133375200D01*
X121376332Y-133375200D01*
X121555483Y-133410835D01*
G37*
G36*
X84657395Y-132753046D02*
G01*
X84830466Y-132824734D01*
X84874646Y-132854254D01*
X84986227Y-132928810D01*
X85118690Y-133061273D01*
X85140406Y-133093773D01*
X85222766Y-133217034D01*
X85294454Y-133390105D01*
X85331000Y-133573833D01*
X85331000Y-133761167D01*
X85294454Y-133944895D01*
X85222766Y-134117966D01*
X85222765Y-134117967D01*
X85118690Y-134273727D01*
X84986227Y-134406190D01*
X84932910Y-134441815D01*
X84830466Y-134510266D01*
X84657395Y-134581954D01*
X84473667Y-134618500D01*
X84286333Y-134618500D01*
X84102605Y-134581954D01*
X83929534Y-134510266D01*
X83827090Y-134441815D01*
X83773773Y-134406190D01*
X83641310Y-134273727D01*
X83537235Y-134117967D01*
X83537234Y-134117966D01*
X83465546Y-133944895D01*
X83429000Y-133761167D01*
X83429000Y-133573833D01*
X83465546Y-133390105D01*
X83537234Y-133217034D01*
X83619594Y-133093773D01*
X83641310Y-133061273D01*
X83773773Y-132928810D01*
X83885354Y-132854254D01*
X83929534Y-132824734D01*
X84102605Y-132753046D01*
X84286333Y-132716500D01*
X84473667Y-132716500D01*
X84657395Y-132753046D01*
G37*
G36*
X94817395Y-132753046D02*
G01*
X94990466Y-132824734D01*
X95034646Y-132854254D01*
X95146227Y-132928810D01*
X95278690Y-133061273D01*
X95300406Y-133093773D01*
X95382766Y-133217034D01*
X95454454Y-133390105D01*
X95491000Y-133573833D01*
X95491000Y-133761167D01*
X95454454Y-133944895D01*
X95382766Y-134117966D01*
X95382765Y-134117967D01*
X95278690Y-134273727D01*
X95146227Y-134406190D01*
X95092910Y-134441815D01*
X94990466Y-134510266D01*
X94817395Y-134581954D01*
X94633667Y-134618500D01*
X94446333Y-134618500D01*
X94262605Y-134581954D01*
X94089534Y-134510266D01*
X93987090Y-134441815D01*
X93933773Y-134406190D01*
X93801310Y-134273727D01*
X93697235Y-134117967D01*
X93697234Y-134117966D01*
X93625546Y-133944895D01*
X93589000Y-133761167D01*
X93589000Y-133573833D01*
X93625546Y-133390105D01*
X93697234Y-133217034D01*
X93779594Y-133093773D01*
X93801310Y-133061273D01*
X93933773Y-132928810D01*
X94045354Y-132854254D01*
X94089534Y-132824734D01*
X94262605Y-132753046D01*
X94446333Y-132716500D01*
X94633667Y-132716500D01*
X94817395Y-132753046D01*
G37*
G36*
X121555483Y-130870835D02*
G01*
X121724240Y-130940736D01*
X121876118Y-131042218D01*
X122005282Y-131171382D01*
X122106764Y-131323260D01*
X122176665Y-131492017D01*
X122212300Y-131671168D01*
X122212300Y-131853832D01*
X122176665Y-132032983D01*
X122106764Y-132201740D01*
X122005282Y-132353618D01*
X121876118Y-132482782D01*
X121724240Y-132584264D01*
X121555483Y-132654165D01*
X121376332Y-132689800D01*
X121193668Y-132689800D01*
X121014517Y-132654165D01*
X120845760Y-132584264D01*
X120693882Y-132482782D01*
X120564718Y-132353618D01*
X120463236Y-132201740D01*
X120393335Y-132032983D01*
X120357700Y-131853832D01*
X120357700Y-131671168D01*
X120393335Y-131492017D01*
X120463236Y-131323260D01*
X120564718Y-131171382D01*
X120693882Y-131042218D01*
X120845760Y-130940736D01*
X121014517Y-130870835D01*
X121193668Y-130835200D01*
X121376332Y-130835200D01*
X121555483Y-130870835D01*
G37*
G36*
X136795483Y-130870835D02*
G01*
X136964240Y-130940736D01*
X137116118Y-131042218D01*
X137245282Y-131171382D01*
X137346764Y-131323260D01*
X137416665Y-131492017D01*
X137452300Y-131671168D01*
X137452300Y-131853832D01*
X137416665Y-132032983D01*
X137346764Y-132201740D01*
X137245282Y-132353618D01*
X137116118Y-132482782D01*
X136964240Y-132584264D01*
X136795483Y-132654165D01*
X136616332Y-132689800D01*
X136433668Y-132689800D01*
X136254517Y-132654165D01*
X136085760Y-132584264D01*
X135933882Y-132482782D01*
X135804718Y-132353618D01*
X135703236Y-132201740D01*
X135633335Y-132032983D01*
X135597700Y-131853832D01*
X135597700Y-131671168D01*
X135633335Y-131492017D01*
X135703236Y-131323260D01*
X135804718Y-131171382D01*
X135933882Y-131042218D01*
X136085760Y-130940736D01*
X136254517Y-130870835D01*
X136433668Y-130835200D01*
X136616332Y-130835200D01*
X136795483Y-130870835D01*
G37*
G36*
X85998276Y-129979384D02*
G01*
X86215569Y-130069390D01*
X86215571Y-130069391D01*
X86335911Y-130149800D01*
X86411130Y-130200060D01*
X86577440Y-130366370D01*
X86708110Y-130561931D01*
X86798116Y-130779224D01*
X86844000Y-131009900D01*
X86844000Y-131245100D01*
X86798116Y-131475776D01*
X86737299Y-131622600D01*
X86708109Y-131693071D01*
X86577440Y-131888630D01*
X86411130Y-132054940D01*
X86215571Y-132185609D01*
X86215570Y-132185610D01*
X86215569Y-132185610D01*
X85998276Y-132275616D01*
X85767600Y-132321500D01*
X85532400Y-132321500D01*
X85301724Y-132275616D01*
X85084431Y-132185610D01*
X85084430Y-132185610D01*
X85084429Y-132185609D01*
X84888870Y-132054940D01*
X84722560Y-131888630D01*
X84591891Y-131693071D01*
X84562701Y-131622600D01*
X84501884Y-131475776D01*
X84456000Y-131245100D01*
X84456000Y-131009900D01*
X84501884Y-130779224D01*
X84591890Y-130561931D01*
X84722560Y-130366370D01*
X84888870Y-130200060D01*
X84964089Y-130149800D01*
X85084429Y-130069391D01*
X85084431Y-130069390D01*
X85301724Y-129979384D01*
X85532400Y-129933500D01*
X85767600Y-129933500D01*
X85998276Y-129979384D01*
G37*
G36*
X121555483Y-128330835D02*
G01*
X121724240Y-128400736D01*
X121876118Y-128502218D01*
X122005282Y-128631382D01*
X122106764Y-128783260D01*
X122176665Y-128952017D01*
X122212300Y-129131168D01*
X122212300Y-129313832D01*
X122176665Y-129492983D01*
X122106764Y-129661740D01*
X122005282Y-129813618D01*
X121876118Y-129942782D01*
X121724240Y-130044264D01*
X121555483Y-130114165D01*
X121376332Y-130149800D01*
X121193668Y-130149800D01*
X121014517Y-130114165D01*
X120845760Y-130044264D01*
X120693882Y-129942782D01*
X120564718Y-129813618D01*
X120463236Y-129661740D01*
X120393335Y-129492983D01*
X120357700Y-129313832D01*
X120357700Y-129131168D01*
X120393335Y-128952017D01*
X120463236Y-128783260D01*
X120564718Y-128631382D01*
X120693882Y-128502218D01*
X120845760Y-128400736D01*
X121014517Y-128330835D01*
X121193668Y-128295200D01*
X121376332Y-128295200D01*
X121555483Y-128330835D01*
G37*
G36*
X136795483Y-128330835D02*
G01*
X136964240Y-128400736D01*
X137116118Y-128502218D01*
X137245282Y-128631382D01*
X137346764Y-128783260D01*
X137416665Y-128952017D01*
X137452300Y-129131168D01*
X137452300Y-129313832D01*
X137416665Y-129492983D01*
X137346764Y-129661740D01*
X137245282Y-129813618D01*
X137116118Y-129942782D01*
X136964240Y-130044264D01*
X136795483Y-130114165D01*
X136616332Y-130149800D01*
X136433668Y-130149800D01*
X136254517Y-130114165D01*
X136085760Y-130044264D01*
X135933882Y-129942782D01*
X135804718Y-129813618D01*
X135703236Y-129661740D01*
X135633335Y-129492983D01*
X135597700Y-129313832D01*
X135597700Y-129131168D01*
X135633335Y-128952017D01*
X135703236Y-128783260D01*
X135804718Y-128631382D01*
X135933882Y-128502218D01*
X136085760Y-128400736D01*
X136254517Y-128330835D01*
X136433668Y-128295200D01*
X136616332Y-128295200D01*
X136795483Y-128330835D01*
G37*
G36*
X73306564Y-125789389D02*
G01*
X73497833Y-125868615D01*
X73497835Y-125868616D01*
X73637920Y-125962218D01*
X73669973Y-125983635D01*
X73816365Y-126130027D01*
X73931385Y-126302167D01*
X74010611Y-126493436D01*
X74051000Y-126696484D01*
X74051000Y-126903516D01*
X74010611Y-127106564D01*
X74004324Y-127121741D01*
X73931384Y-127297835D01*
X73845747Y-127426000D01*
X73816365Y-127469973D01*
X73778342Y-127507996D01*
X73762797Y-127526938D01*
X73751246Y-127548549D01*
X73744133Y-127571998D01*
X73741731Y-127596384D01*
X73744133Y-127620770D01*
X73751246Y-127644219D01*
X73762797Y-127665830D01*
X73778342Y-127684772D01*
X73952440Y-127858870D01*
X74083110Y-128054431D01*
X74173116Y-128271724D01*
X74219000Y-128502400D01*
X74219000Y-128737600D01*
X74173116Y-128968276D01*
X74105643Y-129131169D01*
X74083109Y-129185571D01*
X73952440Y-129381130D01*
X73786130Y-129547440D01*
X73590571Y-129678109D01*
X73590570Y-129678110D01*
X73590569Y-129678110D01*
X73373276Y-129768116D01*
X73142600Y-129814000D01*
X72907400Y-129814000D01*
X72676724Y-129768116D01*
X72459431Y-129678110D01*
X72459430Y-129678110D01*
X72459429Y-129678109D01*
X72263870Y-129547440D01*
X72097560Y-129381130D01*
X71966891Y-129185571D01*
X71944357Y-129131169D01*
X71876884Y-128968276D01*
X71831000Y-128737600D01*
X71831000Y-128502400D01*
X71876884Y-128271724D01*
X71966890Y-128054431D01*
X72097560Y-127858870D01*
X72246658Y-127709772D01*
X72262203Y-127690830D01*
X72273754Y-127669219D01*
X72280867Y-127645770D01*
X72283269Y-127621384D01*
X72280867Y-127596998D01*
X72273754Y-127573549D01*
X72262203Y-127551938D01*
X72246658Y-127532996D01*
X72183635Y-127469973D01*
X72154253Y-127426000D01*
X72068616Y-127297835D01*
X71995676Y-127121741D01*
X71989389Y-127106564D01*
X71949000Y-126903516D01*
X71949000Y-126696484D01*
X71989389Y-126493436D01*
X72068615Y-126302167D01*
X72183635Y-126130027D01*
X72330027Y-125983635D01*
X72362080Y-125962218D01*
X72502165Y-125868616D01*
X72502167Y-125868615D01*
X72693436Y-125789389D01*
X72896484Y-125749000D01*
X73103516Y-125749000D01*
X73306564Y-125789389D01*
G37*
G36*
X92348276Y-127439384D02*
G01*
X92559649Y-127526938D01*
X92565571Y-127529391D01*
X92718215Y-127631385D01*
X92761130Y-127660060D01*
X92927440Y-127826370D01*
X93058110Y-128021931D01*
X93148116Y-128239224D01*
X93194000Y-128469900D01*
X93194000Y-128705100D01*
X93148116Y-128935776D01*
X93067182Y-129131168D01*
X93058109Y-129153071D01*
X92927440Y-129348630D01*
X92761130Y-129514940D01*
X92565571Y-129645609D01*
X92565570Y-129645610D01*
X92565569Y-129645610D01*
X92348276Y-129735616D01*
X92117600Y-129781500D01*
X91882400Y-129781500D01*
X91651724Y-129735616D01*
X91434431Y-129645610D01*
X91434430Y-129645610D01*
X91434429Y-129645609D01*
X91238870Y-129514940D01*
X91072560Y-129348630D01*
X90941891Y-129153071D01*
X90932818Y-129131168D01*
X90851884Y-128935776D01*
X90806000Y-128705100D01*
X90806000Y-128469900D01*
X90851884Y-128239224D01*
X90941890Y-128021931D01*
X91072560Y-127826370D01*
X91238870Y-127660060D01*
X91281785Y-127631385D01*
X91434429Y-127529391D01*
X91440351Y-127526938D01*
X91651724Y-127439384D01*
X91882400Y-127393500D01*
X92117600Y-127393500D01*
X92348276Y-127439384D01*
G37*
G36*
X111306564Y-125689389D02*
G01*
X111465446Y-125755200D01*
X111497835Y-125768616D01*
X111528924Y-125789389D01*
X111669973Y-125883635D01*
X111816365Y-126030027D01*
X111931385Y-126202167D01*
X112010611Y-126393436D01*
X112051000Y-126596484D01*
X112051000Y-126803516D01*
X112010611Y-127006564D01*
X111931385Y-127197833D01*
X111816365Y-127369973D01*
X111744069Y-127442269D01*
X111728524Y-127461211D01*
X111716973Y-127482822D01*
X111709860Y-127506271D01*
X111707458Y-127530657D01*
X111709860Y-127555043D01*
X111716973Y-127578492D01*
X111728524Y-127600103D01*
X111744069Y-127619045D01*
X111763012Y-127634590D01*
X111801128Y-127660058D01*
X111967440Y-127826370D01*
X112098110Y-128021931D01*
X112188116Y-128239224D01*
X112234000Y-128469900D01*
X112234000Y-128705100D01*
X112188116Y-128935776D01*
X112107182Y-129131168D01*
X112098109Y-129153071D01*
X111967440Y-129348630D01*
X111801130Y-129514940D01*
X111605571Y-129645609D01*
X111605570Y-129645610D01*
X111605569Y-129645610D01*
X111388276Y-129735616D01*
X111157600Y-129781500D01*
X110922400Y-129781500D01*
X110691724Y-129735616D01*
X110474431Y-129645610D01*
X110474430Y-129645610D01*
X110474429Y-129645609D01*
X110278870Y-129514940D01*
X110112560Y-129348630D01*
X109981891Y-129153071D01*
X109972818Y-129131168D01*
X109891884Y-128935776D01*
X109846000Y-128705100D01*
X109846000Y-128469900D01*
X109891884Y-128239224D01*
X109981890Y-128021931D01*
X110112560Y-127826370D01*
X110287299Y-127651631D01*
X110288034Y-127651027D01*
X110303567Y-127632074D01*
X110315103Y-127610456D01*
X110322200Y-127587002D01*
X110324585Y-127562614D01*
X110322166Y-127538230D01*
X110315037Y-127514786D01*
X110303471Y-127493183D01*
X110287974Y-127474312D01*
X110183635Y-127369973D01*
X110068615Y-127197833D01*
X109989389Y-127006564D01*
X109949000Y-126803516D01*
X109949000Y-126596484D01*
X109989389Y-126393436D01*
X110068615Y-126202167D01*
X110183635Y-126030027D01*
X110330027Y-125883635D01*
X110471076Y-125789389D01*
X110502165Y-125768616D01*
X110534554Y-125755200D01*
X110693436Y-125689389D01*
X110896484Y-125649000D01*
X111103516Y-125649000D01*
X111306564Y-125689389D01*
G37*
G36*
X68306564Y-125789389D02*
G01*
X68497833Y-125868615D01*
X68497835Y-125868616D01*
X68637920Y-125962218D01*
X68669973Y-125983635D01*
X68816365Y-126130027D01*
X68931385Y-126302167D01*
X69010611Y-126493436D01*
X69051000Y-126696484D01*
X69051000Y-126903516D01*
X69010611Y-127106564D01*
X69004324Y-127121741D01*
X68931384Y-127297835D01*
X68816365Y-127469973D01*
X68669973Y-127616365D01*
X68497835Y-127731384D01*
X68497834Y-127731385D01*
X68497833Y-127731385D01*
X68306564Y-127810611D01*
X68103516Y-127851000D01*
X67896484Y-127851000D01*
X67693436Y-127810611D01*
X67502167Y-127731385D01*
X67502166Y-127731385D01*
X67502165Y-127731384D01*
X67330027Y-127616365D01*
X67183635Y-127469973D01*
X67068616Y-127297835D01*
X66995676Y-127121741D01*
X66989389Y-127106564D01*
X66949000Y-126903516D01*
X66949000Y-126696484D01*
X66989389Y-126493436D01*
X67068615Y-126302167D01*
X67183635Y-126130027D01*
X67330027Y-125983635D01*
X67362080Y-125962218D01*
X67502165Y-125868616D01*
X67502167Y-125868615D01*
X67693436Y-125789389D01*
X67896484Y-125749000D01*
X68103516Y-125749000D01*
X68306564Y-125789389D01*
G37*
G36*
X106306564Y-125689389D02*
G01*
X106465446Y-125755200D01*
X106497835Y-125768616D01*
X106528924Y-125789389D01*
X106669973Y-125883635D01*
X106816365Y-126030027D01*
X106931385Y-126202167D01*
X107010611Y-126393436D01*
X107051000Y-126596484D01*
X107051000Y-126803516D01*
X107010611Y-127006564D01*
X106962903Y-127121741D01*
X106931384Y-127197835D01*
X106816365Y-127369973D01*
X106669973Y-127516365D01*
X106497835Y-127631384D01*
X106497834Y-127631385D01*
X106497833Y-127631385D01*
X106306564Y-127710611D01*
X106103516Y-127751000D01*
X105896484Y-127751000D01*
X105693436Y-127710611D01*
X105502167Y-127631385D01*
X105502166Y-127631385D01*
X105502165Y-127631384D01*
X105330027Y-127516365D01*
X105183635Y-127369973D01*
X105068616Y-127197835D01*
X105037097Y-127121741D01*
X104989389Y-127006564D01*
X104949000Y-126803516D01*
X104949000Y-126596484D01*
X104989389Y-126393436D01*
X105068615Y-126202167D01*
X105183635Y-126030027D01*
X105330027Y-125883635D01*
X105471076Y-125789389D01*
X105502165Y-125768616D01*
X105534554Y-125755200D01*
X105693436Y-125689389D01*
X105896484Y-125649000D01*
X106103516Y-125649000D01*
X106306564Y-125689389D01*
G37*
G36*
X121555483Y-125790835D02*
G01*
X121724240Y-125860736D01*
X121876118Y-125962218D01*
X122005282Y-126091382D01*
X122106764Y-126243260D01*
X122176665Y-126412017D01*
X122212300Y-126591168D01*
X122212300Y-126773832D01*
X122176665Y-126952983D01*
X122106764Y-127121740D01*
X122005282Y-127273618D01*
X121876118Y-127402782D01*
X121724240Y-127504264D01*
X121555483Y-127574165D01*
X121376332Y-127609800D01*
X121193668Y-127609800D01*
X121014517Y-127574165D01*
X120845760Y-127504264D01*
X120693882Y-127402782D01*
X120564718Y-127273618D01*
X120463236Y-127121740D01*
X120393335Y-126952983D01*
X120357700Y-126773832D01*
X120357700Y-126591168D01*
X120393335Y-126412017D01*
X120463236Y-126243260D01*
X120564718Y-126091382D01*
X120693882Y-125962218D01*
X120845760Y-125860736D01*
X121014517Y-125790835D01*
X121193668Y-125755200D01*
X121376332Y-125755200D01*
X121555483Y-125790835D01*
G37*
G36*
X136795483Y-125790835D02*
G01*
X136964240Y-125860736D01*
X137116118Y-125962218D01*
X137245282Y-126091382D01*
X137346764Y-126243260D01*
X137416665Y-126412017D01*
X137452300Y-126591168D01*
X137452300Y-126773832D01*
X137416665Y-126952983D01*
X137346764Y-127121740D01*
X137245282Y-127273618D01*
X137116118Y-127402782D01*
X136964240Y-127504264D01*
X136795483Y-127574165D01*
X136616332Y-127609800D01*
X136433668Y-127609800D01*
X136254517Y-127574165D01*
X136085760Y-127504264D01*
X135933882Y-127402782D01*
X135804718Y-127273618D01*
X135703236Y-127121740D01*
X135633335Y-126952983D01*
X135597700Y-126773832D01*
X135597700Y-126591168D01*
X135633335Y-126412017D01*
X135703236Y-126243260D01*
X135804718Y-126091382D01*
X135933882Y-125962218D01*
X136085760Y-125860736D01*
X136254517Y-125790835D01*
X136433668Y-125755200D01*
X136616332Y-125755200D01*
X136795483Y-125790835D01*
G37*
G36*
X121555483Y-123250835D02*
G01*
X121724240Y-123320736D01*
X121876118Y-123422218D01*
X122005282Y-123551382D01*
X122106764Y-123703260D01*
X122176665Y-123872017D01*
X122212300Y-124051168D01*
X122212300Y-124233832D01*
X122176665Y-124412983D01*
X122106764Y-124581740D01*
X122005282Y-124733618D01*
X121876118Y-124862782D01*
X121724240Y-124964264D01*
X121555483Y-125034165D01*
X121376332Y-125069800D01*
X121193668Y-125069800D01*
X121014517Y-125034165D01*
X120845760Y-124964264D01*
X120693882Y-124862782D01*
X120564718Y-124733618D01*
X120463236Y-124581740D01*
X120393335Y-124412983D01*
X120357700Y-124233832D01*
X120357700Y-124051168D01*
X120393335Y-123872017D01*
X120463236Y-123703260D01*
X120564718Y-123551382D01*
X120693882Y-123422218D01*
X120845760Y-123320736D01*
X121014517Y-123250835D01*
X121193668Y-123215200D01*
X121376332Y-123215200D01*
X121555483Y-123250835D01*
G37*
G36*
X136795483Y-123250835D02*
G01*
X136964240Y-123320736D01*
X137116118Y-123422218D01*
X137245282Y-123551382D01*
X137346764Y-123703260D01*
X137416665Y-123872017D01*
X137452300Y-124051168D01*
X137452300Y-124233832D01*
X137416665Y-124412983D01*
X137346764Y-124581740D01*
X137245282Y-124733618D01*
X137116118Y-124862782D01*
X136964240Y-124964264D01*
X136795483Y-125034165D01*
X136616332Y-125069800D01*
X136433668Y-125069800D01*
X136254517Y-125034165D01*
X136085760Y-124964264D01*
X135933882Y-124862782D01*
X135804718Y-124733618D01*
X135703236Y-124581740D01*
X135633335Y-124412983D01*
X135597700Y-124233832D01*
X135597700Y-124051168D01*
X135633335Y-123872017D01*
X135703236Y-123703260D01*
X135804718Y-123551382D01*
X135933882Y-123422218D01*
X136085760Y-123320736D01*
X136254517Y-123250835D01*
X136433668Y-123215200D01*
X136616332Y-123215200D01*
X136795483Y-123250835D01*
G37*
G36*
X121555483Y-120710835D02*
G01*
X121724240Y-120780736D01*
X121876118Y-120882218D01*
X122005282Y-121011382D01*
X122106764Y-121163260D01*
X122176665Y-121332017D01*
X122212300Y-121511168D01*
X122212300Y-121693832D01*
X122176665Y-121872983D01*
X122106764Y-122041740D01*
X122005282Y-122193618D01*
X121876118Y-122322782D01*
X121724240Y-122424264D01*
X121555483Y-122494165D01*
X121376332Y-122529800D01*
X121193668Y-122529800D01*
X121014517Y-122494165D01*
X120845760Y-122424264D01*
X120693882Y-122322782D01*
X120564718Y-122193618D01*
X120463236Y-122041740D01*
X120393335Y-121872983D01*
X120357700Y-121693832D01*
X120357700Y-121511168D01*
X120393335Y-121332017D01*
X120463236Y-121163260D01*
X120564718Y-121011382D01*
X120693882Y-120882218D01*
X120845760Y-120780736D01*
X121014517Y-120710835D01*
X121193668Y-120675200D01*
X121376332Y-120675200D01*
X121555483Y-120710835D01*
G37*
G36*
X136795483Y-120710835D02*
G01*
X136964240Y-120780736D01*
X137116118Y-120882218D01*
X137245282Y-121011382D01*
X137346764Y-121163260D01*
X137416665Y-121332017D01*
X137452300Y-121511168D01*
X137452300Y-121693832D01*
X137416665Y-121872983D01*
X137346764Y-122041740D01*
X137245282Y-122193618D01*
X137116118Y-122322782D01*
X136964240Y-122424264D01*
X136795483Y-122494165D01*
X136616332Y-122529800D01*
X136433668Y-122529800D01*
X136254517Y-122494165D01*
X136085760Y-122424264D01*
X135933882Y-122322782D01*
X135804718Y-122193618D01*
X135703236Y-122041740D01*
X135633335Y-121872983D01*
X135597700Y-121693832D01*
X135597700Y-121511168D01*
X135633335Y-121332017D01*
X135703236Y-121163260D01*
X135804718Y-121011382D01*
X135933882Y-120882218D01*
X136085760Y-120780736D01*
X136254517Y-120710835D01*
X136433668Y-120675200D01*
X136616332Y-120675200D01*
X136795483Y-120710835D01*
G37*
G36*
X72251000Y-121851000D02*
G01*
X70649000Y-121851000D01*
X70649000Y-120749000D01*
X72251000Y-120749000D01*
X72251000Y-121851000D01*
G37*
G36*
X117351000Y-121851000D02*
G01*
X115449000Y-121851000D01*
X115449000Y-120649000D01*
X117351000Y-120649000D01*
X117351000Y-121851000D01*
G37*
G36*
X111151000Y-121851000D02*
G01*
X109249000Y-121851000D01*
X109249000Y-120649000D01*
X111151000Y-120649000D01*
X111151000Y-121851000D01*
G37*
G36*
X67351000Y-121851000D02*
G01*
X65749000Y-121851000D01*
X65749000Y-120749000D01*
X67351000Y-120749000D01*
X67351000Y-121851000D01*
G37*
G36*
X121555483Y-118170835D02*
G01*
X121724240Y-118240736D01*
X121876118Y-118342218D01*
X122005282Y-118471382D01*
X122106764Y-118623260D01*
X122176665Y-118792017D01*
X122212300Y-118971168D01*
X122212300Y-119153832D01*
X122176665Y-119332983D01*
X122106764Y-119501740D01*
X122005282Y-119653618D01*
X121876118Y-119782782D01*
X121724240Y-119884264D01*
X121555483Y-119954165D01*
X121376332Y-119989800D01*
X121193668Y-119989800D01*
X121014517Y-119954165D01*
X120845760Y-119884264D01*
X120693882Y-119782782D01*
X120564718Y-119653618D01*
X120463236Y-119501740D01*
X120393335Y-119332983D01*
X120357700Y-119153832D01*
X120357700Y-118971168D01*
X120393335Y-118792017D01*
X120463236Y-118623260D01*
X120564718Y-118471382D01*
X120693882Y-118342218D01*
X120845760Y-118240736D01*
X121014517Y-118170835D01*
X121193668Y-118135200D01*
X121376332Y-118135200D01*
X121555483Y-118170835D01*
G37*
G36*
X137452300Y-119989800D02*
G01*
X135597700Y-119989800D01*
X135597700Y-118135200D01*
X137452300Y-118135200D01*
X137452300Y-119989800D01*
G37*
G36*
X67351000Y-118651000D02*
G01*
X65749000Y-118651000D01*
X65749000Y-117549000D01*
X67351000Y-117549000D01*
X67351000Y-118651000D01*
G37*
G36*
X72251000Y-118651000D02*
G01*
X70649000Y-118651000D01*
X70649000Y-117549000D01*
X72251000Y-117549000D01*
X72251000Y-118651000D01*
G37*
G36*
X117351000Y-118151000D02*
G01*
X115449000Y-118151000D01*
X115449000Y-116949000D01*
X117351000Y-116949000D01*
X117351000Y-118151000D01*
G37*
G36*
X111151000Y-118151000D02*
G01*
X109249000Y-118151000D01*
X109249000Y-116949000D01*
X111151000Y-116949000D01*
X111151000Y-118151000D01*
G37*
M02*
