M48
; DRILL file {KiCad (5.1.5)-3} date 09/07/2020 22:20:01
; FORMAT={-:-/ absolute / metric / decimal}
; #@! TF.CreationDate,2020-07-09T22:20:01+02:00
; #@! TF.GenerationSoftware,Kicad,Pcbnew,(5.1.5)-3
FMAT,2
METRIC
T1C0.400
T2C1.000
T3C1.092
T4C1.499
T5C1.500
T6C1.800
T7C1.800
T8C3.988
%
G90
G05
T1
X118.4Y-141.2
X118.8Y-136.3
T2
X68.0Y-126.8
X68.0Y-141.3
X70.5Y-141.3
X73.0Y-126.8
X73.0Y-141.3
X66.3Y-143.6
X74.1Y-143.6
X104.5Y-143.7
X112.3Y-143.7
X106.0Y-126.7
X106.0Y-141.2
X108.5Y-141.2
X111.0Y-126.7
X111.0Y-141.2
X66.7Y-162.4
X74.5Y-162.4
X85.5Y-143.6
X93.3Y-143.6
X104.8Y-162.1
X112.6Y-162.1
X85.6Y-162.4
X93.4Y-162.4
T3
X121.285Y-119.062
X121.285Y-121.602
X121.285Y-124.142
X121.285Y-126.682
X121.285Y-129.222
X121.285Y-131.762
X121.285Y-134.302
X121.285Y-136.843
X121.285Y-139.382
X121.285Y-141.922
X121.285Y-144.463
X121.285Y-147.002
X136.525Y-119.062
X136.525Y-121.602
X136.525Y-124.142
X136.525Y-126.682
X136.525Y-129.222
X136.525Y-131.762
X136.525Y-134.302
X136.525Y-136.843
X136.525Y-139.382
X136.525Y-141.922
X136.525Y-144.463
X136.525Y-147.002
T4
X85.65Y-131.127
X92.0Y-128.588
X66.675Y-131.16
X73.025Y-128.62
X104.65Y-150.177
X111.0Y-147.637
X66.69Y-150.177
X73.04Y-147.637
X104.69Y-131.127
X111.04Y-128.588
X85.65Y-150.177
X92.0Y-147.637
T6
X65.405Y-133.7
X75.565Y-133.7
X103.42Y-133.667
X113.58Y-133.667
T7
X84.38Y-133.667
X94.54Y-133.667
X103.38Y-152.718
X113.54Y-152.718
X65.42Y-152.718
X75.58Y-152.718
X84.38Y-152.718
X94.54Y-152.718
T8
X89.46Y-133.667
X70.485Y-133.7
X108.46Y-152.718
X70.5Y-152.718
X108.5Y-133.667
X89.46Y-152.718
T5
G00X64.9Y-134.45
M15
G01X64.9Y-133.15
M16
G05
G00X76.1Y-134.45
M15
G01X76.1Y-133.15
M16
G05
G00X102.9Y-134.35
M15
G01X102.9Y-133.05
M16
G05
G00X114.1Y-134.35
M15
G01X114.1Y-133.05
M16
G05
T0
M30
