G04 #@! TF.GenerationSoftware,KiCad,Pcbnew,(5.1.5)-3*
G04 #@! TF.CreationDate,2020-07-09T22:20:04+02:00*
G04 #@! TF.ProjectId,2x3_macropad,3278335f-6d61-4637-926f-7061642e6b69,rev?*
G04 #@! TF.SameCoordinates,Original*
G04 #@! TF.FileFunction,Copper,L2,Bot*
G04 #@! TF.FilePolarity,Positive*
%FSLAX46Y46*%
G04 Gerber Fmt 4.6, Leading zero omitted, Abs format (unit mm)*
G04 Created by KiCad (PCBNEW (5.1.5)-3) date 2020-07-09 22:20:04*
%MOMM*%
%LPD*%
G04 APERTURE LIST*
%ADD10R,1.800000X1.100000*%
%ADD11R,2.000000X2.000000*%
%ADD12C,2.000000*%
%ADD13R,2.000000X3.200000*%
%ADD14R,1.500000X1.000000*%
%ADD15R,2.900000X0.500000*%
%ADD16R,1.600000X1.200000*%
%ADD17C,1.600000*%
%ADD18R,1.600000X1.600000*%
%ADD19C,2.286000*%
%ADD20C,1.800000*%
%ADD21R,1.752600X1.752600*%
%ADD22C,1.752600*%
%ADD23C,0.800000*%
%ADD24C,0.250000*%
%ADD25C,0.254000*%
G04 APERTURE END LIST*
D10*
X110200000Y-121250000D03*
X116400000Y-121250000D03*
X110200000Y-117550000D03*
X116400000Y-117550000D03*
D11*
X68000000Y-141300000D03*
D12*
X70500000Y-141300000D03*
X73000000Y-141300000D03*
D13*
X64900000Y-133800000D03*
X76100000Y-133800000D03*
D12*
X68000000Y-126800000D03*
X73000000Y-126800000D03*
D14*
X125650000Y-161300000D03*
X125650000Y-158100000D03*
X130550000Y-161300000D03*
X130550000Y-158100000D03*
X71450000Y-118100000D03*
X71450000Y-121300000D03*
X66550000Y-118100000D03*
X66550000Y-121300000D03*
D15*
X67700000Y-143600000D03*
D16*
X68800000Y-143600000D03*
X71600000Y-143600000D03*
D15*
X72700000Y-143600000D03*
D17*
X66300000Y-143600000D03*
D18*
X74100000Y-143600000D03*
X74500000Y-162400000D03*
D17*
X66700000Y-162400000D03*
D15*
X73100000Y-162400000D03*
D16*
X72000000Y-162400000D03*
X69200000Y-162400000D03*
D15*
X68100000Y-162400000D03*
X86900000Y-143600000D03*
D16*
X88000000Y-143600000D03*
X90800000Y-143600000D03*
D15*
X91900000Y-143600000D03*
D17*
X85500000Y-143600000D03*
D18*
X93300000Y-143600000D03*
X93400000Y-162400000D03*
D17*
X85600000Y-162400000D03*
D15*
X92000000Y-162400000D03*
D16*
X90900000Y-162400000D03*
X88100000Y-162400000D03*
D15*
X87000000Y-162400000D03*
X105900000Y-143700000D03*
D16*
X107000000Y-143700000D03*
X109800000Y-143700000D03*
D15*
X110900000Y-143700000D03*
D17*
X104500000Y-143700000D03*
D18*
X112300000Y-143700000D03*
X112600000Y-162100000D03*
D17*
X104800000Y-162100000D03*
D15*
X111200000Y-162100000D03*
D16*
X110100000Y-162100000D03*
X107300000Y-162100000D03*
D15*
X106200000Y-162100000D03*
D19*
X73040000Y-147637500D03*
X66690000Y-150177500D03*
X85650000Y-131127500D03*
X92000000Y-128587500D03*
X85650000Y-150177500D03*
X92000000Y-147637500D03*
D20*
X113580000Y-133667500D03*
X103420000Y-133667500D03*
D19*
X104690000Y-131127500D03*
X111040000Y-128587500D03*
X111000000Y-147637500D03*
X104650000Y-150177500D03*
X73025000Y-128620000D03*
X66675000Y-131160000D03*
D20*
X65405000Y-133700000D03*
X75565000Y-133700000D03*
D12*
X111000000Y-126700000D03*
X106000000Y-126700000D03*
D13*
X114100000Y-133700000D03*
X102900000Y-133700000D03*
D12*
X111000000Y-141200000D03*
X108500000Y-141200000D03*
D11*
X106000000Y-141200000D03*
D21*
X136525000Y-119062500D03*
D22*
X136525000Y-121602500D03*
X136525000Y-124142500D03*
X136525000Y-126682500D03*
X136525000Y-129222500D03*
X136525000Y-131762500D03*
X136525000Y-134302500D03*
X136525000Y-136842500D03*
X136525000Y-139382500D03*
X136525000Y-141922500D03*
X136525000Y-144462500D03*
X121285000Y-147002500D03*
X121285000Y-144462500D03*
X121285000Y-141922500D03*
X121285000Y-139382500D03*
X121285000Y-136842500D03*
X121285000Y-134302500D03*
X121285000Y-131762500D03*
X121285000Y-129222500D03*
X121285000Y-126682500D03*
X121285000Y-124142500D03*
X121285000Y-121602500D03*
X136525000Y-147002500D03*
X121285000Y-119062500D03*
D23*
X118400000Y-141200000D03*
X118800000Y-136300000D03*
D24*
X67550000Y-121300000D02*
X68850000Y-120000000D01*
X66550000Y-121300000D02*
X67550000Y-121300000D01*
X73800000Y-120000000D02*
X76400000Y-122600000D01*
X68850000Y-120000000D02*
X73800000Y-120000000D01*
X117202500Y-122600000D02*
X121285000Y-126682500D01*
X76400000Y-122600000D02*
X117202500Y-122600000D01*
X126700000Y-161300000D02*
X125650000Y-161300000D01*
X117600000Y-130367500D02*
X117600000Y-146400000D01*
X127300000Y-160700000D02*
X126700000Y-161300000D01*
X121285000Y-126682500D02*
X117600000Y-130367500D01*
X117600000Y-146400000D02*
X127300000Y-156100000D01*
X127300000Y-156100000D02*
X127300000Y-160700000D01*
X125650000Y-157600000D02*
X125200000Y-157600000D01*
X72700000Y-123600000D02*
X71450000Y-122350000D01*
X125250000Y-157600000D02*
X116700000Y-149050000D01*
X125650000Y-157600000D02*
X125250000Y-157600000D01*
X116700000Y-149050000D02*
X116700000Y-130438998D01*
X71450000Y-122350000D02*
X71450000Y-121300000D01*
X116700000Y-130438998D02*
X109861002Y-123600000D01*
X109861002Y-123600000D02*
X72700000Y-123600000D01*
X130550000Y-160550000D02*
X128500000Y-158500000D01*
X130550000Y-161300000D02*
X130550000Y-160550000D01*
X128500000Y-154217500D02*
X121285000Y-147002500D01*
X128500000Y-158500000D02*
X128500000Y-154217500D01*
X130550000Y-157000000D02*
X130550000Y-156250000D01*
X132600000Y-130607500D02*
X136525000Y-126682500D01*
X132600000Y-154200000D02*
X132600000Y-130607500D01*
X132200000Y-154600000D02*
X132600000Y-154200000D01*
X130550000Y-156250000D02*
X132200000Y-154600000D01*
X70500000Y-141300000D02*
X66500000Y-137300000D01*
X65214998Y-137300000D02*
X62500000Y-134585002D01*
X66500000Y-137300000D02*
X65214998Y-137300000D01*
X62500000Y-117900000D02*
X64800000Y-115600000D01*
X62500000Y-134585002D02*
X62500000Y-117900000D01*
X71450000Y-117350000D02*
X71450000Y-118100000D01*
X69700000Y-115600000D02*
X71450000Y-117350000D01*
X64800000Y-115600000D02*
X69700000Y-115600000D01*
X136525000Y-125381775D02*
X136525000Y-126682500D01*
X136525000Y-124142500D02*
X136525000Y-125381775D01*
X123825000Y-124142500D02*
X121285000Y-121602500D01*
X136525000Y-124142500D02*
X123825000Y-124142500D01*
X72450000Y-118100000D02*
X74650000Y-115900000D01*
X71450000Y-118100000D02*
X72450000Y-118100000D01*
X116500000Y-116750000D02*
X116500000Y-117500000D01*
X115650000Y-115900000D02*
X116500000Y-116750000D01*
X74650000Y-115900000D02*
X115650000Y-115900000D01*
X130550000Y-157000000D02*
X130550000Y-157600000D01*
X111800000Y-151400000D02*
X108500000Y-148100000D01*
X132200000Y-161700000D02*
X131100000Y-162800000D01*
X111800000Y-153900000D02*
X111800000Y-151400000D01*
X108500000Y-148100000D02*
X108500000Y-141200000D01*
X132200000Y-154600000D02*
X132200000Y-161700000D01*
X131100000Y-162800000D02*
X120700000Y-162800000D01*
X120700000Y-162800000D02*
X111800000Y-153900000D01*
X110200000Y-117550000D02*
X116400000Y-117550000D01*
X117232500Y-117550000D02*
X116400000Y-117550000D01*
X121285000Y-121602500D02*
X117232500Y-117550000D01*
X68000000Y-129835000D02*
X66675000Y-131160000D01*
X68000000Y-126800000D02*
X68000000Y-129835000D01*
X85650000Y-143450000D02*
X85500000Y-143600000D01*
X85650000Y-131127500D02*
X85650000Y-143450000D01*
X104690000Y-128010000D02*
X104690000Y-131127500D01*
X106000000Y-126700000D02*
X104690000Y-128010000D01*
X104500000Y-140114998D02*
X104500000Y-142568630D01*
X104500000Y-142568630D02*
X104500000Y-143700000D01*
X104690000Y-139924998D02*
X104500000Y-140114998D01*
X104690000Y-131127500D02*
X104690000Y-139924998D01*
X66690000Y-162390000D02*
X66700000Y-162400000D01*
X66690000Y-150177500D02*
X66690000Y-162390000D01*
X85650000Y-162350000D02*
X85600000Y-162400000D01*
X85650000Y-150177500D02*
X85650000Y-162350000D01*
X104775000Y-162075000D02*
X104800000Y-162100000D01*
X104775000Y-150177500D02*
X104775000Y-162075000D01*
X73040000Y-147637500D02*
X75300000Y-145377500D01*
X73600000Y-129195000D02*
X73025000Y-128620000D01*
X73600000Y-136100000D02*
X73600000Y-129195000D01*
X76300000Y-138800000D02*
X73600000Y-136100000D01*
X73040000Y-147637500D02*
X76300000Y-144377500D01*
X76300000Y-144377500D02*
X76300000Y-138800000D01*
X92000000Y-147637500D02*
X95400000Y-144237500D01*
X95400000Y-144237500D02*
X95400000Y-137400000D01*
X92000000Y-134000000D02*
X92000000Y-128587500D01*
X95400000Y-137400000D02*
X92000000Y-134000000D01*
X111040000Y-135040000D02*
X111040000Y-128587500D01*
X114262500Y-138262500D02*
X111040000Y-135040000D01*
X111125000Y-147637500D02*
X114262500Y-144500000D01*
X114262500Y-144500000D02*
X114262500Y-138262500D01*
X118392500Y-121250000D02*
X121285000Y-124142500D01*
X116400000Y-121250000D02*
X118392500Y-121250000D01*
X115250000Y-121250000D02*
X110200000Y-121250000D01*
X116400000Y-121250000D02*
X115250000Y-121250000D01*
X121285000Y-144085000D02*
X121285000Y-144462500D01*
X118400000Y-141200000D02*
X121285000Y-144085000D01*
X118800000Y-139437500D02*
X121285000Y-141922500D01*
X118800000Y-136300000D02*
X118800000Y-139437500D01*
D25*
G36*
X137590001Y-117579869D02*
G01*
X137525782Y-117560388D01*
X137401300Y-117548128D01*
X135648700Y-117548128D01*
X135524218Y-117560388D01*
X135404520Y-117596698D01*
X135294206Y-117655663D01*
X135197515Y-117735015D01*
X135118163Y-117831706D01*
X135059198Y-117942020D01*
X135022888Y-118061718D01*
X135010628Y-118186200D01*
X135010628Y-119938800D01*
X135022888Y-120063282D01*
X135059198Y-120182980D01*
X135118163Y-120293294D01*
X135197515Y-120389985D01*
X135294206Y-120469337D01*
X135404520Y-120528302D01*
X135448542Y-120541656D01*
X135351096Y-120639102D01*
X135185703Y-120886631D01*
X135071778Y-121161670D01*
X135013700Y-121453650D01*
X135013700Y-121751350D01*
X135071778Y-122043330D01*
X135185703Y-122318369D01*
X135351096Y-122565898D01*
X135561602Y-122776404D01*
X135724809Y-122885455D01*
X135657437Y-123095331D01*
X136525000Y-123962895D01*
X136539142Y-123948752D01*
X136718748Y-124128358D01*
X136704605Y-124142500D01*
X136718748Y-124156642D01*
X136539142Y-124336248D01*
X136525000Y-124322105D01*
X135657437Y-125189669D01*
X135728968Y-125412500D01*
X135657437Y-125635331D01*
X136525000Y-126502895D01*
X136539142Y-126488752D01*
X136718748Y-126668358D01*
X136704605Y-126682500D01*
X136718748Y-126696642D01*
X136539142Y-126876248D01*
X136525000Y-126862105D01*
X135657437Y-127729669D01*
X135724809Y-127939545D01*
X135561602Y-128048596D01*
X135351096Y-128259102D01*
X135185703Y-128506631D01*
X135071778Y-128781670D01*
X135013700Y-129073650D01*
X135013700Y-129371350D01*
X135071778Y-129663330D01*
X135185703Y-129938369D01*
X135351096Y-130185898D01*
X135561602Y-130396404D01*
X135705420Y-130492500D01*
X135561602Y-130588596D01*
X135351096Y-130799102D01*
X135185703Y-131046631D01*
X135071778Y-131321670D01*
X135013700Y-131613650D01*
X135013700Y-131911350D01*
X135071778Y-132203330D01*
X135185703Y-132478369D01*
X135351096Y-132725898D01*
X135561602Y-132936404D01*
X135705420Y-133032500D01*
X135561602Y-133128596D01*
X135351096Y-133339102D01*
X135185703Y-133586631D01*
X135071778Y-133861670D01*
X135013700Y-134153650D01*
X135013700Y-134451350D01*
X135071778Y-134743330D01*
X135185703Y-135018369D01*
X135351096Y-135265898D01*
X135561602Y-135476404D01*
X135705420Y-135572500D01*
X135561602Y-135668596D01*
X135351096Y-135879102D01*
X135185703Y-136126631D01*
X135071778Y-136401670D01*
X135013700Y-136693650D01*
X135013700Y-136991350D01*
X135071778Y-137283330D01*
X135185703Y-137558369D01*
X135351096Y-137805898D01*
X135561602Y-138016404D01*
X135705420Y-138112500D01*
X135561602Y-138208596D01*
X135351096Y-138419102D01*
X135185703Y-138666631D01*
X135071778Y-138941670D01*
X135013700Y-139233650D01*
X135013700Y-139531350D01*
X135071778Y-139823330D01*
X135185703Y-140098369D01*
X135351096Y-140345898D01*
X135561602Y-140556404D01*
X135705420Y-140652500D01*
X135561602Y-140748596D01*
X135351096Y-140959102D01*
X135185703Y-141206631D01*
X135071778Y-141481670D01*
X135013700Y-141773650D01*
X135013700Y-142071350D01*
X135071778Y-142363330D01*
X135185703Y-142638369D01*
X135351096Y-142885898D01*
X135561602Y-143096404D01*
X135705420Y-143192500D01*
X135561602Y-143288596D01*
X135351096Y-143499102D01*
X135185703Y-143746631D01*
X135071778Y-144021670D01*
X135013700Y-144313650D01*
X135013700Y-144611350D01*
X135071778Y-144903330D01*
X135185703Y-145178369D01*
X135351096Y-145425898D01*
X135561602Y-145636404D01*
X135705420Y-145732500D01*
X135561602Y-145828596D01*
X135351096Y-146039102D01*
X135185703Y-146286631D01*
X135071778Y-146561670D01*
X135013700Y-146853650D01*
X135013700Y-147151350D01*
X135071778Y-147443330D01*
X135185703Y-147718369D01*
X135351096Y-147965898D01*
X135561602Y-148176404D01*
X135809131Y-148341797D01*
X136084170Y-148455722D01*
X136376150Y-148513800D01*
X136673850Y-148513800D01*
X136965830Y-148455722D01*
X137240869Y-148341797D01*
X137488398Y-148176404D01*
X137590000Y-148074802D01*
X137590000Y-164040000D01*
X59160000Y-164040000D01*
X59160000Y-152566316D01*
X63885000Y-152566316D01*
X63885000Y-152868684D01*
X63943989Y-153165243D01*
X64059701Y-153444595D01*
X64227688Y-153696005D01*
X64441495Y-153909812D01*
X64692905Y-154077799D01*
X64972257Y-154193511D01*
X65268816Y-154252500D01*
X65571184Y-154252500D01*
X65867743Y-154193511D01*
X65930000Y-154167723D01*
X65930001Y-161188638D01*
X65785241Y-161285363D01*
X65585363Y-161485241D01*
X65428320Y-161720273D01*
X65320147Y-161981426D01*
X65265000Y-162258665D01*
X65265000Y-162541335D01*
X65320147Y-162818574D01*
X65428320Y-163079727D01*
X65585363Y-163314759D01*
X65785241Y-163514637D01*
X66020273Y-163671680D01*
X66281426Y-163779853D01*
X66558665Y-163835000D01*
X66841335Y-163835000D01*
X67118574Y-163779853D01*
X67379727Y-163671680D01*
X67614759Y-163514637D01*
X67814637Y-163314759D01*
X67832469Y-163288072D01*
X67833959Y-163288072D01*
X67869463Y-163354494D01*
X67948815Y-163451185D01*
X68045506Y-163530537D01*
X68155820Y-163589502D01*
X68275518Y-163625812D01*
X68400000Y-163638072D01*
X70000000Y-163638072D01*
X70124482Y-163625812D01*
X70244180Y-163589502D01*
X70354494Y-163530537D01*
X70451185Y-163451185D01*
X70530537Y-163354494D01*
X70589502Y-163244180D01*
X70600000Y-163209573D01*
X70610498Y-163244180D01*
X70669463Y-163354494D01*
X70748815Y-163451185D01*
X70845506Y-163530537D01*
X70955820Y-163589502D01*
X71075518Y-163625812D01*
X71200000Y-163638072D01*
X72800000Y-163638072D01*
X72924482Y-163625812D01*
X73044180Y-163589502D01*
X73154494Y-163530537D01*
X73155998Y-163529303D01*
X73169463Y-163554494D01*
X73248815Y-163651185D01*
X73345506Y-163730537D01*
X73455820Y-163789502D01*
X73575518Y-163825812D01*
X73700000Y-163838072D01*
X75300000Y-163838072D01*
X75424482Y-163825812D01*
X75544180Y-163789502D01*
X75654494Y-163730537D01*
X75751185Y-163651185D01*
X75830537Y-163554494D01*
X75889502Y-163444180D01*
X75925812Y-163324482D01*
X75938072Y-163200000D01*
X75938072Y-161600000D01*
X75925812Y-161475518D01*
X75889502Y-161355820D01*
X75830537Y-161245506D01*
X75751185Y-161148815D01*
X75654494Y-161069463D01*
X75544180Y-161010498D01*
X75424482Y-160974188D01*
X75300000Y-160961928D01*
X73700000Y-160961928D01*
X73575518Y-160974188D01*
X73455820Y-161010498D01*
X73345506Y-161069463D01*
X73248815Y-161148815D01*
X73169463Y-161245506D01*
X73155998Y-161270697D01*
X73154494Y-161269463D01*
X73044180Y-161210498D01*
X72924482Y-161174188D01*
X72800000Y-161161928D01*
X71200000Y-161161928D01*
X71075518Y-161174188D01*
X70955820Y-161210498D01*
X70845506Y-161269463D01*
X70748815Y-161348815D01*
X70669463Y-161445506D01*
X70610498Y-161555820D01*
X70600000Y-161590427D01*
X70589502Y-161555820D01*
X70530537Y-161445506D01*
X70451185Y-161348815D01*
X70354494Y-161269463D01*
X70244180Y-161210498D01*
X70124482Y-161174188D01*
X70000000Y-161161928D01*
X68400000Y-161161928D01*
X68275518Y-161174188D01*
X68155820Y-161210498D01*
X68045506Y-161269463D01*
X67948815Y-161348815D01*
X67869463Y-161445506D01*
X67833959Y-161511928D01*
X67832469Y-161511928D01*
X67814637Y-161485241D01*
X67614759Y-161285363D01*
X67450000Y-161175275D01*
X67450000Y-152458576D01*
X67871100Y-152458576D01*
X67871100Y-152976424D01*
X67972127Y-153484322D01*
X68170299Y-153962751D01*
X68458000Y-154393326D01*
X68824174Y-154759500D01*
X69254749Y-155047201D01*
X69733178Y-155245373D01*
X70241076Y-155346400D01*
X70758924Y-155346400D01*
X71266822Y-155245373D01*
X71745251Y-155047201D01*
X72175826Y-154759500D01*
X72542000Y-154393326D01*
X72829701Y-153962751D01*
X73027873Y-153484322D01*
X73128900Y-152976424D01*
X73128900Y-152566316D01*
X74045000Y-152566316D01*
X74045000Y-152868684D01*
X74103989Y-153165243D01*
X74219701Y-153444595D01*
X74387688Y-153696005D01*
X74601495Y-153909812D01*
X74852905Y-154077799D01*
X75132257Y-154193511D01*
X75428816Y-154252500D01*
X75731184Y-154252500D01*
X76027743Y-154193511D01*
X76307095Y-154077799D01*
X76558505Y-153909812D01*
X76772312Y-153696005D01*
X76940299Y-153444595D01*
X77056011Y-153165243D01*
X77115000Y-152868684D01*
X77115000Y-152566316D01*
X82845000Y-152566316D01*
X82845000Y-152868684D01*
X82903989Y-153165243D01*
X83019701Y-153444595D01*
X83187688Y-153696005D01*
X83401495Y-153909812D01*
X83652905Y-154077799D01*
X83932257Y-154193511D01*
X84228816Y-154252500D01*
X84531184Y-154252500D01*
X84827743Y-154193511D01*
X84890000Y-154167723D01*
X84890001Y-161148547D01*
X84685241Y-161285363D01*
X84485363Y-161485241D01*
X84328320Y-161720273D01*
X84220147Y-161981426D01*
X84165000Y-162258665D01*
X84165000Y-162541335D01*
X84220147Y-162818574D01*
X84328320Y-163079727D01*
X84485363Y-163314759D01*
X84685241Y-163514637D01*
X84920273Y-163671680D01*
X85181426Y-163779853D01*
X85458665Y-163835000D01*
X85741335Y-163835000D01*
X86018574Y-163779853D01*
X86279727Y-163671680D01*
X86514759Y-163514637D01*
X86714637Y-163314759D01*
X86732469Y-163288072D01*
X86733959Y-163288072D01*
X86769463Y-163354494D01*
X86848815Y-163451185D01*
X86945506Y-163530537D01*
X87055820Y-163589502D01*
X87175518Y-163625812D01*
X87300000Y-163638072D01*
X88900000Y-163638072D01*
X89024482Y-163625812D01*
X89144180Y-163589502D01*
X89254494Y-163530537D01*
X89351185Y-163451185D01*
X89430537Y-163354494D01*
X89489502Y-163244180D01*
X89500000Y-163209573D01*
X89510498Y-163244180D01*
X89569463Y-163354494D01*
X89648815Y-163451185D01*
X89745506Y-163530537D01*
X89855820Y-163589502D01*
X89975518Y-163625812D01*
X90100000Y-163638072D01*
X91700000Y-163638072D01*
X91824482Y-163625812D01*
X91944180Y-163589502D01*
X92054494Y-163530537D01*
X92055998Y-163529303D01*
X92069463Y-163554494D01*
X92148815Y-163651185D01*
X92245506Y-163730537D01*
X92355820Y-163789502D01*
X92475518Y-163825812D01*
X92600000Y-163838072D01*
X94200000Y-163838072D01*
X94324482Y-163825812D01*
X94444180Y-163789502D01*
X94554494Y-163730537D01*
X94651185Y-163651185D01*
X94730537Y-163554494D01*
X94789502Y-163444180D01*
X94825812Y-163324482D01*
X94838072Y-163200000D01*
X94838072Y-161600000D01*
X94825812Y-161475518D01*
X94789502Y-161355820D01*
X94730537Y-161245506D01*
X94651185Y-161148815D01*
X94554494Y-161069463D01*
X94444180Y-161010498D01*
X94324482Y-160974188D01*
X94200000Y-160961928D01*
X92600000Y-160961928D01*
X92475518Y-160974188D01*
X92355820Y-161010498D01*
X92245506Y-161069463D01*
X92148815Y-161148815D01*
X92069463Y-161245506D01*
X92055998Y-161270697D01*
X92054494Y-161269463D01*
X91944180Y-161210498D01*
X91824482Y-161174188D01*
X91700000Y-161161928D01*
X90100000Y-161161928D01*
X89975518Y-161174188D01*
X89855820Y-161210498D01*
X89745506Y-161269463D01*
X89648815Y-161348815D01*
X89569463Y-161445506D01*
X89510498Y-161555820D01*
X89500000Y-161590427D01*
X89489502Y-161555820D01*
X89430537Y-161445506D01*
X89351185Y-161348815D01*
X89254494Y-161269463D01*
X89144180Y-161210498D01*
X89024482Y-161174188D01*
X88900000Y-161161928D01*
X87300000Y-161161928D01*
X87175518Y-161174188D01*
X87055820Y-161210498D01*
X86945506Y-161269463D01*
X86848815Y-161348815D01*
X86769463Y-161445506D01*
X86733959Y-161511928D01*
X86732469Y-161511928D01*
X86714637Y-161485241D01*
X86514759Y-161285363D01*
X86410000Y-161215365D01*
X86410000Y-152458576D01*
X86831100Y-152458576D01*
X86831100Y-152976424D01*
X86932127Y-153484322D01*
X87130299Y-153962751D01*
X87418000Y-154393326D01*
X87784174Y-154759500D01*
X88214749Y-155047201D01*
X88693178Y-155245373D01*
X89201076Y-155346400D01*
X89718924Y-155346400D01*
X90226822Y-155245373D01*
X90705251Y-155047201D01*
X91135826Y-154759500D01*
X91502000Y-154393326D01*
X91789701Y-153962751D01*
X91987873Y-153484322D01*
X92088900Y-152976424D01*
X92088900Y-152566316D01*
X93005000Y-152566316D01*
X93005000Y-152868684D01*
X93063989Y-153165243D01*
X93179701Y-153444595D01*
X93347688Y-153696005D01*
X93561495Y-153909812D01*
X93812905Y-154077799D01*
X94092257Y-154193511D01*
X94388816Y-154252500D01*
X94691184Y-154252500D01*
X94987743Y-154193511D01*
X95267095Y-154077799D01*
X95518505Y-153909812D01*
X95732312Y-153696005D01*
X95900299Y-153444595D01*
X96016011Y-153165243D01*
X96075000Y-152868684D01*
X96075000Y-152566316D01*
X101845000Y-152566316D01*
X101845000Y-152868684D01*
X101903989Y-153165243D01*
X102019701Y-153444595D01*
X102187688Y-153696005D01*
X102401495Y-153909812D01*
X102652905Y-154077799D01*
X102932257Y-154193511D01*
X103228816Y-154252500D01*
X103531184Y-154252500D01*
X103827743Y-154193511D01*
X104015000Y-154115946D01*
X104015001Y-160898660D01*
X103885241Y-160985363D01*
X103685363Y-161185241D01*
X103528320Y-161420273D01*
X103420147Y-161681426D01*
X103365000Y-161958665D01*
X103365000Y-162241335D01*
X103420147Y-162518574D01*
X103528320Y-162779727D01*
X103685363Y-163014759D01*
X103885241Y-163214637D01*
X104120273Y-163371680D01*
X104381426Y-163479853D01*
X104658665Y-163535000D01*
X104941335Y-163535000D01*
X105218574Y-163479853D01*
X105479727Y-163371680D01*
X105714759Y-163214637D01*
X105914637Y-163014759D01*
X105932469Y-162988072D01*
X105933959Y-162988072D01*
X105969463Y-163054494D01*
X106048815Y-163151185D01*
X106145506Y-163230537D01*
X106255820Y-163289502D01*
X106375518Y-163325812D01*
X106500000Y-163338072D01*
X108100000Y-163338072D01*
X108224482Y-163325812D01*
X108344180Y-163289502D01*
X108454494Y-163230537D01*
X108551185Y-163151185D01*
X108630537Y-163054494D01*
X108689502Y-162944180D01*
X108700000Y-162909573D01*
X108710498Y-162944180D01*
X108769463Y-163054494D01*
X108848815Y-163151185D01*
X108945506Y-163230537D01*
X109055820Y-163289502D01*
X109175518Y-163325812D01*
X109300000Y-163338072D01*
X110900000Y-163338072D01*
X111024482Y-163325812D01*
X111144180Y-163289502D01*
X111254494Y-163230537D01*
X111255998Y-163229303D01*
X111269463Y-163254494D01*
X111348815Y-163351185D01*
X111445506Y-163430537D01*
X111555820Y-163489502D01*
X111675518Y-163525812D01*
X111800000Y-163538072D01*
X113400000Y-163538072D01*
X113524482Y-163525812D01*
X113644180Y-163489502D01*
X113754494Y-163430537D01*
X113851185Y-163351185D01*
X113930537Y-163254494D01*
X113989502Y-163144180D01*
X114025812Y-163024482D01*
X114038072Y-162900000D01*
X114038072Y-161300000D01*
X114025812Y-161175518D01*
X113989502Y-161055820D01*
X113930537Y-160945506D01*
X113851185Y-160848815D01*
X113754494Y-160769463D01*
X113644180Y-160710498D01*
X113524482Y-160674188D01*
X113400000Y-160661928D01*
X111800000Y-160661928D01*
X111675518Y-160674188D01*
X111555820Y-160710498D01*
X111445506Y-160769463D01*
X111348815Y-160848815D01*
X111269463Y-160945506D01*
X111255998Y-160970697D01*
X111254494Y-160969463D01*
X111144180Y-160910498D01*
X111024482Y-160874188D01*
X110900000Y-160861928D01*
X109300000Y-160861928D01*
X109175518Y-160874188D01*
X109055820Y-160910498D01*
X108945506Y-160969463D01*
X108848815Y-161048815D01*
X108769463Y-161145506D01*
X108710498Y-161255820D01*
X108700000Y-161290427D01*
X108689502Y-161255820D01*
X108630537Y-161145506D01*
X108551185Y-161048815D01*
X108454494Y-160969463D01*
X108344180Y-160910498D01*
X108224482Y-160874188D01*
X108100000Y-160861928D01*
X106500000Y-160861928D01*
X106375518Y-160874188D01*
X106255820Y-160910498D01*
X106145506Y-160969463D01*
X106048815Y-161048815D01*
X105969463Y-161145506D01*
X105933959Y-161211928D01*
X105932469Y-161211928D01*
X105914637Y-161185241D01*
X105714759Y-160985363D01*
X105535000Y-160865252D01*
X105535000Y-152458576D01*
X105831100Y-152458576D01*
X105831100Y-152976424D01*
X105932127Y-153484322D01*
X106130299Y-153962751D01*
X106418000Y-154393326D01*
X106784174Y-154759500D01*
X107214749Y-155047201D01*
X107693178Y-155245373D01*
X108201076Y-155346400D01*
X108718924Y-155346400D01*
X109226822Y-155245373D01*
X109705251Y-155047201D01*
X110135826Y-154759500D01*
X110502000Y-154393326D01*
X110789701Y-153962751D01*
X110987873Y-153484322D01*
X111088900Y-152976424D01*
X111088900Y-152566316D01*
X112005000Y-152566316D01*
X112005000Y-152868684D01*
X112063989Y-153165243D01*
X112179701Y-153444595D01*
X112347688Y-153696005D01*
X112561495Y-153909812D01*
X112812905Y-154077799D01*
X113092257Y-154193511D01*
X113388816Y-154252500D01*
X113691184Y-154252500D01*
X113987743Y-154193511D01*
X114267095Y-154077799D01*
X114518505Y-153909812D01*
X114732312Y-153696005D01*
X114900299Y-153444595D01*
X115016011Y-153165243D01*
X115075000Y-152868684D01*
X115075000Y-152566316D01*
X115016011Y-152269757D01*
X114900299Y-151990405D01*
X114732312Y-151738995D01*
X114518505Y-151525188D01*
X114267095Y-151357201D01*
X113987743Y-151241489D01*
X113691184Y-151182500D01*
X113388816Y-151182500D01*
X113092257Y-151241489D01*
X112812905Y-151357201D01*
X112561495Y-151525188D01*
X112347688Y-151738995D01*
X112179701Y-151990405D01*
X112063989Y-152269757D01*
X112005000Y-152566316D01*
X111088900Y-152566316D01*
X111088900Y-152458576D01*
X110987873Y-151950678D01*
X110789701Y-151472249D01*
X110502000Y-151041674D01*
X110135826Y-150675500D01*
X109705251Y-150387799D01*
X109226822Y-150189627D01*
X108718924Y-150088600D01*
X108201076Y-150088600D01*
X107693178Y-150189627D01*
X107214749Y-150387799D01*
X106784174Y-150675500D01*
X106418000Y-151041674D01*
X106130299Y-151472249D01*
X105932127Y-151950678D01*
X105831100Y-152458576D01*
X105535000Y-152458576D01*
X105535000Y-151724544D01*
X105783409Y-151558563D01*
X106031063Y-151310909D01*
X106225643Y-151019699D01*
X106359672Y-150696123D01*
X106428000Y-150352618D01*
X106428000Y-150002382D01*
X106359672Y-149658877D01*
X106225643Y-149335301D01*
X106031063Y-149044091D01*
X105783409Y-148796437D01*
X105492199Y-148601857D01*
X105168623Y-148467828D01*
X104825118Y-148399500D01*
X104474882Y-148399500D01*
X104131377Y-148467828D01*
X103807801Y-148601857D01*
X103516591Y-148796437D01*
X103268937Y-149044091D01*
X103074357Y-149335301D01*
X102940328Y-149658877D01*
X102872000Y-150002382D01*
X102872000Y-150352618D01*
X102940328Y-150696123D01*
X103074357Y-151019699D01*
X103188496Y-151190520D01*
X102932257Y-151241489D01*
X102652905Y-151357201D01*
X102401495Y-151525188D01*
X102187688Y-151738995D01*
X102019701Y-151990405D01*
X101903989Y-152269757D01*
X101845000Y-152566316D01*
X96075000Y-152566316D01*
X96016011Y-152269757D01*
X95900299Y-151990405D01*
X95732312Y-151738995D01*
X95518505Y-151525188D01*
X95267095Y-151357201D01*
X94987743Y-151241489D01*
X94691184Y-151182500D01*
X94388816Y-151182500D01*
X94092257Y-151241489D01*
X93812905Y-151357201D01*
X93561495Y-151525188D01*
X93347688Y-151738995D01*
X93179701Y-151990405D01*
X93063989Y-152269757D01*
X93005000Y-152566316D01*
X92088900Y-152566316D01*
X92088900Y-152458576D01*
X91987873Y-151950678D01*
X91789701Y-151472249D01*
X91502000Y-151041674D01*
X91135826Y-150675500D01*
X90705251Y-150387799D01*
X90226822Y-150189627D01*
X89718924Y-150088600D01*
X89201076Y-150088600D01*
X88693178Y-150189627D01*
X88214749Y-150387799D01*
X87784174Y-150675500D01*
X87418000Y-151041674D01*
X87130299Y-151472249D01*
X86932127Y-151950678D01*
X86831100Y-152458576D01*
X86410000Y-152458576D01*
X86410000Y-151787191D01*
X86492199Y-151753143D01*
X86783409Y-151558563D01*
X87031063Y-151310909D01*
X87225643Y-151019699D01*
X87359672Y-150696123D01*
X87428000Y-150352618D01*
X87428000Y-150002382D01*
X87359672Y-149658877D01*
X87225643Y-149335301D01*
X87031063Y-149044091D01*
X86783409Y-148796437D01*
X86492199Y-148601857D01*
X86168623Y-148467828D01*
X85825118Y-148399500D01*
X85474882Y-148399500D01*
X85131377Y-148467828D01*
X84807801Y-148601857D01*
X84516591Y-148796437D01*
X84268937Y-149044091D01*
X84074357Y-149335301D01*
X83940328Y-149658877D01*
X83872000Y-150002382D01*
X83872000Y-150352618D01*
X83940328Y-150696123D01*
X84074357Y-151019699D01*
X84188496Y-151190520D01*
X83932257Y-151241489D01*
X83652905Y-151357201D01*
X83401495Y-151525188D01*
X83187688Y-151738995D01*
X83019701Y-151990405D01*
X82903989Y-152269757D01*
X82845000Y-152566316D01*
X77115000Y-152566316D01*
X77056011Y-152269757D01*
X76940299Y-151990405D01*
X76772312Y-151738995D01*
X76558505Y-151525188D01*
X76307095Y-151357201D01*
X76027743Y-151241489D01*
X75731184Y-151182500D01*
X75428816Y-151182500D01*
X75132257Y-151241489D01*
X74852905Y-151357201D01*
X74601495Y-151525188D01*
X74387688Y-151738995D01*
X74219701Y-151990405D01*
X74103989Y-152269757D01*
X74045000Y-152566316D01*
X73128900Y-152566316D01*
X73128900Y-152458576D01*
X73027873Y-151950678D01*
X72829701Y-151472249D01*
X72542000Y-151041674D01*
X72175826Y-150675500D01*
X71745251Y-150387799D01*
X71266822Y-150189627D01*
X70758924Y-150088600D01*
X70241076Y-150088600D01*
X69733178Y-150189627D01*
X69254749Y-150387799D01*
X68824174Y-150675500D01*
X68458000Y-151041674D01*
X68170299Y-151472249D01*
X67972127Y-151950678D01*
X67871100Y-152458576D01*
X67450000Y-152458576D01*
X67450000Y-151787191D01*
X67532199Y-151753143D01*
X67823409Y-151558563D01*
X68071063Y-151310909D01*
X68265643Y-151019699D01*
X68399672Y-150696123D01*
X68468000Y-150352618D01*
X68468000Y-150002382D01*
X68399672Y-149658877D01*
X68265643Y-149335301D01*
X68071063Y-149044091D01*
X67823409Y-148796437D01*
X67532199Y-148601857D01*
X67208623Y-148467828D01*
X66865118Y-148399500D01*
X66514882Y-148399500D01*
X66171377Y-148467828D01*
X65847801Y-148601857D01*
X65556591Y-148796437D01*
X65308937Y-149044091D01*
X65114357Y-149335301D01*
X64980328Y-149658877D01*
X64912000Y-150002382D01*
X64912000Y-150352618D01*
X64980328Y-150696123D01*
X65114357Y-151019699D01*
X65228496Y-151190520D01*
X64972257Y-151241489D01*
X64692905Y-151357201D01*
X64441495Y-151525188D01*
X64227688Y-151738995D01*
X64059701Y-151990405D01*
X63943989Y-152269757D01*
X63885000Y-152566316D01*
X59160000Y-152566316D01*
X59160000Y-143458665D01*
X64865000Y-143458665D01*
X64865000Y-143741335D01*
X64920147Y-144018574D01*
X65028320Y-144279727D01*
X65185363Y-144514759D01*
X65385241Y-144714637D01*
X65620273Y-144871680D01*
X65881426Y-144979853D01*
X66158665Y-145035000D01*
X66441335Y-145035000D01*
X66718574Y-144979853D01*
X66979727Y-144871680D01*
X67214759Y-144714637D01*
X67414637Y-144514759D01*
X67432469Y-144488072D01*
X67433959Y-144488072D01*
X67469463Y-144554494D01*
X67548815Y-144651185D01*
X67645506Y-144730537D01*
X67755820Y-144789502D01*
X67875518Y-144825812D01*
X68000000Y-144838072D01*
X69600000Y-144838072D01*
X69724482Y-144825812D01*
X69844180Y-144789502D01*
X69954494Y-144730537D01*
X70051185Y-144651185D01*
X70130537Y-144554494D01*
X70189502Y-144444180D01*
X70200000Y-144409573D01*
X70210498Y-144444180D01*
X70269463Y-144554494D01*
X70348815Y-144651185D01*
X70445506Y-144730537D01*
X70555820Y-144789502D01*
X70675518Y-144825812D01*
X70800000Y-144838072D01*
X72400000Y-144838072D01*
X72524482Y-144825812D01*
X72644180Y-144789502D01*
X72754494Y-144730537D01*
X72755998Y-144729303D01*
X72769463Y-144754494D01*
X72848815Y-144851185D01*
X72945506Y-144930537D01*
X73055820Y-144989502D01*
X73175518Y-145025812D01*
X73300000Y-145038072D01*
X74564626Y-145038072D01*
X73640822Y-145961876D01*
X73558623Y-145927828D01*
X73215118Y-145859500D01*
X72864882Y-145859500D01*
X72521377Y-145927828D01*
X72197801Y-146061857D01*
X71906591Y-146256437D01*
X71658937Y-146504091D01*
X71464357Y-146795301D01*
X71330328Y-147118877D01*
X71262000Y-147462382D01*
X71262000Y-147812618D01*
X71330328Y-148156123D01*
X71464357Y-148479699D01*
X71658937Y-148770909D01*
X71906591Y-149018563D01*
X72197801Y-149213143D01*
X72521377Y-149347172D01*
X72864882Y-149415500D01*
X73215118Y-149415500D01*
X73558623Y-149347172D01*
X73882199Y-149213143D01*
X74173409Y-149018563D01*
X74421063Y-148770909D01*
X74615643Y-148479699D01*
X74749672Y-148156123D01*
X74818000Y-147812618D01*
X74818000Y-147462382D01*
X74749672Y-147118877D01*
X74715624Y-147036678D01*
X75863799Y-145888503D01*
X75863800Y-145888501D01*
X76811004Y-144941298D01*
X76840001Y-144917501D01*
X76934974Y-144801776D01*
X77005546Y-144669747D01*
X77049003Y-144526486D01*
X77060000Y-144414833D01*
X77060000Y-144414824D01*
X77063676Y-144377501D01*
X77060000Y-144340178D01*
X77060000Y-138837333D01*
X77063677Y-138800000D01*
X77049003Y-138651014D01*
X77005546Y-138507753D01*
X76934974Y-138375724D01*
X76863799Y-138288997D01*
X76840001Y-138259999D01*
X76811003Y-138236201D01*
X74360000Y-135785199D01*
X74360000Y-134659516D01*
X74372688Y-134678505D01*
X74461928Y-134767745D01*
X74461928Y-135400000D01*
X74474188Y-135524482D01*
X74510498Y-135644180D01*
X74569463Y-135754494D01*
X74648815Y-135851185D01*
X74745506Y-135930537D01*
X74855820Y-135989502D01*
X74975518Y-136025812D01*
X75100000Y-136038072D01*
X77100000Y-136038072D01*
X77224482Y-136025812D01*
X77344180Y-135989502D01*
X77454494Y-135930537D01*
X77551185Y-135851185D01*
X77630537Y-135754494D01*
X77689502Y-135644180D01*
X77725812Y-135524482D01*
X77738072Y-135400000D01*
X77738072Y-133516316D01*
X82845000Y-133516316D01*
X82845000Y-133818684D01*
X82903989Y-134115243D01*
X83019701Y-134394595D01*
X83187688Y-134646005D01*
X83401495Y-134859812D01*
X83652905Y-135027799D01*
X83932257Y-135143511D01*
X84228816Y-135202500D01*
X84531184Y-135202500D01*
X84827743Y-135143511D01*
X84890000Y-135117723D01*
X84890001Y-142299438D01*
X84820273Y-142328320D01*
X84585241Y-142485363D01*
X84385363Y-142685241D01*
X84228320Y-142920273D01*
X84120147Y-143181426D01*
X84065000Y-143458665D01*
X84065000Y-143741335D01*
X84120147Y-144018574D01*
X84228320Y-144279727D01*
X84385363Y-144514759D01*
X84585241Y-144714637D01*
X84820273Y-144871680D01*
X85081426Y-144979853D01*
X85358665Y-145035000D01*
X85641335Y-145035000D01*
X85918574Y-144979853D01*
X86179727Y-144871680D01*
X86414759Y-144714637D01*
X86614637Y-144514759D01*
X86632469Y-144488072D01*
X86633959Y-144488072D01*
X86669463Y-144554494D01*
X86748815Y-144651185D01*
X86845506Y-144730537D01*
X86955820Y-144789502D01*
X87075518Y-144825812D01*
X87200000Y-144838072D01*
X88800000Y-144838072D01*
X88924482Y-144825812D01*
X89044180Y-144789502D01*
X89154494Y-144730537D01*
X89251185Y-144651185D01*
X89330537Y-144554494D01*
X89389502Y-144444180D01*
X89400000Y-144409573D01*
X89410498Y-144444180D01*
X89469463Y-144554494D01*
X89548815Y-144651185D01*
X89645506Y-144730537D01*
X89755820Y-144789502D01*
X89875518Y-144825812D01*
X90000000Y-144838072D01*
X91600000Y-144838072D01*
X91724482Y-144825812D01*
X91844180Y-144789502D01*
X91954494Y-144730537D01*
X91955998Y-144729303D01*
X91969463Y-144754494D01*
X92048815Y-144851185D01*
X92145506Y-144930537D01*
X92255820Y-144989502D01*
X92375518Y-145025812D01*
X92500000Y-145038072D01*
X93524626Y-145038072D01*
X92600823Y-145961876D01*
X92518623Y-145927828D01*
X92175118Y-145859500D01*
X91824882Y-145859500D01*
X91481377Y-145927828D01*
X91157801Y-146061857D01*
X90866591Y-146256437D01*
X90618937Y-146504091D01*
X90424357Y-146795301D01*
X90290328Y-147118877D01*
X90222000Y-147462382D01*
X90222000Y-147812618D01*
X90290328Y-148156123D01*
X90424357Y-148479699D01*
X90618937Y-148770909D01*
X90866591Y-149018563D01*
X91157801Y-149213143D01*
X91481377Y-149347172D01*
X91824882Y-149415500D01*
X92175118Y-149415500D01*
X92518623Y-149347172D01*
X92842199Y-149213143D01*
X93133409Y-149018563D01*
X93381063Y-148770909D01*
X93575643Y-148479699D01*
X93709672Y-148156123D01*
X93778000Y-147812618D01*
X93778000Y-147462382D01*
X93709672Y-147118877D01*
X93675624Y-147036677D01*
X95911004Y-144801298D01*
X95940001Y-144777501D01*
X95991592Y-144714637D01*
X96034974Y-144661777D01*
X96105546Y-144529747D01*
X96120473Y-144480537D01*
X96149003Y-144386486D01*
X96160000Y-144274833D01*
X96160000Y-144274824D01*
X96163676Y-144237501D01*
X96160000Y-144200178D01*
X96160000Y-137437322D01*
X96163676Y-137399999D01*
X96160000Y-137362676D01*
X96160000Y-137362667D01*
X96149003Y-137251014D01*
X96105546Y-137107753D01*
X96103506Y-137103937D01*
X96034974Y-136975723D01*
X95963799Y-136888997D01*
X95940001Y-136859999D01*
X95911003Y-136836201D01*
X94249612Y-135174811D01*
X94388816Y-135202500D01*
X94691184Y-135202500D01*
X94987743Y-135143511D01*
X95267095Y-135027799D01*
X95518505Y-134859812D01*
X95732312Y-134646005D01*
X95900299Y-134394595D01*
X96016011Y-134115243D01*
X96075000Y-133818684D01*
X96075000Y-133516316D01*
X96016011Y-133219757D01*
X95900299Y-132940405D01*
X95732312Y-132688995D01*
X95518505Y-132475188D01*
X95267095Y-132307201D01*
X94987743Y-132191489D01*
X94691184Y-132132500D01*
X94388816Y-132132500D01*
X94092257Y-132191489D01*
X93812905Y-132307201D01*
X93561495Y-132475188D01*
X93347688Y-132688995D01*
X93179701Y-132940405D01*
X93063989Y-133219757D01*
X93005000Y-133516316D01*
X93005000Y-133818684D01*
X93032689Y-133957888D01*
X92760000Y-133685199D01*
X92760000Y-130197191D01*
X92842199Y-130163143D01*
X93133409Y-129968563D01*
X93381063Y-129720909D01*
X93575643Y-129429699D01*
X93709672Y-129106123D01*
X93778000Y-128762618D01*
X93778000Y-128412382D01*
X93709672Y-128068877D01*
X93575643Y-127745301D01*
X93381063Y-127454091D01*
X93133409Y-127206437D01*
X92842199Y-127011857D01*
X92518623Y-126877828D01*
X92175118Y-126809500D01*
X91824882Y-126809500D01*
X91481377Y-126877828D01*
X91157801Y-127011857D01*
X90866591Y-127206437D01*
X90618937Y-127454091D01*
X90424357Y-127745301D01*
X90290328Y-128068877D01*
X90222000Y-128412382D01*
X90222000Y-128762618D01*
X90290328Y-129106123D01*
X90424357Y-129429699D01*
X90618937Y-129720909D01*
X90866591Y-129968563D01*
X91157801Y-130163143D01*
X91240001Y-130197191D01*
X91240000Y-131729674D01*
X91135826Y-131625500D01*
X90705251Y-131337799D01*
X90226822Y-131139627D01*
X89718924Y-131038600D01*
X89201076Y-131038600D01*
X88693178Y-131139627D01*
X88214749Y-131337799D01*
X87784174Y-131625500D01*
X87418000Y-131991674D01*
X87130299Y-132422249D01*
X86932127Y-132900678D01*
X86831100Y-133408576D01*
X86831100Y-133926424D01*
X86932127Y-134434322D01*
X87130299Y-134912751D01*
X87418000Y-135343326D01*
X87784174Y-135709500D01*
X88214749Y-135997201D01*
X88693178Y-136195373D01*
X89201076Y-136296400D01*
X89718924Y-136296400D01*
X90226822Y-136195373D01*
X90705251Y-135997201D01*
X91135826Y-135709500D01*
X91502000Y-135343326D01*
X91789701Y-134912751D01*
X91803833Y-134878634D01*
X94640001Y-137714803D01*
X94640000Y-142463210D01*
X94630537Y-142445506D01*
X94551185Y-142348815D01*
X94454494Y-142269463D01*
X94344180Y-142210498D01*
X94224482Y-142174188D01*
X94100000Y-142161928D01*
X92500000Y-142161928D01*
X92375518Y-142174188D01*
X92255820Y-142210498D01*
X92145506Y-142269463D01*
X92048815Y-142348815D01*
X91969463Y-142445506D01*
X91955998Y-142470697D01*
X91954494Y-142469463D01*
X91844180Y-142410498D01*
X91724482Y-142374188D01*
X91600000Y-142361928D01*
X90000000Y-142361928D01*
X89875518Y-142374188D01*
X89755820Y-142410498D01*
X89645506Y-142469463D01*
X89548815Y-142548815D01*
X89469463Y-142645506D01*
X89410498Y-142755820D01*
X89400000Y-142790427D01*
X89389502Y-142755820D01*
X89330537Y-142645506D01*
X89251185Y-142548815D01*
X89154494Y-142469463D01*
X89044180Y-142410498D01*
X88924482Y-142374188D01*
X88800000Y-142361928D01*
X87200000Y-142361928D01*
X87075518Y-142374188D01*
X86955820Y-142410498D01*
X86845506Y-142469463D01*
X86748815Y-142548815D01*
X86669463Y-142645506D01*
X86633959Y-142711928D01*
X86632469Y-142711928D01*
X86614637Y-142685241D01*
X86414759Y-142485363D01*
X86410000Y-142482183D01*
X86410000Y-132737191D01*
X86492199Y-132703143D01*
X86783409Y-132508563D01*
X87031063Y-132260909D01*
X87225643Y-131969699D01*
X87359672Y-131646123D01*
X87428000Y-131302618D01*
X87428000Y-130952382D01*
X87359672Y-130608877D01*
X87225643Y-130285301D01*
X87031063Y-129994091D01*
X86783409Y-129746437D01*
X86492199Y-129551857D01*
X86168623Y-129417828D01*
X85825118Y-129349500D01*
X85474882Y-129349500D01*
X85131377Y-129417828D01*
X84807801Y-129551857D01*
X84516591Y-129746437D01*
X84268937Y-129994091D01*
X84074357Y-130285301D01*
X83940328Y-130608877D01*
X83872000Y-130952382D01*
X83872000Y-131302618D01*
X83940328Y-131646123D01*
X84074357Y-131969699D01*
X84188496Y-132140520D01*
X83932257Y-132191489D01*
X83652905Y-132307201D01*
X83401495Y-132475188D01*
X83187688Y-132688995D01*
X83019701Y-132940405D01*
X82903989Y-133219757D01*
X82845000Y-133516316D01*
X77738072Y-133516316D01*
X77738072Y-132200000D01*
X77725812Y-132075518D01*
X77689502Y-131955820D01*
X77630537Y-131845506D01*
X77551185Y-131748815D01*
X77454494Y-131669463D01*
X77344180Y-131610498D01*
X77224482Y-131574188D01*
X77100000Y-131561928D01*
X75100000Y-131561928D01*
X74975518Y-131574188D01*
X74855820Y-131610498D01*
X74745506Y-131669463D01*
X74648815Y-131748815D01*
X74569463Y-131845506D01*
X74510498Y-131955820D01*
X74474188Y-132075518D01*
X74461928Y-132200000D01*
X74461928Y-132632255D01*
X74372688Y-132721495D01*
X74360000Y-132740484D01*
X74360000Y-129799472D01*
X74406063Y-129753409D01*
X74600643Y-129462199D01*
X74734672Y-129138623D01*
X74803000Y-128795118D01*
X74803000Y-128444882D01*
X74734672Y-128101377D01*
X74600643Y-127777801D01*
X74454987Y-127559811D01*
X74572168Y-127276912D01*
X74635000Y-126961033D01*
X74635000Y-126638967D01*
X74572168Y-126323088D01*
X74448918Y-126025537D01*
X74269987Y-125757748D01*
X74042252Y-125530013D01*
X73774463Y-125351082D01*
X73476912Y-125227832D01*
X73161033Y-125165000D01*
X72838967Y-125165000D01*
X72523088Y-125227832D01*
X72225537Y-125351082D01*
X71957748Y-125530013D01*
X71730013Y-125757748D01*
X71551082Y-126025537D01*
X71427832Y-126323088D01*
X71365000Y-126638967D01*
X71365000Y-126961033D01*
X71427832Y-127276912D01*
X71551082Y-127574463D01*
X71568152Y-127600011D01*
X71449357Y-127777801D01*
X71315328Y-128101377D01*
X71247000Y-128444882D01*
X71247000Y-128795118D01*
X71315328Y-129138623D01*
X71449357Y-129462199D01*
X71643937Y-129753409D01*
X71891591Y-130001063D01*
X72182801Y-130195643D01*
X72506377Y-130329672D01*
X72840001Y-130396034D01*
X72840001Y-132515827D01*
X72814701Y-132454749D01*
X72527000Y-132024174D01*
X72160826Y-131658000D01*
X71730251Y-131370299D01*
X71251822Y-131172127D01*
X70743924Y-131071100D01*
X70226076Y-131071100D01*
X69718178Y-131172127D01*
X69239749Y-131370299D01*
X68809174Y-131658000D01*
X68443000Y-132024174D01*
X68155299Y-132454749D01*
X67957127Y-132933178D01*
X67856100Y-133441076D01*
X67856100Y-133958924D01*
X67957127Y-134466822D01*
X68155299Y-134945251D01*
X68443000Y-135375826D01*
X68809174Y-135742000D01*
X69239749Y-136029701D01*
X69718178Y-136227873D01*
X70226076Y-136328900D01*
X70743924Y-136328900D01*
X71251822Y-136227873D01*
X71730251Y-136029701D01*
X72160826Y-135742000D01*
X72527000Y-135375826D01*
X72814701Y-134945251D01*
X72840000Y-134884173D01*
X72840000Y-136062677D01*
X72836324Y-136100000D01*
X72840000Y-136137322D01*
X72840000Y-136137332D01*
X72850997Y-136248985D01*
X72875239Y-136328900D01*
X72894454Y-136392246D01*
X72965026Y-136524276D01*
X73004871Y-136572826D01*
X73059999Y-136640001D01*
X73089003Y-136663804D01*
X75540001Y-139114803D01*
X75540000Y-144062698D01*
X75538072Y-144064626D01*
X75538072Y-142800000D01*
X75525812Y-142675518D01*
X75489502Y-142555820D01*
X75430537Y-142445506D01*
X75351185Y-142348815D01*
X75254494Y-142269463D01*
X75144180Y-142210498D01*
X75024482Y-142174188D01*
X74900000Y-142161928D01*
X74390476Y-142161928D01*
X74448918Y-142074463D01*
X74572168Y-141776912D01*
X74635000Y-141461033D01*
X74635000Y-141138967D01*
X74572168Y-140823088D01*
X74448918Y-140525537D01*
X74269987Y-140257748D01*
X74042252Y-140030013D01*
X73774463Y-139851082D01*
X73476912Y-139727832D01*
X73161033Y-139665000D01*
X72838967Y-139665000D01*
X72523088Y-139727832D01*
X72225537Y-139851082D01*
X71957748Y-140030013D01*
X71730013Y-140257748D01*
X71665075Y-140354935D01*
X71635413Y-140344192D01*
X70679605Y-141300000D01*
X70693748Y-141314143D01*
X70514143Y-141493748D01*
X70500000Y-141479605D01*
X70485858Y-141493748D01*
X70306253Y-141314143D01*
X70320395Y-141300000D01*
X70306253Y-141285858D01*
X70485858Y-141106253D01*
X70500000Y-141120395D01*
X71455808Y-140164587D01*
X71360044Y-139900186D01*
X71070429Y-139759296D01*
X70758892Y-139677616D01*
X70437405Y-139658282D01*
X70118325Y-139702039D01*
X69813912Y-139807205D01*
X69639956Y-139900186D01*
X69585976Y-140049223D01*
X69530537Y-139945506D01*
X69451185Y-139848815D01*
X69354494Y-139769463D01*
X69244180Y-139710498D01*
X69124482Y-139674188D01*
X69000000Y-139661928D01*
X67000000Y-139661928D01*
X66875518Y-139674188D01*
X66755820Y-139710498D01*
X66645506Y-139769463D01*
X66548815Y-139848815D01*
X66469463Y-139945506D01*
X66410498Y-140055820D01*
X66374188Y-140175518D01*
X66361928Y-140300000D01*
X66361928Y-142165000D01*
X66158665Y-142165000D01*
X65881426Y-142220147D01*
X65620273Y-142328320D01*
X65385241Y-142485363D01*
X65185363Y-142685241D01*
X65028320Y-142920273D01*
X64920147Y-143181426D01*
X64865000Y-143458665D01*
X59160000Y-143458665D01*
X59160000Y-132200000D01*
X63261928Y-132200000D01*
X63261928Y-135400000D01*
X63274188Y-135524482D01*
X63310498Y-135644180D01*
X63369463Y-135754494D01*
X63448815Y-135851185D01*
X63545506Y-135930537D01*
X63655820Y-135989502D01*
X63775518Y-136025812D01*
X63900000Y-136038072D01*
X65900000Y-136038072D01*
X66024482Y-136025812D01*
X66144180Y-135989502D01*
X66254494Y-135930537D01*
X66351185Y-135851185D01*
X66430537Y-135754494D01*
X66489502Y-135644180D01*
X66525812Y-135524482D01*
X66538072Y-135400000D01*
X66538072Y-134737745D01*
X66597312Y-134678505D01*
X66765299Y-134427095D01*
X66881011Y-134147743D01*
X66940000Y-133851184D01*
X66940000Y-133548816D01*
X66881011Y-133252257D01*
X66765299Y-132972905D01*
X66741976Y-132938000D01*
X66850118Y-132938000D01*
X67193623Y-132869672D01*
X67517199Y-132735643D01*
X67808409Y-132541063D01*
X68056063Y-132293409D01*
X68250643Y-132002199D01*
X68384672Y-131678623D01*
X68453000Y-131335118D01*
X68453000Y-130984882D01*
X68384672Y-130641377D01*
X68350624Y-130559178D01*
X68511003Y-130398799D01*
X68540001Y-130375001D01*
X68566332Y-130342917D01*
X68634974Y-130259277D01*
X68705546Y-130127247D01*
X68749003Y-129983986D01*
X68760000Y-129872333D01*
X68760000Y-129872323D01*
X68763676Y-129835000D01*
X68760000Y-129797677D01*
X68760000Y-128254909D01*
X68774463Y-128248918D01*
X69042252Y-128069987D01*
X69269987Y-127842252D01*
X69448918Y-127574463D01*
X69572168Y-127276912D01*
X69635000Y-126961033D01*
X69635000Y-126638967D01*
X69572168Y-126323088D01*
X69448918Y-126025537D01*
X69269987Y-125757748D01*
X69042252Y-125530013D01*
X68774463Y-125351082D01*
X68476912Y-125227832D01*
X68161033Y-125165000D01*
X67838967Y-125165000D01*
X67523088Y-125227832D01*
X67225537Y-125351082D01*
X66957748Y-125530013D01*
X66730013Y-125757748D01*
X66551082Y-126025537D01*
X66427832Y-126323088D01*
X66365000Y-126638967D01*
X66365000Y-126961033D01*
X66427832Y-127276912D01*
X66551082Y-127574463D01*
X66730013Y-127842252D01*
X66957748Y-128069987D01*
X67225537Y-128248918D01*
X67240000Y-128254909D01*
X67240001Y-129469538D01*
X67193623Y-129450328D01*
X66850118Y-129382000D01*
X66499882Y-129382000D01*
X66156377Y-129450328D01*
X65832801Y-129584357D01*
X65541591Y-129778937D01*
X65293937Y-130026591D01*
X65099357Y-130317801D01*
X64965328Y-130641377D01*
X64897000Y-130984882D01*
X64897000Y-131335118D01*
X64942116Y-131561928D01*
X63900000Y-131561928D01*
X63775518Y-131574188D01*
X63655820Y-131610498D01*
X63545506Y-131669463D01*
X63448815Y-131748815D01*
X63369463Y-131845506D01*
X63310498Y-131955820D01*
X63274188Y-132075518D01*
X63261928Y-132200000D01*
X59160000Y-132200000D01*
X59160000Y-120800000D01*
X65161928Y-120800000D01*
X65161928Y-121800000D01*
X65174188Y-121924482D01*
X65210498Y-122044180D01*
X65269463Y-122154494D01*
X65348815Y-122251185D01*
X65445506Y-122330537D01*
X65555820Y-122389502D01*
X65675518Y-122425812D01*
X65800000Y-122438072D01*
X67300000Y-122438072D01*
X67424482Y-122425812D01*
X67544180Y-122389502D01*
X67654494Y-122330537D01*
X67751185Y-122251185D01*
X67830537Y-122154494D01*
X67889502Y-122044180D01*
X67912634Y-121967923D01*
X67974276Y-121934974D01*
X68090001Y-121840001D01*
X68113804Y-121810997D01*
X69164802Y-120760000D01*
X70065868Y-120760000D01*
X70061928Y-120800000D01*
X70061928Y-121800000D01*
X70074188Y-121924482D01*
X70110498Y-122044180D01*
X70169463Y-122154494D01*
X70248815Y-122251185D01*
X70345506Y-122330537D01*
X70455820Y-122389502D01*
X70575518Y-122425812D01*
X70694949Y-122437574D01*
X70700997Y-122498985D01*
X70731639Y-122599999D01*
X70744454Y-122642246D01*
X70815026Y-122774276D01*
X70838766Y-122803203D01*
X70909999Y-122890001D01*
X70939003Y-122913804D01*
X72136200Y-124111002D01*
X72159999Y-124140001D01*
X72188997Y-124163799D01*
X72275723Y-124234974D01*
X72381449Y-124291486D01*
X72407753Y-124305546D01*
X72551014Y-124349003D01*
X72662667Y-124360000D01*
X72662677Y-124360000D01*
X72700000Y-124363676D01*
X72737323Y-124360000D01*
X109546201Y-124360000D01*
X110375264Y-125189063D01*
X110225537Y-125251082D01*
X109957748Y-125430013D01*
X109730013Y-125657748D01*
X109551082Y-125925537D01*
X109427832Y-126223088D01*
X109365000Y-126538967D01*
X109365000Y-126861033D01*
X109427832Y-127176912D01*
X109551082Y-127474463D01*
X109598203Y-127544985D01*
X109464357Y-127745301D01*
X109330328Y-128068877D01*
X109262000Y-128412382D01*
X109262000Y-128762618D01*
X109330328Y-129106123D01*
X109464357Y-129429699D01*
X109658937Y-129720909D01*
X109906591Y-129968563D01*
X110197801Y-130163143D01*
X110280001Y-130197191D01*
X110280001Y-131729675D01*
X110175826Y-131625500D01*
X109745251Y-131337799D01*
X109266822Y-131139627D01*
X108758924Y-131038600D01*
X108241076Y-131038600D01*
X107733178Y-131139627D01*
X107254749Y-131337799D01*
X106824174Y-131625500D01*
X106458000Y-131991674D01*
X106170299Y-132422249D01*
X105972127Y-132900678D01*
X105871100Y-133408576D01*
X105871100Y-133926424D01*
X105972127Y-134434322D01*
X106170299Y-134912751D01*
X106458000Y-135343326D01*
X106824174Y-135709500D01*
X107254749Y-135997201D01*
X107733178Y-136195373D01*
X108241076Y-136296400D01*
X108758924Y-136296400D01*
X109266822Y-136195373D01*
X109745251Y-135997201D01*
X110175826Y-135709500D01*
X110412249Y-135473077D01*
X110431113Y-135496063D01*
X110499999Y-135580001D01*
X110529003Y-135603804D01*
X113502501Y-138577303D01*
X113502500Y-142408861D01*
X113454494Y-142369463D01*
X113344180Y-142310498D01*
X113224482Y-142274188D01*
X113100000Y-142261928D01*
X112250311Y-142261928D01*
X112269987Y-142242252D01*
X112448918Y-141974463D01*
X112572168Y-141676912D01*
X112635000Y-141361033D01*
X112635000Y-141038967D01*
X112572168Y-140723088D01*
X112448918Y-140425537D01*
X112269987Y-140157748D01*
X112042252Y-139930013D01*
X111774463Y-139751082D01*
X111476912Y-139627832D01*
X111161033Y-139565000D01*
X110838967Y-139565000D01*
X110523088Y-139627832D01*
X110225537Y-139751082D01*
X109957748Y-139930013D01*
X109730013Y-140157748D01*
X109665075Y-140254935D01*
X109635413Y-140244192D01*
X108679605Y-141200000D01*
X109635413Y-142155808D01*
X109665075Y-142145065D01*
X109730013Y-142242252D01*
X109949689Y-142461928D01*
X109409985Y-142461928D01*
X109455808Y-142335413D01*
X108500000Y-141379605D01*
X108485858Y-141393748D01*
X108306253Y-141214143D01*
X108320395Y-141200000D01*
X108306253Y-141185858D01*
X108485858Y-141006253D01*
X108500000Y-141020395D01*
X109455808Y-140064587D01*
X109360044Y-139800186D01*
X109070429Y-139659296D01*
X108758892Y-139577616D01*
X108437405Y-139558282D01*
X108118325Y-139602039D01*
X107813912Y-139707205D01*
X107639956Y-139800186D01*
X107585976Y-139949223D01*
X107530537Y-139845506D01*
X107451185Y-139748815D01*
X107354494Y-139669463D01*
X107244180Y-139610498D01*
X107124482Y-139574188D01*
X107000000Y-139561928D01*
X105450000Y-139561928D01*
X105450000Y-132737191D01*
X105532199Y-132703143D01*
X105823409Y-132508563D01*
X106071063Y-132260909D01*
X106265643Y-131969699D01*
X106399672Y-131646123D01*
X106468000Y-131302618D01*
X106468000Y-130952382D01*
X106399672Y-130608877D01*
X106265643Y-130285301D01*
X106071063Y-129994091D01*
X105823409Y-129746437D01*
X105532199Y-129551857D01*
X105450000Y-129517809D01*
X105450000Y-128324801D01*
X105508624Y-128266177D01*
X105523088Y-128272168D01*
X105838967Y-128335000D01*
X106161033Y-128335000D01*
X106476912Y-128272168D01*
X106774463Y-128148918D01*
X107042252Y-127969987D01*
X107269987Y-127742252D01*
X107448918Y-127474463D01*
X107572168Y-127176912D01*
X107635000Y-126861033D01*
X107635000Y-126538967D01*
X107572168Y-126223088D01*
X107448918Y-125925537D01*
X107269987Y-125657748D01*
X107042252Y-125430013D01*
X106774463Y-125251082D01*
X106476912Y-125127832D01*
X106161033Y-125065000D01*
X105838967Y-125065000D01*
X105523088Y-125127832D01*
X105225537Y-125251082D01*
X104957748Y-125430013D01*
X104730013Y-125657748D01*
X104551082Y-125925537D01*
X104427832Y-126223088D01*
X104365000Y-126538967D01*
X104365000Y-126861033D01*
X104427832Y-127176912D01*
X104433823Y-127191376D01*
X104179003Y-127446196D01*
X104149999Y-127469999D01*
X104094871Y-127537174D01*
X104055026Y-127585724D01*
X104022862Y-127645898D01*
X103984454Y-127717754D01*
X103940997Y-127861015D01*
X103930000Y-127972668D01*
X103930000Y-127972678D01*
X103926324Y-128010000D01*
X103930000Y-128047323D01*
X103930000Y-129517809D01*
X103847801Y-129551857D01*
X103556591Y-129746437D01*
X103308937Y-129994091D01*
X103114357Y-130285301D01*
X102980328Y-130608877D01*
X102912000Y-130952382D01*
X102912000Y-131302618D01*
X102943689Y-131461928D01*
X101900000Y-131461928D01*
X101775518Y-131474188D01*
X101655820Y-131510498D01*
X101545506Y-131569463D01*
X101448815Y-131648815D01*
X101369463Y-131745506D01*
X101310498Y-131855820D01*
X101274188Y-131975518D01*
X101261928Y-132100000D01*
X101261928Y-135300000D01*
X101274188Y-135424482D01*
X101310498Y-135544180D01*
X101369463Y-135654494D01*
X101448815Y-135751185D01*
X101545506Y-135830537D01*
X101655820Y-135889502D01*
X101775518Y-135925812D01*
X101900000Y-135938072D01*
X103900000Y-135938072D01*
X103930001Y-135935117D01*
X103930001Y-139611550D01*
X103916639Y-139627832D01*
X103865026Y-139690722D01*
X103832763Y-139751082D01*
X103794454Y-139822752D01*
X103750997Y-139966013D01*
X103740000Y-140077666D01*
X103740000Y-140077676D01*
X103736324Y-140114998D01*
X103740000Y-140152321D01*
X103740001Y-142481956D01*
X103585241Y-142585363D01*
X103385363Y-142785241D01*
X103228320Y-143020273D01*
X103120147Y-143281426D01*
X103065000Y-143558665D01*
X103065000Y-143841335D01*
X103120147Y-144118574D01*
X103228320Y-144379727D01*
X103385363Y-144614759D01*
X103585241Y-144814637D01*
X103820273Y-144971680D01*
X104081426Y-145079853D01*
X104358665Y-145135000D01*
X104641335Y-145135000D01*
X104918574Y-145079853D01*
X105179727Y-144971680D01*
X105414759Y-144814637D01*
X105614637Y-144614759D01*
X105632469Y-144588072D01*
X105633959Y-144588072D01*
X105669463Y-144654494D01*
X105748815Y-144751185D01*
X105845506Y-144830537D01*
X105955820Y-144889502D01*
X106075518Y-144925812D01*
X106200000Y-144938072D01*
X107800000Y-144938072D01*
X107924482Y-144925812D01*
X108044180Y-144889502D01*
X108154494Y-144830537D01*
X108251185Y-144751185D01*
X108330537Y-144654494D01*
X108389502Y-144544180D01*
X108400000Y-144509573D01*
X108410498Y-144544180D01*
X108469463Y-144654494D01*
X108548815Y-144751185D01*
X108645506Y-144830537D01*
X108755820Y-144889502D01*
X108875518Y-144925812D01*
X109000000Y-144938072D01*
X110600000Y-144938072D01*
X110724482Y-144925812D01*
X110844180Y-144889502D01*
X110954494Y-144830537D01*
X110955998Y-144829303D01*
X110969463Y-144854494D01*
X111048815Y-144951185D01*
X111145506Y-145030537D01*
X111255820Y-145089502D01*
X111375518Y-145125812D01*
X111500000Y-145138072D01*
X112549626Y-145138072D01*
X111689211Y-145998488D01*
X111518623Y-145927828D01*
X111175118Y-145859500D01*
X110824882Y-145859500D01*
X110481377Y-145927828D01*
X110157801Y-146061857D01*
X109866591Y-146256437D01*
X109618937Y-146504091D01*
X109424357Y-146795301D01*
X109290328Y-147118877D01*
X109222000Y-147462382D01*
X109222000Y-147812618D01*
X109290328Y-148156123D01*
X109424357Y-148479699D01*
X109618937Y-148770909D01*
X109866591Y-149018563D01*
X110157801Y-149213143D01*
X110481377Y-149347172D01*
X110824882Y-149415500D01*
X111175118Y-149415500D01*
X111518623Y-149347172D01*
X111842199Y-149213143D01*
X112133409Y-149018563D01*
X112381063Y-148770909D01*
X112575643Y-148479699D01*
X112709672Y-148156123D01*
X112778000Y-147812618D01*
X112778000Y-147462382D01*
X112711124Y-147126177D01*
X114773504Y-145063798D01*
X114802501Y-145040001D01*
X114834363Y-145001177D01*
X114897474Y-144924277D01*
X114968046Y-144792247D01*
X114981315Y-144748503D01*
X115011503Y-144648986D01*
X115022500Y-144537333D01*
X115022500Y-144537324D01*
X115026176Y-144500001D01*
X115022500Y-144462678D01*
X115022500Y-138299822D01*
X115026176Y-138262499D01*
X115022500Y-138225176D01*
X115022500Y-138225167D01*
X115011503Y-138113514D01*
X114968046Y-137970253D01*
X114897474Y-137838224D01*
X114802501Y-137722499D01*
X114773503Y-137698701D01*
X113003355Y-135928554D01*
X113100000Y-135938072D01*
X115100000Y-135938072D01*
X115224482Y-135925812D01*
X115344180Y-135889502D01*
X115454494Y-135830537D01*
X115551185Y-135751185D01*
X115630537Y-135654494D01*
X115689502Y-135544180D01*
X115725812Y-135424482D01*
X115738072Y-135300000D01*
X115738072Y-132100000D01*
X115725812Y-131975518D01*
X115689502Y-131855820D01*
X115630537Y-131745506D01*
X115551185Y-131648815D01*
X115454494Y-131569463D01*
X115344180Y-131510498D01*
X115224482Y-131474188D01*
X115100000Y-131461928D01*
X113100000Y-131461928D01*
X112975518Y-131474188D01*
X112855820Y-131510498D01*
X112745506Y-131569463D01*
X112648815Y-131648815D01*
X112569463Y-131745506D01*
X112510498Y-131855820D01*
X112474188Y-131975518D01*
X112461928Y-132100000D01*
X112461928Y-132614755D01*
X112387688Y-132688995D01*
X112219701Y-132940405D01*
X112103989Y-133219757D01*
X112045000Y-133516316D01*
X112045000Y-133818684D01*
X112103989Y-134115243D01*
X112219701Y-134394595D01*
X112387688Y-134646005D01*
X112461928Y-134720245D01*
X112461928Y-135300000D01*
X112471446Y-135396645D01*
X111800000Y-134725199D01*
X111800000Y-130197191D01*
X111882199Y-130163143D01*
X112173409Y-129968563D01*
X112421063Y-129720909D01*
X112615643Y-129429699D01*
X112749672Y-129106123D01*
X112818000Y-128762618D01*
X112818000Y-128412382D01*
X112749672Y-128068877D01*
X112615643Y-127745301D01*
X112441797Y-127485121D01*
X112448918Y-127474463D01*
X112510937Y-127324736D01*
X115940001Y-130753801D01*
X115940000Y-149012678D01*
X115936324Y-149050000D01*
X115940000Y-149087322D01*
X115940000Y-149087332D01*
X115950997Y-149198985D01*
X115992347Y-149335301D01*
X115994454Y-149342246D01*
X116065026Y-149474276D01*
X116104871Y-149522826D01*
X116159999Y-149590001D01*
X116189003Y-149613804D01*
X124261928Y-157686730D01*
X124261928Y-158600000D01*
X124274188Y-158724482D01*
X124310498Y-158844180D01*
X124369463Y-158954494D01*
X124448815Y-159051185D01*
X124545506Y-159130537D01*
X124655820Y-159189502D01*
X124775518Y-159225812D01*
X124900000Y-159238072D01*
X126400000Y-159238072D01*
X126524482Y-159225812D01*
X126540001Y-159221104D01*
X126540001Y-160178896D01*
X126524482Y-160174188D01*
X126400000Y-160161928D01*
X124900000Y-160161928D01*
X124775518Y-160174188D01*
X124655820Y-160210498D01*
X124545506Y-160269463D01*
X124448815Y-160348815D01*
X124369463Y-160445506D01*
X124310498Y-160555820D01*
X124274188Y-160675518D01*
X124261928Y-160800000D01*
X124261928Y-161800000D01*
X124274188Y-161924482D01*
X124310498Y-162044180D01*
X124369463Y-162154494D01*
X124448815Y-162251185D01*
X124545506Y-162330537D01*
X124655820Y-162389502D01*
X124775518Y-162425812D01*
X124900000Y-162438072D01*
X126400000Y-162438072D01*
X126524482Y-162425812D01*
X126644180Y-162389502D01*
X126754494Y-162330537D01*
X126851185Y-162251185D01*
X126930537Y-162154494D01*
X126989502Y-162044180D01*
X127002958Y-161999821D01*
X127124276Y-161934974D01*
X127240001Y-161840001D01*
X127263803Y-161810998D01*
X127811002Y-161263800D01*
X127840001Y-161240001D01*
X127866332Y-161207917D01*
X127934974Y-161124277D01*
X128005546Y-160992247D01*
X128019724Y-160945506D01*
X128049003Y-160848986D01*
X128060000Y-160737333D01*
X128060000Y-160737324D01*
X128063676Y-160700001D01*
X128060000Y-160662678D01*
X128060000Y-159134801D01*
X129315098Y-160389900D01*
X129269463Y-160445506D01*
X129210498Y-160555820D01*
X129174188Y-160675518D01*
X129161928Y-160800000D01*
X129161928Y-161800000D01*
X129174188Y-161924482D01*
X129210498Y-162044180D01*
X129269463Y-162154494D01*
X129348815Y-162251185D01*
X129445506Y-162330537D01*
X129555820Y-162389502D01*
X129675518Y-162425812D01*
X129800000Y-162438072D01*
X131300000Y-162438072D01*
X131424482Y-162425812D01*
X131544180Y-162389502D01*
X131654494Y-162330537D01*
X131751185Y-162251185D01*
X131830537Y-162154494D01*
X131889502Y-162044180D01*
X131925812Y-161924482D01*
X131938072Y-161800000D01*
X131938072Y-160800000D01*
X131925812Y-160675518D01*
X131889502Y-160555820D01*
X131830537Y-160445506D01*
X131751185Y-160348815D01*
X131654494Y-160269463D01*
X131544180Y-160210498D01*
X131424482Y-160174188D01*
X131300000Y-160161928D01*
X131204326Y-160161928D01*
X131184974Y-160125724D01*
X131090001Y-160009999D01*
X131061003Y-159986201D01*
X130287026Y-159212224D01*
X130423000Y-159076250D01*
X130423000Y-158227000D01*
X130677000Y-158227000D01*
X130677000Y-159076250D01*
X130835750Y-159235000D01*
X131300000Y-159238072D01*
X131424482Y-159225812D01*
X131544180Y-159189502D01*
X131654494Y-159130537D01*
X131751185Y-159051185D01*
X131830537Y-158954494D01*
X131889502Y-158844180D01*
X131925812Y-158724482D01*
X131938072Y-158600000D01*
X131935000Y-158385750D01*
X131776250Y-158227000D01*
X130677000Y-158227000D01*
X130423000Y-158227000D01*
X130403000Y-158227000D01*
X130403000Y-157973000D01*
X130423000Y-157973000D01*
X130423000Y-157123750D01*
X130677000Y-157123750D01*
X130677000Y-157973000D01*
X131776250Y-157973000D01*
X131935000Y-157814250D01*
X131938072Y-157600000D01*
X131925812Y-157475518D01*
X131889502Y-157355820D01*
X131830537Y-157245506D01*
X131751185Y-157148815D01*
X131654494Y-157069463D01*
X131544180Y-157010498D01*
X131424482Y-156974188D01*
X131300000Y-156961928D01*
X130835750Y-156965000D01*
X130677000Y-157123750D01*
X130423000Y-157123750D01*
X130264250Y-156965000D01*
X129800000Y-156961928D01*
X129675518Y-156974188D01*
X129555820Y-157010498D01*
X129445506Y-157069463D01*
X129348815Y-157148815D01*
X129269463Y-157245506D01*
X129260000Y-157263210D01*
X129260000Y-154254823D01*
X129263676Y-154217500D01*
X129260000Y-154180177D01*
X129260000Y-154180167D01*
X129249003Y-154068514D01*
X129205546Y-153925253D01*
X129134974Y-153793224D01*
X129040001Y-153677499D01*
X129011003Y-153653701D01*
X122748576Y-147391275D01*
X122796300Y-147151350D01*
X122796300Y-146853650D01*
X122738222Y-146561670D01*
X122624297Y-146286631D01*
X122458904Y-146039102D01*
X122248398Y-145828596D01*
X122104580Y-145732500D01*
X122248398Y-145636404D01*
X122458904Y-145425898D01*
X122624297Y-145178369D01*
X122738222Y-144903330D01*
X122796300Y-144611350D01*
X122796300Y-144313650D01*
X122738222Y-144021670D01*
X122624297Y-143746631D01*
X122458904Y-143499102D01*
X122248398Y-143288596D01*
X122104580Y-143192500D01*
X122248398Y-143096404D01*
X122458904Y-142885898D01*
X122624297Y-142638369D01*
X122738222Y-142363330D01*
X122796300Y-142071350D01*
X122796300Y-141773650D01*
X122738222Y-141481670D01*
X122624297Y-141206631D01*
X122458904Y-140959102D01*
X122248398Y-140748596D01*
X122104580Y-140652500D01*
X122248398Y-140556404D01*
X122458904Y-140345898D01*
X122624297Y-140098369D01*
X122738222Y-139823330D01*
X122796300Y-139531350D01*
X122796300Y-139233650D01*
X122738222Y-138941670D01*
X122624297Y-138666631D01*
X122458904Y-138419102D01*
X122248398Y-138208596D01*
X122104580Y-138112500D01*
X122248398Y-138016404D01*
X122458904Y-137805898D01*
X122624297Y-137558369D01*
X122738222Y-137283330D01*
X122796300Y-136991350D01*
X122796300Y-136693650D01*
X122738222Y-136401670D01*
X122624297Y-136126631D01*
X122458904Y-135879102D01*
X122248398Y-135668596D01*
X122104580Y-135572500D01*
X122248398Y-135476404D01*
X122458904Y-135265898D01*
X122624297Y-135018369D01*
X122738222Y-134743330D01*
X122796300Y-134451350D01*
X122796300Y-134153650D01*
X122738222Y-133861670D01*
X122624297Y-133586631D01*
X122458904Y-133339102D01*
X122248398Y-133128596D01*
X122104580Y-133032500D01*
X122248398Y-132936404D01*
X122458904Y-132725898D01*
X122624297Y-132478369D01*
X122738222Y-132203330D01*
X122796300Y-131911350D01*
X122796300Y-131613650D01*
X122738222Y-131321670D01*
X122624297Y-131046631D01*
X122458904Y-130799102D01*
X122248398Y-130588596D01*
X122104580Y-130492500D01*
X122248398Y-130396404D01*
X122458904Y-130185898D01*
X122624297Y-129938369D01*
X122738222Y-129663330D01*
X122796300Y-129371350D01*
X122796300Y-129073650D01*
X122738222Y-128781670D01*
X122624297Y-128506631D01*
X122458904Y-128259102D01*
X122248398Y-128048596D01*
X122104580Y-127952500D01*
X122248398Y-127856404D01*
X122458904Y-127645898D01*
X122624297Y-127398369D01*
X122738222Y-127123330D01*
X122796300Y-126831350D01*
X122796300Y-126749991D01*
X135007887Y-126749991D01*
X135050204Y-127044667D01*
X135149198Y-127325427D01*
X135226071Y-127469246D01*
X135477831Y-127550063D01*
X136345395Y-126682500D01*
X135477831Y-125814937D01*
X135226071Y-125895754D01*
X135097543Y-126164279D01*
X135023871Y-126452719D01*
X135007887Y-126749991D01*
X122796300Y-126749991D01*
X122796300Y-126533650D01*
X122738222Y-126241670D01*
X122624297Y-125966631D01*
X122458904Y-125719102D01*
X122248398Y-125508596D01*
X122104580Y-125412500D01*
X122248398Y-125316404D01*
X122458904Y-125105898D01*
X122624297Y-124858369D01*
X122738222Y-124583330D01*
X122796300Y-124291350D01*
X122796300Y-124209991D01*
X135007887Y-124209991D01*
X135050204Y-124504667D01*
X135149198Y-124785427D01*
X135226071Y-124929246D01*
X135477831Y-125010063D01*
X136345395Y-124142500D01*
X135477831Y-123274937D01*
X135226071Y-123355754D01*
X135097543Y-123624279D01*
X135023871Y-123912719D01*
X135007887Y-124209991D01*
X122796300Y-124209991D01*
X122796300Y-123993650D01*
X122738222Y-123701670D01*
X122624297Y-123426631D01*
X122458904Y-123179102D01*
X122248398Y-122968596D01*
X122085191Y-122859545D01*
X122152563Y-122649669D01*
X121285000Y-121782105D01*
X121270858Y-121796248D01*
X121091252Y-121616642D01*
X121105395Y-121602500D01*
X121464605Y-121602500D01*
X122332169Y-122470063D01*
X122583929Y-122389246D01*
X122712457Y-122120721D01*
X122786129Y-121832281D01*
X122802113Y-121535009D01*
X122759796Y-121240333D01*
X122660802Y-120959573D01*
X122583929Y-120815754D01*
X122332169Y-120734937D01*
X121464605Y-121602500D01*
X121105395Y-121602500D01*
X120237831Y-120734937D01*
X119986071Y-120815754D01*
X119857543Y-121084279D01*
X119783871Y-121372719D01*
X119773980Y-121556678D01*
X118956304Y-120739003D01*
X118932501Y-120709999D01*
X118816776Y-120615026D01*
X118684747Y-120544454D01*
X118541486Y-120500997D01*
X118429833Y-120490000D01*
X118429822Y-120490000D01*
X118392500Y-120486324D01*
X118355178Y-120490000D01*
X117899870Y-120490000D01*
X117889502Y-120455820D01*
X117830537Y-120345506D01*
X117751185Y-120248815D01*
X117654494Y-120169463D01*
X117544180Y-120110498D01*
X117424482Y-120074188D01*
X117300000Y-120061928D01*
X115500000Y-120061928D01*
X115375518Y-120074188D01*
X115255820Y-120110498D01*
X115145506Y-120169463D01*
X115048815Y-120248815D01*
X114969463Y-120345506D01*
X114910498Y-120455820D01*
X114900130Y-120490000D01*
X111699870Y-120490000D01*
X111689502Y-120455820D01*
X111630537Y-120345506D01*
X111551185Y-120248815D01*
X111454494Y-120169463D01*
X111344180Y-120110498D01*
X111224482Y-120074188D01*
X111100000Y-120061928D01*
X109300000Y-120061928D01*
X109175518Y-120074188D01*
X109055820Y-120110498D01*
X108945506Y-120169463D01*
X108848815Y-120248815D01*
X108769463Y-120345506D01*
X108710498Y-120455820D01*
X108674188Y-120575518D01*
X108661928Y-120700000D01*
X108661928Y-121800000D01*
X108665868Y-121840000D01*
X76714802Y-121840000D01*
X74363804Y-119489003D01*
X74340001Y-119459999D01*
X74224276Y-119365026D01*
X74092247Y-119294454D01*
X73948986Y-119250997D01*
X73837333Y-119240000D01*
X73837322Y-119240000D01*
X73800000Y-119236324D01*
X73762678Y-119240000D01*
X68887325Y-119240000D01*
X68850000Y-119236324D01*
X68812675Y-119240000D01*
X68812667Y-119240000D01*
X68701014Y-119250997D01*
X68557753Y-119294454D01*
X68425724Y-119365026D01*
X68309999Y-119459999D01*
X68286201Y-119488997D01*
X67557553Y-120217646D01*
X67544180Y-120210498D01*
X67424482Y-120174188D01*
X67300000Y-120161928D01*
X65800000Y-120161928D01*
X65675518Y-120174188D01*
X65555820Y-120210498D01*
X65445506Y-120269463D01*
X65348815Y-120348815D01*
X65269463Y-120445506D01*
X65210498Y-120555820D01*
X65174188Y-120675518D01*
X65161928Y-120800000D01*
X59160000Y-120800000D01*
X59160000Y-117600000D01*
X65161928Y-117600000D01*
X65161928Y-118600000D01*
X65174188Y-118724482D01*
X65210498Y-118844180D01*
X65269463Y-118954494D01*
X65348815Y-119051185D01*
X65445506Y-119130537D01*
X65555820Y-119189502D01*
X65675518Y-119225812D01*
X65800000Y-119238072D01*
X67300000Y-119238072D01*
X67424482Y-119225812D01*
X67544180Y-119189502D01*
X67654494Y-119130537D01*
X67751185Y-119051185D01*
X67830537Y-118954494D01*
X67889502Y-118844180D01*
X67925812Y-118724482D01*
X67938072Y-118600000D01*
X70061928Y-118600000D01*
X70074188Y-118724482D01*
X70110498Y-118844180D01*
X70169463Y-118954494D01*
X70248815Y-119051185D01*
X70345506Y-119130537D01*
X70455820Y-119189502D01*
X70575518Y-119225812D01*
X70700000Y-119238072D01*
X71164250Y-119235000D01*
X71323000Y-119076250D01*
X71323000Y-118227000D01*
X71577000Y-118227000D01*
X71577000Y-119076250D01*
X71735750Y-119235000D01*
X72200000Y-119238072D01*
X72324482Y-119225812D01*
X72444180Y-119189502D01*
X72554494Y-119130537D01*
X72651185Y-119051185D01*
X72730537Y-118954494D01*
X72752368Y-118913650D01*
X119773700Y-118913650D01*
X119773700Y-119211350D01*
X119831778Y-119503330D01*
X119945703Y-119778369D01*
X120111096Y-120025898D01*
X120321602Y-120236404D01*
X120484809Y-120345455D01*
X120417437Y-120555331D01*
X121285000Y-121422895D01*
X122152563Y-120555331D01*
X122085191Y-120345455D01*
X122248398Y-120236404D01*
X122458904Y-120025898D01*
X122624297Y-119778369D01*
X122738222Y-119503330D01*
X122796300Y-119211350D01*
X122796300Y-118913650D01*
X122738222Y-118621670D01*
X122624297Y-118346631D01*
X122458904Y-118099102D01*
X122248398Y-117888596D01*
X122000869Y-117723203D01*
X121725830Y-117609278D01*
X121433850Y-117551200D01*
X121136150Y-117551200D01*
X120844170Y-117609278D01*
X120569131Y-117723203D01*
X120321602Y-117888596D01*
X120111096Y-118099102D01*
X119945703Y-118346631D01*
X119831778Y-118621670D01*
X119773700Y-118913650D01*
X72752368Y-118913650D01*
X72789502Y-118844180D01*
X72825812Y-118724482D01*
X72838072Y-118600000D01*
X72835000Y-118385750D01*
X72676250Y-118227000D01*
X71577000Y-118227000D01*
X71323000Y-118227000D01*
X70223750Y-118227000D01*
X70065000Y-118385750D01*
X70061928Y-118600000D01*
X67938072Y-118600000D01*
X67938072Y-118100000D01*
X108661928Y-118100000D01*
X108674188Y-118224482D01*
X108710498Y-118344180D01*
X108769463Y-118454494D01*
X108848815Y-118551185D01*
X108945506Y-118630537D01*
X109055820Y-118689502D01*
X109175518Y-118725812D01*
X109300000Y-118738072D01*
X109914250Y-118735000D01*
X110073000Y-118576250D01*
X110073000Y-117677000D01*
X110327000Y-117677000D01*
X110327000Y-118576250D01*
X110485750Y-118735000D01*
X111100000Y-118738072D01*
X111224482Y-118725812D01*
X111344180Y-118689502D01*
X111454494Y-118630537D01*
X111551185Y-118551185D01*
X111630537Y-118454494D01*
X111689502Y-118344180D01*
X111725812Y-118224482D01*
X111738072Y-118100000D01*
X114861928Y-118100000D01*
X114874188Y-118224482D01*
X114910498Y-118344180D01*
X114969463Y-118454494D01*
X115048815Y-118551185D01*
X115145506Y-118630537D01*
X115255820Y-118689502D01*
X115375518Y-118725812D01*
X115500000Y-118738072D01*
X116114250Y-118735000D01*
X116273000Y-118576250D01*
X116273000Y-117677000D01*
X116527000Y-117677000D01*
X116527000Y-118576250D01*
X116685750Y-118735000D01*
X117300000Y-118738072D01*
X117424482Y-118725812D01*
X117544180Y-118689502D01*
X117654494Y-118630537D01*
X117751185Y-118551185D01*
X117830537Y-118454494D01*
X117889502Y-118344180D01*
X117925812Y-118224482D01*
X117938072Y-118100000D01*
X117935000Y-117835750D01*
X117776250Y-117677000D01*
X116527000Y-117677000D01*
X116273000Y-117677000D01*
X115023750Y-117677000D01*
X114865000Y-117835750D01*
X114861928Y-118100000D01*
X111738072Y-118100000D01*
X111735000Y-117835750D01*
X111576250Y-117677000D01*
X110327000Y-117677000D01*
X110073000Y-117677000D01*
X108823750Y-117677000D01*
X108665000Y-117835750D01*
X108661928Y-118100000D01*
X67938072Y-118100000D01*
X67938072Y-117600000D01*
X70061928Y-117600000D01*
X70065000Y-117814250D01*
X70223750Y-117973000D01*
X71323000Y-117973000D01*
X71323000Y-117123750D01*
X71577000Y-117123750D01*
X71577000Y-117973000D01*
X72676250Y-117973000D01*
X72835000Y-117814250D01*
X72838072Y-117600000D01*
X72825812Y-117475518D01*
X72789502Y-117355820D01*
X72730537Y-117245506D01*
X72651185Y-117148815D01*
X72554494Y-117069463D01*
X72444180Y-117010498D01*
X72409573Y-117000000D01*
X108661928Y-117000000D01*
X108665000Y-117264250D01*
X108823750Y-117423000D01*
X110073000Y-117423000D01*
X110073000Y-116523750D01*
X110327000Y-116523750D01*
X110327000Y-117423000D01*
X111576250Y-117423000D01*
X111735000Y-117264250D01*
X111738072Y-117000000D01*
X114861928Y-117000000D01*
X114865000Y-117264250D01*
X115023750Y-117423000D01*
X116273000Y-117423000D01*
X116273000Y-116523750D01*
X116527000Y-116523750D01*
X116527000Y-117423000D01*
X117776250Y-117423000D01*
X117935000Y-117264250D01*
X117938072Y-117000000D01*
X117925812Y-116875518D01*
X117889502Y-116755820D01*
X117830537Y-116645506D01*
X117751185Y-116548815D01*
X117654494Y-116469463D01*
X117544180Y-116410498D01*
X117424482Y-116374188D01*
X117300000Y-116361928D01*
X116685750Y-116365000D01*
X116527000Y-116523750D01*
X116273000Y-116523750D01*
X116114250Y-116365000D01*
X115500000Y-116361928D01*
X115375518Y-116374188D01*
X115255820Y-116410498D01*
X115145506Y-116469463D01*
X115048815Y-116548815D01*
X114969463Y-116645506D01*
X114910498Y-116755820D01*
X114874188Y-116875518D01*
X114861928Y-117000000D01*
X111738072Y-117000000D01*
X111725812Y-116875518D01*
X111689502Y-116755820D01*
X111630537Y-116645506D01*
X111551185Y-116548815D01*
X111454494Y-116469463D01*
X111344180Y-116410498D01*
X111224482Y-116374188D01*
X111100000Y-116361928D01*
X110485750Y-116365000D01*
X110327000Y-116523750D01*
X110073000Y-116523750D01*
X109914250Y-116365000D01*
X109300000Y-116361928D01*
X109175518Y-116374188D01*
X109055820Y-116410498D01*
X108945506Y-116469463D01*
X108848815Y-116548815D01*
X108769463Y-116645506D01*
X108710498Y-116755820D01*
X108674188Y-116875518D01*
X108661928Y-117000000D01*
X72409573Y-117000000D01*
X72324482Y-116974188D01*
X72200000Y-116961928D01*
X71735750Y-116965000D01*
X71577000Y-117123750D01*
X71323000Y-117123750D01*
X71164250Y-116965000D01*
X70700000Y-116961928D01*
X70575518Y-116974188D01*
X70455820Y-117010498D01*
X70345506Y-117069463D01*
X70248815Y-117148815D01*
X70169463Y-117245506D01*
X70110498Y-117355820D01*
X70074188Y-117475518D01*
X70061928Y-117600000D01*
X67938072Y-117600000D01*
X67925812Y-117475518D01*
X67889502Y-117355820D01*
X67830537Y-117245506D01*
X67751185Y-117148815D01*
X67654494Y-117069463D01*
X67544180Y-117010498D01*
X67424482Y-116974188D01*
X67300000Y-116961928D01*
X65800000Y-116961928D01*
X65675518Y-116974188D01*
X65555820Y-117010498D01*
X65445506Y-117069463D01*
X65348815Y-117148815D01*
X65269463Y-117245506D01*
X65210498Y-117355820D01*
X65174188Y-117475518D01*
X65161928Y-117600000D01*
X59160000Y-117600000D01*
X59160000Y-115680000D01*
X137590001Y-115680000D01*
X137590001Y-117579869D01*
G37*
X137590001Y-117579869D02*
X137525782Y-117560388D01*
X137401300Y-117548128D01*
X135648700Y-117548128D01*
X135524218Y-117560388D01*
X135404520Y-117596698D01*
X135294206Y-117655663D01*
X135197515Y-117735015D01*
X135118163Y-117831706D01*
X135059198Y-117942020D01*
X135022888Y-118061718D01*
X135010628Y-118186200D01*
X135010628Y-119938800D01*
X135022888Y-120063282D01*
X135059198Y-120182980D01*
X135118163Y-120293294D01*
X135197515Y-120389985D01*
X135294206Y-120469337D01*
X135404520Y-120528302D01*
X135448542Y-120541656D01*
X135351096Y-120639102D01*
X135185703Y-120886631D01*
X135071778Y-121161670D01*
X135013700Y-121453650D01*
X135013700Y-121751350D01*
X135071778Y-122043330D01*
X135185703Y-122318369D01*
X135351096Y-122565898D01*
X135561602Y-122776404D01*
X135724809Y-122885455D01*
X135657437Y-123095331D01*
X136525000Y-123962895D01*
X136539142Y-123948752D01*
X136718748Y-124128358D01*
X136704605Y-124142500D01*
X136718748Y-124156642D01*
X136539142Y-124336248D01*
X136525000Y-124322105D01*
X135657437Y-125189669D01*
X135728968Y-125412500D01*
X135657437Y-125635331D01*
X136525000Y-126502895D01*
X136539142Y-126488752D01*
X136718748Y-126668358D01*
X136704605Y-126682500D01*
X136718748Y-126696642D01*
X136539142Y-126876248D01*
X136525000Y-126862105D01*
X135657437Y-127729669D01*
X135724809Y-127939545D01*
X135561602Y-128048596D01*
X135351096Y-128259102D01*
X135185703Y-128506631D01*
X135071778Y-128781670D01*
X135013700Y-129073650D01*
X135013700Y-129371350D01*
X135071778Y-129663330D01*
X135185703Y-129938369D01*
X135351096Y-130185898D01*
X135561602Y-130396404D01*
X135705420Y-130492500D01*
X135561602Y-130588596D01*
X135351096Y-130799102D01*
X135185703Y-131046631D01*
X135071778Y-131321670D01*
X135013700Y-131613650D01*
X135013700Y-131911350D01*
X135071778Y-132203330D01*
X135185703Y-132478369D01*
X135351096Y-132725898D01*
X135561602Y-132936404D01*
X135705420Y-133032500D01*
X135561602Y-133128596D01*
X135351096Y-133339102D01*
X135185703Y-133586631D01*
X135071778Y-133861670D01*
X135013700Y-134153650D01*
X135013700Y-134451350D01*
X135071778Y-134743330D01*
X135185703Y-135018369D01*
X135351096Y-135265898D01*
X135561602Y-135476404D01*
X135705420Y-135572500D01*
X135561602Y-135668596D01*
X135351096Y-135879102D01*
X135185703Y-136126631D01*
X135071778Y-136401670D01*
X135013700Y-136693650D01*
X135013700Y-136991350D01*
X135071778Y-137283330D01*
X135185703Y-137558369D01*
X135351096Y-137805898D01*
X135561602Y-138016404D01*
X135705420Y-138112500D01*
X135561602Y-138208596D01*
X135351096Y-138419102D01*
X135185703Y-138666631D01*
X135071778Y-138941670D01*
X135013700Y-139233650D01*
X135013700Y-139531350D01*
X135071778Y-139823330D01*
X135185703Y-140098369D01*
X135351096Y-140345898D01*
X135561602Y-140556404D01*
X135705420Y-140652500D01*
X135561602Y-140748596D01*
X135351096Y-140959102D01*
X135185703Y-141206631D01*
X135071778Y-141481670D01*
X135013700Y-141773650D01*
X135013700Y-142071350D01*
X135071778Y-142363330D01*
X135185703Y-142638369D01*
X135351096Y-142885898D01*
X135561602Y-143096404D01*
X135705420Y-143192500D01*
X135561602Y-143288596D01*
X135351096Y-143499102D01*
X135185703Y-143746631D01*
X135071778Y-144021670D01*
X135013700Y-144313650D01*
X135013700Y-144611350D01*
X135071778Y-144903330D01*
X135185703Y-145178369D01*
X135351096Y-145425898D01*
X135561602Y-145636404D01*
X135705420Y-145732500D01*
X135561602Y-145828596D01*
X135351096Y-146039102D01*
X135185703Y-146286631D01*
X135071778Y-146561670D01*
X135013700Y-146853650D01*
X135013700Y-147151350D01*
X135071778Y-147443330D01*
X135185703Y-147718369D01*
X135351096Y-147965898D01*
X135561602Y-148176404D01*
X135809131Y-148341797D01*
X136084170Y-148455722D01*
X136376150Y-148513800D01*
X136673850Y-148513800D01*
X136965830Y-148455722D01*
X137240869Y-148341797D01*
X137488398Y-148176404D01*
X137590000Y-148074802D01*
X137590000Y-164040000D01*
X59160000Y-164040000D01*
X59160000Y-152566316D01*
X63885000Y-152566316D01*
X63885000Y-152868684D01*
X63943989Y-153165243D01*
X64059701Y-153444595D01*
X64227688Y-153696005D01*
X64441495Y-153909812D01*
X64692905Y-154077799D01*
X64972257Y-154193511D01*
X65268816Y-154252500D01*
X65571184Y-154252500D01*
X65867743Y-154193511D01*
X65930000Y-154167723D01*
X65930001Y-161188638D01*
X65785241Y-161285363D01*
X65585363Y-161485241D01*
X65428320Y-161720273D01*
X65320147Y-161981426D01*
X65265000Y-162258665D01*
X65265000Y-162541335D01*
X65320147Y-162818574D01*
X65428320Y-163079727D01*
X65585363Y-163314759D01*
X65785241Y-163514637D01*
X66020273Y-163671680D01*
X66281426Y-163779853D01*
X66558665Y-163835000D01*
X66841335Y-163835000D01*
X67118574Y-163779853D01*
X67379727Y-163671680D01*
X67614759Y-163514637D01*
X67814637Y-163314759D01*
X67832469Y-163288072D01*
X67833959Y-163288072D01*
X67869463Y-163354494D01*
X67948815Y-163451185D01*
X68045506Y-163530537D01*
X68155820Y-163589502D01*
X68275518Y-163625812D01*
X68400000Y-163638072D01*
X70000000Y-163638072D01*
X70124482Y-163625812D01*
X70244180Y-163589502D01*
X70354494Y-163530537D01*
X70451185Y-163451185D01*
X70530537Y-163354494D01*
X70589502Y-163244180D01*
X70600000Y-163209573D01*
X70610498Y-163244180D01*
X70669463Y-163354494D01*
X70748815Y-163451185D01*
X70845506Y-163530537D01*
X70955820Y-163589502D01*
X71075518Y-163625812D01*
X71200000Y-163638072D01*
X72800000Y-163638072D01*
X72924482Y-163625812D01*
X73044180Y-163589502D01*
X73154494Y-163530537D01*
X73155998Y-163529303D01*
X73169463Y-163554494D01*
X73248815Y-163651185D01*
X73345506Y-163730537D01*
X73455820Y-163789502D01*
X73575518Y-163825812D01*
X73700000Y-163838072D01*
X75300000Y-163838072D01*
X75424482Y-163825812D01*
X75544180Y-163789502D01*
X75654494Y-163730537D01*
X75751185Y-163651185D01*
X75830537Y-163554494D01*
X75889502Y-163444180D01*
X75925812Y-163324482D01*
X75938072Y-163200000D01*
X75938072Y-161600000D01*
X75925812Y-161475518D01*
X75889502Y-161355820D01*
X75830537Y-161245506D01*
X75751185Y-161148815D01*
X75654494Y-161069463D01*
X75544180Y-161010498D01*
X75424482Y-160974188D01*
X75300000Y-160961928D01*
X73700000Y-160961928D01*
X73575518Y-160974188D01*
X73455820Y-161010498D01*
X73345506Y-161069463D01*
X73248815Y-161148815D01*
X73169463Y-161245506D01*
X73155998Y-161270697D01*
X73154494Y-161269463D01*
X73044180Y-161210498D01*
X72924482Y-161174188D01*
X72800000Y-161161928D01*
X71200000Y-161161928D01*
X71075518Y-161174188D01*
X70955820Y-161210498D01*
X70845506Y-161269463D01*
X70748815Y-161348815D01*
X70669463Y-161445506D01*
X70610498Y-161555820D01*
X70600000Y-161590427D01*
X70589502Y-161555820D01*
X70530537Y-161445506D01*
X70451185Y-161348815D01*
X70354494Y-161269463D01*
X70244180Y-161210498D01*
X70124482Y-161174188D01*
X70000000Y-161161928D01*
X68400000Y-161161928D01*
X68275518Y-161174188D01*
X68155820Y-161210498D01*
X68045506Y-161269463D01*
X67948815Y-161348815D01*
X67869463Y-161445506D01*
X67833959Y-161511928D01*
X67832469Y-161511928D01*
X67814637Y-161485241D01*
X67614759Y-161285363D01*
X67450000Y-161175275D01*
X67450000Y-152458576D01*
X67871100Y-152458576D01*
X67871100Y-152976424D01*
X67972127Y-153484322D01*
X68170299Y-153962751D01*
X68458000Y-154393326D01*
X68824174Y-154759500D01*
X69254749Y-155047201D01*
X69733178Y-155245373D01*
X70241076Y-155346400D01*
X70758924Y-155346400D01*
X71266822Y-155245373D01*
X71745251Y-155047201D01*
X72175826Y-154759500D01*
X72542000Y-154393326D01*
X72829701Y-153962751D01*
X73027873Y-153484322D01*
X73128900Y-152976424D01*
X73128900Y-152566316D01*
X74045000Y-152566316D01*
X74045000Y-152868684D01*
X74103989Y-153165243D01*
X74219701Y-153444595D01*
X74387688Y-153696005D01*
X74601495Y-153909812D01*
X74852905Y-154077799D01*
X75132257Y-154193511D01*
X75428816Y-154252500D01*
X75731184Y-154252500D01*
X76027743Y-154193511D01*
X76307095Y-154077799D01*
X76558505Y-153909812D01*
X76772312Y-153696005D01*
X76940299Y-153444595D01*
X77056011Y-153165243D01*
X77115000Y-152868684D01*
X77115000Y-152566316D01*
X82845000Y-152566316D01*
X82845000Y-152868684D01*
X82903989Y-153165243D01*
X83019701Y-153444595D01*
X83187688Y-153696005D01*
X83401495Y-153909812D01*
X83652905Y-154077799D01*
X83932257Y-154193511D01*
X84228816Y-154252500D01*
X84531184Y-154252500D01*
X84827743Y-154193511D01*
X84890000Y-154167723D01*
X84890001Y-161148547D01*
X84685241Y-161285363D01*
X84485363Y-161485241D01*
X84328320Y-161720273D01*
X84220147Y-161981426D01*
X84165000Y-162258665D01*
X84165000Y-162541335D01*
X84220147Y-162818574D01*
X84328320Y-163079727D01*
X84485363Y-163314759D01*
X84685241Y-163514637D01*
X84920273Y-163671680D01*
X85181426Y-163779853D01*
X85458665Y-163835000D01*
X85741335Y-163835000D01*
X86018574Y-163779853D01*
X86279727Y-163671680D01*
X86514759Y-163514637D01*
X86714637Y-163314759D01*
X86732469Y-163288072D01*
X86733959Y-163288072D01*
X86769463Y-163354494D01*
X86848815Y-163451185D01*
X86945506Y-163530537D01*
X87055820Y-163589502D01*
X87175518Y-163625812D01*
X87300000Y-163638072D01*
X88900000Y-163638072D01*
X89024482Y-163625812D01*
X89144180Y-163589502D01*
X89254494Y-163530537D01*
X89351185Y-163451185D01*
X89430537Y-163354494D01*
X89489502Y-163244180D01*
X89500000Y-163209573D01*
X89510498Y-163244180D01*
X89569463Y-163354494D01*
X89648815Y-163451185D01*
X89745506Y-163530537D01*
X89855820Y-163589502D01*
X89975518Y-163625812D01*
X90100000Y-163638072D01*
X91700000Y-163638072D01*
X91824482Y-163625812D01*
X91944180Y-163589502D01*
X92054494Y-163530537D01*
X92055998Y-163529303D01*
X92069463Y-163554494D01*
X92148815Y-163651185D01*
X92245506Y-163730537D01*
X92355820Y-163789502D01*
X92475518Y-163825812D01*
X92600000Y-163838072D01*
X94200000Y-163838072D01*
X94324482Y-163825812D01*
X94444180Y-163789502D01*
X94554494Y-163730537D01*
X94651185Y-163651185D01*
X94730537Y-163554494D01*
X94789502Y-163444180D01*
X94825812Y-163324482D01*
X94838072Y-163200000D01*
X94838072Y-161600000D01*
X94825812Y-161475518D01*
X94789502Y-161355820D01*
X94730537Y-161245506D01*
X94651185Y-161148815D01*
X94554494Y-161069463D01*
X94444180Y-161010498D01*
X94324482Y-160974188D01*
X94200000Y-160961928D01*
X92600000Y-160961928D01*
X92475518Y-160974188D01*
X92355820Y-161010498D01*
X92245506Y-161069463D01*
X92148815Y-161148815D01*
X92069463Y-161245506D01*
X92055998Y-161270697D01*
X92054494Y-161269463D01*
X91944180Y-161210498D01*
X91824482Y-161174188D01*
X91700000Y-161161928D01*
X90100000Y-161161928D01*
X89975518Y-161174188D01*
X89855820Y-161210498D01*
X89745506Y-161269463D01*
X89648815Y-161348815D01*
X89569463Y-161445506D01*
X89510498Y-161555820D01*
X89500000Y-161590427D01*
X89489502Y-161555820D01*
X89430537Y-161445506D01*
X89351185Y-161348815D01*
X89254494Y-161269463D01*
X89144180Y-161210498D01*
X89024482Y-161174188D01*
X88900000Y-161161928D01*
X87300000Y-161161928D01*
X87175518Y-161174188D01*
X87055820Y-161210498D01*
X86945506Y-161269463D01*
X86848815Y-161348815D01*
X86769463Y-161445506D01*
X86733959Y-161511928D01*
X86732469Y-161511928D01*
X86714637Y-161485241D01*
X86514759Y-161285363D01*
X86410000Y-161215365D01*
X86410000Y-152458576D01*
X86831100Y-152458576D01*
X86831100Y-152976424D01*
X86932127Y-153484322D01*
X87130299Y-153962751D01*
X87418000Y-154393326D01*
X87784174Y-154759500D01*
X88214749Y-155047201D01*
X88693178Y-155245373D01*
X89201076Y-155346400D01*
X89718924Y-155346400D01*
X90226822Y-155245373D01*
X90705251Y-155047201D01*
X91135826Y-154759500D01*
X91502000Y-154393326D01*
X91789701Y-153962751D01*
X91987873Y-153484322D01*
X92088900Y-152976424D01*
X92088900Y-152566316D01*
X93005000Y-152566316D01*
X93005000Y-152868684D01*
X93063989Y-153165243D01*
X93179701Y-153444595D01*
X93347688Y-153696005D01*
X93561495Y-153909812D01*
X93812905Y-154077799D01*
X94092257Y-154193511D01*
X94388816Y-154252500D01*
X94691184Y-154252500D01*
X94987743Y-154193511D01*
X95267095Y-154077799D01*
X95518505Y-153909812D01*
X95732312Y-153696005D01*
X95900299Y-153444595D01*
X96016011Y-153165243D01*
X96075000Y-152868684D01*
X96075000Y-152566316D01*
X101845000Y-152566316D01*
X101845000Y-152868684D01*
X101903989Y-153165243D01*
X102019701Y-153444595D01*
X102187688Y-153696005D01*
X102401495Y-153909812D01*
X102652905Y-154077799D01*
X102932257Y-154193511D01*
X103228816Y-154252500D01*
X103531184Y-154252500D01*
X103827743Y-154193511D01*
X104015000Y-154115946D01*
X104015001Y-160898660D01*
X103885241Y-160985363D01*
X103685363Y-161185241D01*
X103528320Y-161420273D01*
X103420147Y-161681426D01*
X103365000Y-161958665D01*
X103365000Y-162241335D01*
X103420147Y-162518574D01*
X103528320Y-162779727D01*
X103685363Y-163014759D01*
X103885241Y-163214637D01*
X104120273Y-163371680D01*
X104381426Y-163479853D01*
X104658665Y-163535000D01*
X104941335Y-163535000D01*
X105218574Y-163479853D01*
X105479727Y-163371680D01*
X105714759Y-163214637D01*
X105914637Y-163014759D01*
X105932469Y-162988072D01*
X105933959Y-162988072D01*
X105969463Y-163054494D01*
X106048815Y-163151185D01*
X106145506Y-163230537D01*
X106255820Y-163289502D01*
X106375518Y-163325812D01*
X106500000Y-163338072D01*
X108100000Y-163338072D01*
X108224482Y-163325812D01*
X108344180Y-163289502D01*
X108454494Y-163230537D01*
X108551185Y-163151185D01*
X108630537Y-163054494D01*
X108689502Y-162944180D01*
X108700000Y-162909573D01*
X108710498Y-162944180D01*
X108769463Y-163054494D01*
X108848815Y-163151185D01*
X108945506Y-163230537D01*
X109055820Y-163289502D01*
X109175518Y-163325812D01*
X109300000Y-163338072D01*
X110900000Y-163338072D01*
X111024482Y-163325812D01*
X111144180Y-163289502D01*
X111254494Y-163230537D01*
X111255998Y-163229303D01*
X111269463Y-163254494D01*
X111348815Y-163351185D01*
X111445506Y-163430537D01*
X111555820Y-163489502D01*
X111675518Y-163525812D01*
X111800000Y-163538072D01*
X113400000Y-163538072D01*
X113524482Y-163525812D01*
X113644180Y-163489502D01*
X113754494Y-163430537D01*
X113851185Y-163351185D01*
X113930537Y-163254494D01*
X113989502Y-163144180D01*
X114025812Y-163024482D01*
X114038072Y-162900000D01*
X114038072Y-161300000D01*
X114025812Y-161175518D01*
X113989502Y-161055820D01*
X113930537Y-160945506D01*
X113851185Y-160848815D01*
X113754494Y-160769463D01*
X113644180Y-160710498D01*
X113524482Y-160674188D01*
X113400000Y-160661928D01*
X111800000Y-160661928D01*
X111675518Y-160674188D01*
X111555820Y-160710498D01*
X111445506Y-160769463D01*
X111348815Y-160848815D01*
X111269463Y-160945506D01*
X111255998Y-160970697D01*
X111254494Y-160969463D01*
X111144180Y-160910498D01*
X111024482Y-160874188D01*
X110900000Y-160861928D01*
X109300000Y-160861928D01*
X109175518Y-160874188D01*
X109055820Y-160910498D01*
X108945506Y-160969463D01*
X108848815Y-161048815D01*
X108769463Y-161145506D01*
X108710498Y-161255820D01*
X108700000Y-161290427D01*
X108689502Y-161255820D01*
X108630537Y-161145506D01*
X108551185Y-161048815D01*
X108454494Y-160969463D01*
X108344180Y-160910498D01*
X108224482Y-160874188D01*
X108100000Y-160861928D01*
X106500000Y-160861928D01*
X106375518Y-160874188D01*
X106255820Y-160910498D01*
X106145506Y-160969463D01*
X106048815Y-161048815D01*
X105969463Y-161145506D01*
X105933959Y-161211928D01*
X105932469Y-161211928D01*
X105914637Y-161185241D01*
X105714759Y-160985363D01*
X105535000Y-160865252D01*
X105535000Y-152458576D01*
X105831100Y-152458576D01*
X105831100Y-152976424D01*
X105932127Y-153484322D01*
X106130299Y-153962751D01*
X106418000Y-154393326D01*
X106784174Y-154759500D01*
X107214749Y-155047201D01*
X107693178Y-155245373D01*
X108201076Y-155346400D01*
X108718924Y-155346400D01*
X109226822Y-155245373D01*
X109705251Y-155047201D01*
X110135826Y-154759500D01*
X110502000Y-154393326D01*
X110789701Y-153962751D01*
X110987873Y-153484322D01*
X111088900Y-152976424D01*
X111088900Y-152566316D01*
X112005000Y-152566316D01*
X112005000Y-152868684D01*
X112063989Y-153165243D01*
X112179701Y-153444595D01*
X112347688Y-153696005D01*
X112561495Y-153909812D01*
X112812905Y-154077799D01*
X113092257Y-154193511D01*
X113388816Y-154252500D01*
X113691184Y-154252500D01*
X113987743Y-154193511D01*
X114267095Y-154077799D01*
X114518505Y-153909812D01*
X114732312Y-153696005D01*
X114900299Y-153444595D01*
X115016011Y-153165243D01*
X115075000Y-152868684D01*
X115075000Y-152566316D01*
X115016011Y-152269757D01*
X114900299Y-151990405D01*
X114732312Y-151738995D01*
X114518505Y-151525188D01*
X114267095Y-151357201D01*
X113987743Y-151241489D01*
X113691184Y-151182500D01*
X113388816Y-151182500D01*
X113092257Y-151241489D01*
X112812905Y-151357201D01*
X112561495Y-151525188D01*
X112347688Y-151738995D01*
X112179701Y-151990405D01*
X112063989Y-152269757D01*
X112005000Y-152566316D01*
X111088900Y-152566316D01*
X111088900Y-152458576D01*
X110987873Y-151950678D01*
X110789701Y-151472249D01*
X110502000Y-151041674D01*
X110135826Y-150675500D01*
X109705251Y-150387799D01*
X109226822Y-150189627D01*
X108718924Y-150088600D01*
X108201076Y-150088600D01*
X107693178Y-150189627D01*
X107214749Y-150387799D01*
X106784174Y-150675500D01*
X106418000Y-151041674D01*
X106130299Y-151472249D01*
X105932127Y-151950678D01*
X105831100Y-152458576D01*
X105535000Y-152458576D01*
X105535000Y-151724544D01*
X105783409Y-151558563D01*
X106031063Y-151310909D01*
X106225643Y-151019699D01*
X106359672Y-150696123D01*
X106428000Y-150352618D01*
X106428000Y-150002382D01*
X106359672Y-149658877D01*
X106225643Y-149335301D01*
X106031063Y-149044091D01*
X105783409Y-148796437D01*
X105492199Y-148601857D01*
X105168623Y-148467828D01*
X104825118Y-148399500D01*
X104474882Y-148399500D01*
X104131377Y-148467828D01*
X103807801Y-148601857D01*
X103516591Y-148796437D01*
X103268937Y-149044091D01*
X103074357Y-149335301D01*
X102940328Y-149658877D01*
X102872000Y-150002382D01*
X102872000Y-150352618D01*
X102940328Y-150696123D01*
X103074357Y-151019699D01*
X103188496Y-151190520D01*
X102932257Y-151241489D01*
X102652905Y-151357201D01*
X102401495Y-151525188D01*
X102187688Y-151738995D01*
X102019701Y-151990405D01*
X101903989Y-152269757D01*
X101845000Y-152566316D01*
X96075000Y-152566316D01*
X96016011Y-152269757D01*
X95900299Y-151990405D01*
X95732312Y-151738995D01*
X95518505Y-151525188D01*
X95267095Y-151357201D01*
X94987743Y-151241489D01*
X94691184Y-151182500D01*
X94388816Y-151182500D01*
X94092257Y-151241489D01*
X93812905Y-151357201D01*
X93561495Y-151525188D01*
X93347688Y-151738995D01*
X93179701Y-151990405D01*
X93063989Y-152269757D01*
X93005000Y-152566316D01*
X92088900Y-152566316D01*
X92088900Y-152458576D01*
X91987873Y-151950678D01*
X91789701Y-151472249D01*
X91502000Y-151041674D01*
X91135826Y-150675500D01*
X90705251Y-150387799D01*
X90226822Y-150189627D01*
X89718924Y-150088600D01*
X89201076Y-150088600D01*
X88693178Y-150189627D01*
X88214749Y-150387799D01*
X87784174Y-150675500D01*
X87418000Y-151041674D01*
X87130299Y-151472249D01*
X86932127Y-151950678D01*
X86831100Y-152458576D01*
X86410000Y-152458576D01*
X86410000Y-151787191D01*
X86492199Y-151753143D01*
X86783409Y-151558563D01*
X87031063Y-151310909D01*
X87225643Y-151019699D01*
X87359672Y-150696123D01*
X87428000Y-150352618D01*
X87428000Y-150002382D01*
X87359672Y-149658877D01*
X87225643Y-149335301D01*
X87031063Y-149044091D01*
X86783409Y-148796437D01*
X86492199Y-148601857D01*
X86168623Y-148467828D01*
X85825118Y-148399500D01*
X85474882Y-148399500D01*
X85131377Y-148467828D01*
X84807801Y-148601857D01*
X84516591Y-148796437D01*
X84268937Y-149044091D01*
X84074357Y-149335301D01*
X83940328Y-149658877D01*
X83872000Y-150002382D01*
X83872000Y-150352618D01*
X83940328Y-150696123D01*
X84074357Y-151019699D01*
X84188496Y-151190520D01*
X83932257Y-151241489D01*
X83652905Y-151357201D01*
X83401495Y-151525188D01*
X83187688Y-151738995D01*
X83019701Y-151990405D01*
X82903989Y-152269757D01*
X82845000Y-152566316D01*
X77115000Y-152566316D01*
X77056011Y-152269757D01*
X76940299Y-151990405D01*
X76772312Y-151738995D01*
X76558505Y-151525188D01*
X76307095Y-151357201D01*
X76027743Y-151241489D01*
X75731184Y-151182500D01*
X75428816Y-151182500D01*
X75132257Y-151241489D01*
X74852905Y-151357201D01*
X74601495Y-151525188D01*
X74387688Y-151738995D01*
X74219701Y-151990405D01*
X74103989Y-152269757D01*
X74045000Y-152566316D01*
X73128900Y-152566316D01*
X73128900Y-152458576D01*
X73027873Y-151950678D01*
X72829701Y-151472249D01*
X72542000Y-151041674D01*
X72175826Y-150675500D01*
X71745251Y-150387799D01*
X71266822Y-150189627D01*
X70758924Y-150088600D01*
X70241076Y-150088600D01*
X69733178Y-150189627D01*
X69254749Y-150387799D01*
X68824174Y-150675500D01*
X68458000Y-151041674D01*
X68170299Y-151472249D01*
X67972127Y-151950678D01*
X67871100Y-152458576D01*
X67450000Y-152458576D01*
X67450000Y-151787191D01*
X67532199Y-151753143D01*
X67823409Y-151558563D01*
X68071063Y-151310909D01*
X68265643Y-151019699D01*
X68399672Y-150696123D01*
X68468000Y-150352618D01*
X68468000Y-150002382D01*
X68399672Y-149658877D01*
X68265643Y-149335301D01*
X68071063Y-149044091D01*
X67823409Y-148796437D01*
X67532199Y-148601857D01*
X67208623Y-148467828D01*
X66865118Y-148399500D01*
X66514882Y-148399500D01*
X66171377Y-148467828D01*
X65847801Y-148601857D01*
X65556591Y-148796437D01*
X65308937Y-149044091D01*
X65114357Y-149335301D01*
X64980328Y-149658877D01*
X64912000Y-150002382D01*
X64912000Y-150352618D01*
X64980328Y-150696123D01*
X65114357Y-151019699D01*
X65228496Y-151190520D01*
X64972257Y-151241489D01*
X64692905Y-151357201D01*
X64441495Y-151525188D01*
X64227688Y-151738995D01*
X64059701Y-151990405D01*
X63943989Y-152269757D01*
X63885000Y-152566316D01*
X59160000Y-152566316D01*
X59160000Y-143458665D01*
X64865000Y-143458665D01*
X64865000Y-143741335D01*
X64920147Y-144018574D01*
X65028320Y-144279727D01*
X65185363Y-144514759D01*
X65385241Y-144714637D01*
X65620273Y-144871680D01*
X65881426Y-144979853D01*
X66158665Y-145035000D01*
X66441335Y-145035000D01*
X66718574Y-144979853D01*
X66979727Y-144871680D01*
X67214759Y-144714637D01*
X67414637Y-144514759D01*
X67432469Y-144488072D01*
X67433959Y-144488072D01*
X67469463Y-144554494D01*
X67548815Y-144651185D01*
X67645506Y-144730537D01*
X67755820Y-144789502D01*
X67875518Y-144825812D01*
X68000000Y-144838072D01*
X69600000Y-144838072D01*
X69724482Y-144825812D01*
X69844180Y-144789502D01*
X69954494Y-144730537D01*
X70051185Y-144651185D01*
X70130537Y-144554494D01*
X70189502Y-144444180D01*
X70200000Y-144409573D01*
X70210498Y-144444180D01*
X70269463Y-144554494D01*
X70348815Y-144651185D01*
X70445506Y-144730537D01*
X70555820Y-144789502D01*
X70675518Y-144825812D01*
X70800000Y-144838072D01*
X72400000Y-144838072D01*
X72524482Y-144825812D01*
X72644180Y-144789502D01*
X72754494Y-144730537D01*
X72755998Y-144729303D01*
X72769463Y-144754494D01*
X72848815Y-144851185D01*
X72945506Y-144930537D01*
X73055820Y-144989502D01*
X73175518Y-145025812D01*
X73300000Y-145038072D01*
X74564626Y-145038072D01*
X73640822Y-145961876D01*
X73558623Y-145927828D01*
X73215118Y-145859500D01*
X72864882Y-145859500D01*
X72521377Y-145927828D01*
X72197801Y-146061857D01*
X71906591Y-146256437D01*
X71658937Y-146504091D01*
X71464357Y-146795301D01*
X71330328Y-147118877D01*
X71262000Y-147462382D01*
X71262000Y-147812618D01*
X71330328Y-148156123D01*
X71464357Y-148479699D01*
X71658937Y-148770909D01*
X71906591Y-149018563D01*
X72197801Y-149213143D01*
X72521377Y-149347172D01*
X72864882Y-149415500D01*
X73215118Y-149415500D01*
X73558623Y-149347172D01*
X73882199Y-149213143D01*
X74173409Y-149018563D01*
X74421063Y-148770909D01*
X74615643Y-148479699D01*
X74749672Y-148156123D01*
X74818000Y-147812618D01*
X74818000Y-147462382D01*
X74749672Y-147118877D01*
X74715624Y-147036678D01*
X75863799Y-145888503D01*
X75863800Y-145888501D01*
X76811004Y-144941298D01*
X76840001Y-144917501D01*
X76934974Y-144801776D01*
X77005546Y-144669747D01*
X77049003Y-144526486D01*
X77060000Y-144414833D01*
X77060000Y-144414824D01*
X77063676Y-144377501D01*
X77060000Y-144340178D01*
X77060000Y-138837333D01*
X77063677Y-138800000D01*
X77049003Y-138651014D01*
X77005546Y-138507753D01*
X76934974Y-138375724D01*
X76863799Y-138288997D01*
X76840001Y-138259999D01*
X76811003Y-138236201D01*
X74360000Y-135785199D01*
X74360000Y-134659516D01*
X74372688Y-134678505D01*
X74461928Y-134767745D01*
X74461928Y-135400000D01*
X74474188Y-135524482D01*
X74510498Y-135644180D01*
X74569463Y-135754494D01*
X74648815Y-135851185D01*
X74745506Y-135930537D01*
X74855820Y-135989502D01*
X74975518Y-136025812D01*
X75100000Y-136038072D01*
X77100000Y-136038072D01*
X77224482Y-136025812D01*
X77344180Y-135989502D01*
X77454494Y-135930537D01*
X77551185Y-135851185D01*
X77630537Y-135754494D01*
X77689502Y-135644180D01*
X77725812Y-135524482D01*
X77738072Y-135400000D01*
X77738072Y-133516316D01*
X82845000Y-133516316D01*
X82845000Y-133818684D01*
X82903989Y-134115243D01*
X83019701Y-134394595D01*
X83187688Y-134646005D01*
X83401495Y-134859812D01*
X83652905Y-135027799D01*
X83932257Y-135143511D01*
X84228816Y-135202500D01*
X84531184Y-135202500D01*
X84827743Y-135143511D01*
X84890000Y-135117723D01*
X84890001Y-142299438D01*
X84820273Y-142328320D01*
X84585241Y-142485363D01*
X84385363Y-142685241D01*
X84228320Y-142920273D01*
X84120147Y-143181426D01*
X84065000Y-143458665D01*
X84065000Y-143741335D01*
X84120147Y-144018574D01*
X84228320Y-144279727D01*
X84385363Y-144514759D01*
X84585241Y-144714637D01*
X84820273Y-144871680D01*
X85081426Y-144979853D01*
X85358665Y-145035000D01*
X85641335Y-145035000D01*
X85918574Y-144979853D01*
X86179727Y-144871680D01*
X86414759Y-144714637D01*
X86614637Y-144514759D01*
X86632469Y-144488072D01*
X86633959Y-144488072D01*
X86669463Y-144554494D01*
X86748815Y-144651185D01*
X86845506Y-144730537D01*
X86955820Y-144789502D01*
X87075518Y-144825812D01*
X87200000Y-144838072D01*
X88800000Y-144838072D01*
X88924482Y-144825812D01*
X89044180Y-144789502D01*
X89154494Y-144730537D01*
X89251185Y-144651185D01*
X89330537Y-144554494D01*
X89389502Y-144444180D01*
X89400000Y-144409573D01*
X89410498Y-144444180D01*
X89469463Y-144554494D01*
X89548815Y-144651185D01*
X89645506Y-144730537D01*
X89755820Y-144789502D01*
X89875518Y-144825812D01*
X90000000Y-144838072D01*
X91600000Y-144838072D01*
X91724482Y-144825812D01*
X91844180Y-144789502D01*
X91954494Y-144730537D01*
X91955998Y-144729303D01*
X91969463Y-144754494D01*
X92048815Y-144851185D01*
X92145506Y-144930537D01*
X92255820Y-144989502D01*
X92375518Y-145025812D01*
X92500000Y-145038072D01*
X93524626Y-145038072D01*
X92600823Y-145961876D01*
X92518623Y-145927828D01*
X92175118Y-145859500D01*
X91824882Y-145859500D01*
X91481377Y-145927828D01*
X91157801Y-146061857D01*
X90866591Y-146256437D01*
X90618937Y-146504091D01*
X90424357Y-146795301D01*
X90290328Y-147118877D01*
X90222000Y-147462382D01*
X90222000Y-147812618D01*
X90290328Y-148156123D01*
X90424357Y-148479699D01*
X90618937Y-148770909D01*
X90866591Y-149018563D01*
X91157801Y-149213143D01*
X91481377Y-149347172D01*
X91824882Y-149415500D01*
X92175118Y-149415500D01*
X92518623Y-149347172D01*
X92842199Y-149213143D01*
X93133409Y-149018563D01*
X93381063Y-148770909D01*
X93575643Y-148479699D01*
X93709672Y-148156123D01*
X93778000Y-147812618D01*
X93778000Y-147462382D01*
X93709672Y-147118877D01*
X93675624Y-147036677D01*
X95911004Y-144801298D01*
X95940001Y-144777501D01*
X95991592Y-144714637D01*
X96034974Y-144661777D01*
X96105546Y-144529747D01*
X96120473Y-144480537D01*
X96149003Y-144386486D01*
X96160000Y-144274833D01*
X96160000Y-144274824D01*
X96163676Y-144237501D01*
X96160000Y-144200178D01*
X96160000Y-137437322D01*
X96163676Y-137399999D01*
X96160000Y-137362676D01*
X96160000Y-137362667D01*
X96149003Y-137251014D01*
X96105546Y-137107753D01*
X96103506Y-137103937D01*
X96034974Y-136975723D01*
X95963799Y-136888997D01*
X95940001Y-136859999D01*
X95911003Y-136836201D01*
X94249612Y-135174811D01*
X94388816Y-135202500D01*
X94691184Y-135202500D01*
X94987743Y-135143511D01*
X95267095Y-135027799D01*
X95518505Y-134859812D01*
X95732312Y-134646005D01*
X95900299Y-134394595D01*
X96016011Y-134115243D01*
X96075000Y-133818684D01*
X96075000Y-133516316D01*
X96016011Y-133219757D01*
X95900299Y-132940405D01*
X95732312Y-132688995D01*
X95518505Y-132475188D01*
X95267095Y-132307201D01*
X94987743Y-132191489D01*
X94691184Y-132132500D01*
X94388816Y-132132500D01*
X94092257Y-132191489D01*
X93812905Y-132307201D01*
X93561495Y-132475188D01*
X93347688Y-132688995D01*
X93179701Y-132940405D01*
X93063989Y-133219757D01*
X93005000Y-133516316D01*
X93005000Y-133818684D01*
X93032689Y-133957888D01*
X92760000Y-133685199D01*
X92760000Y-130197191D01*
X92842199Y-130163143D01*
X93133409Y-129968563D01*
X93381063Y-129720909D01*
X93575643Y-129429699D01*
X93709672Y-129106123D01*
X93778000Y-128762618D01*
X93778000Y-128412382D01*
X93709672Y-128068877D01*
X93575643Y-127745301D01*
X93381063Y-127454091D01*
X93133409Y-127206437D01*
X92842199Y-127011857D01*
X92518623Y-126877828D01*
X92175118Y-126809500D01*
X91824882Y-126809500D01*
X91481377Y-126877828D01*
X91157801Y-127011857D01*
X90866591Y-127206437D01*
X90618937Y-127454091D01*
X90424357Y-127745301D01*
X90290328Y-128068877D01*
X90222000Y-128412382D01*
X90222000Y-128762618D01*
X90290328Y-129106123D01*
X90424357Y-129429699D01*
X90618937Y-129720909D01*
X90866591Y-129968563D01*
X91157801Y-130163143D01*
X91240001Y-130197191D01*
X91240000Y-131729674D01*
X91135826Y-131625500D01*
X90705251Y-131337799D01*
X90226822Y-131139627D01*
X89718924Y-131038600D01*
X89201076Y-131038600D01*
X88693178Y-131139627D01*
X88214749Y-131337799D01*
X87784174Y-131625500D01*
X87418000Y-131991674D01*
X87130299Y-132422249D01*
X86932127Y-132900678D01*
X86831100Y-133408576D01*
X86831100Y-133926424D01*
X86932127Y-134434322D01*
X87130299Y-134912751D01*
X87418000Y-135343326D01*
X87784174Y-135709500D01*
X88214749Y-135997201D01*
X88693178Y-136195373D01*
X89201076Y-136296400D01*
X89718924Y-136296400D01*
X90226822Y-136195373D01*
X90705251Y-135997201D01*
X91135826Y-135709500D01*
X91502000Y-135343326D01*
X91789701Y-134912751D01*
X91803833Y-134878634D01*
X94640001Y-137714803D01*
X94640000Y-142463210D01*
X94630537Y-142445506D01*
X94551185Y-142348815D01*
X94454494Y-142269463D01*
X94344180Y-142210498D01*
X94224482Y-142174188D01*
X94100000Y-142161928D01*
X92500000Y-142161928D01*
X92375518Y-142174188D01*
X92255820Y-142210498D01*
X92145506Y-142269463D01*
X92048815Y-142348815D01*
X91969463Y-142445506D01*
X91955998Y-142470697D01*
X91954494Y-142469463D01*
X91844180Y-142410498D01*
X91724482Y-142374188D01*
X91600000Y-142361928D01*
X90000000Y-142361928D01*
X89875518Y-142374188D01*
X89755820Y-142410498D01*
X89645506Y-142469463D01*
X89548815Y-142548815D01*
X89469463Y-142645506D01*
X89410498Y-142755820D01*
X89400000Y-142790427D01*
X89389502Y-142755820D01*
X89330537Y-142645506D01*
X89251185Y-142548815D01*
X89154494Y-142469463D01*
X89044180Y-142410498D01*
X88924482Y-142374188D01*
X88800000Y-142361928D01*
X87200000Y-142361928D01*
X87075518Y-142374188D01*
X86955820Y-142410498D01*
X86845506Y-142469463D01*
X86748815Y-142548815D01*
X86669463Y-142645506D01*
X86633959Y-142711928D01*
X86632469Y-142711928D01*
X86614637Y-142685241D01*
X86414759Y-142485363D01*
X86410000Y-142482183D01*
X86410000Y-132737191D01*
X86492199Y-132703143D01*
X86783409Y-132508563D01*
X87031063Y-132260909D01*
X87225643Y-131969699D01*
X87359672Y-131646123D01*
X87428000Y-131302618D01*
X87428000Y-130952382D01*
X87359672Y-130608877D01*
X87225643Y-130285301D01*
X87031063Y-129994091D01*
X86783409Y-129746437D01*
X86492199Y-129551857D01*
X86168623Y-129417828D01*
X85825118Y-129349500D01*
X85474882Y-129349500D01*
X85131377Y-129417828D01*
X84807801Y-129551857D01*
X84516591Y-129746437D01*
X84268937Y-129994091D01*
X84074357Y-130285301D01*
X83940328Y-130608877D01*
X83872000Y-130952382D01*
X83872000Y-131302618D01*
X83940328Y-131646123D01*
X84074357Y-131969699D01*
X84188496Y-132140520D01*
X83932257Y-132191489D01*
X83652905Y-132307201D01*
X83401495Y-132475188D01*
X83187688Y-132688995D01*
X83019701Y-132940405D01*
X82903989Y-133219757D01*
X82845000Y-133516316D01*
X77738072Y-133516316D01*
X77738072Y-132200000D01*
X77725812Y-132075518D01*
X77689502Y-131955820D01*
X77630537Y-131845506D01*
X77551185Y-131748815D01*
X77454494Y-131669463D01*
X77344180Y-131610498D01*
X77224482Y-131574188D01*
X77100000Y-131561928D01*
X75100000Y-131561928D01*
X74975518Y-131574188D01*
X74855820Y-131610498D01*
X74745506Y-131669463D01*
X74648815Y-131748815D01*
X74569463Y-131845506D01*
X74510498Y-131955820D01*
X74474188Y-132075518D01*
X74461928Y-132200000D01*
X74461928Y-132632255D01*
X74372688Y-132721495D01*
X74360000Y-132740484D01*
X74360000Y-129799472D01*
X74406063Y-129753409D01*
X74600643Y-129462199D01*
X74734672Y-129138623D01*
X74803000Y-128795118D01*
X74803000Y-128444882D01*
X74734672Y-128101377D01*
X74600643Y-127777801D01*
X74454987Y-127559811D01*
X74572168Y-127276912D01*
X74635000Y-126961033D01*
X74635000Y-126638967D01*
X74572168Y-126323088D01*
X74448918Y-126025537D01*
X74269987Y-125757748D01*
X74042252Y-125530013D01*
X73774463Y-125351082D01*
X73476912Y-125227832D01*
X73161033Y-125165000D01*
X72838967Y-125165000D01*
X72523088Y-125227832D01*
X72225537Y-125351082D01*
X71957748Y-125530013D01*
X71730013Y-125757748D01*
X71551082Y-126025537D01*
X71427832Y-126323088D01*
X71365000Y-126638967D01*
X71365000Y-126961033D01*
X71427832Y-127276912D01*
X71551082Y-127574463D01*
X71568152Y-127600011D01*
X71449357Y-127777801D01*
X71315328Y-128101377D01*
X71247000Y-128444882D01*
X71247000Y-128795118D01*
X71315328Y-129138623D01*
X71449357Y-129462199D01*
X71643937Y-129753409D01*
X71891591Y-130001063D01*
X72182801Y-130195643D01*
X72506377Y-130329672D01*
X72840001Y-130396034D01*
X72840001Y-132515827D01*
X72814701Y-132454749D01*
X72527000Y-132024174D01*
X72160826Y-131658000D01*
X71730251Y-131370299D01*
X71251822Y-131172127D01*
X70743924Y-131071100D01*
X70226076Y-131071100D01*
X69718178Y-131172127D01*
X69239749Y-131370299D01*
X68809174Y-131658000D01*
X68443000Y-132024174D01*
X68155299Y-132454749D01*
X67957127Y-132933178D01*
X67856100Y-133441076D01*
X67856100Y-133958924D01*
X67957127Y-134466822D01*
X68155299Y-134945251D01*
X68443000Y-135375826D01*
X68809174Y-135742000D01*
X69239749Y-136029701D01*
X69718178Y-136227873D01*
X70226076Y-136328900D01*
X70743924Y-136328900D01*
X71251822Y-136227873D01*
X71730251Y-136029701D01*
X72160826Y-135742000D01*
X72527000Y-135375826D01*
X72814701Y-134945251D01*
X72840000Y-134884173D01*
X72840000Y-136062677D01*
X72836324Y-136100000D01*
X72840000Y-136137322D01*
X72840000Y-136137332D01*
X72850997Y-136248985D01*
X72875239Y-136328900D01*
X72894454Y-136392246D01*
X72965026Y-136524276D01*
X73004871Y-136572826D01*
X73059999Y-136640001D01*
X73089003Y-136663804D01*
X75540001Y-139114803D01*
X75540000Y-144062698D01*
X75538072Y-144064626D01*
X75538072Y-142800000D01*
X75525812Y-142675518D01*
X75489502Y-142555820D01*
X75430537Y-142445506D01*
X75351185Y-142348815D01*
X75254494Y-142269463D01*
X75144180Y-142210498D01*
X75024482Y-142174188D01*
X74900000Y-142161928D01*
X74390476Y-142161928D01*
X74448918Y-142074463D01*
X74572168Y-141776912D01*
X74635000Y-141461033D01*
X74635000Y-141138967D01*
X74572168Y-140823088D01*
X74448918Y-140525537D01*
X74269987Y-140257748D01*
X74042252Y-140030013D01*
X73774463Y-139851082D01*
X73476912Y-139727832D01*
X73161033Y-139665000D01*
X72838967Y-139665000D01*
X72523088Y-139727832D01*
X72225537Y-139851082D01*
X71957748Y-140030013D01*
X71730013Y-140257748D01*
X71665075Y-140354935D01*
X71635413Y-140344192D01*
X70679605Y-141300000D01*
X70693748Y-141314143D01*
X70514143Y-141493748D01*
X70500000Y-141479605D01*
X70485858Y-141493748D01*
X70306253Y-141314143D01*
X70320395Y-141300000D01*
X70306253Y-141285858D01*
X70485858Y-141106253D01*
X70500000Y-141120395D01*
X71455808Y-140164587D01*
X71360044Y-139900186D01*
X71070429Y-139759296D01*
X70758892Y-139677616D01*
X70437405Y-139658282D01*
X70118325Y-139702039D01*
X69813912Y-139807205D01*
X69639956Y-139900186D01*
X69585976Y-140049223D01*
X69530537Y-139945506D01*
X69451185Y-139848815D01*
X69354494Y-139769463D01*
X69244180Y-139710498D01*
X69124482Y-139674188D01*
X69000000Y-139661928D01*
X67000000Y-139661928D01*
X66875518Y-139674188D01*
X66755820Y-139710498D01*
X66645506Y-139769463D01*
X66548815Y-139848815D01*
X66469463Y-139945506D01*
X66410498Y-140055820D01*
X66374188Y-140175518D01*
X66361928Y-140300000D01*
X66361928Y-142165000D01*
X66158665Y-142165000D01*
X65881426Y-142220147D01*
X65620273Y-142328320D01*
X65385241Y-142485363D01*
X65185363Y-142685241D01*
X65028320Y-142920273D01*
X64920147Y-143181426D01*
X64865000Y-143458665D01*
X59160000Y-143458665D01*
X59160000Y-132200000D01*
X63261928Y-132200000D01*
X63261928Y-135400000D01*
X63274188Y-135524482D01*
X63310498Y-135644180D01*
X63369463Y-135754494D01*
X63448815Y-135851185D01*
X63545506Y-135930537D01*
X63655820Y-135989502D01*
X63775518Y-136025812D01*
X63900000Y-136038072D01*
X65900000Y-136038072D01*
X66024482Y-136025812D01*
X66144180Y-135989502D01*
X66254494Y-135930537D01*
X66351185Y-135851185D01*
X66430537Y-135754494D01*
X66489502Y-135644180D01*
X66525812Y-135524482D01*
X66538072Y-135400000D01*
X66538072Y-134737745D01*
X66597312Y-134678505D01*
X66765299Y-134427095D01*
X66881011Y-134147743D01*
X66940000Y-133851184D01*
X66940000Y-133548816D01*
X66881011Y-133252257D01*
X66765299Y-132972905D01*
X66741976Y-132938000D01*
X66850118Y-132938000D01*
X67193623Y-132869672D01*
X67517199Y-132735643D01*
X67808409Y-132541063D01*
X68056063Y-132293409D01*
X68250643Y-132002199D01*
X68384672Y-131678623D01*
X68453000Y-131335118D01*
X68453000Y-130984882D01*
X68384672Y-130641377D01*
X68350624Y-130559178D01*
X68511003Y-130398799D01*
X68540001Y-130375001D01*
X68566332Y-130342917D01*
X68634974Y-130259277D01*
X68705546Y-130127247D01*
X68749003Y-129983986D01*
X68760000Y-129872333D01*
X68760000Y-129872323D01*
X68763676Y-129835000D01*
X68760000Y-129797677D01*
X68760000Y-128254909D01*
X68774463Y-128248918D01*
X69042252Y-128069987D01*
X69269987Y-127842252D01*
X69448918Y-127574463D01*
X69572168Y-127276912D01*
X69635000Y-126961033D01*
X69635000Y-126638967D01*
X69572168Y-126323088D01*
X69448918Y-126025537D01*
X69269987Y-125757748D01*
X69042252Y-125530013D01*
X68774463Y-125351082D01*
X68476912Y-125227832D01*
X68161033Y-125165000D01*
X67838967Y-125165000D01*
X67523088Y-125227832D01*
X67225537Y-125351082D01*
X66957748Y-125530013D01*
X66730013Y-125757748D01*
X66551082Y-126025537D01*
X66427832Y-126323088D01*
X66365000Y-126638967D01*
X66365000Y-126961033D01*
X66427832Y-127276912D01*
X66551082Y-127574463D01*
X66730013Y-127842252D01*
X66957748Y-128069987D01*
X67225537Y-128248918D01*
X67240000Y-128254909D01*
X67240001Y-129469538D01*
X67193623Y-129450328D01*
X66850118Y-129382000D01*
X66499882Y-129382000D01*
X66156377Y-129450328D01*
X65832801Y-129584357D01*
X65541591Y-129778937D01*
X65293937Y-130026591D01*
X65099357Y-130317801D01*
X64965328Y-130641377D01*
X64897000Y-130984882D01*
X64897000Y-131335118D01*
X64942116Y-131561928D01*
X63900000Y-131561928D01*
X63775518Y-131574188D01*
X63655820Y-131610498D01*
X63545506Y-131669463D01*
X63448815Y-131748815D01*
X63369463Y-131845506D01*
X63310498Y-131955820D01*
X63274188Y-132075518D01*
X63261928Y-132200000D01*
X59160000Y-132200000D01*
X59160000Y-120800000D01*
X65161928Y-120800000D01*
X65161928Y-121800000D01*
X65174188Y-121924482D01*
X65210498Y-122044180D01*
X65269463Y-122154494D01*
X65348815Y-122251185D01*
X65445506Y-122330537D01*
X65555820Y-122389502D01*
X65675518Y-122425812D01*
X65800000Y-122438072D01*
X67300000Y-122438072D01*
X67424482Y-122425812D01*
X67544180Y-122389502D01*
X67654494Y-122330537D01*
X67751185Y-122251185D01*
X67830537Y-122154494D01*
X67889502Y-122044180D01*
X67912634Y-121967923D01*
X67974276Y-121934974D01*
X68090001Y-121840001D01*
X68113804Y-121810997D01*
X69164802Y-120760000D01*
X70065868Y-120760000D01*
X70061928Y-120800000D01*
X70061928Y-121800000D01*
X70074188Y-121924482D01*
X70110498Y-122044180D01*
X70169463Y-122154494D01*
X70248815Y-122251185D01*
X70345506Y-122330537D01*
X70455820Y-122389502D01*
X70575518Y-122425812D01*
X70694949Y-122437574D01*
X70700997Y-122498985D01*
X70731639Y-122599999D01*
X70744454Y-122642246D01*
X70815026Y-122774276D01*
X70838766Y-122803203D01*
X70909999Y-122890001D01*
X70939003Y-122913804D01*
X72136200Y-124111002D01*
X72159999Y-124140001D01*
X72188997Y-124163799D01*
X72275723Y-124234974D01*
X72381449Y-124291486D01*
X72407753Y-124305546D01*
X72551014Y-124349003D01*
X72662667Y-124360000D01*
X72662677Y-124360000D01*
X72700000Y-124363676D01*
X72737323Y-124360000D01*
X109546201Y-124360000D01*
X110375264Y-125189063D01*
X110225537Y-125251082D01*
X109957748Y-125430013D01*
X109730013Y-125657748D01*
X109551082Y-125925537D01*
X109427832Y-126223088D01*
X109365000Y-126538967D01*
X109365000Y-126861033D01*
X109427832Y-127176912D01*
X109551082Y-127474463D01*
X109598203Y-127544985D01*
X109464357Y-127745301D01*
X109330328Y-128068877D01*
X109262000Y-128412382D01*
X109262000Y-128762618D01*
X109330328Y-129106123D01*
X109464357Y-129429699D01*
X109658937Y-129720909D01*
X109906591Y-129968563D01*
X110197801Y-130163143D01*
X110280001Y-130197191D01*
X110280001Y-131729675D01*
X110175826Y-131625500D01*
X109745251Y-131337799D01*
X109266822Y-131139627D01*
X108758924Y-131038600D01*
X108241076Y-131038600D01*
X107733178Y-131139627D01*
X107254749Y-131337799D01*
X106824174Y-131625500D01*
X106458000Y-131991674D01*
X106170299Y-132422249D01*
X105972127Y-132900678D01*
X105871100Y-133408576D01*
X105871100Y-133926424D01*
X105972127Y-134434322D01*
X106170299Y-134912751D01*
X106458000Y-135343326D01*
X106824174Y-135709500D01*
X107254749Y-135997201D01*
X107733178Y-136195373D01*
X108241076Y-136296400D01*
X108758924Y-136296400D01*
X109266822Y-136195373D01*
X109745251Y-135997201D01*
X110175826Y-135709500D01*
X110412249Y-135473077D01*
X110431113Y-135496063D01*
X110499999Y-135580001D01*
X110529003Y-135603804D01*
X113502501Y-138577303D01*
X113502500Y-142408861D01*
X113454494Y-142369463D01*
X113344180Y-142310498D01*
X113224482Y-142274188D01*
X113100000Y-142261928D01*
X112250311Y-142261928D01*
X112269987Y-142242252D01*
X112448918Y-141974463D01*
X112572168Y-141676912D01*
X112635000Y-141361033D01*
X112635000Y-141038967D01*
X112572168Y-140723088D01*
X112448918Y-140425537D01*
X112269987Y-140157748D01*
X112042252Y-139930013D01*
X111774463Y-139751082D01*
X111476912Y-139627832D01*
X111161033Y-139565000D01*
X110838967Y-139565000D01*
X110523088Y-139627832D01*
X110225537Y-139751082D01*
X109957748Y-139930013D01*
X109730013Y-140157748D01*
X109665075Y-140254935D01*
X109635413Y-140244192D01*
X108679605Y-141200000D01*
X109635413Y-142155808D01*
X109665075Y-142145065D01*
X109730013Y-142242252D01*
X109949689Y-142461928D01*
X109409985Y-142461928D01*
X109455808Y-142335413D01*
X108500000Y-141379605D01*
X108485858Y-141393748D01*
X108306253Y-141214143D01*
X108320395Y-141200000D01*
X108306253Y-141185858D01*
X108485858Y-141006253D01*
X108500000Y-141020395D01*
X109455808Y-140064587D01*
X109360044Y-139800186D01*
X109070429Y-139659296D01*
X108758892Y-139577616D01*
X108437405Y-139558282D01*
X108118325Y-139602039D01*
X107813912Y-139707205D01*
X107639956Y-139800186D01*
X107585976Y-139949223D01*
X107530537Y-139845506D01*
X107451185Y-139748815D01*
X107354494Y-139669463D01*
X107244180Y-139610498D01*
X107124482Y-139574188D01*
X107000000Y-139561928D01*
X105450000Y-139561928D01*
X105450000Y-132737191D01*
X105532199Y-132703143D01*
X105823409Y-132508563D01*
X106071063Y-132260909D01*
X106265643Y-131969699D01*
X106399672Y-131646123D01*
X106468000Y-131302618D01*
X106468000Y-130952382D01*
X106399672Y-130608877D01*
X106265643Y-130285301D01*
X106071063Y-129994091D01*
X105823409Y-129746437D01*
X105532199Y-129551857D01*
X105450000Y-129517809D01*
X105450000Y-128324801D01*
X105508624Y-128266177D01*
X105523088Y-128272168D01*
X105838967Y-128335000D01*
X106161033Y-128335000D01*
X106476912Y-128272168D01*
X106774463Y-128148918D01*
X107042252Y-127969987D01*
X107269987Y-127742252D01*
X107448918Y-127474463D01*
X107572168Y-127176912D01*
X107635000Y-126861033D01*
X107635000Y-126538967D01*
X107572168Y-126223088D01*
X107448918Y-125925537D01*
X107269987Y-125657748D01*
X107042252Y-125430013D01*
X106774463Y-125251082D01*
X106476912Y-125127832D01*
X106161033Y-125065000D01*
X105838967Y-125065000D01*
X105523088Y-125127832D01*
X105225537Y-125251082D01*
X104957748Y-125430013D01*
X104730013Y-125657748D01*
X104551082Y-125925537D01*
X104427832Y-126223088D01*
X104365000Y-126538967D01*
X104365000Y-126861033D01*
X104427832Y-127176912D01*
X104433823Y-127191376D01*
X104179003Y-127446196D01*
X104149999Y-127469999D01*
X104094871Y-127537174D01*
X104055026Y-127585724D01*
X104022862Y-127645898D01*
X103984454Y-127717754D01*
X103940997Y-127861015D01*
X103930000Y-127972668D01*
X103930000Y-127972678D01*
X103926324Y-128010000D01*
X103930000Y-128047323D01*
X103930000Y-129517809D01*
X103847801Y-129551857D01*
X103556591Y-129746437D01*
X103308937Y-129994091D01*
X103114357Y-130285301D01*
X102980328Y-130608877D01*
X102912000Y-130952382D01*
X102912000Y-131302618D01*
X102943689Y-131461928D01*
X101900000Y-131461928D01*
X101775518Y-131474188D01*
X101655820Y-131510498D01*
X101545506Y-131569463D01*
X101448815Y-131648815D01*
X101369463Y-131745506D01*
X101310498Y-131855820D01*
X101274188Y-131975518D01*
X101261928Y-132100000D01*
X101261928Y-135300000D01*
X101274188Y-135424482D01*
X101310498Y-135544180D01*
X101369463Y-135654494D01*
X101448815Y-135751185D01*
X101545506Y-135830537D01*
X101655820Y-135889502D01*
X101775518Y-135925812D01*
X101900000Y-135938072D01*
X103900000Y-135938072D01*
X103930001Y-135935117D01*
X103930001Y-139611550D01*
X103916639Y-139627832D01*
X103865026Y-139690722D01*
X103832763Y-139751082D01*
X103794454Y-139822752D01*
X103750997Y-139966013D01*
X103740000Y-140077666D01*
X103740000Y-140077676D01*
X103736324Y-140114998D01*
X103740000Y-140152321D01*
X103740001Y-142481956D01*
X103585241Y-142585363D01*
X103385363Y-142785241D01*
X103228320Y-143020273D01*
X103120147Y-143281426D01*
X103065000Y-143558665D01*
X103065000Y-143841335D01*
X103120147Y-144118574D01*
X103228320Y-144379727D01*
X103385363Y-144614759D01*
X103585241Y-144814637D01*
X103820273Y-144971680D01*
X104081426Y-145079853D01*
X104358665Y-145135000D01*
X104641335Y-145135000D01*
X104918574Y-145079853D01*
X105179727Y-144971680D01*
X105414759Y-144814637D01*
X105614637Y-144614759D01*
X105632469Y-144588072D01*
X105633959Y-144588072D01*
X105669463Y-144654494D01*
X105748815Y-144751185D01*
X105845506Y-144830537D01*
X105955820Y-144889502D01*
X106075518Y-144925812D01*
X106200000Y-144938072D01*
X107800000Y-144938072D01*
X107924482Y-144925812D01*
X108044180Y-144889502D01*
X108154494Y-144830537D01*
X108251185Y-144751185D01*
X108330537Y-144654494D01*
X108389502Y-144544180D01*
X108400000Y-144509573D01*
X108410498Y-144544180D01*
X108469463Y-144654494D01*
X108548815Y-144751185D01*
X108645506Y-144830537D01*
X108755820Y-144889502D01*
X108875518Y-144925812D01*
X109000000Y-144938072D01*
X110600000Y-144938072D01*
X110724482Y-144925812D01*
X110844180Y-144889502D01*
X110954494Y-144830537D01*
X110955998Y-144829303D01*
X110969463Y-144854494D01*
X111048815Y-144951185D01*
X111145506Y-145030537D01*
X111255820Y-145089502D01*
X111375518Y-145125812D01*
X111500000Y-145138072D01*
X112549626Y-145138072D01*
X111689211Y-145998488D01*
X111518623Y-145927828D01*
X111175118Y-145859500D01*
X110824882Y-145859500D01*
X110481377Y-145927828D01*
X110157801Y-146061857D01*
X109866591Y-146256437D01*
X109618937Y-146504091D01*
X109424357Y-146795301D01*
X109290328Y-147118877D01*
X109222000Y-147462382D01*
X109222000Y-147812618D01*
X109290328Y-148156123D01*
X109424357Y-148479699D01*
X109618937Y-148770909D01*
X109866591Y-149018563D01*
X110157801Y-149213143D01*
X110481377Y-149347172D01*
X110824882Y-149415500D01*
X111175118Y-149415500D01*
X111518623Y-149347172D01*
X111842199Y-149213143D01*
X112133409Y-149018563D01*
X112381063Y-148770909D01*
X112575643Y-148479699D01*
X112709672Y-148156123D01*
X112778000Y-147812618D01*
X112778000Y-147462382D01*
X112711124Y-147126177D01*
X114773504Y-145063798D01*
X114802501Y-145040001D01*
X114834363Y-145001177D01*
X114897474Y-144924277D01*
X114968046Y-144792247D01*
X114981315Y-144748503D01*
X115011503Y-144648986D01*
X115022500Y-144537333D01*
X115022500Y-144537324D01*
X115026176Y-144500001D01*
X115022500Y-144462678D01*
X115022500Y-138299822D01*
X115026176Y-138262499D01*
X115022500Y-138225176D01*
X115022500Y-138225167D01*
X115011503Y-138113514D01*
X114968046Y-137970253D01*
X114897474Y-137838224D01*
X114802501Y-137722499D01*
X114773503Y-137698701D01*
X113003355Y-135928554D01*
X113100000Y-135938072D01*
X115100000Y-135938072D01*
X115224482Y-135925812D01*
X115344180Y-135889502D01*
X115454494Y-135830537D01*
X115551185Y-135751185D01*
X115630537Y-135654494D01*
X115689502Y-135544180D01*
X115725812Y-135424482D01*
X115738072Y-135300000D01*
X115738072Y-132100000D01*
X115725812Y-131975518D01*
X115689502Y-131855820D01*
X115630537Y-131745506D01*
X115551185Y-131648815D01*
X115454494Y-131569463D01*
X115344180Y-131510498D01*
X115224482Y-131474188D01*
X115100000Y-131461928D01*
X113100000Y-131461928D01*
X112975518Y-131474188D01*
X112855820Y-131510498D01*
X112745506Y-131569463D01*
X112648815Y-131648815D01*
X112569463Y-131745506D01*
X112510498Y-131855820D01*
X112474188Y-131975518D01*
X112461928Y-132100000D01*
X112461928Y-132614755D01*
X112387688Y-132688995D01*
X112219701Y-132940405D01*
X112103989Y-133219757D01*
X112045000Y-133516316D01*
X112045000Y-133818684D01*
X112103989Y-134115243D01*
X112219701Y-134394595D01*
X112387688Y-134646005D01*
X112461928Y-134720245D01*
X112461928Y-135300000D01*
X112471446Y-135396645D01*
X111800000Y-134725199D01*
X111800000Y-130197191D01*
X111882199Y-130163143D01*
X112173409Y-129968563D01*
X112421063Y-129720909D01*
X112615643Y-129429699D01*
X112749672Y-129106123D01*
X112818000Y-128762618D01*
X112818000Y-128412382D01*
X112749672Y-128068877D01*
X112615643Y-127745301D01*
X112441797Y-127485121D01*
X112448918Y-127474463D01*
X112510937Y-127324736D01*
X115940001Y-130753801D01*
X115940000Y-149012678D01*
X115936324Y-149050000D01*
X115940000Y-149087322D01*
X115940000Y-149087332D01*
X115950997Y-149198985D01*
X115992347Y-149335301D01*
X115994454Y-149342246D01*
X116065026Y-149474276D01*
X116104871Y-149522826D01*
X116159999Y-149590001D01*
X116189003Y-149613804D01*
X124261928Y-157686730D01*
X124261928Y-158600000D01*
X124274188Y-158724482D01*
X124310498Y-158844180D01*
X124369463Y-158954494D01*
X124448815Y-159051185D01*
X124545506Y-159130537D01*
X124655820Y-159189502D01*
X124775518Y-159225812D01*
X124900000Y-159238072D01*
X126400000Y-159238072D01*
X126524482Y-159225812D01*
X126540001Y-159221104D01*
X126540001Y-160178896D01*
X126524482Y-160174188D01*
X126400000Y-160161928D01*
X124900000Y-160161928D01*
X124775518Y-160174188D01*
X124655820Y-160210498D01*
X124545506Y-160269463D01*
X124448815Y-160348815D01*
X124369463Y-160445506D01*
X124310498Y-160555820D01*
X124274188Y-160675518D01*
X124261928Y-160800000D01*
X124261928Y-161800000D01*
X124274188Y-161924482D01*
X124310498Y-162044180D01*
X124369463Y-162154494D01*
X124448815Y-162251185D01*
X124545506Y-162330537D01*
X124655820Y-162389502D01*
X124775518Y-162425812D01*
X124900000Y-162438072D01*
X126400000Y-162438072D01*
X126524482Y-162425812D01*
X126644180Y-162389502D01*
X126754494Y-162330537D01*
X126851185Y-162251185D01*
X126930537Y-162154494D01*
X126989502Y-162044180D01*
X127002958Y-161999821D01*
X127124276Y-161934974D01*
X127240001Y-161840001D01*
X127263803Y-161810998D01*
X127811002Y-161263800D01*
X127840001Y-161240001D01*
X127866332Y-161207917D01*
X127934974Y-161124277D01*
X128005546Y-160992247D01*
X128019724Y-160945506D01*
X128049003Y-160848986D01*
X128060000Y-160737333D01*
X128060000Y-160737324D01*
X128063676Y-160700001D01*
X128060000Y-160662678D01*
X128060000Y-159134801D01*
X129315098Y-160389900D01*
X129269463Y-160445506D01*
X129210498Y-160555820D01*
X129174188Y-160675518D01*
X129161928Y-160800000D01*
X129161928Y-161800000D01*
X129174188Y-161924482D01*
X129210498Y-162044180D01*
X129269463Y-162154494D01*
X129348815Y-162251185D01*
X129445506Y-162330537D01*
X129555820Y-162389502D01*
X129675518Y-162425812D01*
X129800000Y-162438072D01*
X131300000Y-162438072D01*
X131424482Y-162425812D01*
X131544180Y-162389502D01*
X131654494Y-162330537D01*
X131751185Y-162251185D01*
X131830537Y-162154494D01*
X131889502Y-162044180D01*
X131925812Y-161924482D01*
X131938072Y-161800000D01*
X131938072Y-160800000D01*
X131925812Y-160675518D01*
X131889502Y-160555820D01*
X131830537Y-160445506D01*
X131751185Y-160348815D01*
X131654494Y-160269463D01*
X131544180Y-160210498D01*
X131424482Y-160174188D01*
X131300000Y-160161928D01*
X131204326Y-160161928D01*
X131184974Y-160125724D01*
X131090001Y-160009999D01*
X131061003Y-159986201D01*
X130287026Y-159212224D01*
X130423000Y-159076250D01*
X130423000Y-158227000D01*
X130677000Y-158227000D01*
X130677000Y-159076250D01*
X130835750Y-159235000D01*
X131300000Y-159238072D01*
X131424482Y-159225812D01*
X131544180Y-159189502D01*
X131654494Y-159130537D01*
X131751185Y-159051185D01*
X131830537Y-158954494D01*
X131889502Y-158844180D01*
X131925812Y-158724482D01*
X131938072Y-158600000D01*
X131935000Y-158385750D01*
X131776250Y-158227000D01*
X130677000Y-158227000D01*
X130423000Y-158227000D01*
X130403000Y-158227000D01*
X130403000Y-157973000D01*
X130423000Y-157973000D01*
X130423000Y-157123750D01*
X130677000Y-157123750D01*
X130677000Y-157973000D01*
X131776250Y-157973000D01*
X131935000Y-157814250D01*
X131938072Y-157600000D01*
X131925812Y-157475518D01*
X131889502Y-157355820D01*
X131830537Y-157245506D01*
X131751185Y-157148815D01*
X131654494Y-157069463D01*
X131544180Y-157010498D01*
X131424482Y-156974188D01*
X131300000Y-156961928D01*
X130835750Y-156965000D01*
X130677000Y-157123750D01*
X130423000Y-157123750D01*
X130264250Y-156965000D01*
X129800000Y-156961928D01*
X129675518Y-156974188D01*
X129555820Y-157010498D01*
X129445506Y-157069463D01*
X129348815Y-157148815D01*
X129269463Y-157245506D01*
X129260000Y-157263210D01*
X129260000Y-154254823D01*
X129263676Y-154217500D01*
X129260000Y-154180177D01*
X129260000Y-154180167D01*
X129249003Y-154068514D01*
X129205546Y-153925253D01*
X129134974Y-153793224D01*
X129040001Y-153677499D01*
X129011003Y-153653701D01*
X122748576Y-147391275D01*
X122796300Y-147151350D01*
X122796300Y-146853650D01*
X122738222Y-146561670D01*
X122624297Y-146286631D01*
X122458904Y-146039102D01*
X122248398Y-145828596D01*
X122104580Y-145732500D01*
X122248398Y-145636404D01*
X122458904Y-145425898D01*
X122624297Y-145178369D01*
X122738222Y-144903330D01*
X122796300Y-144611350D01*
X122796300Y-144313650D01*
X122738222Y-144021670D01*
X122624297Y-143746631D01*
X122458904Y-143499102D01*
X122248398Y-143288596D01*
X122104580Y-143192500D01*
X122248398Y-143096404D01*
X122458904Y-142885898D01*
X122624297Y-142638369D01*
X122738222Y-142363330D01*
X122796300Y-142071350D01*
X122796300Y-141773650D01*
X122738222Y-141481670D01*
X122624297Y-141206631D01*
X122458904Y-140959102D01*
X122248398Y-140748596D01*
X122104580Y-140652500D01*
X122248398Y-140556404D01*
X122458904Y-140345898D01*
X122624297Y-140098369D01*
X122738222Y-139823330D01*
X122796300Y-139531350D01*
X122796300Y-139233650D01*
X122738222Y-138941670D01*
X122624297Y-138666631D01*
X122458904Y-138419102D01*
X122248398Y-138208596D01*
X122104580Y-138112500D01*
X122248398Y-138016404D01*
X122458904Y-137805898D01*
X122624297Y-137558369D01*
X122738222Y-137283330D01*
X122796300Y-136991350D01*
X122796300Y-136693650D01*
X122738222Y-136401670D01*
X122624297Y-136126631D01*
X122458904Y-135879102D01*
X122248398Y-135668596D01*
X122104580Y-135572500D01*
X122248398Y-135476404D01*
X122458904Y-135265898D01*
X122624297Y-135018369D01*
X122738222Y-134743330D01*
X122796300Y-134451350D01*
X122796300Y-134153650D01*
X122738222Y-133861670D01*
X122624297Y-133586631D01*
X122458904Y-133339102D01*
X122248398Y-133128596D01*
X122104580Y-133032500D01*
X122248398Y-132936404D01*
X122458904Y-132725898D01*
X122624297Y-132478369D01*
X122738222Y-132203330D01*
X122796300Y-131911350D01*
X122796300Y-131613650D01*
X122738222Y-131321670D01*
X122624297Y-131046631D01*
X122458904Y-130799102D01*
X122248398Y-130588596D01*
X122104580Y-130492500D01*
X122248398Y-130396404D01*
X122458904Y-130185898D01*
X122624297Y-129938369D01*
X122738222Y-129663330D01*
X122796300Y-129371350D01*
X122796300Y-129073650D01*
X122738222Y-128781670D01*
X122624297Y-128506631D01*
X122458904Y-128259102D01*
X122248398Y-128048596D01*
X122104580Y-127952500D01*
X122248398Y-127856404D01*
X122458904Y-127645898D01*
X122624297Y-127398369D01*
X122738222Y-127123330D01*
X122796300Y-126831350D01*
X122796300Y-126749991D01*
X135007887Y-126749991D01*
X135050204Y-127044667D01*
X135149198Y-127325427D01*
X135226071Y-127469246D01*
X135477831Y-127550063D01*
X136345395Y-126682500D01*
X135477831Y-125814937D01*
X135226071Y-125895754D01*
X135097543Y-126164279D01*
X135023871Y-126452719D01*
X135007887Y-126749991D01*
X122796300Y-126749991D01*
X122796300Y-126533650D01*
X122738222Y-126241670D01*
X122624297Y-125966631D01*
X122458904Y-125719102D01*
X122248398Y-125508596D01*
X122104580Y-125412500D01*
X122248398Y-125316404D01*
X122458904Y-125105898D01*
X122624297Y-124858369D01*
X122738222Y-124583330D01*
X122796300Y-124291350D01*
X122796300Y-124209991D01*
X135007887Y-124209991D01*
X135050204Y-124504667D01*
X135149198Y-124785427D01*
X135226071Y-124929246D01*
X135477831Y-125010063D01*
X136345395Y-124142500D01*
X135477831Y-123274937D01*
X135226071Y-123355754D01*
X135097543Y-123624279D01*
X135023871Y-123912719D01*
X135007887Y-124209991D01*
X122796300Y-124209991D01*
X122796300Y-123993650D01*
X122738222Y-123701670D01*
X122624297Y-123426631D01*
X122458904Y-123179102D01*
X122248398Y-122968596D01*
X122085191Y-122859545D01*
X122152563Y-122649669D01*
X121285000Y-121782105D01*
X121270858Y-121796248D01*
X121091252Y-121616642D01*
X121105395Y-121602500D01*
X121464605Y-121602500D01*
X122332169Y-122470063D01*
X122583929Y-122389246D01*
X122712457Y-122120721D01*
X122786129Y-121832281D01*
X122802113Y-121535009D01*
X122759796Y-121240333D01*
X122660802Y-120959573D01*
X122583929Y-120815754D01*
X122332169Y-120734937D01*
X121464605Y-121602500D01*
X121105395Y-121602500D01*
X120237831Y-120734937D01*
X119986071Y-120815754D01*
X119857543Y-121084279D01*
X119783871Y-121372719D01*
X119773980Y-121556678D01*
X118956304Y-120739003D01*
X118932501Y-120709999D01*
X118816776Y-120615026D01*
X118684747Y-120544454D01*
X118541486Y-120500997D01*
X118429833Y-120490000D01*
X118429822Y-120490000D01*
X118392500Y-120486324D01*
X118355178Y-120490000D01*
X117899870Y-120490000D01*
X117889502Y-120455820D01*
X117830537Y-120345506D01*
X117751185Y-120248815D01*
X117654494Y-120169463D01*
X117544180Y-120110498D01*
X117424482Y-120074188D01*
X117300000Y-120061928D01*
X115500000Y-120061928D01*
X115375518Y-120074188D01*
X115255820Y-120110498D01*
X115145506Y-120169463D01*
X115048815Y-120248815D01*
X114969463Y-120345506D01*
X114910498Y-120455820D01*
X114900130Y-120490000D01*
X111699870Y-120490000D01*
X111689502Y-120455820D01*
X111630537Y-120345506D01*
X111551185Y-120248815D01*
X111454494Y-120169463D01*
X111344180Y-120110498D01*
X111224482Y-120074188D01*
X111100000Y-120061928D01*
X109300000Y-120061928D01*
X109175518Y-120074188D01*
X109055820Y-120110498D01*
X108945506Y-120169463D01*
X108848815Y-120248815D01*
X108769463Y-120345506D01*
X108710498Y-120455820D01*
X108674188Y-120575518D01*
X108661928Y-120700000D01*
X108661928Y-121800000D01*
X108665868Y-121840000D01*
X76714802Y-121840000D01*
X74363804Y-119489003D01*
X74340001Y-119459999D01*
X74224276Y-119365026D01*
X74092247Y-119294454D01*
X73948986Y-119250997D01*
X73837333Y-119240000D01*
X73837322Y-119240000D01*
X73800000Y-119236324D01*
X73762678Y-119240000D01*
X68887325Y-119240000D01*
X68850000Y-119236324D01*
X68812675Y-119240000D01*
X68812667Y-119240000D01*
X68701014Y-119250997D01*
X68557753Y-119294454D01*
X68425724Y-119365026D01*
X68309999Y-119459999D01*
X68286201Y-119488997D01*
X67557553Y-120217646D01*
X67544180Y-120210498D01*
X67424482Y-120174188D01*
X67300000Y-120161928D01*
X65800000Y-120161928D01*
X65675518Y-120174188D01*
X65555820Y-120210498D01*
X65445506Y-120269463D01*
X65348815Y-120348815D01*
X65269463Y-120445506D01*
X65210498Y-120555820D01*
X65174188Y-120675518D01*
X65161928Y-120800000D01*
X59160000Y-120800000D01*
X59160000Y-117600000D01*
X65161928Y-117600000D01*
X65161928Y-118600000D01*
X65174188Y-118724482D01*
X65210498Y-118844180D01*
X65269463Y-118954494D01*
X65348815Y-119051185D01*
X65445506Y-119130537D01*
X65555820Y-119189502D01*
X65675518Y-119225812D01*
X65800000Y-119238072D01*
X67300000Y-119238072D01*
X67424482Y-119225812D01*
X67544180Y-119189502D01*
X67654494Y-119130537D01*
X67751185Y-119051185D01*
X67830537Y-118954494D01*
X67889502Y-118844180D01*
X67925812Y-118724482D01*
X67938072Y-118600000D01*
X70061928Y-118600000D01*
X70074188Y-118724482D01*
X70110498Y-118844180D01*
X70169463Y-118954494D01*
X70248815Y-119051185D01*
X70345506Y-119130537D01*
X70455820Y-119189502D01*
X70575518Y-119225812D01*
X70700000Y-119238072D01*
X71164250Y-119235000D01*
X71323000Y-119076250D01*
X71323000Y-118227000D01*
X71577000Y-118227000D01*
X71577000Y-119076250D01*
X71735750Y-119235000D01*
X72200000Y-119238072D01*
X72324482Y-119225812D01*
X72444180Y-119189502D01*
X72554494Y-119130537D01*
X72651185Y-119051185D01*
X72730537Y-118954494D01*
X72752368Y-118913650D01*
X119773700Y-118913650D01*
X119773700Y-119211350D01*
X119831778Y-119503330D01*
X119945703Y-119778369D01*
X120111096Y-120025898D01*
X120321602Y-120236404D01*
X120484809Y-120345455D01*
X120417437Y-120555331D01*
X121285000Y-121422895D01*
X122152563Y-120555331D01*
X122085191Y-120345455D01*
X122248398Y-120236404D01*
X122458904Y-120025898D01*
X122624297Y-119778369D01*
X122738222Y-119503330D01*
X122796300Y-119211350D01*
X122796300Y-118913650D01*
X122738222Y-118621670D01*
X122624297Y-118346631D01*
X122458904Y-118099102D01*
X122248398Y-117888596D01*
X122000869Y-117723203D01*
X121725830Y-117609278D01*
X121433850Y-117551200D01*
X121136150Y-117551200D01*
X120844170Y-117609278D01*
X120569131Y-117723203D01*
X120321602Y-117888596D01*
X120111096Y-118099102D01*
X119945703Y-118346631D01*
X119831778Y-118621670D01*
X119773700Y-118913650D01*
X72752368Y-118913650D01*
X72789502Y-118844180D01*
X72825812Y-118724482D01*
X72838072Y-118600000D01*
X72835000Y-118385750D01*
X72676250Y-118227000D01*
X71577000Y-118227000D01*
X71323000Y-118227000D01*
X70223750Y-118227000D01*
X70065000Y-118385750D01*
X70061928Y-118600000D01*
X67938072Y-118600000D01*
X67938072Y-118100000D01*
X108661928Y-118100000D01*
X108674188Y-118224482D01*
X108710498Y-118344180D01*
X108769463Y-118454494D01*
X108848815Y-118551185D01*
X108945506Y-118630537D01*
X109055820Y-118689502D01*
X109175518Y-118725812D01*
X109300000Y-118738072D01*
X109914250Y-118735000D01*
X110073000Y-118576250D01*
X110073000Y-117677000D01*
X110327000Y-117677000D01*
X110327000Y-118576250D01*
X110485750Y-118735000D01*
X111100000Y-118738072D01*
X111224482Y-118725812D01*
X111344180Y-118689502D01*
X111454494Y-118630537D01*
X111551185Y-118551185D01*
X111630537Y-118454494D01*
X111689502Y-118344180D01*
X111725812Y-118224482D01*
X111738072Y-118100000D01*
X114861928Y-118100000D01*
X114874188Y-118224482D01*
X114910498Y-118344180D01*
X114969463Y-118454494D01*
X115048815Y-118551185D01*
X115145506Y-118630537D01*
X115255820Y-118689502D01*
X115375518Y-118725812D01*
X115500000Y-118738072D01*
X116114250Y-118735000D01*
X116273000Y-118576250D01*
X116273000Y-117677000D01*
X116527000Y-117677000D01*
X116527000Y-118576250D01*
X116685750Y-118735000D01*
X117300000Y-118738072D01*
X117424482Y-118725812D01*
X117544180Y-118689502D01*
X117654494Y-118630537D01*
X117751185Y-118551185D01*
X117830537Y-118454494D01*
X117889502Y-118344180D01*
X117925812Y-118224482D01*
X117938072Y-118100000D01*
X117935000Y-117835750D01*
X117776250Y-117677000D01*
X116527000Y-117677000D01*
X116273000Y-117677000D01*
X115023750Y-117677000D01*
X114865000Y-117835750D01*
X114861928Y-118100000D01*
X111738072Y-118100000D01*
X111735000Y-117835750D01*
X111576250Y-117677000D01*
X110327000Y-117677000D01*
X110073000Y-117677000D01*
X108823750Y-117677000D01*
X108665000Y-117835750D01*
X108661928Y-118100000D01*
X67938072Y-118100000D01*
X67938072Y-117600000D01*
X70061928Y-117600000D01*
X70065000Y-117814250D01*
X70223750Y-117973000D01*
X71323000Y-117973000D01*
X71323000Y-117123750D01*
X71577000Y-117123750D01*
X71577000Y-117973000D01*
X72676250Y-117973000D01*
X72835000Y-117814250D01*
X72838072Y-117600000D01*
X72825812Y-117475518D01*
X72789502Y-117355820D01*
X72730537Y-117245506D01*
X72651185Y-117148815D01*
X72554494Y-117069463D01*
X72444180Y-117010498D01*
X72409573Y-117000000D01*
X108661928Y-117000000D01*
X108665000Y-117264250D01*
X108823750Y-117423000D01*
X110073000Y-117423000D01*
X110073000Y-116523750D01*
X110327000Y-116523750D01*
X110327000Y-117423000D01*
X111576250Y-117423000D01*
X111735000Y-117264250D01*
X111738072Y-117000000D01*
X114861928Y-117000000D01*
X114865000Y-117264250D01*
X115023750Y-117423000D01*
X116273000Y-117423000D01*
X116273000Y-116523750D01*
X116527000Y-116523750D01*
X116527000Y-117423000D01*
X117776250Y-117423000D01*
X117935000Y-117264250D01*
X117938072Y-117000000D01*
X117925812Y-116875518D01*
X117889502Y-116755820D01*
X117830537Y-116645506D01*
X117751185Y-116548815D01*
X117654494Y-116469463D01*
X117544180Y-116410498D01*
X117424482Y-116374188D01*
X117300000Y-116361928D01*
X116685750Y-116365000D01*
X116527000Y-116523750D01*
X116273000Y-116523750D01*
X116114250Y-116365000D01*
X115500000Y-116361928D01*
X115375518Y-116374188D01*
X115255820Y-116410498D01*
X115145506Y-116469463D01*
X115048815Y-116548815D01*
X114969463Y-116645506D01*
X114910498Y-116755820D01*
X114874188Y-116875518D01*
X114861928Y-117000000D01*
X111738072Y-117000000D01*
X111725812Y-116875518D01*
X111689502Y-116755820D01*
X111630537Y-116645506D01*
X111551185Y-116548815D01*
X111454494Y-116469463D01*
X111344180Y-116410498D01*
X111224482Y-116374188D01*
X111100000Y-116361928D01*
X110485750Y-116365000D01*
X110327000Y-116523750D01*
X110073000Y-116523750D01*
X109914250Y-116365000D01*
X109300000Y-116361928D01*
X109175518Y-116374188D01*
X109055820Y-116410498D01*
X108945506Y-116469463D01*
X108848815Y-116548815D01*
X108769463Y-116645506D01*
X108710498Y-116755820D01*
X108674188Y-116875518D01*
X108661928Y-117000000D01*
X72409573Y-117000000D01*
X72324482Y-116974188D01*
X72200000Y-116961928D01*
X71735750Y-116965000D01*
X71577000Y-117123750D01*
X71323000Y-117123750D01*
X71164250Y-116965000D01*
X70700000Y-116961928D01*
X70575518Y-116974188D01*
X70455820Y-117010498D01*
X70345506Y-117069463D01*
X70248815Y-117148815D01*
X70169463Y-117245506D01*
X70110498Y-117355820D01*
X70074188Y-117475518D01*
X70061928Y-117600000D01*
X67938072Y-117600000D01*
X67925812Y-117475518D01*
X67889502Y-117355820D01*
X67830537Y-117245506D01*
X67751185Y-117148815D01*
X67654494Y-117069463D01*
X67544180Y-117010498D01*
X67424482Y-116974188D01*
X67300000Y-116961928D01*
X65800000Y-116961928D01*
X65675518Y-116974188D01*
X65555820Y-117010498D01*
X65445506Y-117069463D01*
X65348815Y-117148815D01*
X65269463Y-117245506D01*
X65210498Y-117355820D01*
X65174188Y-117475518D01*
X65161928Y-117600000D01*
X59160000Y-117600000D01*
X59160000Y-115680000D01*
X137590001Y-115680000D01*
X137590001Y-117579869D01*
M02*
