G04 #@! TF.GenerationSoftware,KiCad,Pcbnew,(5.1.5)-3*
G04 #@! TF.CreationDate,2020-07-09T22:20:04+02:00*
G04 #@! TF.ProjectId,2x3_macropad,3278335f-6d61-4637-926f-7061642e6b69,rev?*
G04 #@! TF.SameCoordinates,Original*
G04 #@! TF.FileFunction,Legend,Bot*
G04 #@! TF.FilePolarity,Positive*
%FSLAX46Y46*%
G04 Gerber Fmt 4.6, Leading zero omitted, Abs format (unit mm)*
G04 Created by KiCad (PCBNEW (5.1.5)-3) date 2020-07-09 22:20:04*
%MOMM*%
%LPD*%
G04 APERTURE LIST*
%ADD10C,0.300000*%
%ADD11C,0.120000*%
%ADD12C,0.381000*%
%ADD13C,0.150000*%
%ADD14C,0.050000*%
%ADD15R,1.902000X1.202000*%
%ADD16R,2.102000X2.102000*%
%ADD17C,2.102000*%
%ADD18R,2.102000X3.302000*%
%ADD19R,1.602000X1.102000*%
%ADD20R,1.702000X1.302000*%
%ADD21C,1.702000*%
%ADD22R,1.702000X1.702000*%
%ADD23C,2.388000*%
%ADD24C,4.089800*%
%ADD25C,1.902000*%
%ADD26R,1.854600X1.854600*%
%ADD27C,1.854600*%
G04 APERTURE END LIST*
D10*
X71428571Y-145521428D02*
X72571428Y-145092857D01*
X71428571Y-144664285D01*
X67928571Y-145521428D02*
X69071428Y-145092857D01*
X67928571Y-144664285D01*
D11*
X111850000Y-122120000D02*
X111360000Y-121630000D01*
X114750000Y-122120000D02*
X111850000Y-122120000D01*
X114750000Y-122120000D02*
X115240000Y-121630000D01*
X114750000Y-116680000D02*
X111850000Y-116680000D01*
X114750000Y-116680000D02*
X115240000Y-117170000D01*
X110580000Y-120440000D02*
X110580000Y-118360000D01*
X111850000Y-116680000D02*
X111360000Y-117170000D01*
X116020000Y-120440000D02*
X116020000Y-118360000D01*
X131750000Y-156950000D02*
X131750000Y-158100000D01*
X124450000Y-156950000D02*
X131750000Y-156950000D01*
X124450000Y-162450000D02*
X131750000Y-162450000D01*
X65350000Y-122450000D02*
X72650000Y-122450000D01*
X65350000Y-116950000D02*
X72650000Y-116950000D01*
X72650000Y-116950000D02*
X72650000Y-118100000D01*
D12*
X137795000Y-117792500D02*
X137795000Y-148272500D01*
X137795000Y-148272500D02*
X120015000Y-148272500D01*
X120015000Y-148272500D02*
X120015000Y-117792500D01*
X135255000Y-117792500D02*
X135255000Y-120332500D01*
X135255000Y-120332500D02*
X137795000Y-120332500D01*
D13*
G36*
X123973432Y-123671860D02*
G01*
X123973432Y-123971860D01*
X124073432Y-123971860D01*
X124073432Y-123671860D01*
X123973432Y-123671860D01*
G37*
X123973432Y-123671860D02*
X123973432Y-123971860D01*
X124073432Y-123971860D01*
X124073432Y-123671860D01*
X123973432Y-123671860D01*
G36*
X124173432Y-124071860D02*
G01*
X124173432Y-124171860D01*
X124273432Y-124171860D01*
X124273432Y-124071860D01*
X124173432Y-124071860D01*
G37*
X124173432Y-124071860D02*
X124173432Y-124171860D01*
X124273432Y-124171860D01*
X124273432Y-124071860D01*
X124173432Y-124071860D01*
G36*
X123973432Y-123671860D02*
G01*
X123973432Y-123771860D01*
X124473432Y-123771860D01*
X124473432Y-123671860D01*
X123973432Y-123671860D01*
G37*
X123973432Y-123671860D02*
X123973432Y-123771860D01*
X124473432Y-123771860D01*
X124473432Y-123671860D01*
X123973432Y-123671860D01*
G36*
X124373432Y-123671860D02*
G01*
X124373432Y-124471860D01*
X124473432Y-124471860D01*
X124473432Y-123671860D01*
X124373432Y-123671860D01*
G37*
X124373432Y-123671860D02*
X124373432Y-124471860D01*
X124473432Y-124471860D01*
X124473432Y-123671860D01*
X124373432Y-123671860D01*
G36*
X123973432Y-124271860D02*
G01*
X123973432Y-124471860D01*
X124073432Y-124471860D01*
X124073432Y-124271860D01*
X123973432Y-124271860D01*
G37*
X123973432Y-124271860D02*
X123973432Y-124471860D01*
X124073432Y-124471860D01*
X124073432Y-124271860D01*
X123973432Y-124271860D01*
D12*
X120015000Y-117792500D02*
X120015000Y-115252500D01*
X120015000Y-115252500D02*
X137795000Y-115252500D01*
X137795000Y-115252500D02*
X137795000Y-117792500D01*
X135255000Y-117792500D02*
X137795000Y-117792500D01*
D14*
X115271293Y-116116849D02*
X115128221Y-116164539D01*
X114889769Y-116164539D01*
X114794388Y-116116849D01*
X114746698Y-116069158D01*
X114699007Y-115973777D01*
X114699007Y-115878396D01*
X114746698Y-115783015D01*
X114794388Y-115735325D01*
X114889769Y-115687634D01*
X115080531Y-115639944D01*
X115175912Y-115592253D01*
X115223602Y-115544563D01*
X115271293Y-115449182D01*
X115271293Y-115353801D01*
X115223602Y-115258420D01*
X115175912Y-115210730D01*
X115080531Y-115163039D01*
X114842079Y-115163039D01*
X114699007Y-115210730D01*
X114365174Y-115163039D02*
X114126721Y-116164539D01*
X113935960Y-115449182D01*
X113745198Y-116164539D01*
X113506745Y-115163039D01*
X112600626Y-116164539D02*
X113172912Y-116164539D01*
X112886769Y-116164539D02*
X112886769Y-115163039D01*
X112982150Y-115306110D01*
X113077531Y-115401491D01*
X113172912Y-115449182D01*
X116689175Y-123361064D02*
X116546307Y-123408687D01*
X116308192Y-123408687D01*
X116212947Y-123361064D01*
X116165324Y-123313441D01*
X116117701Y-123218195D01*
X116117701Y-123122950D01*
X116165324Y-123027704D01*
X116212947Y-122980081D01*
X116308192Y-122932458D01*
X116498684Y-122884835D01*
X116593930Y-122837212D01*
X116641552Y-122789590D01*
X116689175Y-122694344D01*
X116689175Y-122599098D01*
X116641552Y-122503852D01*
X116593930Y-122456230D01*
X116498684Y-122408607D01*
X116260570Y-122408607D01*
X116117701Y-122456230D01*
X115784341Y-122408607D02*
X115546227Y-123408687D01*
X115355735Y-122694344D01*
X115165244Y-123408687D01*
X114927130Y-122408607D01*
X114784261Y-123503932D02*
X114022295Y-123503932D01*
X113784181Y-123408687D02*
X113784181Y-122408607D01*
X113403198Y-122408607D01*
X113307952Y-122456230D01*
X113260330Y-122503852D01*
X113212707Y-122599098D01*
X113212707Y-122741967D01*
X113260330Y-122837212D01*
X113307952Y-122884835D01*
X113403198Y-122932458D01*
X113784181Y-122932458D01*
X112784101Y-122408607D02*
X112784101Y-123218195D01*
X112736478Y-123313441D01*
X112688855Y-123361064D01*
X112593610Y-123408687D01*
X112403118Y-123408687D01*
X112307872Y-123361064D01*
X112260250Y-123313441D01*
X112212627Y-123218195D01*
X112212627Y-122408607D01*
X111784021Y-123361064D02*
X111641152Y-123408687D01*
X111403038Y-123408687D01*
X111307792Y-123361064D01*
X111260170Y-123313441D01*
X111212547Y-123218195D01*
X111212547Y-123122950D01*
X111260170Y-123027704D01*
X111307792Y-122980081D01*
X111403038Y-122932458D01*
X111593530Y-122884835D01*
X111688775Y-122837212D01*
X111736398Y-122789590D01*
X111784021Y-122694344D01*
X111784021Y-122599098D01*
X111736398Y-122503852D01*
X111688775Y-122456230D01*
X111593530Y-122408607D01*
X111355415Y-122408607D01*
X111212547Y-122456230D01*
X110783941Y-123408687D02*
X110783941Y-122408607D01*
X110783941Y-122884835D02*
X110212467Y-122884835D01*
X110212467Y-123408687D02*
X110212467Y-122408607D01*
D13*
X128838095Y-163652380D02*
X128838095Y-162652380D01*
X128600000Y-162652380D01*
X128457142Y-162700000D01*
X128361904Y-162795238D01*
X128314285Y-162890476D01*
X128266666Y-163080952D01*
X128266666Y-163223809D01*
X128314285Y-163414285D01*
X128361904Y-163509523D01*
X128457142Y-163604761D01*
X128600000Y-163652380D01*
X128838095Y-163652380D01*
X127314285Y-163652380D02*
X127885714Y-163652380D01*
X127600000Y-163652380D02*
X127600000Y-162652380D01*
X127695238Y-162795238D01*
X127790476Y-162890476D01*
X127885714Y-162938095D01*
X123664285Y-161752380D02*
X124235714Y-161752380D01*
X123950000Y-161752380D02*
X123950000Y-160752380D01*
X124045238Y-160895238D01*
X124140476Y-160990476D01*
X124235714Y-161038095D01*
X69738095Y-123652380D02*
X69738095Y-122652380D01*
X69500000Y-122652380D01*
X69357142Y-122700000D01*
X69261904Y-122795238D01*
X69214285Y-122890476D01*
X69166666Y-123080952D01*
X69166666Y-123223809D01*
X69214285Y-123414285D01*
X69261904Y-123509523D01*
X69357142Y-123604761D01*
X69500000Y-123652380D01*
X69738095Y-123652380D01*
X68785714Y-122747619D02*
X68738095Y-122700000D01*
X68642857Y-122652380D01*
X68404761Y-122652380D01*
X68309523Y-122700000D01*
X68261904Y-122747619D01*
X68214285Y-122842857D01*
X68214285Y-122938095D01*
X68261904Y-123080952D01*
X68833333Y-123652380D01*
X68214285Y-123652380D01*
X64564285Y-121752380D02*
X65135714Y-121752380D01*
X64850000Y-121752380D02*
X64850000Y-120752380D01*
X64945238Y-120895238D01*
X65040476Y-120990476D01*
X65135714Y-121038095D01*
X123767809Y-144405357D02*
X123653523Y-144443452D01*
X123615428Y-144481547D01*
X123577333Y-144557738D01*
X123577333Y-144672023D01*
X123615428Y-144748214D01*
X123653523Y-144786309D01*
X123729714Y-144824404D01*
X124034476Y-144824404D01*
X124034476Y-144024404D01*
X123767809Y-144024404D01*
X123691619Y-144062500D01*
X123653523Y-144100595D01*
X123615428Y-144176785D01*
X123615428Y-144252976D01*
X123653523Y-144329166D01*
X123691619Y-144367261D01*
X123767809Y-144405357D01*
X124034476Y-144405357D01*
X123272571Y-144100595D02*
X123234476Y-144062500D01*
X123158285Y-144024404D01*
X122967809Y-144024404D01*
X122891619Y-144062500D01*
X122853523Y-144100595D01*
X122815428Y-144176785D01*
X122815428Y-144252976D01*
X122853523Y-144367261D01*
X123310666Y-144824404D01*
X122815428Y-144824404D01*
X123710666Y-136785357D02*
X123977333Y-136785357D01*
X123977333Y-137204404D02*
X123977333Y-136404404D01*
X123596380Y-136404404D01*
X123367809Y-136404404D02*
X122834476Y-136404404D01*
X123177333Y-137204404D01*
X123710666Y-134245357D02*
X123977333Y-134245357D01*
X123977333Y-134664404D02*
X123977333Y-133864404D01*
X123596380Y-133864404D01*
X122948761Y-133864404D02*
X123101142Y-133864404D01*
X123177333Y-133902500D01*
X123215428Y-133940595D01*
X123291619Y-134054880D01*
X123329714Y-134207261D01*
X123329714Y-134512023D01*
X123291619Y-134588214D01*
X123253523Y-134626309D01*
X123177333Y-134664404D01*
X123024952Y-134664404D01*
X122948761Y-134626309D01*
X122910666Y-134588214D01*
X122872571Y-134512023D01*
X122872571Y-134321547D01*
X122910666Y-134245357D01*
X122948761Y-134207261D01*
X123024952Y-134169166D01*
X123177333Y-134169166D01*
X123253523Y-134207261D01*
X123291619Y-134245357D01*
X123329714Y-134321547D01*
X123710666Y-131705357D02*
X123977333Y-131705357D01*
X123977333Y-132124404D02*
X123977333Y-131324404D01*
X123596380Y-131324404D01*
X122910666Y-131324404D02*
X123291619Y-131324404D01*
X123329714Y-131705357D01*
X123291619Y-131667261D01*
X123215428Y-131629166D01*
X123024952Y-131629166D01*
X122948761Y-131667261D01*
X122910666Y-131705357D01*
X122872571Y-131781547D01*
X122872571Y-131972023D01*
X122910666Y-132048214D01*
X122948761Y-132086309D01*
X123024952Y-132124404D01*
X123215428Y-132124404D01*
X123291619Y-132086309D01*
X123329714Y-132048214D01*
X123996380Y-119424404D02*
X124263047Y-119043452D01*
X124453523Y-119424404D02*
X124453523Y-118624404D01*
X124148761Y-118624404D01*
X124072571Y-118662500D01*
X124034476Y-118700595D01*
X123996380Y-118776785D01*
X123996380Y-118891071D01*
X124034476Y-118967261D01*
X124072571Y-119005357D01*
X124148761Y-119043452D01*
X124453523Y-119043452D01*
X123691619Y-119195833D02*
X123310666Y-119195833D01*
X123767809Y-119424404D02*
X123501142Y-118624404D01*
X123234476Y-119424404D01*
X123044000Y-118624404D02*
X122853523Y-119424404D01*
X122701142Y-118852976D01*
X122548761Y-119424404D01*
X122358285Y-118624404D01*
X124053523Y-121202500D02*
X124129714Y-121164404D01*
X124244000Y-121164404D01*
X124358285Y-121202500D01*
X124434476Y-121278690D01*
X124472571Y-121354880D01*
X124510666Y-121507261D01*
X124510666Y-121621547D01*
X124472571Y-121773928D01*
X124434476Y-121850119D01*
X124358285Y-121926309D01*
X124244000Y-121964404D01*
X124167809Y-121964404D01*
X124053523Y-121926309D01*
X124015428Y-121888214D01*
X124015428Y-121621547D01*
X124167809Y-121621547D01*
X123672571Y-121964404D02*
X123672571Y-121164404D01*
X123215428Y-121964404D01*
X123215428Y-121164404D01*
X122834476Y-121964404D02*
X122834476Y-121164404D01*
X122644000Y-121164404D01*
X122529714Y-121202500D01*
X122453523Y-121278690D01*
X122415428Y-121354880D01*
X122377333Y-121507261D01*
X122377333Y-121621547D01*
X122415428Y-121773928D01*
X122453523Y-121850119D01*
X122529714Y-121926309D01*
X122644000Y-121964404D01*
X122834476Y-121964404D01*
X123705213Y-124436309D02*
X123590927Y-124474404D01*
X123400451Y-124474404D01*
X123324260Y-124436309D01*
X123286165Y-124398214D01*
X123248070Y-124322023D01*
X123248070Y-124245833D01*
X123286165Y-124169642D01*
X123324260Y-124131547D01*
X123400451Y-124093452D01*
X123552832Y-124055357D01*
X123629022Y-124017261D01*
X123667118Y-123979166D01*
X123705213Y-123902976D01*
X123705213Y-123826785D01*
X123667118Y-123750595D01*
X123629022Y-123712500D01*
X123552832Y-123674404D01*
X123362356Y-123674404D01*
X123248070Y-123712500D01*
X123019499Y-123674404D02*
X122562356Y-123674404D01*
X122790927Y-124474404D02*
X122790927Y-123674404D01*
X124510666Y-126244404D02*
X124244000Y-127044404D01*
X123977333Y-126244404D01*
X123253523Y-126968214D02*
X123291619Y-127006309D01*
X123405904Y-127044404D01*
X123482095Y-127044404D01*
X123596380Y-127006309D01*
X123672571Y-126930119D01*
X123710666Y-126853928D01*
X123748761Y-126701547D01*
X123748761Y-126587261D01*
X123710666Y-126434880D01*
X123672571Y-126358690D01*
X123596380Y-126282500D01*
X123482095Y-126244404D01*
X123405904Y-126244404D01*
X123291619Y-126282500D01*
X123253523Y-126320595D01*
X122453523Y-126968214D02*
X122491619Y-127006309D01*
X122605904Y-127044404D01*
X122682095Y-127044404D01*
X122796380Y-127006309D01*
X122872571Y-126930119D01*
X122910666Y-126853928D01*
X122948761Y-126701547D01*
X122948761Y-126587261D01*
X122910666Y-126434880D01*
X122872571Y-126358690D01*
X122796380Y-126282500D01*
X122682095Y-126244404D01*
X122605904Y-126244404D01*
X122491619Y-126282500D01*
X122453523Y-126320595D01*
X123710666Y-129165357D02*
X123977333Y-129165357D01*
X123977333Y-129584404D02*
X123977333Y-128784404D01*
X123596380Y-128784404D01*
X122948761Y-129051071D02*
X122948761Y-129584404D01*
X123139238Y-128746309D02*
X123329714Y-129317738D01*
X122834476Y-129317738D01*
X123767809Y-139325357D02*
X123653523Y-139363452D01*
X123615428Y-139401547D01*
X123577333Y-139477738D01*
X123577333Y-139592023D01*
X123615428Y-139668214D01*
X123653523Y-139706309D01*
X123729714Y-139744404D01*
X124034476Y-139744404D01*
X124034476Y-138944404D01*
X123767809Y-138944404D01*
X123691619Y-138982500D01*
X123653523Y-139020595D01*
X123615428Y-139096785D01*
X123615428Y-139172976D01*
X123653523Y-139249166D01*
X123691619Y-139287261D01*
X123767809Y-139325357D01*
X124034476Y-139325357D01*
X122815428Y-139744404D02*
X123272571Y-139744404D01*
X123044000Y-139744404D02*
X123044000Y-138944404D01*
X123120190Y-139058690D01*
X123196380Y-139134880D01*
X123272571Y-139172976D01*
X123767809Y-141865357D02*
X123653523Y-141903452D01*
X123615428Y-141941547D01*
X123577333Y-142017738D01*
X123577333Y-142132023D01*
X123615428Y-142208214D01*
X123653523Y-142246309D01*
X123729714Y-142284404D01*
X124034476Y-142284404D01*
X124034476Y-141484404D01*
X123767809Y-141484404D01*
X123691619Y-141522500D01*
X123653523Y-141560595D01*
X123615428Y-141636785D01*
X123615428Y-141712976D01*
X123653523Y-141789166D01*
X123691619Y-141827261D01*
X123767809Y-141865357D01*
X124034476Y-141865357D01*
X123310666Y-141484404D02*
X122815428Y-141484404D01*
X123082095Y-141789166D01*
X122967809Y-141789166D01*
X122891619Y-141827261D01*
X122853523Y-141865357D01*
X122815428Y-141941547D01*
X122815428Y-142132023D01*
X122853523Y-142208214D01*
X122891619Y-142246309D01*
X122967809Y-142284404D01*
X123196380Y-142284404D01*
X123272571Y-142246309D01*
X123310666Y-142208214D01*
X123767809Y-146945357D02*
X123653523Y-146983452D01*
X123615428Y-147021547D01*
X123577333Y-147097738D01*
X123577333Y-147212023D01*
X123615428Y-147288214D01*
X123653523Y-147326309D01*
X123729714Y-147364404D01*
X124034476Y-147364404D01*
X124034476Y-146564404D01*
X123767809Y-146564404D01*
X123691619Y-146602500D01*
X123653523Y-146640595D01*
X123615428Y-146716785D01*
X123615428Y-146792976D01*
X123653523Y-146869166D01*
X123691619Y-146907261D01*
X123767809Y-146945357D01*
X124034476Y-146945357D01*
X122891619Y-146564404D02*
X123044000Y-146564404D01*
X123120190Y-146602500D01*
X123158285Y-146640595D01*
X123234476Y-146754880D01*
X123272571Y-146907261D01*
X123272571Y-147212023D01*
X123234476Y-147288214D01*
X123196380Y-147326309D01*
X123120190Y-147364404D01*
X122967809Y-147364404D01*
X122891619Y-147326309D01*
X122853523Y-147288214D01*
X122815428Y-147212023D01*
X122815428Y-147021547D01*
X122853523Y-146945357D01*
X122891619Y-146907261D01*
X122967809Y-146869166D01*
X123120190Y-146869166D01*
X123196380Y-146907261D01*
X123234476Y-146945357D01*
X123272571Y-147021547D01*
X134689809Y-146945357D02*
X134575523Y-146983452D01*
X134537428Y-147021547D01*
X134499333Y-147097738D01*
X134499333Y-147212023D01*
X134537428Y-147288214D01*
X134575523Y-147326309D01*
X134651714Y-147364404D01*
X134956476Y-147364404D01*
X134956476Y-146564404D01*
X134689809Y-146564404D01*
X134613619Y-146602500D01*
X134575523Y-146640595D01*
X134537428Y-146716785D01*
X134537428Y-146792976D01*
X134575523Y-146869166D01*
X134613619Y-146907261D01*
X134689809Y-146945357D01*
X134956476Y-146945357D01*
X133775523Y-146564404D02*
X134156476Y-146564404D01*
X134194571Y-146945357D01*
X134156476Y-146907261D01*
X134080285Y-146869166D01*
X133889809Y-146869166D01*
X133813619Y-146907261D01*
X133775523Y-146945357D01*
X133737428Y-147021547D01*
X133737428Y-147212023D01*
X133775523Y-147288214D01*
X133813619Y-147326309D01*
X133889809Y-147364404D01*
X134080285Y-147364404D01*
X134156476Y-147326309D01*
X134194571Y-147288214D01*
X134689809Y-144405357D02*
X134575523Y-144443452D01*
X134537428Y-144481547D01*
X134499333Y-144557738D01*
X134499333Y-144672023D01*
X134537428Y-144748214D01*
X134575523Y-144786309D01*
X134651714Y-144824404D01*
X134956476Y-144824404D01*
X134956476Y-144024404D01*
X134689809Y-144024404D01*
X134613619Y-144062500D01*
X134575523Y-144100595D01*
X134537428Y-144176785D01*
X134537428Y-144252976D01*
X134575523Y-144329166D01*
X134613619Y-144367261D01*
X134689809Y-144405357D01*
X134956476Y-144405357D01*
X133813619Y-144291071D02*
X133813619Y-144824404D01*
X134004095Y-143986309D02*
X134194571Y-144557738D01*
X133699333Y-144557738D01*
X134918380Y-141865357D02*
X134651714Y-141865357D01*
X134537428Y-142284404D02*
X134918380Y-142284404D01*
X134918380Y-141484404D01*
X134537428Y-141484404D01*
X133851714Y-141484404D02*
X134004095Y-141484404D01*
X134080285Y-141522500D01*
X134118380Y-141560595D01*
X134194571Y-141674880D01*
X134232666Y-141827261D01*
X134232666Y-142132023D01*
X134194571Y-142208214D01*
X134156476Y-142246309D01*
X134080285Y-142284404D01*
X133927904Y-142284404D01*
X133851714Y-142246309D01*
X133813619Y-142208214D01*
X133775523Y-142132023D01*
X133775523Y-141941547D01*
X133813619Y-141865357D01*
X133851714Y-141827261D01*
X133927904Y-141789166D01*
X134080285Y-141789166D01*
X134156476Y-141827261D01*
X134194571Y-141865357D01*
X134232666Y-141941547D01*
X134956476Y-139744404D02*
X134956476Y-138944404D01*
X134766000Y-138944404D01*
X134651714Y-138982500D01*
X134575523Y-139058690D01*
X134537428Y-139134880D01*
X134499333Y-139287261D01*
X134499333Y-139401547D01*
X134537428Y-139553928D01*
X134575523Y-139630119D01*
X134651714Y-139706309D01*
X134766000Y-139744404D01*
X134956476Y-139744404D01*
X134232666Y-138944404D02*
X133699333Y-138944404D01*
X134042190Y-139744404D01*
X134499333Y-137128214D02*
X134537428Y-137166309D01*
X134651714Y-137204404D01*
X134727904Y-137204404D01*
X134842190Y-137166309D01*
X134918380Y-137090119D01*
X134956476Y-137013928D01*
X134994571Y-136861547D01*
X134994571Y-136747261D01*
X134956476Y-136594880D01*
X134918380Y-136518690D01*
X134842190Y-136442500D01*
X134727904Y-136404404D01*
X134651714Y-136404404D01*
X134537428Y-136442500D01*
X134499333Y-136480595D01*
X133813619Y-136404404D02*
X133966000Y-136404404D01*
X134042190Y-136442500D01*
X134080285Y-136480595D01*
X134156476Y-136594880D01*
X134194571Y-136747261D01*
X134194571Y-137052023D01*
X134156476Y-137128214D01*
X134118380Y-137166309D01*
X134042190Y-137204404D01*
X133889809Y-137204404D01*
X133813619Y-137166309D01*
X133775523Y-137128214D01*
X133737428Y-137052023D01*
X133737428Y-136861547D01*
X133775523Y-136785357D01*
X133813619Y-136747261D01*
X133889809Y-136709166D01*
X134042190Y-136709166D01*
X134118380Y-136747261D01*
X134156476Y-136785357D01*
X134194571Y-136861547D01*
X134956476Y-134664404D02*
X134956476Y-133864404D01*
X134766000Y-133864404D01*
X134651714Y-133902500D01*
X134575523Y-133978690D01*
X134537428Y-134054880D01*
X134499333Y-134207261D01*
X134499333Y-134321547D01*
X134537428Y-134473928D01*
X134575523Y-134550119D01*
X134651714Y-134626309D01*
X134766000Y-134664404D01*
X134956476Y-134664404D01*
X133813619Y-134131071D02*
X133813619Y-134664404D01*
X134004095Y-133826309D02*
X134194571Y-134397738D01*
X133699333Y-134397738D01*
X134975523Y-123742500D02*
X135051714Y-123704404D01*
X135166000Y-123704404D01*
X135280285Y-123742500D01*
X135356476Y-123818690D01*
X135394571Y-123894880D01*
X135432666Y-124047261D01*
X135432666Y-124161547D01*
X135394571Y-124313928D01*
X135356476Y-124390119D01*
X135280285Y-124466309D01*
X135166000Y-124504404D01*
X135089809Y-124504404D01*
X134975523Y-124466309D01*
X134937428Y-124428214D01*
X134937428Y-124161547D01*
X135089809Y-124161547D01*
X134594571Y-124504404D02*
X134594571Y-123704404D01*
X134137428Y-124504404D01*
X134137428Y-123704404D01*
X133756476Y-124504404D02*
X133756476Y-123704404D01*
X133566000Y-123704404D01*
X133451714Y-123742500D01*
X133375523Y-123818690D01*
X133337428Y-123894880D01*
X133299333Y-124047261D01*
X133299333Y-124161547D01*
X133337428Y-124313928D01*
X133375523Y-124390119D01*
X133451714Y-124466309D01*
X133566000Y-124504404D01*
X133756476Y-124504404D01*
X134975523Y-126282500D02*
X135051714Y-126244404D01*
X135166000Y-126244404D01*
X135280285Y-126282500D01*
X135356476Y-126358690D01*
X135394571Y-126434880D01*
X135432666Y-126587261D01*
X135432666Y-126701547D01*
X135394571Y-126853928D01*
X135356476Y-126930119D01*
X135280285Y-127006309D01*
X135166000Y-127044404D01*
X135089809Y-127044404D01*
X134975523Y-127006309D01*
X134937428Y-126968214D01*
X134937428Y-126701547D01*
X135089809Y-126701547D01*
X134594571Y-127044404D02*
X134594571Y-126244404D01*
X134137428Y-127044404D01*
X134137428Y-126244404D01*
X133756476Y-127044404D02*
X133756476Y-126244404D01*
X133566000Y-126244404D01*
X133451714Y-126282500D01*
X133375523Y-126358690D01*
X133337428Y-126434880D01*
X133299333Y-126587261D01*
X133299333Y-126701547D01*
X133337428Y-126853928D01*
X133375523Y-126930119D01*
X133451714Y-127006309D01*
X133566000Y-127044404D01*
X133756476Y-127044404D01*
X134956476Y-129584404D02*
X134956476Y-128784404D01*
X134766000Y-128784404D01*
X134651714Y-128822500D01*
X134575523Y-128898690D01*
X134537428Y-128974880D01*
X134499333Y-129127261D01*
X134499333Y-129241547D01*
X134537428Y-129393928D01*
X134575523Y-129470119D01*
X134651714Y-129546309D01*
X134766000Y-129584404D01*
X134956476Y-129584404D01*
X133737428Y-129584404D02*
X134194571Y-129584404D01*
X133966000Y-129584404D02*
X133966000Y-128784404D01*
X134042190Y-128898690D01*
X134118380Y-128974880D01*
X134194571Y-129012976D01*
X134956476Y-132124404D02*
X134956476Y-131324404D01*
X134766000Y-131324404D01*
X134651714Y-131362500D01*
X134575523Y-131438690D01*
X134537428Y-131514880D01*
X134499333Y-131667261D01*
X134499333Y-131781547D01*
X134537428Y-131933928D01*
X134575523Y-132010119D01*
X134651714Y-132086309D01*
X134766000Y-132124404D01*
X134956476Y-132124404D01*
X134004095Y-131324404D02*
X133927904Y-131324404D01*
X133851714Y-131362500D01*
X133813619Y-131400595D01*
X133775523Y-131476785D01*
X133737428Y-131629166D01*
X133737428Y-131819642D01*
X133775523Y-131972023D01*
X133813619Y-132048214D01*
X133851714Y-132086309D01*
X133927904Y-132124404D01*
X134004095Y-132124404D01*
X134080285Y-132086309D01*
X134118380Y-132048214D01*
X134156476Y-131972023D01*
X134194571Y-131819642D01*
X134194571Y-131629166D01*
X134156476Y-131476785D01*
X134118380Y-131400595D01*
X134080285Y-131362500D01*
X134004095Y-131324404D01*
X134956476Y-121964404D02*
X134956476Y-121164404D01*
X134766000Y-121164404D01*
X134651714Y-121202500D01*
X134575523Y-121278690D01*
X134537428Y-121354880D01*
X134499333Y-121507261D01*
X134499333Y-121621547D01*
X134537428Y-121773928D01*
X134575523Y-121850119D01*
X134651714Y-121926309D01*
X134766000Y-121964404D01*
X134956476Y-121964404D01*
X134194571Y-121240595D02*
X134156476Y-121202500D01*
X134080285Y-121164404D01*
X133889809Y-121164404D01*
X133813619Y-121202500D01*
X133775523Y-121240595D01*
X133737428Y-121316785D01*
X133737428Y-121392976D01*
X133775523Y-121507261D01*
X134232666Y-121964404D01*
X133737428Y-121964404D01*
X134667348Y-118624404D02*
X134210205Y-118624404D01*
X134438776Y-119424404D02*
X134438776Y-118624404D01*
X134019729Y-118624404D02*
X133486395Y-119424404D01*
X133486395Y-118624404D02*
X134019729Y-119424404D01*
X133029252Y-118624404D02*
X132953062Y-118624404D01*
X132876872Y-118662500D01*
X132838776Y-118700595D01*
X132800681Y-118776785D01*
X132762586Y-118929166D01*
X132762586Y-119119642D01*
X132800681Y-119272023D01*
X132838776Y-119348214D01*
X132876872Y-119386309D01*
X132953062Y-119424404D01*
X133029252Y-119424404D01*
X133105443Y-119386309D01*
X133143538Y-119348214D01*
X133181633Y-119272023D01*
X133219729Y-119119642D01*
X133219729Y-118929166D01*
X133181633Y-118776785D01*
X133143538Y-118700595D01*
X133105443Y-118662500D01*
X133029252Y-118624404D01*
X131848300Y-118586309D02*
X132534014Y-119614880D01*
X131581633Y-119424404D02*
X131581633Y-118624404D01*
X131391157Y-118624404D01*
X131276872Y-118662500D01*
X131200681Y-118738690D01*
X131162586Y-118814880D01*
X131124491Y-118967261D01*
X131124491Y-119081547D01*
X131162586Y-119233928D01*
X131200681Y-119310119D01*
X131276872Y-119386309D01*
X131391157Y-119424404D01*
X131581633Y-119424404D01*
X130857824Y-118624404D02*
X130362586Y-118624404D01*
X130629252Y-118929166D01*
X130514967Y-118929166D01*
X130438776Y-118967261D01*
X130400681Y-119005357D01*
X130362586Y-119081547D01*
X130362586Y-119272023D01*
X130400681Y-119348214D01*
X130438776Y-119386309D01*
X130514967Y-119424404D01*
X130743538Y-119424404D01*
X130819729Y-119386309D01*
X130857824Y-119348214D01*
%LPC*%
D15*
X110200000Y-121250000D03*
X116400000Y-121250000D03*
X110200000Y-117550000D03*
X116400000Y-117550000D03*
D16*
X68000000Y-141300000D03*
D17*
X70500000Y-141300000D03*
X73000000Y-141300000D03*
D18*
X64900000Y-133800000D03*
X76100000Y-133800000D03*
D17*
X68000000Y-126800000D03*
X73000000Y-126800000D03*
D19*
X125650000Y-161300000D03*
X125650000Y-158100000D03*
X130550000Y-161300000D03*
X130550000Y-158100000D03*
X71450000Y-118100000D03*
X71450000Y-121300000D03*
X66550000Y-118100000D03*
X66550000Y-121300000D03*
D20*
X68800000Y-143600000D03*
X71600000Y-143600000D03*
D21*
X66300000Y-143600000D03*
D22*
X74100000Y-143600000D03*
X74500000Y-162400000D03*
D21*
X66700000Y-162400000D03*
D20*
X72000000Y-162400000D03*
X69200000Y-162400000D03*
X88000000Y-143600000D03*
X90800000Y-143600000D03*
D21*
X85500000Y-143600000D03*
D22*
X93300000Y-143600000D03*
X93400000Y-162400000D03*
D21*
X85600000Y-162400000D03*
D20*
X90900000Y-162400000D03*
X88100000Y-162400000D03*
X107000000Y-143700000D03*
X109800000Y-143700000D03*
D21*
X104500000Y-143700000D03*
D22*
X112300000Y-143700000D03*
X112600000Y-162100000D03*
D21*
X104800000Y-162100000D03*
D20*
X110100000Y-162100000D03*
X107300000Y-162100000D03*
D23*
X73040000Y-147637500D03*
X66690000Y-150177500D03*
D24*
X70500000Y-152717500D03*
D25*
X65420000Y-152717500D03*
X75580000Y-152717500D03*
X94540000Y-133667500D03*
X84380000Y-133667500D03*
D24*
X89460000Y-133667500D03*
D23*
X85650000Y-131127500D03*
X92000000Y-128587500D03*
D25*
X94540000Y-152717500D03*
X84380000Y-152717500D03*
D24*
X89460000Y-152717500D03*
D23*
X85650000Y-150177500D03*
X92000000Y-147637500D03*
D25*
X113580000Y-133667500D03*
X103420000Y-133667500D03*
D24*
X108500000Y-133667500D03*
D23*
X104690000Y-131127500D03*
X111040000Y-128587500D03*
X111000000Y-147637500D03*
X104650000Y-150177500D03*
D24*
X108460000Y-152717500D03*
D25*
X103380000Y-152717500D03*
X113540000Y-152717500D03*
D23*
X73025000Y-128620000D03*
X66675000Y-131160000D03*
D24*
X70485000Y-133700000D03*
D25*
X65405000Y-133700000D03*
X75565000Y-133700000D03*
D17*
X111000000Y-126700000D03*
X106000000Y-126700000D03*
D18*
X114100000Y-133700000D03*
X102900000Y-133700000D03*
D17*
X111000000Y-141200000D03*
X108500000Y-141200000D03*
D16*
X106000000Y-141200000D03*
D26*
X136525000Y-119062500D03*
D27*
X136525000Y-121602500D03*
X136525000Y-124142500D03*
X136525000Y-126682500D03*
X136525000Y-129222500D03*
X136525000Y-131762500D03*
X136525000Y-134302500D03*
X136525000Y-136842500D03*
X136525000Y-139382500D03*
X136525000Y-141922500D03*
X136525000Y-144462500D03*
X121285000Y-147002500D03*
X121285000Y-144462500D03*
X121285000Y-141922500D03*
X121285000Y-139382500D03*
X121285000Y-136842500D03*
X121285000Y-134302500D03*
X121285000Y-131762500D03*
X121285000Y-129222500D03*
X121285000Y-126682500D03*
X121285000Y-124142500D03*
X121285000Y-121602500D03*
X136525000Y-147002500D03*
X121285000Y-119062500D03*
M02*
