G04 #@! TF.GenerationSoftware,KiCad,Pcbnew,(5.1.5)-3*
G04 #@! TF.CreationDate,2020-07-09T22:20:04+02:00*
G04 #@! TF.ProjectId,2x3_macropad,3278335f-6d61-4637-926f-7061642e6b69,rev?*
G04 #@! TF.SameCoordinates,Original*
G04 #@! TF.FileFunction,Copper,L1,Top*
G04 #@! TF.FilePolarity,Positive*
%FSLAX46Y46*%
G04 Gerber Fmt 4.6, Leading zero omitted, Abs format (unit mm)*
G04 Created by KiCad (PCBNEW (5.1.5)-3) date 2020-07-09 22:20:04*
%MOMM*%
%LPD*%
G04 APERTURE LIST*
%ADD10R,2.000000X2.000000*%
%ADD11C,2.000000*%
%ADD12R,2.000000X3.200000*%
%ADD13R,1.600000X1.200000*%
%ADD14C,1.600000*%
%ADD15R,1.600000X1.600000*%
%ADD16R,2.900000X0.500000*%
%ADD17C,2.286000*%
%ADD18C,1.800000*%
%ADD19R,1.752600X1.752600*%
%ADD20C,1.752600*%
%ADD21C,0.800000*%
%ADD22C,0.250000*%
%ADD23C,0.254000*%
G04 APERTURE END LIST*
D10*
X68000000Y-141300000D03*
D11*
X70500000Y-141300000D03*
X73000000Y-141300000D03*
D12*
X64900000Y-133800000D03*
X76100000Y-133800000D03*
D11*
X68000000Y-126800000D03*
X73000000Y-126800000D03*
D13*
X71600000Y-143600000D03*
X68800000Y-143600000D03*
D14*
X66300000Y-143600000D03*
D15*
X74100000Y-143600000D03*
D16*
X67700000Y-143600000D03*
X72700000Y-143600000D03*
X73100000Y-162400000D03*
X68100000Y-162400000D03*
D15*
X74500000Y-162400000D03*
D14*
X66700000Y-162400000D03*
D13*
X69200000Y-162400000D03*
X72000000Y-162400000D03*
X90800000Y-143600000D03*
X88000000Y-143600000D03*
D14*
X85500000Y-143600000D03*
D15*
X93300000Y-143600000D03*
D16*
X86900000Y-143600000D03*
X91900000Y-143600000D03*
X92000000Y-162400000D03*
X87000000Y-162400000D03*
D15*
X93400000Y-162400000D03*
D14*
X85600000Y-162400000D03*
D13*
X88100000Y-162400000D03*
X90900000Y-162400000D03*
X109800000Y-143700000D03*
X107000000Y-143700000D03*
D14*
X104500000Y-143700000D03*
D15*
X112300000Y-143700000D03*
D16*
X105900000Y-143700000D03*
X110900000Y-143700000D03*
X111200000Y-162100000D03*
X106200000Y-162100000D03*
D15*
X112600000Y-162100000D03*
D14*
X104800000Y-162100000D03*
D13*
X107300000Y-162100000D03*
X110100000Y-162100000D03*
D17*
X73040000Y-147637500D03*
X66690000Y-150177500D03*
X85650000Y-131127500D03*
X92000000Y-128587500D03*
X85650000Y-150177500D03*
X92000000Y-147637500D03*
D18*
X113580000Y-133667500D03*
X103420000Y-133667500D03*
D17*
X104690000Y-131127500D03*
X111040000Y-128587500D03*
X111000000Y-147637500D03*
X104650000Y-150177500D03*
X73025000Y-128620000D03*
X66675000Y-131160000D03*
D18*
X65405000Y-133700000D03*
X75565000Y-133700000D03*
D11*
X111000000Y-126700000D03*
X106000000Y-126700000D03*
D12*
X114100000Y-133700000D03*
X102900000Y-133700000D03*
D11*
X111000000Y-141200000D03*
X108500000Y-141200000D03*
D10*
X106000000Y-141200000D03*
D19*
X136525000Y-119062500D03*
D20*
X136525000Y-121602500D03*
X136525000Y-124142500D03*
X136525000Y-126682500D03*
X136525000Y-129222500D03*
X136525000Y-131762500D03*
X136525000Y-134302500D03*
X136525000Y-136842500D03*
X136525000Y-139382500D03*
X136525000Y-141922500D03*
X136525000Y-144462500D03*
X121285000Y-147002500D03*
X121285000Y-144462500D03*
X121285000Y-141922500D03*
X121285000Y-139382500D03*
X121285000Y-136842500D03*
X121285000Y-134302500D03*
X121285000Y-131762500D03*
X121285000Y-129222500D03*
X121285000Y-126682500D03*
X121285000Y-124142500D03*
X121285000Y-121602500D03*
X136525000Y-147002500D03*
X121285000Y-119062500D03*
D21*
X118400000Y-141200000D03*
X118800000Y-136300000D03*
D22*
X66675000Y-143225000D02*
X66300000Y-143600000D01*
X66675000Y-131160000D02*
X66675000Y-143225000D01*
X75150000Y-143600000D02*
X77050000Y-145500000D01*
X74100000Y-143600000D02*
X75150000Y-143600000D01*
X93300000Y-144650000D02*
X93300000Y-143600000D01*
X92450000Y-145500000D02*
X93300000Y-144650000D01*
X77050000Y-145500000D02*
X92450000Y-145500000D01*
X94350000Y-143600000D02*
X96350000Y-145600000D01*
X93300000Y-143600000D02*
X94350000Y-143600000D01*
X112300000Y-144750000D02*
X112300000Y-143700000D01*
X111450000Y-145600000D02*
X112300000Y-144750000D01*
X96350000Y-145600000D02*
X111450000Y-145600000D01*
X120045725Y-136842500D02*
X119249990Y-137638235D01*
X121285000Y-136842500D02*
X120045725Y-136842500D01*
X119249990Y-137638235D02*
X119249990Y-142950010D01*
X118500000Y-143700000D02*
X112300000Y-143700000D01*
X119249990Y-142950010D02*
X118500000Y-143700000D01*
X94450000Y-162400000D02*
X95950000Y-163900000D01*
X93400000Y-162400000D02*
X94450000Y-162400000D01*
X112600000Y-163150000D02*
X112600000Y-162100000D01*
X111850000Y-163900000D02*
X112600000Y-163150000D01*
X95950000Y-163900000D02*
X111850000Y-163900000D01*
X121285000Y-139382500D02*
X119700000Y-140967500D01*
X113650000Y-162100000D02*
X112600000Y-162100000D01*
X119700000Y-156050000D02*
X113650000Y-162100000D01*
X119700000Y-140967500D02*
X119700000Y-156050000D01*
X93400000Y-163450000D02*
X92950000Y-163900000D01*
X93400000Y-162400000D02*
X93400000Y-163450000D01*
X74500000Y-163450000D02*
X74500000Y-162400000D01*
X74950000Y-163900000D02*
X74500000Y-163450000D01*
X92950000Y-163900000D02*
X74950000Y-163900000D01*
X85650000Y-143450000D02*
X85500000Y-143600000D01*
X73000000Y-128595000D02*
X73025000Y-128620000D01*
X73000000Y-126800000D02*
X73000000Y-128595000D01*
X121285000Y-129222500D02*
X115862500Y-123800000D01*
X76000000Y-123800000D02*
X73000000Y-126800000D01*
X115862500Y-123800000D02*
X76000000Y-123800000D01*
X93142999Y-127444501D02*
X92000000Y-128587500D01*
X95212501Y-125374999D02*
X93142999Y-127444501D01*
X114897499Y-125374999D02*
X95212501Y-125374999D01*
X121285000Y-131762500D02*
X114897499Y-125374999D01*
X111000000Y-127100000D02*
X111019499Y-127119499D01*
X111000000Y-126400000D02*
X111000000Y-127100000D01*
X111000000Y-128547500D02*
X111040000Y-128587500D01*
X111000000Y-126700000D02*
X111000000Y-128547500D01*
X115570000Y-128587500D02*
X111040000Y-128587500D01*
X121285000Y-134302500D02*
X115570000Y-128587500D01*
X104825001Y-142525001D02*
X109674999Y-142525001D01*
X103600000Y-141300000D02*
X104825001Y-142525001D01*
X110000001Y-142199999D02*
X111000000Y-141200000D01*
X109674999Y-142525001D02*
X110000001Y-142199999D01*
X73000000Y-141300000D02*
X103600000Y-141300000D01*
X111000000Y-141200000D02*
X118400000Y-141200000D01*
X118400000Y-141200000D02*
X118400000Y-141200000D01*
X68000000Y-140050000D02*
X69650000Y-138400000D01*
X68000000Y-141300000D02*
X68000000Y-140050000D01*
X106000000Y-139950000D02*
X106000000Y-141200000D01*
X104450000Y-138400000D02*
X106000000Y-139950000D01*
X69650000Y-138400000D02*
X104450000Y-138400000D01*
X106000000Y-139950000D02*
X109650000Y-136300000D01*
X109650000Y-136300000D02*
X118800000Y-136300000D01*
X118800000Y-136300000D02*
X118800000Y-136300000D01*
D23*
G36*
X95015198Y-164040000D02*
G01*
X93884801Y-164040000D01*
X93910997Y-164013804D01*
X93940001Y-163990001D01*
X94000031Y-163916854D01*
X94034974Y-163874277D01*
X94054326Y-163838072D01*
X94200000Y-163838072D01*
X94324482Y-163825812D01*
X94444180Y-163789502D01*
X94554494Y-163730537D01*
X94637563Y-163662364D01*
X95015198Y-164040000D01*
G37*
X95015198Y-164040000D02*
X93884801Y-164040000D01*
X93910997Y-164013804D01*
X93940001Y-163990001D01*
X94000031Y-163916854D01*
X94034974Y-163874277D01*
X94054326Y-163838072D01*
X94200000Y-163838072D01*
X94324482Y-163825812D01*
X94444180Y-163789502D01*
X94554494Y-163730537D01*
X94637563Y-163662364D01*
X95015198Y-164040000D01*
G36*
X137590001Y-117579869D02*
G01*
X137525782Y-117560388D01*
X137401300Y-117548128D01*
X135648700Y-117548128D01*
X135524218Y-117560388D01*
X135404520Y-117596698D01*
X135294206Y-117655663D01*
X135197515Y-117735015D01*
X135118163Y-117831706D01*
X135059198Y-117942020D01*
X135022888Y-118061718D01*
X135010628Y-118186200D01*
X135010628Y-119938800D01*
X135022888Y-120063282D01*
X135059198Y-120182980D01*
X135118163Y-120293294D01*
X135197515Y-120389985D01*
X135294206Y-120469337D01*
X135404520Y-120528302D01*
X135448542Y-120541656D01*
X135351096Y-120639102D01*
X135185703Y-120886631D01*
X135071778Y-121161670D01*
X135013700Y-121453650D01*
X135013700Y-121751350D01*
X135071778Y-122043330D01*
X135185703Y-122318369D01*
X135351096Y-122565898D01*
X135561602Y-122776404D01*
X135705420Y-122872500D01*
X135561602Y-122968596D01*
X135351096Y-123179102D01*
X135185703Y-123426631D01*
X135071778Y-123701670D01*
X135013700Y-123993650D01*
X135013700Y-124291350D01*
X135071778Y-124583330D01*
X135185703Y-124858369D01*
X135351096Y-125105898D01*
X135561602Y-125316404D01*
X135705420Y-125412500D01*
X135561602Y-125508596D01*
X135351096Y-125719102D01*
X135185703Y-125966631D01*
X135071778Y-126241670D01*
X135013700Y-126533650D01*
X135013700Y-126831350D01*
X135071778Y-127123330D01*
X135185703Y-127398369D01*
X135351096Y-127645898D01*
X135561602Y-127856404D01*
X135705420Y-127952500D01*
X135561602Y-128048596D01*
X135351096Y-128259102D01*
X135185703Y-128506631D01*
X135071778Y-128781670D01*
X135013700Y-129073650D01*
X135013700Y-129371350D01*
X135071778Y-129663330D01*
X135185703Y-129938369D01*
X135351096Y-130185898D01*
X135561602Y-130396404D01*
X135705420Y-130492500D01*
X135561602Y-130588596D01*
X135351096Y-130799102D01*
X135185703Y-131046631D01*
X135071778Y-131321670D01*
X135013700Y-131613650D01*
X135013700Y-131911350D01*
X135071778Y-132203330D01*
X135185703Y-132478369D01*
X135351096Y-132725898D01*
X135561602Y-132936404D01*
X135705420Y-133032500D01*
X135561602Y-133128596D01*
X135351096Y-133339102D01*
X135185703Y-133586631D01*
X135071778Y-133861670D01*
X135013700Y-134153650D01*
X135013700Y-134451350D01*
X135071778Y-134743330D01*
X135185703Y-135018369D01*
X135351096Y-135265898D01*
X135561602Y-135476404D01*
X135705420Y-135572500D01*
X135561602Y-135668596D01*
X135351096Y-135879102D01*
X135185703Y-136126631D01*
X135071778Y-136401670D01*
X135013700Y-136693650D01*
X135013700Y-136991350D01*
X135071778Y-137283330D01*
X135185703Y-137558369D01*
X135351096Y-137805898D01*
X135561602Y-138016404D01*
X135705420Y-138112500D01*
X135561602Y-138208596D01*
X135351096Y-138419102D01*
X135185703Y-138666631D01*
X135071778Y-138941670D01*
X135013700Y-139233650D01*
X135013700Y-139531350D01*
X135071778Y-139823330D01*
X135185703Y-140098369D01*
X135351096Y-140345898D01*
X135561602Y-140556404D01*
X135705420Y-140652500D01*
X135561602Y-140748596D01*
X135351096Y-140959102D01*
X135185703Y-141206631D01*
X135071778Y-141481670D01*
X135013700Y-141773650D01*
X135013700Y-142071350D01*
X135071778Y-142363330D01*
X135185703Y-142638369D01*
X135351096Y-142885898D01*
X135561602Y-143096404D01*
X135705420Y-143192500D01*
X135561602Y-143288596D01*
X135351096Y-143499102D01*
X135185703Y-143746631D01*
X135071778Y-144021670D01*
X135013700Y-144313650D01*
X135013700Y-144611350D01*
X135071778Y-144903330D01*
X135185703Y-145178369D01*
X135351096Y-145425898D01*
X135561602Y-145636404D01*
X135705420Y-145732500D01*
X135561602Y-145828596D01*
X135351096Y-146039102D01*
X135185703Y-146286631D01*
X135071778Y-146561670D01*
X135013700Y-146853650D01*
X135013700Y-147151350D01*
X135071778Y-147443330D01*
X135185703Y-147718369D01*
X135351096Y-147965898D01*
X135561602Y-148176404D01*
X135809131Y-148341797D01*
X136084170Y-148455722D01*
X136376150Y-148513800D01*
X136673850Y-148513800D01*
X136965830Y-148455722D01*
X137240869Y-148341797D01*
X137488398Y-148176404D01*
X137590000Y-148074802D01*
X137590000Y-164040000D01*
X112784802Y-164040000D01*
X113111004Y-163713798D01*
X113140001Y-163690001D01*
X113234974Y-163574276D01*
X113254326Y-163538072D01*
X113400000Y-163538072D01*
X113524482Y-163525812D01*
X113644180Y-163489502D01*
X113754494Y-163430537D01*
X113851185Y-163351185D01*
X113930537Y-163254494D01*
X113989502Y-163144180D01*
X114025812Y-163024482D01*
X114038072Y-162900000D01*
X114038072Y-162754326D01*
X114074276Y-162734974D01*
X114190001Y-162640001D01*
X114213804Y-162610997D01*
X120211003Y-156613799D01*
X120240001Y-156590001D01*
X120266332Y-156557917D01*
X120334974Y-156474277D01*
X120405546Y-156342247D01*
X120449003Y-156198986D01*
X120460000Y-156087333D01*
X120460000Y-156087324D01*
X120463676Y-156050001D01*
X120460000Y-156012678D01*
X120460000Y-148268878D01*
X120569131Y-148341797D01*
X120844170Y-148455722D01*
X121136150Y-148513800D01*
X121433850Y-148513800D01*
X121725830Y-148455722D01*
X122000869Y-148341797D01*
X122248398Y-148176404D01*
X122458904Y-147965898D01*
X122624297Y-147718369D01*
X122738222Y-147443330D01*
X122796300Y-147151350D01*
X122796300Y-146853650D01*
X122738222Y-146561670D01*
X122624297Y-146286631D01*
X122458904Y-146039102D01*
X122248398Y-145828596D01*
X122104580Y-145732500D01*
X122248398Y-145636404D01*
X122458904Y-145425898D01*
X122624297Y-145178369D01*
X122738222Y-144903330D01*
X122796300Y-144611350D01*
X122796300Y-144313650D01*
X122738222Y-144021670D01*
X122624297Y-143746631D01*
X122458904Y-143499102D01*
X122248398Y-143288596D01*
X122104580Y-143192500D01*
X122248398Y-143096404D01*
X122458904Y-142885898D01*
X122624297Y-142638369D01*
X122738222Y-142363330D01*
X122796300Y-142071350D01*
X122796300Y-141773650D01*
X122738222Y-141481670D01*
X122624297Y-141206631D01*
X122458904Y-140959102D01*
X122248398Y-140748596D01*
X122104580Y-140652500D01*
X122248398Y-140556404D01*
X122458904Y-140345898D01*
X122624297Y-140098369D01*
X122738222Y-139823330D01*
X122796300Y-139531350D01*
X122796300Y-139233650D01*
X122738222Y-138941670D01*
X122624297Y-138666631D01*
X122458904Y-138419102D01*
X122248398Y-138208596D01*
X122104580Y-138112500D01*
X122248398Y-138016404D01*
X122458904Y-137805898D01*
X122624297Y-137558369D01*
X122738222Y-137283330D01*
X122796300Y-136991350D01*
X122796300Y-136693650D01*
X122738222Y-136401670D01*
X122624297Y-136126631D01*
X122458904Y-135879102D01*
X122248398Y-135668596D01*
X122104580Y-135572500D01*
X122248398Y-135476404D01*
X122458904Y-135265898D01*
X122624297Y-135018369D01*
X122738222Y-134743330D01*
X122796300Y-134451350D01*
X122796300Y-134153650D01*
X122738222Y-133861670D01*
X122624297Y-133586631D01*
X122458904Y-133339102D01*
X122248398Y-133128596D01*
X122104580Y-133032500D01*
X122248398Y-132936404D01*
X122458904Y-132725898D01*
X122624297Y-132478369D01*
X122738222Y-132203330D01*
X122796300Y-131911350D01*
X122796300Y-131613650D01*
X122738222Y-131321670D01*
X122624297Y-131046631D01*
X122458904Y-130799102D01*
X122248398Y-130588596D01*
X122104580Y-130492500D01*
X122248398Y-130396404D01*
X122458904Y-130185898D01*
X122624297Y-129938369D01*
X122738222Y-129663330D01*
X122796300Y-129371350D01*
X122796300Y-129073650D01*
X122738222Y-128781670D01*
X122624297Y-128506631D01*
X122458904Y-128259102D01*
X122248398Y-128048596D01*
X122104580Y-127952500D01*
X122248398Y-127856404D01*
X122458904Y-127645898D01*
X122624297Y-127398369D01*
X122738222Y-127123330D01*
X122796300Y-126831350D01*
X122796300Y-126533650D01*
X122738222Y-126241670D01*
X122624297Y-125966631D01*
X122458904Y-125719102D01*
X122248398Y-125508596D01*
X122104580Y-125412500D01*
X122248398Y-125316404D01*
X122458904Y-125105898D01*
X122624297Y-124858369D01*
X122738222Y-124583330D01*
X122796300Y-124291350D01*
X122796300Y-123993650D01*
X122738222Y-123701670D01*
X122624297Y-123426631D01*
X122458904Y-123179102D01*
X122248398Y-122968596D01*
X122104580Y-122872500D01*
X122248398Y-122776404D01*
X122458904Y-122565898D01*
X122624297Y-122318369D01*
X122738222Y-122043330D01*
X122796300Y-121751350D01*
X122796300Y-121453650D01*
X122738222Y-121161670D01*
X122624297Y-120886631D01*
X122458904Y-120639102D01*
X122248398Y-120428596D01*
X122104580Y-120332500D01*
X122248398Y-120236404D01*
X122458904Y-120025898D01*
X122624297Y-119778369D01*
X122738222Y-119503330D01*
X122796300Y-119211350D01*
X122796300Y-118913650D01*
X122738222Y-118621670D01*
X122624297Y-118346631D01*
X122458904Y-118099102D01*
X122248398Y-117888596D01*
X122000869Y-117723203D01*
X121725830Y-117609278D01*
X121433850Y-117551200D01*
X121136150Y-117551200D01*
X120844170Y-117609278D01*
X120569131Y-117723203D01*
X120321602Y-117888596D01*
X120111096Y-118099102D01*
X119945703Y-118346631D01*
X119831778Y-118621670D01*
X119773700Y-118913650D01*
X119773700Y-119211350D01*
X119831778Y-119503330D01*
X119945703Y-119778369D01*
X120111096Y-120025898D01*
X120321602Y-120236404D01*
X120465420Y-120332500D01*
X120321602Y-120428596D01*
X120111096Y-120639102D01*
X119945703Y-120886631D01*
X119831778Y-121161670D01*
X119773700Y-121453650D01*
X119773700Y-121751350D01*
X119831778Y-122043330D01*
X119945703Y-122318369D01*
X120111096Y-122565898D01*
X120321602Y-122776404D01*
X120465420Y-122872500D01*
X120321602Y-122968596D01*
X120111096Y-123179102D01*
X119945703Y-123426631D01*
X119831778Y-123701670D01*
X119773700Y-123993650D01*
X119773700Y-124291350D01*
X119831778Y-124583330D01*
X119945703Y-124858369D01*
X120111096Y-125105898D01*
X120321602Y-125316404D01*
X120465420Y-125412500D01*
X120321602Y-125508596D01*
X120111096Y-125719102D01*
X119945703Y-125966631D01*
X119831778Y-126241670D01*
X119773700Y-126533650D01*
X119773700Y-126636398D01*
X116426304Y-123289003D01*
X116402501Y-123259999D01*
X116286776Y-123165026D01*
X116154747Y-123094454D01*
X116011486Y-123050997D01*
X115899833Y-123040000D01*
X115899822Y-123040000D01*
X115862500Y-123036324D01*
X115825178Y-123040000D01*
X76037325Y-123040000D01*
X76000000Y-123036324D01*
X75962675Y-123040000D01*
X75962667Y-123040000D01*
X75851014Y-123050997D01*
X75707753Y-123094454D01*
X75575724Y-123165026D01*
X75459999Y-123259999D01*
X75436201Y-123288997D01*
X73491376Y-125233823D01*
X73476912Y-125227832D01*
X73161033Y-125165000D01*
X72838967Y-125165000D01*
X72523088Y-125227832D01*
X72225537Y-125351082D01*
X71957748Y-125530013D01*
X71730013Y-125757748D01*
X71551082Y-126025537D01*
X71427832Y-126323088D01*
X71365000Y-126638967D01*
X71365000Y-126961033D01*
X71427832Y-127276912D01*
X71551082Y-127574463D01*
X71568152Y-127600011D01*
X71449357Y-127777801D01*
X71315328Y-128101377D01*
X71247000Y-128444882D01*
X71247000Y-128795118D01*
X71315328Y-129138623D01*
X71449357Y-129462199D01*
X71643937Y-129753409D01*
X71891591Y-130001063D01*
X72182801Y-130195643D01*
X72506377Y-130329672D01*
X72849882Y-130398000D01*
X73200118Y-130398000D01*
X73543623Y-130329672D01*
X73867199Y-130195643D01*
X74158409Y-130001063D01*
X74406063Y-129753409D01*
X74600643Y-129462199D01*
X74734672Y-129138623D01*
X74803000Y-128795118D01*
X74803000Y-128444882D01*
X74734672Y-128101377D01*
X74600643Y-127777801D01*
X74454987Y-127559811D01*
X74572168Y-127276912D01*
X74635000Y-126961033D01*
X74635000Y-126638967D01*
X74572168Y-126323088D01*
X74566177Y-126308624D01*
X76314802Y-124560000D01*
X115547699Y-124560000D01*
X119821424Y-128833725D01*
X119773700Y-129073650D01*
X119773700Y-129176398D01*
X115461303Y-124864002D01*
X115437500Y-124834998D01*
X115321775Y-124740025D01*
X115189746Y-124669453D01*
X115046485Y-124625996D01*
X114934832Y-124614999D01*
X114934821Y-124614999D01*
X114897499Y-124611323D01*
X114860177Y-124614999D01*
X95249826Y-124614999D01*
X95212501Y-124611323D01*
X95175176Y-124614999D01*
X95175168Y-124614999D01*
X95063515Y-124625996D01*
X94920254Y-124669453D01*
X94788225Y-124740025D01*
X94672500Y-124834998D01*
X94648702Y-124863996D01*
X92632001Y-126880698D01*
X92631996Y-126880702D01*
X92600822Y-126911876D01*
X92518623Y-126877828D01*
X92175118Y-126809500D01*
X91824882Y-126809500D01*
X91481377Y-126877828D01*
X91157801Y-127011857D01*
X90866591Y-127206437D01*
X90618937Y-127454091D01*
X90424357Y-127745301D01*
X90290328Y-128068877D01*
X90222000Y-128412382D01*
X90222000Y-128762618D01*
X90290328Y-129106123D01*
X90424357Y-129429699D01*
X90618937Y-129720909D01*
X90866591Y-129968563D01*
X91157801Y-130163143D01*
X91481377Y-130297172D01*
X91824882Y-130365500D01*
X92175118Y-130365500D01*
X92518623Y-130297172D01*
X92842199Y-130163143D01*
X93133409Y-129968563D01*
X93381063Y-129720909D01*
X93575643Y-129429699D01*
X93709672Y-129106123D01*
X93778000Y-128762618D01*
X93778000Y-128412382D01*
X93709672Y-128068877D01*
X93675624Y-127986678D01*
X93706798Y-127955504D01*
X93706802Y-127955499D01*
X95527303Y-126134999D01*
X104464320Y-126134999D01*
X104427832Y-126223088D01*
X104365000Y-126538967D01*
X104365000Y-126861033D01*
X104427832Y-127176912D01*
X104551082Y-127474463D01*
X104730013Y-127742252D01*
X104957748Y-127969987D01*
X105225537Y-128148918D01*
X105523088Y-128272168D01*
X105838967Y-128335000D01*
X106161033Y-128335000D01*
X106476912Y-128272168D01*
X106774463Y-128148918D01*
X107042252Y-127969987D01*
X107269987Y-127742252D01*
X107448918Y-127474463D01*
X107572168Y-127176912D01*
X107635000Y-126861033D01*
X107635000Y-126538967D01*
X107572168Y-126223088D01*
X107535680Y-126134999D01*
X109464320Y-126134999D01*
X109427832Y-126223088D01*
X109365000Y-126538967D01*
X109365000Y-126861033D01*
X109427832Y-127176912D01*
X109551082Y-127474463D01*
X109598203Y-127544985D01*
X109464357Y-127745301D01*
X109330328Y-128068877D01*
X109262000Y-128412382D01*
X109262000Y-128762618D01*
X109330328Y-129106123D01*
X109464357Y-129429699D01*
X109658937Y-129720909D01*
X109906591Y-129968563D01*
X110197801Y-130163143D01*
X110521377Y-130297172D01*
X110864882Y-130365500D01*
X111215118Y-130365500D01*
X111558623Y-130297172D01*
X111882199Y-130163143D01*
X112173409Y-129968563D01*
X112421063Y-129720909D01*
X112615643Y-129429699D01*
X112649691Y-129347500D01*
X115255199Y-129347500D01*
X119821424Y-133913725D01*
X119773700Y-134153650D01*
X119773700Y-134451350D01*
X119831778Y-134743330D01*
X119945703Y-135018369D01*
X120111096Y-135265898D01*
X120321602Y-135476404D01*
X120465420Y-135572500D01*
X120321602Y-135668596D01*
X120111096Y-135879102D01*
X119972851Y-136086000D01*
X119896739Y-136093497D01*
X119818898Y-136117109D01*
X119795226Y-135998102D01*
X119717205Y-135809744D01*
X119603937Y-135640226D01*
X119459774Y-135496063D01*
X119290256Y-135382795D01*
X119101898Y-135304774D01*
X118901939Y-135265000D01*
X118698061Y-135265000D01*
X118498102Y-135304774D01*
X118309744Y-135382795D01*
X118140226Y-135496063D01*
X118096289Y-135540000D01*
X115690770Y-135540000D01*
X115725812Y-135424482D01*
X115738072Y-135300000D01*
X115738072Y-132100000D01*
X115725812Y-131975518D01*
X115689502Y-131855820D01*
X115630537Y-131745506D01*
X115551185Y-131648815D01*
X115454494Y-131569463D01*
X115344180Y-131510498D01*
X115224482Y-131474188D01*
X115100000Y-131461928D01*
X113100000Y-131461928D01*
X112975518Y-131474188D01*
X112855820Y-131510498D01*
X112745506Y-131569463D01*
X112648815Y-131648815D01*
X112569463Y-131745506D01*
X112510498Y-131855820D01*
X112474188Y-131975518D01*
X112461928Y-132100000D01*
X112461928Y-132614755D01*
X112387688Y-132688995D01*
X112219701Y-132940405D01*
X112103989Y-133219757D01*
X112045000Y-133516316D01*
X112045000Y-133818684D01*
X112103989Y-134115243D01*
X112219701Y-134394595D01*
X112387688Y-134646005D01*
X112461928Y-134720245D01*
X112461928Y-135300000D01*
X112474188Y-135424482D01*
X112509230Y-135540000D01*
X110345326Y-135540000D01*
X110542000Y-135343326D01*
X110829701Y-134912751D01*
X111027873Y-134434322D01*
X111128900Y-133926424D01*
X111128900Y-133408576D01*
X111027873Y-132900678D01*
X110829701Y-132422249D01*
X110542000Y-131991674D01*
X110175826Y-131625500D01*
X109745251Y-131337799D01*
X109266822Y-131139627D01*
X108758924Y-131038600D01*
X108241076Y-131038600D01*
X107733178Y-131139627D01*
X107254749Y-131337799D01*
X106824174Y-131625500D01*
X106458000Y-131991674D01*
X106170299Y-132422249D01*
X105972127Y-132900678D01*
X105871100Y-133408576D01*
X105871100Y-133926424D01*
X105972127Y-134434322D01*
X106170299Y-134912751D01*
X106458000Y-135343326D01*
X106824174Y-135709500D01*
X107254749Y-135997201D01*
X107733178Y-136195373D01*
X108241076Y-136296400D01*
X108578798Y-136296400D01*
X106000000Y-138875199D01*
X105013804Y-137889003D01*
X104990001Y-137859999D01*
X104874276Y-137765026D01*
X104742247Y-137694454D01*
X104598986Y-137650997D01*
X104487333Y-137640000D01*
X104487322Y-137640000D01*
X104450000Y-137636324D01*
X104412678Y-137640000D01*
X69687322Y-137640000D01*
X69649999Y-137636324D01*
X69612676Y-137640000D01*
X69612667Y-137640000D01*
X69501014Y-137650997D01*
X69357753Y-137694454D01*
X69225724Y-137765026D01*
X69225722Y-137765027D01*
X69225723Y-137765027D01*
X69138996Y-137836201D01*
X69138992Y-137836205D01*
X69109999Y-137859999D01*
X69086205Y-137888992D01*
X67488998Y-139486201D01*
X67460000Y-139509999D01*
X67436202Y-139538997D01*
X67436201Y-139538998D01*
X67435000Y-139540461D01*
X67435000Y-133441076D01*
X67856100Y-133441076D01*
X67856100Y-133958924D01*
X67957127Y-134466822D01*
X68155299Y-134945251D01*
X68443000Y-135375826D01*
X68809174Y-135742000D01*
X69239749Y-136029701D01*
X69718178Y-136227873D01*
X70226076Y-136328900D01*
X70743924Y-136328900D01*
X71251822Y-136227873D01*
X71730251Y-136029701D01*
X72160826Y-135742000D01*
X72527000Y-135375826D01*
X72814701Y-134945251D01*
X73012873Y-134466822D01*
X73113900Y-133958924D01*
X73113900Y-133548816D01*
X74030000Y-133548816D01*
X74030000Y-133851184D01*
X74088989Y-134147743D01*
X74204701Y-134427095D01*
X74372688Y-134678505D01*
X74461928Y-134767745D01*
X74461928Y-135400000D01*
X74474188Y-135524482D01*
X74510498Y-135644180D01*
X74569463Y-135754494D01*
X74648815Y-135851185D01*
X74745506Y-135930537D01*
X74855820Y-135989502D01*
X74975518Y-136025812D01*
X75100000Y-136038072D01*
X77100000Y-136038072D01*
X77224482Y-136025812D01*
X77344180Y-135989502D01*
X77454494Y-135930537D01*
X77551185Y-135851185D01*
X77630537Y-135754494D01*
X77689502Y-135644180D01*
X77725812Y-135524482D01*
X77738072Y-135400000D01*
X77738072Y-133516316D01*
X82845000Y-133516316D01*
X82845000Y-133818684D01*
X82903989Y-134115243D01*
X83019701Y-134394595D01*
X83187688Y-134646005D01*
X83401495Y-134859812D01*
X83652905Y-135027799D01*
X83932257Y-135143511D01*
X84228816Y-135202500D01*
X84531184Y-135202500D01*
X84827743Y-135143511D01*
X85107095Y-135027799D01*
X85358505Y-134859812D01*
X85572312Y-134646005D01*
X85740299Y-134394595D01*
X85856011Y-134115243D01*
X85915000Y-133818684D01*
X85915000Y-133516316D01*
X85893570Y-133408576D01*
X86831100Y-133408576D01*
X86831100Y-133926424D01*
X86932127Y-134434322D01*
X87130299Y-134912751D01*
X87418000Y-135343326D01*
X87784174Y-135709500D01*
X88214749Y-135997201D01*
X88693178Y-136195373D01*
X89201076Y-136296400D01*
X89718924Y-136296400D01*
X90226822Y-136195373D01*
X90705251Y-135997201D01*
X91135826Y-135709500D01*
X91502000Y-135343326D01*
X91789701Y-134912751D01*
X91987873Y-134434322D01*
X92088900Y-133926424D01*
X92088900Y-133516316D01*
X93005000Y-133516316D01*
X93005000Y-133818684D01*
X93063989Y-134115243D01*
X93179701Y-134394595D01*
X93347688Y-134646005D01*
X93561495Y-134859812D01*
X93812905Y-135027799D01*
X94092257Y-135143511D01*
X94388816Y-135202500D01*
X94691184Y-135202500D01*
X94987743Y-135143511D01*
X95267095Y-135027799D01*
X95518505Y-134859812D01*
X95732312Y-134646005D01*
X95900299Y-134394595D01*
X96016011Y-134115243D01*
X96075000Y-133818684D01*
X96075000Y-133516316D01*
X96016011Y-133219757D01*
X95900299Y-132940405D01*
X95732312Y-132688995D01*
X95518505Y-132475188D01*
X95267095Y-132307201D01*
X94987743Y-132191489D01*
X94691184Y-132132500D01*
X94388816Y-132132500D01*
X94092257Y-132191489D01*
X93812905Y-132307201D01*
X93561495Y-132475188D01*
X93347688Y-132688995D01*
X93179701Y-132940405D01*
X93063989Y-133219757D01*
X93005000Y-133516316D01*
X92088900Y-133516316D01*
X92088900Y-133408576D01*
X91987873Y-132900678D01*
X91789701Y-132422249D01*
X91574382Y-132100000D01*
X101261928Y-132100000D01*
X101261928Y-135300000D01*
X101274188Y-135424482D01*
X101310498Y-135544180D01*
X101369463Y-135654494D01*
X101448815Y-135751185D01*
X101545506Y-135830537D01*
X101655820Y-135889502D01*
X101775518Y-135925812D01*
X101900000Y-135938072D01*
X103900000Y-135938072D01*
X104024482Y-135925812D01*
X104144180Y-135889502D01*
X104254494Y-135830537D01*
X104351185Y-135751185D01*
X104430537Y-135654494D01*
X104489502Y-135544180D01*
X104525812Y-135424482D01*
X104538072Y-135300000D01*
X104538072Y-134720245D01*
X104612312Y-134646005D01*
X104780299Y-134394595D01*
X104896011Y-134115243D01*
X104955000Y-133818684D01*
X104955000Y-133516316D01*
X104896011Y-133219757D01*
X104780299Y-132940405D01*
X104756976Y-132905500D01*
X104865118Y-132905500D01*
X105208623Y-132837172D01*
X105532199Y-132703143D01*
X105823409Y-132508563D01*
X106071063Y-132260909D01*
X106265643Y-131969699D01*
X106399672Y-131646123D01*
X106468000Y-131302618D01*
X106468000Y-130952382D01*
X106399672Y-130608877D01*
X106265643Y-130285301D01*
X106071063Y-129994091D01*
X105823409Y-129746437D01*
X105532199Y-129551857D01*
X105208623Y-129417828D01*
X104865118Y-129349500D01*
X104514882Y-129349500D01*
X104171377Y-129417828D01*
X103847801Y-129551857D01*
X103556591Y-129746437D01*
X103308937Y-129994091D01*
X103114357Y-130285301D01*
X102980328Y-130608877D01*
X102912000Y-130952382D01*
X102912000Y-131302618D01*
X102943689Y-131461928D01*
X101900000Y-131461928D01*
X101775518Y-131474188D01*
X101655820Y-131510498D01*
X101545506Y-131569463D01*
X101448815Y-131648815D01*
X101369463Y-131745506D01*
X101310498Y-131855820D01*
X101274188Y-131975518D01*
X101261928Y-132100000D01*
X91574382Y-132100000D01*
X91502000Y-131991674D01*
X91135826Y-131625500D01*
X90705251Y-131337799D01*
X90226822Y-131139627D01*
X89718924Y-131038600D01*
X89201076Y-131038600D01*
X88693178Y-131139627D01*
X88214749Y-131337799D01*
X87784174Y-131625500D01*
X87418000Y-131991674D01*
X87130299Y-132422249D01*
X86932127Y-132900678D01*
X86831100Y-133408576D01*
X85893570Y-133408576D01*
X85856011Y-133219757D01*
X85740299Y-132940405D01*
X85716976Y-132905500D01*
X85825118Y-132905500D01*
X86168623Y-132837172D01*
X86492199Y-132703143D01*
X86783409Y-132508563D01*
X87031063Y-132260909D01*
X87225643Y-131969699D01*
X87359672Y-131646123D01*
X87428000Y-131302618D01*
X87428000Y-130952382D01*
X87359672Y-130608877D01*
X87225643Y-130285301D01*
X87031063Y-129994091D01*
X86783409Y-129746437D01*
X86492199Y-129551857D01*
X86168623Y-129417828D01*
X85825118Y-129349500D01*
X85474882Y-129349500D01*
X85131377Y-129417828D01*
X84807801Y-129551857D01*
X84516591Y-129746437D01*
X84268937Y-129994091D01*
X84074357Y-130285301D01*
X83940328Y-130608877D01*
X83872000Y-130952382D01*
X83872000Y-131302618D01*
X83940328Y-131646123D01*
X84074357Y-131969699D01*
X84188496Y-132140520D01*
X83932257Y-132191489D01*
X83652905Y-132307201D01*
X83401495Y-132475188D01*
X83187688Y-132688995D01*
X83019701Y-132940405D01*
X82903989Y-133219757D01*
X82845000Y-133516316D01*
X77738072Y-133516316D01*
X77738072Y-132200000D01*
X77725812Y-132075518D01*
X77689502Y-131955820D01*
X77630537Y-131845506D01*
X77551185Y-131748815D01*
X77454494Y-131669463D01*
X77344180Y-131610498D01*
X77224482Y-131574188D01*
X77100000Y-131561928D01*
X75100000Y-131561928D01*
X74975518Y-131574188D01*
X74855820Y-131610498D01*
X74745506Y-131669463D01*
X74648815Y-131748815D01*
X74569463Y-131845506D01*
X74510498Y-131955820D01*
X74474188Y-132075518D01*
X74461928Y-132200000D01*
X74461928Y-132632255D01*
X74372688Y-132721495D01*
X74204701Y-132972905D01*
X74088989Y-133252257D01*
X74030000Y-133548816D01*
X73113900Y-133548816D01*
X73113900Y-133441076D01*
X73012873Y-132933178D01*
X72814701Y-132454749D01*
X72527000Y-132024174D01*
X72160826Y-131658000D01*
X71730251Y-131370299D01*
X71251822Y-131172127D01*
X70743924Y-131071100D01*
X70226076Y-131071100D01*
X69718178Y-131172127D01*
X69239749Y-131370299D01*
X68809174Y-131658000D01*
X68443000Y-132024174D01*
X68155299Y-132454749D01*
X67957127Y-132933178D01*
X67856100Y-133441076D01*
X67435000Y-133441076D01*
X67435000Y-132769691D01*
X67517199Y-132735643D01*
X67808409Y-132541063D01*
X68056063Y-132293409D01*
X68250643Y-132002199D01*
X68384672Y-131678623D01*
X68453000Y-131335118D01*
X68453000Y-130984882D01*
X68384672Y-130641377D01*
X68250643Y-130317801D01*
X68056063Y-130026591D01*
X67808409Y-129778937D01*
X67517199Y-129584357D01*
X67193623Y-129450328D01*
X66850118Y-129382000D01*
X66499882Y-129382000D01*
X66156377Y-129450328D01*
X65832801Y-129584357D01*
X65541591Y-129778937D01*
X65293937Y-130026591D01*
X65099357Y-130317801D01*
X64965328Y-130641377D01*
X64897000Y-130984882D01*
X64897000Y-131335118D01*
X64942116Y-131561928D01*
X63900000Y-131561928D01*
X63775518Y-131574188D01*
X63655820Y-131610498D01*
X63545506Y-131669463D01*
X63448815Y-131748815D01*
X63369463Y-131845506D01*
X63310498Y-131955820D01*
X63274188Y-132075518D01*
X63261928Y-132200000D01*
X63261928Y-135400000D01*
X63274188Y-135524482D01*
X63310498Y-135644180D01*
X63369463Y-135754494D01*
X63448815Y-135851185D01*
X63545506Y-135930537D01*
X63655820Y-135989502D01*
X63775518Y-136025812D01*
X63900000Y-136038072D01*
X65900000Y-136038072D01*
X65915000Y-136036595D01*
X65915001Y-142213468D01*
X65881426Y-142220147D01*
X65620273Y-142328320D01*
X65385241Y-142485363D01*
X65185363Y-142685241D01*
X65028320Y-142920273D01*
X64920147Y-143181426D01*
X64865000Y-143458665D01*
X64865000Y-143741335D01*
X64920147Y-144018574D01*
X65028320Y-144279727D01*
X65185363Y-144514759D01*
X65385241Y-144714637D01*
X65620273Y-144871680D01*
X65881426Y-144979853D01*
X66158665Y-145035000D01*
X66441335Y-145035000D01*
X66718574Y-144979853D01*
X66979727Y-144871680D01*
X67214759Y-144714637D01*
X67414637Y-144514759D01*
X67432469Y-144488072D01*
X67433959Y-144488072D01*
X67469463Y-144554494D01*
X67548815Y-144651185D01*
X67645506Y-144730537D01*
X67755820Y-144789502D01*
X67875518Y-144825812D01*
X68000000Y-144838072D01*
X69600000Y-144838072D01*
X69724482Y-144825812D01*
X69844180Y-144789502D01*
X69954494Y-144730537D01*
X70051185Y-144651185D01*
X70130537Y-144554494D01*
X70189502Y-144444180D01*
X70200000Y-144409573D01*
X70210498Y-144444180D01*
X70269463Y-144554494D01*
X70348815Y-144651185D01*
X70445506Y-144730537D01*
X70555820Y-144789502D01*
X70675518Y-144825812D01*
X70800000Y-144838072D01*
X72400000Y-144838072D01*
X72524482Y-144825812D01*
X72644180Y-144789502D01*
X72754494Y-144730537D01*
X72755998Y-144729303D01*
X72769463Y-144754494D01*
X72848815Y-144851185D01*
X72945506Y-144930537D01*
X73055820Y-144989502D01*
X73175518Y-145025812D01*
X73300000Y-145038072D01*
X74900000Y-145038072D01*
X75024482Y-145025812D01*
X75144180Y-144989502D01*
X75254494Y-144930537D01*
X75337563Y-144862364D01*
X76486201Y-146011003D01*
X76509999Y-146040001D01*
X76625724Y-146134974D01*
X76757753Y-146205546D01*
X76901014Y-146249003D01*
X77012667Y-146260000D01*
X77012675Y-146260000D01*
X77050000Y-146263676D01*
X77087325Y-146260000D01*
X90863028Y-146260000D01*
X90618937Y-146504091D01*
X90424357Y-146795301D01*
X90290328Y-147118877D01*
X90222000Y-147462382D01*
X90222000Y-147812618D01*
X90290328Y-148156123D01*
X90424357Y-148479699D01*
X90618937Y-148770909D01*
X90866591Y-149018563D01*
X91157801Y-149213143D01*
X91481377Y-149347172D01*
X91824882Y-149415500D01*
X92175118Y-149415500D01*
X92518623Y-149347172D01*
X92842199Y-149213143D01*
X93133409Y-149018563D01*
X93381063Y-148770909D01*
X93575643Y-148479699D01*
X93709672Y-148156123D01*
X93778000Y-147812618D01*
X93778000Y-147462382D01*
X93709672Y-147118877D01*
X93575643Y-146795301D01*
X93381063Y-146504091D01*
X93133409Y-146256437D01*
X92908990Y-146106485D01*
X92990001Y-146040001D01*
X93013803Y-146010998D01*
X93811004Y-145213798D01*
X93840001Y-145190001D01*
X93934974Y-145074276D01*
X93954326Y-145038072D01*
X94100000Y-145038072D01*
X94224482Y-145025812D01*
X94344180Y-144989502D01*
X94454494Y-144930537D01*
X94537563Y-144862364D01*
X95786201Y-146111003D01*
X95809999Y-146140001D01*
X95838997Y-146163799D01*
X95925723Y-146234974D01*
X96022366Y-146286631D01*
X96057753Y-146305546D01*
X96201014Y-146349003D01*
X96312667Y-146360000D01*
X96312676Y-146360000D01*
X96349999Y-146363676D01*
X96387322Y-146360000D01*
X109763028Y-146360000D01*
X109618937Y-146504091D01*
X109424357Y-146795301D01*
X109290328Y-147118877D01*
X109222000Y-147462382D01*
X109222000Y-147812618D01*
X109290328Y-148156123D01*
X109424357Y-148479699D01*
X109618937Y-148770909D01*
X109866591Y-149018563D01*
X110157801Y-149213143D01*
X110481377Y-149347172D01*
X110824882Y-149415500D01*
X111175118Y-149415500D01*
X111518623Y-149347172D01*
X111842199Y-149213143D01*
X112133409Y-149018563D01*
X112381063Y-148770909D01*
X112575643Y-148479699D01*
X112709672Y-148156123D01*
X112778000Y-147812618D01*
X112778000Y-147462382D01*
X112709672Y-147118877D01*
X112575643Y-146795301D01*
X112381063Y-146504091D01*
X112133409Y-146256437D01*
X111976155Y-146151364D01*
X111990001Y-146140001D01*
X112013803Y-146110998D01*
X112811004Y-145313798D01*
X112840001Y-145290001D01*
X112934974Y-145174276D01*
X112954326Y-145138072D01*
X113100000Y-145138072D01*
X113224482Y-145125812D01*
X113344180Y-145089502D01*
X113454494Y-145030537D01*
X113551185Y-144951185D01*
X113630537Y-144854494D01*
X113689502Y-144744180D01*
X113725812Y-144624482D01*
X113738072Y-144500000D01*
X113738072Y-144460000D01*
X118462678Y-144460000D01*
X118500000Y-144463676D01*
X118537322Y-144460000D01*
X118537333Y-144460000D01*
X118648986Y-144449003D01*
X118792247Y-144405546D01*
X118924276Y-144334974D01*
X118940000Y-144322069D01*
X118940001Y-155735197D01*
X113837563Y-160837636D01*
X113754494Y-160769463D01*
X113644180Y-160710498D01*
X113524482Y-160674188D01*
X113400000Y-160661928D01*
X111800000Y-160661928D01*
X111675518Y-160674188D01*
X111555820Y-160710498D01*
X111445506Y-160769463D01*
X111348815Y-160848815D01*
X111269463Y-160945506D01*
X111255998Y-160970697D01*
X111254494Y-160969463D01*
X111144180Y-160910498D01*
X111024482Y-160874188D01*
X110900000Y-160861928D01*
X109300000Y-160861928D01*
X109175518Y-160874188D01*
X109055820Y-160910498D01*
X108945506Y-160969463D01*
X108848815Y-161048815D01*
X108769463Y-161145506D01*
X108710498Y-161255820D01*
X108700000Y-161290427D01*
X108689502Y-161255820D01*
X108630537Y-161145506D01*
X108551185Y-161048815D01*
X108454494Y-160969463D01*
X108344180Y-160910498D01*
X108224482Y-160874188D01*
X108100000Y-160861928D01*
X106500000Y-160861928D01*
X106375518Y-160874188D01*
X106255820Y-160910498D01*
X106145506Y-160969463D01*
X106048815Y-161048815D01*
X105969463Y-161145506D01*
X105933959Y-161211928D01*
X105932469Y-161211928D01*
X105914637Y-161185241D01*
X105714759Y-160985363D01*
X105479727Y-160828320D01*
X105218574Y-160720147D01*
X104941335Y-160665000D01*
X104658665Y-160665000D01*
X104381426Y-160720147D01*
X104120273Y-160828320D01*
X103885241Y-160985363D01*
X103685363Y-161185241D01*
X103528320Y-161420273D01*
X103420147Y-161681426D01*
X103365000Y-161958665D01*
X103365000Y-162241335D01*
X103420147Y-162518574D01*
X103528320Y-162779727D01*
X103685363Y-163014759D01*
X103810604Y-163140000D01*
X96264802Y-163140000D01*
X95013804Y-161889003D01*
X94990001Y-161859999D01*
X94874276Y-161765026D01*
X94838072Y-161745674D01*
X94838072Y-161600000D01*
X94825812Y-161475518D01*
X94789502Y-161355820D01*
X94730537Y-161245506D01*
X94651185Y-161148815D01*
X94554494Y-161069463D01*
X94444180Y-161010498D01*
X94324482Y-160974188D01*
X94200000Y-160961928D01*
X92600000Y-160961928D01*
X92475518Y-160974188D01*
X92355820Y-161010498D01*
X92245506Y-161069463D01*
X92148815Y-161148815D01*
X92069463Y-161245506D01*
X92055998Y-161270697D01*
X92054494Y-161269463D01*
X91944180Y-161210498D01*
X91824482Y-161174188D01*
X91700000Y-161161928D01*
X90100000Y-161161928D01*
X89975518Y-161174188D01*
X89855820Y-161210498D01*
X89745506Y-161269463D01*
X89648815Y-161348815D01*
X89569463Y-161445506D01*
X89510498Y-161555820D01*
X89500000Y-161590427D01*
X89489502Y-161555820D01*
X89430537Y-161445506D01*
X89351185Y-161348815D01*
X89254494Y-161269463D01*
X89144180Y-161210498D01*
X89024482Y-161174188D01*
X88900000Y-161161928D01*
X87300000Y-161161928D01*
X87175518Y-161174188D01*
X87055820Y-161210498D01*
X86945506Y-161269463D01*
X86848815Y-161348815D01*
X86769463Y-161445506D01*
X86733959Y-161511928D01*
X86732469Y-161511928D01*
X86714637Y-161485241D01*
X86514759Y-161285363D01*
X86279727Y-161128320D01*
X86018574Y-161020147D01*
X85741335Y-160965000D01*
X85458665Y-160965000D01*
X85181426Y-161020147D01*
X84920273Y-161128320D01*
X84685241Y-161285363D01*
X84485363Y-161485241D01*
X84328320Y-161720273D01*
X84220147Y-161981426D01*
X84165000Y-162258665D01*
X84165000Y-162541335D01*
X84220147Y-162818574D01*
X84328320Y-163079727D01*
X84368593Y-163140000D01*
X75938072Y-163140000D01*
X75938072Y-161600000D01*
X75925812Y-161475518D01*
X75889502Y-161355820D01*
X75830537Y-161245506D01*
X75751185Y-161148815D01*
X75654494Y-161069463D01*
X75544180Y-161010498D01*
X75424482Y-160974188D01*
X75300000Y-160961928D01*
X73700000Y-160961928D01*
X73575518Y-160974188D01*
X73455820Y-161010498D01*
X73345506Y-161069463D01*
X73248815Y-161148815D01*
X73169463Y-161245506D01*
X73155998Y-161270697D01*
X73154494Y-161269463D01*
X73044180Y-161210498D01*
X72924482Y-161174188D01*
X72800000Y-161161928D01*
X71200000Y-161161928D01*
X71075518Y-161174188D01*
X70955820Y-161210498D01*
X70845506Y-161269463D01*
X70748815Y-161348815D01*
X70669463Y-161445506D01*
X70610498Y-161555820D01*
X70600000Y-161590427D01*
X70589502Y-161555820D01*
X70530537Y-161445506D01*
X70451185Y-161348815D01*
X70354494Y-161269463D01*
X70244180Y-161210498D01*
X70124482Y-161174188D01*
X70000000Y-161161928D01*
X68400000Y-161161928D01*
X68275518Y-161174188D01*
X68155820Y-161210498D01*
X68045506Y-161269463D01*
X67948815Y-161348815D01*
X67869463Y-161445506D01*
X67833959Y-161511928D01*
X67832469Y-161511928D01*
X67814637Y-161485241D01*
X67614759Y-161285363D01*
X67379727Y-161128320D01*
X67118574Y-161020147D01*
X66841335Y-160965000D01*
X66558665Y-160965000D01*
X66281426Y-161020147D01*
X66020273Y-161128320D01*
X65785241Y-161285363D01*
X65585363Y-161485241D01*
X65428320Y-161720273D01*
X65320147Y-161981426D01*
X65265000Y-162258665D01*
X65265000Y-162541335D01*
X65320147Y-162818574D01*
X65428320Y-163079727D01*
X65585363Y-163314759D01*
X65785241Y-163514637D01*
X66020273Y-163671680D01*
X66281426Y-163779853D01*
X66558665Y-163835000D01*
X66841335Y-163835000D01*
X67118574Y-163779853D01*
X67379727Y-163671680D01*
X67614759Y-163514637D01*
X67814637Y-163314759D01*
X67832469Y-163288072D01*
X67833959Y-163288072D01*
X67869463Y-163354494D01*
X67948815Y-163451185D01*
X68045506Y-163530537D01*
X68155820Y-163589502D01*
X68275518Y-163625812D01*
X68400000Y-163638072D01*
X70000000Y-163638072D01*
X70124482Y-163625812D01*
X70244180Y-163589502D01*
X70354494Y-163530537D01*
X70451185Y-163451185D01*
X70530537Y-163354494D01*
X70589502Y-163244180D01*
X70600000Y-163209573D01*
X70610498Y-163244180D01*
X70669463Y-163354494D01*
X70748815Y-163451185D01*
X70845506Y-163530537D01*
X70955820Y-163589502D01*
X71075518Y-163625812D01*
X71200000Y-163638072D01*
X72800000Y-163638072D01*
X72924482Y-163625812D01*
X73044180Y-163589502D01*
X73154494Y-163530537D01*
X73155998Y-163529303D01*
X73169463Y-163554494D01*
X73248815Y-163651185D01*
X73345506Y-163730537D01*
X73455820Y-163789502D01*
X73575518Y-163825812D01*
X73700000Y-163838072D01*
X73845674Y-163838072D01*
X73865026Y-163874276D01*
X73897362Y-163913677D01*
X73959999Y-163990001D01*
X73989003Y-164013804D01*
X74015199Y-164040000D01*
X59160000Y-164040000D01*
X59160000Y-152566316D01*
X63885000Y-152566316D01*
X63885000Y-152868684D01*
X63943989Y-153165243D01*
X64059701Y-153444595D01*
X64227688Y-153696005D01*
X64441495Y-153909812D01*
X64692905Y-154077799D01*
X64972257Y-154193511D01*
X65268816Y-154252500D01*
X65571184Y-154252500D01*
X65867743Y-154193511D01*
X66147095Y-154077799D01*
X66398505Y-153909812D01*
X66612312Y-153696005D01*
X66780299Y-153444595D01*
X66896011Y-153165243D01*
X66955000Y-152868684D01*
X66955000Y-152566316D01*
X66933570Y-152458576D01*
X67871100Y-152458576D01*
X67871100Y-152976424D01*
X67972127Y-153484322D01*
X68170299Y-153962751D01*
X68458000Y-154393326D01*
X68824174Y-154759500D01*
X69254749Y-155047201D01*
X69733178Y-155245373D01*
X70241076Y-155346400D01*
X70758924Y-155346400D01*
X71266822Y-155245373D01*
X71745251Y-155047201D01*
X72175826Y-154759500D01*
X72542000Y-154393326D01*
X72829701Y-153962751D01*
X73027873Y-153484322D01*
X73128900Y-152976424D01*
X73128900Y-152566316D01*
X74045000Y-152566316D01*
X74045000Y-152868684D01*
X74103989Y-153165243D01*
X74219701Y-153444595D01*
X74387688Y-153696005D01*
X74601495Y-153909812D01*
X74852905Y-154077799D01*
X75132257Y-154193511D01*
X75428816Y-154252500D01*
X75731184Y-154252500D01*
X76027743Y-154193511D01*
X76307095Y-154077799D01*
X76558505Y-153909812D01*
X76772312Y-153696005D01*
X76940299Y-153444595D01*
X77056011Y-153165243D01*
X77115000Y-152868684D01*
X77115000Y-152566316D01*
X82845000Y-152566316D01*
X82845000Y-152868684D01*
X82903989Y-153165243D01*
X83019701Y-153444595D01*
X83187688Y-153696005D01*
X83401495Y-153909812D01*
X83652905Y-154077799D01*
X83932257Y-154193511D01*
X84228816Y-154252500D01*
X84531184Y-154252500D01*
X84827743Y-154193511D01*
X85107095Y-154077799D01*
X85358505Y-153909812D01*
X85572312Y-153696005D01*
X85740299Y-153444595D01*
X85856011Y-153165243D01*
X85915000Y-152868684D01*
X85915000Y-152566316D01*
X85893570Y-152458576D01*
X86831100Y-152458576D01*
X86831100Y-152976424D01*
X86932127Y-153484322D01*
X87130299Y-153962751D01*
X87418000Y-154393326D01*
X87784174Y-154759500D01*
X88214749Y-155047201D01*
X88693178Y-155245373D01*
X89201076Y-155346400D01*
X89718924Y-155346400D01*
X90226822Y-155245373D01*
X90705251Y-155047201D01*
X91135826Y-154759500D01*
X91502000Y-154393326D01*
X91789701Y-153962751D01*
X91987873Y-153484322D01*
X92088900Y-152976424D01*
X92088900Y-152566316D01*
X93005000Y-152566316D01*
X93005000Y-152868684D01*
X93063989Y-153165243D01*
X93179701Y-153444595D01*
X93347688Y-153696005D01*
X93561495Y-153909812D01*
X93812905Y-154077799D01*
X94092257Y-154193511D01*
X94388816Y-154252500D01*
X94691184Y-154252500D01*
X94987743Y-154193511D01*
X95267095Y-154077799D01*
X95518505Y-153909812D01*
X95732312Y-153696005D01*
X95900299Y-153444595D01*
X96016011Y-153165243D01*
X96075000Y-152868684D01*
X96075000Y-152566316D01*
X101845000Y-152566316D01*
X101845000Y-152868684D01*
X101903989Y-153165243D01*
X102019701Y-153444595D01*
X102187688Y-153696005D01*
X102401495Y-153909812D01*
X102652905Y-154077799D01*
X102932257Y-154193511D01*
X103228816Y-154252500D01*
X103531184Y-154252500D01*
X103827743Y-154193511D01*
X104107095Y-154077799D01*
X104358505Y-153909812D01*
X104572312Y-153696005D01*
X104740299Y-153444595D01*
X104856011Y-153165243D01*
X104915000Y-152868684D01*
X104915000Y-152566316D01*
X104893570Y-152458576D01*
X105831100Y-152458576D01*
X105831100Y-152976424D01*
X105932127Y-153484322D01*
X106130299Y-153962751D01*
X106418000Y-154393326D01*
X106784174Y-154759500D01*
X107214749Y-155047201D01*
X107693178Y-155245373D01*
X108201076Y-155346400D01*
X108718924Y-155346400D01*
X109226822Y-155245373D01*
X109705251Y-155047201D01*
X110135826Y-154759500D01*
X110502000Y-154393326D01*
X110789701Y-153962751D01*
X110987873Y-153484322D01*
X111088900Y-152976424D01*
X111088900Y-152566316D01*
X112005000Y-152566316D01*
X112005000Y-152868684D01*
X112063989Y-153165243D01*
X112179701Y-153444595D01*
X112347688Y-153696005D01*
X112561495Y-153909812D01*
X112812905Y-154077799D01*
X113092257Y-154193511D01*
X113388816Y-154252500D01*
X113691184Y-154252500D01*
X113987743Y-154193511D01*
X114267095Y-154077799D01*
X114518505Y-153909812D01*
X114732312Y-153696005D01*
X114900299Y-153444595D01*
X115016011Y-153165243D01*
X115075000Y-152868684D01*
X115075000Y-152566316D01*
X115016011Y-152269757D01*
X114900299Y-151990405D01*
X114732312Y-151738995D01*
X114518505Y-151525188D01*
X114267095Y-151357201D01*
X113987743Y-151241489D01*
X113691184Y-151182500D01*
X113388816Y-151182500D01*
X113092257Y-151241489D01*
X112812905Y-151357201D01*
X112561495Y-151525188D01*
X112347688Y-151738995D01*
X112179701Y-151990405D01*
X112063989Y-152269757D01*
X112005000Y-152566316D01*
X111088900Y-152566316D01*
X111088900Y-152458576D01*
X110987873Y-151950678D01*
X110789701Y-151472249D01*
X110502000Y-151041674D01*
X110135826Y-150675500D01*
X109705251Y-150387799D01*
X109226822Y-150189627D01*
X108718924Y-150088600D01*
X108201076Y-150088600D01*
X107693178Y-150189627D01*
X107214749Y-150387799D01*
X106784174Y-150675500D01*
X106418000Y-151041674D01*
X106130299Y-151472249D01*
X105932127Y-151950678D01*
X105831100Y-152458576D01*
X104893570Y-152458576D01*
X104856011Y-152269757D01*
X104740299Y-151990405D01*
X104716976Y-151955500D01*
X104825118Y-151955500D01*
X105168623Y-151887172D01*
X105492199Y-151753143D01*
X105783409Y-151558563D01*
X106031063Y-151310909D01*
X106225643Y-151019699D01*
X106359672Y-150696123D01*
X106428000Y-150352618D01*
X106428000Y-150002382D01*
X106359672Y-149658877D01*
X106225643Y-149335301D01*
X106031063Y-149044091D01*
X105783409Y-148796437D01*
X105492199Y-148601857D01*
X105168623Y-148467828D01*
X104825118Y-148399500D01*
X104474882Y-148399500D01*
X104131377Y-148467828D01*
X103807801Y-148601857D01*
X103516591Y-148796437D01*
X103268937Y-149044091D01*
X103074357Y-149335301D01*
X102940328Y-149658877D01*
X102872000Y-150002382D01*
X102872000Y-150352618D01*
X102940328Y-150696123D01*
X103074357Y-151019699D01*
X103188496Y-151190520D01*
X102932257Y-151241489D01*
X102652905Y-151357201D01*
X102401495Y-151525188D01*
X102187688Y-151738995D01*
X102019701Y-151990405D01*
X101903989Y-152269757D01*
X101845000Y-152566316D01*
X96075000Y-152566316D01*
X96016011Y-152269757D01*
X95900299Y-151990405D01*
X95732312Y-151738995D01*
X95518505Y-151525188D01*
X95267095Y-151357201D01*
X94987743Y-151241489D01*
X94691184Y-151182500D01*
X94388816Y-151182500D01*
X94092257Y-151241489D01*
X93812905Y-151357201D01*
X93561495Y-151525188D01*
X93347688Y-151738995D01*
X93179701Y-151990405D01*
X93063989Y-152269757D01*
X93005000Y-152566316D01*
X92088900Y-152566316D01*
X92088900Y-152458576D01*
X91987873Y-151950678D01*
X91789701Y-151472249D01*
X91502000Y-151041674D01*
X91135826Y-150675500D01*
X90705251Y-150387799D01*
X90226822Y-150189627D01*
X89718924Y-150088600D01*
X89201076Y-150088600D01*
X88693178Y-150189627D01*
X88214749Y-150387799D01*
X87784174Y-150675500D01*
X87418000Y-151041674D01*
X87130299Y-151472249D01*
X86932127Y-151950678D01*
X86831100Y-152458576D01*
X85893570Y-152458576D01*
X85856011Y-152269757D01*
X85740299Y-151990405D01*
X85716976Y-151955500D01*
X85825118Y-151955500D01*
X86168623Y-151887172D01*
X86492199Y-151753143D01*
X86783409Y-151558563D01*
X87031063Y-151310909D01*
X87225643Y-151019699D01*
X87359672Y-150696123D01*
X87428000Y-150352618D01*
X87428000Y-150002382D01*
X87359672Y-149658877D01*
X87225643Y-149335301D01*
X87031063Y-149044091D01*
X86783409Y-148796437D01*
X86492199Y-148601857D01*
X86168623Y-148467828D01*
X85825118Y-148399500D01*
X85474882Y-148399500D01*
X85131377Y-148467828D01*
X84807801Y-148601857D01*
X84516591Y-148796437D01*
X84268937Y-149044091D01*
X84074357Y-149335301D01*
X83940328Y-149658877D01*
X83872000Y-150002382D01*
X83872000Y-150352618D01*
X83940328Y-150696123D01*
X84074357Y-151019699D01*
X84188496Y-151190520D01*
X83932257Y-151241489D01*
X83652905Y-151357201D01*
X83401495Y-151525188D01*
X83187688Y-151738995D01*
X83019701Y-151990405D01*
X82903989Y-152269757D01*
X82845000Y-152566316D01*
X77115000Y-152566316D01*
X77056011Y-152269757D01*
X76940299Y-151990405D01*
X76772312Y-151738995D01*
X76558505Y-151525188D01*
X76307095Y-151357201D01*
X76027743Y-151241489D01*
X75731184Y-151182500D01*
X75428816Y-151182500D01*
X75132257Y-151241489D01*
X74852905Y-151357201D01*
X74601495Y-151525188D01*
X74387688Y-151738995D01*
X74219701Y-151990405D01*
X74103989Y-152269757D01*
X74045000Y-152566316D01*
X73128900Y-152566316D01*
X73128900Y-152458576D01*
X73027873Y-151950678D01*
X72829701Y-151472249D01*
X72542000Y-151041674D01*
X72175826Y-150675500D01*
X71745251Y-150387799D01*
X71266822Y-150189627D01*
X70758924Y-150088600D01*
X70241076Y-150088600D01*
X69733178Y-150189627D01*
X69254749Y-150387799D01*
X68824174Y-150675500D01*
X68458000Y-151041674D01*
X68170299Y-151472249D01*
X67972127Y-151950678D01*
X67871100Y-152458576D01*
X66933570Y-152458576D01*
X66896011Y-152269757D01*
X66780299Y-151990405D01*
X66756976Y-151955500D01*
X66865118Y-151955500D01*
X67208623Y-151887172D01*
X67532199Y-151753143D01*
X67823409Y-151558563D01*
X68071063Y-151310909D01*
X68265643Y-151019699D01*
X68399672Y-150696123D01*
X68468000Y-150352618D01*
X68468000Y-150002382D01*
X68399672Y-149658877D01*
X68265643Y-149335301D01*
X68071063Y-149044091D01*
X67823409Y-148796437D01*
X67532199Y-148601857D01*
X67208623Y-148467828D01*
X66865118Y-148399500D01*
X66514882Y-148399500D01*
X66171377Y-148467828D01*
X65847801Y-148601857D01*
X65556591Y-148796437D01*
X65308937Y-149044091D01*
X65114357Y-149335301D01*
X64980328Y-149658877D01*
X64912000Y-150002382D01*
X64912000Y-150352618D01*
X64980328Y-150696123D01*
X65114357Y-151019699D01*
X65228496Y-151190520D01*
X64972257Y-151241489D01*
X64692905Y-151357201D01*
X64441495Y-151525188D01*
X64227688Y-151738995D01*
X64059701Y-151990405D01*
X63943989Y-152269757D01*
X63885000Y-152566316D01*
X59160000Y-152566316D01*
X59160000Y-147462382D01*
X71262000Y-147462382D01*
X71262000Y-147812618D01*
X71330328Y-148156123D01*
X71464357Y-148479699D01*
X71658937Y-148770909D01*
X71906591Y-149018563D01*
X72197801Y-149213143D01*
X72521377Y-149347172D01*
X72864882Y-149415500D01*
X73215118Y-149415500D01*
X73558623Y-149347172D01*
X73882199Y-149213143D01*
X74173409Y-149018563D01*
X74421063Y-148770909D01*
X74615643Y-148479699D01*
X74749672Y-148156123D01*
X74818000Y-147812618D01*
X74818000Y-147462382D01*
X74749672Y-147118877D01*
X74615643Y-146795301D01*
X74421063Y-146504091D01*
X74173409Y-146256437D01*
X73882199Y-146061857D01*
X73558623Y-145927828D01*
X73215118Y-145859500D01*
X72864882Y-145859500D01*
X72521377Y-145927828D01*
X72197801Y-146061857D01*
X71906591Y-146256437D01*
X71658937Y-146504091D01*
X71464357Y-146795301D01*
X71330328Y-147118877D01*
X71262000Y-147462382D01*
X59160000Y-147462382D01*
X59160000Y-126638967D01*
X66365000Y-126638967D01*
X66365000Y-126961033D01*
X66427832Y-127276912D01*
X66551082Y-127574463D01*
X66730013Y-127842252D01*
X66957748Y-128069987D01*
X67225537Y-128248918D01*
X67523088Y-128372168D01*
X67838967Y-128435000D01*
X68161033Y-128435000D01*
X68476912Y-128372168D01*
X68774463Y-128248918D01*
X69042252Y-128069987D01*
X69269987Y-127842252D01*
X69448918Y-127574463D01*
X69572168Y-127276912D01*
X69635000Y-126961033D01*
X69635000Y-126638967D01*
X69572168Y-126323088D01*
X69448918Y-126025537D01*
X69269987Y-125757748D01*
X69042252Y-125530013D01*
X68774463Y-125351082D01*
X68476912Y-125227832D01*
X68161033Y-125165000D01*
X67838967Y-125165000D01*
X67523088Y-125227832D01*
X67225537Y-125351082D01*
X66957748Y-125530013D01*
X66730013Y-125757748D01*
X66551082Y-126025537D01*
X66427832Y-126323088D01*
X66365000Y-126638967D01*
X59160000Y-126638967D01*
X59160000Y-115680000D01*
X137590001Y-115680000D01*
X137590001Y-117579869D01*
G37*
X137590001Y-117579869D02*
X137525782Y-117560388D01*
X137401300Y-117548128D01*
X135648700Y-117548128D01*
X135524218Y-117560388D01*
X135404520Y-117596698D01*
X135294206Y-117655663D01*
X135197515Y-117735015D01*
X135118163Y-117831706D01*
X135059198Y-117942020D01*
X135022888Y-118061718D01*
X135010628Y-118186200D01*
X135010628Y-119938800D01*
X135022888Y-120063282D01*
X135059198Y-120182980D01*
X135118163Y-120293294D01*
X135197515Y-120389985D01*
X135294206Y-120469337D01*
X135404520Y-120528302D01*
X135448542Y-120541656D01*
X135351096Y-120639102D01*
X135185703Y-120886631D01*
X135071778Y-121161670D01*
X135013700Y-121453650D01*
X135013700Y-121751350D01*
X135071778Y-122043330D01*
X135185703Y-122318369D01*
X135351096Y-122565898D01*
X135561602Y-122776404D01*
X135705420Y-122872500D01*
X135561602Y-122968596D01*
X135351096Y-123179102D01*
X135185703Y-123426631D01*
X135071778Y-123701670D01*
X135013700Y-123993650D01*
X135013700Y-124291350D01*
X135071778Y-124583330D01*
X135185703Y-124858369D01*
X135351096Y-125105898D01*
X135561602Y-125316404D01*
X135705420Y-125412500D01*
X135561602Y-125508596D01*
X135351096Y-125719102D01*
X135185703Y-125966631D01*
X135071778Y-126241670D01*
X135013700Y-126533650D01*
X135013700Y-126831350D01*
X135071778Y-127123330D01*
X135185703Y-127398369D01*
X135351096Y-127645898D01*
X135561602Y-127856404D01*
X135705420Y-127952500D01*
X135561602Y-128048596D01*
X135351096Y-128259102D01*
X135185703Y-128506631D01*
X135071778Y-128781670D01*
X135013700Y-129073650D01*
X135013700Y-129371350D01*
X135071778Y-129663330D01*
X135185703Y-129938369D01*
X135351096Y-130185898D01*
X135561602Y-130396404D01*
X135705420Y-130492500D01*
X135561602Y-130588596D01*
X135351096Y-130799102D01*
X135185703Y-131046631D01*
X135071778Y-131321670D01*
X135013700Y-131613650D01*
X135013700Y-131911350D01*
X135071778Y-132203330D01*
X135185703Y-132478369D01*
X135351096Y-132725898D01*
X135561602Y-132936404D01*
X135705420Y-133032500D01*
X135561602Y-133128596D01*
X135351096Y-133339102D01*
X135185703Y-133586631D01*
X135071778Y-133861670D01*
X135013700Y-134153650D01*
X135013700Y-134451350D01*
X135071778Y-134743330D01*
X135185703Y-135018369D01*
X135351096Y-135265898D01*
X135561602Y-135476404D01*
X135705420Y-135572500D01*
X135561602Y-135668596D01*
X135351096Y-135879102D01*
X135185703Y-136126631D01*
X135071778Y-136401670D01*
X135013700Y-136693650D01*
X135013700Y-136991350D01*
X135071778Y-137283330D01*
X135185703Y-137558369D01*
X135351096Y-137805898D01*
X135561602Y-138016404D01*
X135705420Y-138112500D01*
X135561602Y-138208596D01*
X135351096Y-138419102D01*
X135185703Y-138666631D01*
X135071778Y-138941670D01*
X135013700Y-139233650D01*
X135013700Y-139531350D01*
X135071778Y-139823330D01*
X135185703Y-140098369D01*
X135351096Y-140345898D01*
X135561602Y-140556404D01*
X135705420Y-140652500D01*
X135561602Y-140748596D01*
X135351096Y-140959102D01*
X135185703Y-141206631D01*
X135071778Y-141481670D01*
X135013700Y-141773650D01*
X135013700Y-142071350D01*
X135071778Y-142363330D01*
X135185703Y-142638369D01*
X135351096Y-142885898D01*
X135561602Y-143096404D01*
X135705420Y-143192500D01*
X135561602Y-143288596D01*
X135351096Y-143499102D01*
X135185703Y-143746631D01*
X135071778Y-144021670D01*
X135013700Y-144313650D01*
X135013700Y-144611350D01*
X135071778Y-144903330D01*
X135185703Y-145178369D01*
X135351096Y-145425898D01*
X135561602Y-145636404D01*
X135705420Y-145732500D01*
X135561602Y-145828596D01*
X135351096Y-146039102D01*
X135185703Y-146286631D01*
X135071778Y-146561670D01*
X135013700Y-146853650D01*
X135013700Y-147151350D01*
X135071778Y-147443330D01*
X135185703Y-147718369D01*
X135351096Y-147965898D01*
X135561602Y-148176404D01*
X135809131Y-148341797D01*
X136084170Y-148455722D01*
X136376150Y-148513800D01*
X136673850Y-148513800D01*
X136965830Y-148455722D01*
X137240869Y-148341797D01*
X137488398Y-148176404D01*
X137590000Y-148074802D01*
X137590000Y-164040000D01*
X112784802Y-164040000D01*
X113111004Y-163713798D01*
X113140001Y-163690001D01*
X113234974Y-163574276D01*
X113254326Y-163538072D01*
X113400000Y-163538072D01*
X113524482Y-163525812D01*
X113644180Y-163489502D01*
X113754494Y-163430537D01*
X113851185Y-163351185D01*
X113930537Y-163254494D01*
X113989502Y-163144180D01*
X114025812Y-163024482D01*
X114038072Y-162900000D01*
X114038072Y-162754326D01*
X114074276Y-162734974D01*
X114190001Y-162640001D01*
X114213804Y-162610997D01*
X120211003Y-156613799D01*
X120240001Y-156590001D01*
X120266332Y-156557917D01*
X120334974Y-156474277D01*
X120405546Y-156342247D01*
X120449003Y-156198986D01*
X120460000Y-156087333D01*
X120460000Y-156087324D01*
X120463676Y-156050001D01*
X120460000Y-156012678D01*
X120460000Y-148268878D01*
X120569131Y-148341797D01*
X120844170Y-148455722D01*
X121136150Y-148513800D01*
X121433850Y-148513800D01*
X121725830Y-148455722D01*
X122000869Y-148341797D01*
X122248398Y-148176404D01*
X122458904Y-147965898D01*
X122624297Y-147718369D01*
X122738222Y-147443330D01*
X122796300Y-147151350D01*
X122796300Y-146853650D01*
X122738222Y-146561670D01*
X122624297Y-146286631D01*
X122458904Y-146039102D01*
X122248398Y-145828596D01*
X122104580Y-145732500D01*
X122248398Y-145636404D01*
X122458904Y-145425898D01*
X122624297Y-145178369D01*
X122738222Y-144903330D01*
X122796300Y-144611350D01*
X122796300Y-144313650D01*
X122738222Y-144021670D01*
X122624297Y-143746631D01*
X122458904Y-143499102D01*
X122248398Y-143288596D01*
X122104580Y-143192500D01*
X122248398Y-143096404D01*
X122458904Y-142885898D01*
X122624297Y-142638369D01*
X122738222Y-142363330D01*
X122796300Y-142071350D01*
X122796300Y-141773650D01*
X122738222Y-141481670D01*
X122624297Y-141206631D01*
X122458904Y-140959102D01*
X122248398Y-140748596D01*
X122104580Y-140652500D01*
X122248398Y-140556404D01*
X122458904Y-140345898D01*
X122624297Y-140098369D01*
X122738222Y-139823330D01*
X122796300Y-139531350D01*
X122796300Y-139233650D01*
X122738222Y-138941670D01*
X122624297Y-138666631D01*
X122458904Y-138419102D01*
X122248398Y-138208596D01*
X122104580Y-138112500D01*
X122248398Y-138016404D01*
X122458904Y-137805898D01*
X122624297Y-137558369D01*
X122738222Y-137283330D01*
X122796300Y-136991350D01*
X122796300Y-136693650D01*
X122738222Y-136401670D01*
X122624297Y-136126631D01*
X122458904Y-135879102D01*
X122248398Y-135668596D01*
X122104580Y-135572500D01*
X122248398Y-135476404D01*
X122458904Y-135265898D01*
X122624297Y-135018369D01*
X122738222Y-134743330D01*
X122796300Y-134451350D01*
X122796300Y-134153650D01*
X122738222Y-133861670D01*
X122624297Y-133586631D01*
X122458904Y-133339102D01*
X122248398Y-133128596D01*
X122104580Y-133032500D01*
X122248398Y-132936404D01*
X122458904Y-132725898D01*
X122624297Y-132478369D01*
X122738222Y-132203330D01*
X122796300Y-131911350D01*
X122796300Y-131613650D01*
X122738222Y-131321670D01*
X122624297Y-131046631D01*
X122458904Y-130799102D01*
X122248398Y-130588596D01*
X122104580Y-130492500D01*
X122248398Y-130396404D01*
X122458904Y-130185898D01*
X122624297Y-129938369D01*
X122738222Y-129663330D01*
X122796300Y-129371350D01*
X122796300Y-129073650D01*
X122738222Y-128781670D01*
X122624297Y-128506631D01*
X122458904Y-128259102D01*
X122248398Y-128048596D01*
X122104580Y-127952500D01*
X122248398Y-127856404D01*
X122458904Y-127645898D01*
X122624297Y-127398369D01*
X122738222Y-127123330D01*
X122796300Y-126831350D01*
X122796300Y-126533650D01*
X122738222Y-126241670D01*
X122624297Y-125966631D01*
X122458904Y-125719102D01*
X122248398Y-125508596D01*
X122104580Y-125412500D01*
X122248398Y-125316404D01*
X122458904Y-125105898D01*
X122624297Y-124858369D01*
X122738222Y-124583330D01*
X122796300Y-124291350D01*
X122796300Y-123993650D01*
X122738222Y-123701670D01*
X122624297Y-123426631D01*
X122458904Y-123179102D01*
X122248398Y-122968596D01*
X122104580Y-122872500D01*
X122248398Y-122776404D01*
X122458904Y-122565898D01*
X122624297Y-122318369D01*
X122738222Y-122043330D01*
X122796300Y-121751350D01*
X122796300Y-121453650D01*
X122738222Y-121161670D01*
X122624297Y-120886631D01*
X122458904Y-120639102D01*
X122248398Y-120428596D01*
X122104580Y-120332500D01*
X122248398Y-120236404D01*
X122458904Y-120025898D01*
X122624297Y-119778369D01*
X122738222Y-119503330D01*
X122796300Y-119211350D01*
X122796300Y-118913650D01*
X122738222Y-118621670D01*
X122624297Y-118346631D01*
X122458904Y-118099102D01*
X122248398Y-117888596D01*
X122000869Y-117723203D01*
X121725830Y-117609278D01*
X121433850Y-117551200D01*
X121136150Y-117551200D01*
X120844170Y-117609278D01*
X120569131Y-117723203D01*
X120321602Y-117888596D01*
X120111096Y-118099102D01*
X119945703Y-118346631D01*
X119831778Y-118621670D01*
X119773700Y-118913650D01*
X119773700Y-119211350D01*
X119831778Y-119503330D01*
X119945703Y-119778369D01*
X120111096Y-120025898D01*
X120321602Y-120236404D01*
X120465420Y-120332500D01*
X120321602Y-120428596D01*
X120111096Y-120639102D01*
X119945703Y-120886631D01*
X119831778Y-121161670D01*
X119773700Y-121453650D01*
X119773700Y-121751350D01*
X119831778Y-122043330D01*
X119945703Y-122318369D01*
X120111096Y-122565898D01*
X120321602Y-122776404D01*
X120465420Y-122872500D01*
X120321602Y-122968596D01*
X120111096Y-123179102D01*
X119945703Y-123426631D01*
X119831778Y-123701670D01*
X119773700Y-123993650D01*
X119773700Y-124291350D01*
X119831778Y-124583330D01*
X119945703Y-124858369D01*
X120111096Y-125105898D01*
X120321602Y-125316404D01*
X120465420Y-125412500D01*
X120321602Y-125508596D01*
X120111096Y-125719102D01*
X119945703Y-125966631D01*
X119831778Y-126241670D01*
X119773700Y-126533650D01*
X119773700Y-126636398D01*
X116426304Y-123289003D01*
X116402501Y-123259999D01*
X116286776Y-123165026D01*
X116154747Y-123094454D01*
X116011486Y-123050997D01*
X115899833Y-123040000D01*
X115899822Y-123040000D01*
X115862500Y-123036324D01*
X115825178Y-123040000D01*
X76037325Y-123040000D01*
X76000000Y-123036324D01*
X75962675Y-123040000D01*
X75962667Y-123040000D01*
X75851014Y-123050997D01*
X75707753Y-123094454D01*
X75575724Y-123165026D01*
X75459999Y-123259999D01*
X75436201Y-123288997D01*
X73491376Y-125233823D01*
X73476912Y-125227832D01*
X73161033Y-125165000D01*
X72838967Y-125165000D01*
X72523088Y-125227832D01*
X72225537Y-125351082D01*
X71957748Y-125530013D01*
X71730013Y-125757748D01*
X71551082Y-126025537D01*
X71427832Y-126323088D01*
X71365000Y-126638967D01*
X71365000Y-126961033D01*
X71427832Y-127276912D01*
X71551082Y-127574463D01*
X71568152Y-127600011D01*
X71449357Y-127777801D01*
X71315328Y-128101377D01*
X71247000Y-128444882D01*
X71247000Y-128795118D01*
X71315328Y-129138623D01*
X71449357Y-129462199D01*
X71643937Y-129753409D01*
X71891591Y-130001063D01*
X72182801Y-130195643D01*
X72506377Y-130329672D01*
X72849882Y-130398000D01*
X73200118Y-130398000D01*
X73543623Y-130329672D01*
X73867199Y-130195643D01*
X74158409Y-130001063D01*
X74406063Y-129753409D01*
X74600643Y-129462199D01*
X74734672Y-129138623D01*
X74803000Y-128795118D01*
X74803000Y-128444882D01*
X74734672Y-128101377D01*
X74600643Y-127777801D01*
X74454987Y-127559811D01*
X74572168Y-127276912D01*
X74635000Y-126961033D01*
X74635000Y-126638967D01*
X74572168Y-126323088D01*
X74566177Y-126308624D01*
X76314802Y-124560000D01*
X115547699Y-124560000D01*
X119821424Y-128833725D01*
X119773700Y-129073650D01*
X119773700Y-129176398D01*
X115461303Y-124864002D01*
X115437500Y-124834998D01*
X115321775Y-124740025D01*
X115189746Y-124669453D01*
X115046485Y-124625996D01*
X114934832Y-124614999D01*
X114934821Y-124614999D01*
X114897499Y-124611323D01*
X114860177Y-124614999D01*
X95249826Y-124614999D01*
X95212501Y-124611323D01*
X95175176Y-124614999D01*
X95175168Y-124614999D01*
X95063515Y-124625996D01*
X94920254Y-124669453D01*
X94788225Y-124740025D01*
X94672500Y-124834998D01*
X94648702Y-124863996D01*
X92632001Y-126880698D01*
X92631996Y-126880702D01*
X92600822Y-126911876D01*
X92518623Y-126877828D01*
X92175118Y-126809500D01*
X91824882Y-126809500D01*
X91481377Y-126877828D01*
X91157801Y-127011857D01*
X90866591Y-127206437D01*
X90618937Y-127454091D01*
X90424357Y-127745301D01*
X90290328Y-128068877D01*
X90222000Y-128412382D01*
X90222000Y-128762618D01*
X90290328Y-129106123D01*
X90424357Y-129429699D01*
X90618937Y-129720909D01*
X90866591Y-129968563D01*
X91157801Y-130163143D01*
X91481377Y-130297172D01*
X91824882Y-130365500D01*
X92175118Y-130365500D01*
X92518623Y-130297172D01*
X92842199Y-130163143D01*
X93133409Y-129968563D01*
X93381063Y-129720909D01*
X93575643Y-129429699D01*
X93709672Y-129106123D01*
X93778000Y-128762618D01*
X93778000Y-128412382D01*
X93709672Y-128068877D01*
X93675624Y-127986678D01*
X93706798Y-127955504D01*
X93706802Y-127955499D01*
X95527303Y-126134999D01*
X104464320Y-126134999D01*
X104427832Y-126223088D01*
X104365000Y-126538967D01*
X104365000Y-126861033D01*
X104427832Y-127176912D01*
X104551082Y-127474463D01*
X104730013Y-127742252D01*
X104957748Y-127969987D01*
X105225537Y-128148918D01*
X105523088Y-128272168D01*
X105838967Y-128335000D01*
X106161033Y-128335000D01*
X106476912Y-128272168D01*
X106774463Y-128148918D01*
X107042252Y-127969987D01*
X107269987Y-127742252D01*
X107448918Y-127474463D01*
X107572168Y-127176912D01*
X107635000Y-126861033D01*
X107635000Y-126538967D01*
X107572168Y-126223088D01*
X107535680Y-126134999D01*
X109464320Y-126134999D01*
X109427832Y-126223088D01*
X109365000Y-126538967D01*
X109365000Y-126861033D01*
X109427832Y-127176912D01*
X109551082Y-127474463D01*
X109598203Y-127544985D01*
X109464357Y-127745301D01*
X109330328Y-128068877D01*
X109262000Y-128412382D01*
X109262000Y-128762618D01*
X109330328Y-129106123D01*
X109464357Y-129429699D01*
X109658937Y-129720909D01*
X109906591Y-129968563D01*
X110197801Y-130163143D01*
X110521377Y-130297172D01*
X110864882Y-130365500D01*
X111215118Y-130365500D01*
X111558623Y-130297172D01*
X111882199Y-130163143D01*
X112173409Y-129968563D01*
X112421063Y-129720909D01*
X112615643Y-129429699D01*
X112649691Y-129347500D01*
X115255199Y-129347500D01*
X119821424Y-133913725D01*
X119773700Y-134153650D01*
X119773700Y-134451350D01*
X119831778Y-134743330D01*
X119945703Y-135018369D01*
X120111096Y-135265898D01*
X120321602Y-135476404D01*
X120465420Y-135572500D01*
X120321602Y-135668596D01*
X120111096Y-135879102D01*
X119972851Y-136086000D01*
X119896739Y-136093497D01*
X119818898Y-136117109D01*
X119795226Y-135998102D01*
X119717205Y-135809744D01*
X119603937Y-135640226D01*
X119459774Y-135496063D01*
X119290256Y-135382795D01*
X119101898Y-135304774D01*
X118901939Y-135265000D01*
X118698061Y-135265000D01*
X118498102Y-135304774D01*
X118309744Y-135382795D01*
X118140226Y-135496063D01*
X118096289Y-135540000D01*
X115690770Y-135540000D01*
X115725812Y-135424482D01*
X115738072Y-135300000D01*
X115738072Y-132100000D01*
X115725812Y-131975518D01*
X115689502Y-131855820D01*
X115630537Y-131745506D01*
X115551185Y-131648815D01*
X115454494Y-131569463D01*
X115344180Y-131510498D01*
X115224482Y-131474188D01*
X115100000Y-131461928D01*
X113100000Y-131461928D01*
X112975518Y-131474188D01*
X112855820Y-131510498D01*
X112745506Y-131569463D01*
X112648815Y-131648815D01*
X112569463Y-131745506D01*
X112510498Y-131855820D01*
X112474188Y-131975518D01*
X112461928Y-132100000D01*
X112461928Y-132614755D01*
X112387688Y-132688995D01*
X112219701Y-132940405D01*
X112103989Y-133219757D01*
X112045000Y-133516316D01*
X112045000Y-133818684D01*
X112103989Y-134115243D01*
X112219701Y-134394595D01*
X112387688Y-134646005D01*
X112461928Y-134720245D01*
X112461928Y-135300000D01*
X112474188Y-135424482D01*
X112509230Y-135540000D01*
X110345326Y-135540000D01*
X110542000Y-135343326D01*
X110829701Y-134912751D01*
X111027873Y-134434322D01*
X111128900Y-133926424D01*
X111128900Y-133408576D01*
X111027873Y-132900678D01*
X110829701Y-132422249D01*
X110542000Y-131991674D01*
X110175826Y-131625500D01*
X109745251Y-131337799D01*
X109266822Y-131139627D01*
X108758924Y-131038600D01*
X108241076Y-131038600D01*
X107733178Y-131139627D01*
X107254749Y-131337799D01*
X106824174Y-131625500D01*
X106458000Y-131991674D01*
X106170299Y-132422249D01*
X105972127Y-132900678D01*
X105871100Y-133408576D01*
X105871100Y-133926424D01*
X105972127Y-134434322D01*
X106170299Y-134912751D01*
X106458000Y-135343326D01*
X106824174Y-135709500D01*
X107254749Y-135997201D01*
X107733178Y-136195373D01*
X108241076Y-136296400D01*
X108578798Y-136296400D01*
X106000000Y-138875199D01*
X105013804Y-137889003D01*
X104990001Y-137859999D01*
X104874276Y-137765026D01*
X104742247Y-137694454D01*
X104598986Y-137650997D01*
X104487333Y-137640000D01*
X104487322Y-137640000D01*
X104450000Y-137636324D01*
X104412678Y-137640000D01*
X69687322Y-137640000D01*
X69649999Y-137636324D01*
X69612676Y-137640000D01*
X69612667Y-137640000D01*
X69501014Y-137650997D01*
X69357753Y-137694454D01*
X69225724Y-137765026D01*
X69225722Y-137765027D01*
X69225723Y-137765027D01*
X69138996Y-137836201D01*
X69138992Y-137836205D01*
X69109999Y-137859999D01*
X69086205Y-137888992D01*
X67488998Y-139486201D01*
X67460000Y-139509999D01*
X67436202Y-139538997D01*
X67436201Y-139538998D01*
X67435000Y-139540461D01*
X67435000Y-133441076D01*
X67856100Y-133441076D01*
X67856100Y-133958924D01*
X67957127Y-134466822D01*
X68155299Y-134945251D01*
X68443000Y-135375826D01*
X68809174Y-135742000D01*
X69239749Y-136029701D01*
X69718178Y-136227873D01*
X70226076Y-136328900D01*
X70743924Y-136328900D01*
X71251822Y-136227873D01*
X71730251Y-136029701D01*
X72160826Y-135742000D01*
X72527000Y-135375826D01*
X72814701Y-134945251D01*
X73012873Y-134466822D01*
X73113900Y-133958924D01*
X73113900Y-133548816D01*
X74030000Y-133548816D01*
X74030000Y-133851184D01*
X74088989Y-134147743D01*
X74204701Y-134427095D01*
X74372688Y-134678505D01*
X74461928Y-134767745D01*
X74461928Y-135400000D01*
X74474188Y-135524482D01*
X74510498Y-135644180D01*
X74569463Y-135754494D01*
X74648815Y-135851185D01*
X74745506Y-135930537D01*
X74855820Y-135989502D01*
X74975518Y-136025812D01*
X75100000Y-136038072D01*
X77100000Y-136038072D01*
X77224482Y-136025812D01*
X77344180Y-135989502D01*
X77454494Y-135930537D01*
X77551185Y-135851185D01*
X77630537Y-135754494D01*
X77689502Y-135644180D01*
X77725812Y-135524482D01*
X77738072Y-135400000D01*
X77738072Y-133516316D01*
X82845000Y-133516316D01*
X82845000Y-133818684D01*
X82903989Y-134115243D01*
X83019701Y-134394595D01*
X83187688Y-134646005D01*
X83401495Y-134859812D01*
X83652905Y-135027799D01*
X83932257Y-135143511D01*
X84228816Y-135202500D01*
X84531184Y-135202500D01*
X84827743Y-135143511D01*
X85107095Y-135027799D01*
X85358505Y-134859812D01*
X85572312Y-134646005D01*
X85740299Y-134394595D01*
X85856011Y-134115243D01*
X85915000Y-133818684D01*
X85915000Y-133516316D01*
X85893570Y-133408576D01*
X86831100Y-133408576D01*
X86831100Y-133926424D01*
X86932127Y-134434322D01*
X87130299Y-134912751D01*
X87418000Y-135343326D01*
X87784174Y-135709500D01*
X88214749Y-135997201D01*
X88693178Y-136195373D01*
X89201076Y-136296400D01*
X89718924Y-136296400D01*
X90226822Y-136195373D01*
X90705251Y-135997201D01*
X91135826Y-135709500D01*
X91502000Y-135343326D01*
X91789701Y-134912751D01*
X91987873Y-134434322D01*
X92088900Y-133926424D01*
X92088900Y-133516316D01*
X93005000Y-133516316D01*
X93005000Y-133818684D01*
X93063989Y-134115243D01*
X93179701Y-134394595D01*
X93347688Y-134646005D01*
X93561495Y-134859812D01*
X93812905Y-135027799D01*
X94092257Y-135143511D01*
X94388816Y-135202500D01*
X94691184Y-135202500D01*
X94987743Y-135143511D01*
X95267095Y-135027799D01*
X95518505Y-134859812D01*
X95732312Y-134646005D01*
X95900299Y-134394595D01*
X96016011Y-134115243D01*
X96075000Y-133818684D01*
X96075000Y-133516316D01*
X96016011Y-133219757D01*
X95900299Y-132940405D01*
X95732312Y-132688995D01*
X95518505Y-132475188D01*
X95267095Y-132307201D01*
X94987743Y-132191489D01*
X94691184Y-132132500D01*
X94388816Y-132132500D01*
X94092257Y-132191489D01*
X93812905Y-132307201D01*
X93561495Y-132475188D01*
X93347688Y-132688995D01*
X93179701Y-132940405D01*
X93063989Y-133219757D01*
X93005000Y-133516316D01*
X92088900Y-133516316D01*
X92088900Y-133408576D01*
X91987873Y-132900678D01*
X91789701Y-132422249D01*
X91574382Y-132100000D01*
X101261928Y-132100000D01*
X101261928Y-135300000D01*
X101274188Y-135424482D01*
X101310498Y-135544180D01*
X101369463Y-135654494D01*
X101448815Y-135751185D01*
X101545506Y-135830537D01*
X101655820Y-135889502D01*
X101775518Y-135925812D01*
X101900000Y-135938072D01*
X103900000Y-135938072D01*
X104024482Y-135925812D01*
X104144180Y-135889502D01*
X104254494Y-135830537D01*
X104351185Y-135751185D01*
X104430537Y-135654494D01*
X104489502Y-135544180D01*
X104525812Y-135424482D01*
X104538072Y-135300000D01*
X104538072Y-134720245D01*
X104612312Y-134646005D01*
X104780299Y-134394595D01*
X104896011Y-134115243D01*
X104955000Y-133818684D01*
X104955000Y-133516316D01*
X104896011Y-133219757D01*
X104780299Y-132940405D01*
X104756976Y-132905500D01*
X104865118Y-132905500D01*
X105208623Y-132837172D01*
X105532199Y-132703143D01*
X105823409Y-132508563D01*
X106071063Y-132260909D01*
X106265643Y-131969699D01*
X106399672Y-131646123D01*
X106468000Y-131302618D01*
X106468000Y-130952382D01*
X106399672Y-130608877D01*
X106265643Y-130285301D01*
X106071063Y-129994091D01*
X105823409Y-129746437D01*
X105532199Y-129551857D01*
X105208623Y-129417828D01*
X104865118Y-129349500D01*
X104514882Y-129349500D01*
X104171377Y-129417828D01*
X103847801Y-129551857D01*
X103556591Y-129746437D01*
X103308937Y-129994091D01*
X103114357Y-130285301D01*
X102980328Y-130608877D01*
X102912000Y-130952382D01*
X102912000Y-131302618D01*
X102943689Y-131461928D01*
X101900000Y-131461928D01*
X101775518Y-131474188D01*
X101655820Y-131510498D01*
X101545506Y-131569463D01*
X101448815Y-131648815D01*
X101369463Y-131745506D01*
X101310498Y-131855820D01*
X101274188Y-131975518D01*
X101261928Y-132100000D01*
X91574382Y-132100000D01*
X91502000Y-131991674D01*
X91135826Y-131625500D01*
X90705251Y-131337799D01*
X90226822Y-131139627D01*
X89718924Y-131038600D01*
X89201076Y-131038600D01*
X88693178Y-131139627D01*
X88214749Y-131337799D01*
X87784174Y-131625500D01*
X87418000Y-131991674D01*
X87130299Y-132422249D01*
X86932127Y-132900678D01*
X86831100Y-133408576D01*
X85893570Y-133408576D01*
X85856011Y-133219757D01*
X85740299Y-132940405D01*
X85716976Y-132905500D01*
X85825118Y-132905500D01*
X86168623Y-132837172D01*
X86492199Y-132703143D01*
X86783409Y-132508563D01*
X87031063Y-132260909D01*
X87225643Y-131969699D01*
X87359672Y-131646123D01*
X87428000Y-131302618D01*
X87428000Y-130952382D01*
X87359672Y-130608877D01*
X87225643Y-130285301D01*
X87031063Y-129994091D01*
X86783409Y-129746437D01*
X86492199Y-129551857D01*
X86168623Y-129417828D01*
X85825118Y-129349500D01*
X85474882Y-129349500D01*
X85131377Y-129417828D01*
X84807801Y-129551857D01*
X84516591Y-129746437D01*
X84268937Y-129994091D01*
X84074357Y-130285301D01*
X83940328Y-130608877D01*
X83872000Y-130952382D01*
X83872000Y-131302618D01*
X83940328Y-131646123D01*
X84074357Y-131969699D01*
X84188496Y-132140520D01*
X83932257Y-132191489D01*
X83652905Y-132307201D01*
X83401495Y-132475188D01*
X83187688Y-132688995D01*
X83019701Y-132940405D01*
X82903989Y-133219757D01*
X82845000Y-133516316D01*
X77738072Y-133516316D01*
X77738072Y-132200000D01*
X77725812Y-132075518D01*
X77689502Y-131955820D01*
X77630537Y-131845506D01*
X77551185Y-131748815D01*
X77454494Y-131669463D01*
X77344180Y-131610498D01*
X77224482Y-131574188D01*
X77100000Y-131561928D01*
X75100000Y-131561928D01*
X74975518Y-131574188D01*
X74855820Y-131610498D01*
X74745506Y-131669463D01*
X74648815Y-131748815D01*
X74569463Y-131845506D01*
X74510498Y-131955820D01*
X74474188Y-132075518D01*
X74461928Y-132200000D01*
X74461928Y-132632255D01*
X74372688Y-132721495D01*
X74204701Y-132972905D01*
X74088989Y-133252257D01*
X74030000Y-133548816D01*
X73113900Y-133548816D01*
X73113900Y-133441076D01*
X73012873Y-132933178D01*
X72814701Y-132454749D01*
X72527000Y-132024174D01*
X72160826Y-131658000D01*
X71730251Y-131370299D01*
X71251822Y-131172127D01*
X70743924Y-131071100D01*
X70226076Y-131071100D01*
X69718178Y-131172127D01*
X69239749Y-131370299D01*
X68809174Y-131658000D01*
X68443000Y-132024174D01*
X68155299Y-132454749D01*
X67957127Y-132933178D01*
X67856100Y-133441076D01*
X67435000Y-133441076D01*
X67435000Y-132769691D01*
X67517199Y-132735643D01*
X67808409Y-132541063D01*
X68056063Y-132293409D01*
X68250643Y-132002199D01*
X68384672Y-131678623D01*
X68453000Y-131335118D01*
X68453000Y-130984882D01*
X68384672Y-130641377D01*
X68250643Y-130317801D01*
X68056063Y-130026591D01*
X67808409Y-129778937D01*
X67517199Y-129584357D01*
X67193623Y-129450328D01*
X66850118Y-129382000D01*
X66499882Y-129382000D01*
X66156377Y-129450328D01*
X65832801Y-129584357D01*
X65541591Y-129778937D01*
X65293937Y-130026591D01*
X65099357Y-130317801D01*
X64965328Y-130641377D01*
X64897000Y-130984882D01*
X64897000Y-131335118D01*
X64942116Y-131561928D01*
X63900000Y-131561928D01*
X63775518Y-131574188D01*
X63655820Y-131610498D01*
X63545506Y-131669463D01*
X63448815Y-131748815D01*
X63369463Y-131845506D01*
X63310498Y-131955820D01*
X63274188Y-132075518D01*
X63261928Y-132200000D01*
X63261928Y-135400000D01*
X63274188Y-135524482D01*
X63310498Y-135644180D01*
X63369463Y-135754494D01*
X63448815Y-135851185D01*
X63545506Y-135930537D01*
X63655820Y-135989502D01*
X63775518Y-136025812D01*
X63900000Y-136038072D01*
X65900000Y-136038072D01*
X65915000Y-136036595D01*
X65915001Y-142213468D01*
X65881426Y-142220147D01*
X65620273Y-142328320D01*
X65385241Y-142485363D01*
X65185363Y-142685241D01*
X65028320Y-142920273D01*
X64920147Y-143181426D01*
X64865000Y-143458665D01*
X64865000Y-143741335D01*
X64920147Y-144018574D01*
X65028320Y-144279727D01*
X65185363Y-144514759D01*
X65385241Y-144714637D01*
X65620273Y-144871680D01*
X65881426Y-144979853D01*
X66158665Y-145035000D01*
X66441335Y-145035000D01*
X66718574Y-144979853D01*
X66979727Y-144871680D01*
X67214759Y-144714637D01*
X67414637Y-144514759D01*
X67432469Y-144488072D01*
X67433959Y-144488072D01*
X67469463Y-144554494D01*
X67548815Y-144651185D01*
X67645506Y-144730537D01*
X67755820Y-144789502D01*
X67875518Y-144825812D01*
X68000000Y-144838072D01*
X69600000Y-144838072D01*
X69724482Y-144825812D01*
X69844180Y-144789502D01*
X69954494Y-144730537D01*
X70051185Y-144651185D01*
X70130537Y-144554494D01*
X70189502Y-144444180D01*
X70200000Y-144409573D01*
X70210498Y-144444180D01*
X70269463Y-144554494D01*
X70348815Y-144651185D01*
X70445506Y-144730537D01*
X70555820Y-144789502D01*
X70675518Y-144825812D01*
X70800000Y-144838072D01*
X72400000Y-144838072D01*
X72524482Y-144825812D01*
X72644180Y-144789502D01*
X72754494Y-144730537D01*
X72755998Y-144729303D01*
X72769463Y-144754494D01*
X72848815Y-144851185D01*
X72945506Y-144930537D01*
X73055820Y-144989502D01*
X73175518Y-145025812D01*
X73300000Y-145038072D01*
X74900000Y-145038072D01*
X75024482Y-145025812D01*
X75144180Y-144989502D01*
X75254494Y-144930537D01*
X75337563Y-144862364D01*
X76486201Y-146011003D01*
X76509999Y-146040001D01*
X76625724Y-146134974D01*
X76757753Y-146205546D01*
X76901014Y-146249003D01*
X77012667Y-146260000D01*
X77012675Y-146260000D01*
X77050000Y-146263676D01*
X77087325Y-146260000D01*
X90863028Y-146260000D01*
X90618937Y-146504091D01*
X90424357Y-146795301D01*
X90290328Y-147118877D01*
X90222000Y-147462382D01*
X90222000Y-147812618D01*
X90290328Y-148156123D01*
X90424357Y-148479699D01*
X90618937Y-148770909D01*
X90866591Y-149018563D01*
X91157801Y-149213143D01*
X91481377Y-149347172D01*
X91824882Y-149415500D01*
X92175118Y-149415500D01*
X92518623Y-149347172D01*
X92842199Y-149213143D01*
X93133409Y-149018563D01*
X93381063Y-148770909D01*
X93575643Y-148479699D01*
X93709672Y-148156123D01*
X93778000Y-147812618D01*
X93778000Y-147462382D01*
X93709672Y-147118877D01*
X93575643Y-146795301D01*
X93381063Y-146504091D01*
X93133409Y-146256437D01*
X92908990Y-146106485D01*
X92990001Y-146040001D01*
X93013803Y-146010998D01*
X93811004Y-145213798D01*
X93840001Y-145190001D01*
X93934974Y-145074276D01*
X93954326Y-145038072D01*
X94100000Y-145038072D01*
X94224482Y-145025812D01*
X94344180Y-144989502D01*
X94454494Y-144930537D01*
X94537563Y-144862364D01*
X95786201Y-146111003D01*
X95809999Y-146140001D01*
X95838997Y-146163799D01*
X95925723Y-146234974D01*
X96022366Y-146286631D01*
X96057753Y-146305546D01*
X96201014Y-146349003D01*
X96312667Y-146360000D01*
X96312676Y-146360000D01*
X96349999Y-146363676D01*
X96387322Y-146360000D01*
X109763028Y-146360000D01*
X109618937Y-146504091D01*
X109424357Y-146795301D01*
X109290328Y-147118877D01*
X109222000Y-147462382D01*
X109222000Y-147812618D01*
X109290328Y-148156123D01*
X109424357Y-148479699D01*
X109618937Y-148770909D01*
X109866591Y-149018563D01*
X110157801Y-149213143D01*
X110481377Y-149347172D01*
X110824882Y-149415500D01*
X111175118Y-149415500D01*
X111518623Y-149347172D01*
X111842199Y-149213143D01*
X112133409Y-149018563D01*
X112381063Y-148770909D01*
X112575643Y-148479699D01*
X112709672Y-148156123D01*
X112778000Y-147812618D01*
X112778000Y-147462382D01*
X112709672Y-147118877D01*
X112575643Y-146795301D01*
X112381063Y-146504091D01*
X112133409Y-146256437D01*
X111976155Y-146151364D01*
X111990001Y-146140001D01*
X112013803Y-146110998D01*
X112811004Y-145313798D01*
X112840001Y-145290001D01*
X112934974Y-145174276D01*
X112954326Y-145138072D01*
X113100000Y-145138072D01*
X113224482Y-145125812D01*
X113344180Y-145089502D01*
X113454494Y-145030537D01*
X113551185Y-144951185D01*
X113630537Y-144854494D01*
X113689502Y-144744180D01*
X113725812Y-144624482D01*
X113738072Y-144500000D01*
X113738072Y-144460000D01*
X118462678Y-144460000D01*
X118500000Y-144463676D01*
X118537322Y-144460000D01*
X118537333Y-144460000D01*
X118648986Y-144449003D01*
X118792247Y-144405546D01*
X118924276Y-144334974D01*
X118940000Y-144322069D01*
X118940001Y-155735197D01*
X113837563Y-160837636D01*
X113754494Y-160769463D01*
X113644180Y-160710498D01*
X113524482Y-160674188D01*
X113400000Y-160661928D01*
X111800000Y-160661928D01*
X111675518Y-160674188D01*
X111555820Y-160710498D01*
X111445506Y-160769463D01*
X111348815Y-160848815D01*
X111269463Y-160945506D01*
X111255998Y-160970697D01*
X111254494Y-160969463D01*
X111144180Y-160910498D01*
X111024482Y-160874188D01*
X110900000Y-160861928D01*
X109300000Y-160861928D01*
X109175518Y-160874188D01*
X109055820Y-160910498D01*
X108945506Y-160969463D01*
X108848815Y-161048815D01*
X108769463Y-161145506D01*
X108710498Y-161255820D01*
X108700000Y-161290427D01*
X108689502Y-161255820D01*
X108630537Y-161145506D01*
X108551185Y-161048815D01*
X108454494Y-160969463D01*
X108344180Y-160910498D01*
X108224482Y-160874188D01*
X108100000Y-160861928D01*
X106500000Y-160861928D01*
X106375518Y-160874188D01*
X106255820Y-160910498D01*
X106145506Y-160969463D01*
X106048815Y-161048815D01*
X105969463Y-161145506D01*
X105933959Y-161211928D01*
X105932469Y-161211928D01*
X105914637Y-161185241D01*
X105714759Y-160985363D01*
X105479727Y-160828320D01*
X105218574Y-160720147D01*
X104941335Y-160665000D01*
X104658665Y-160665000D01*
X104381426Y-160720147D01*
X104120273Y-160828320D01*
X103885241Y-160985363D01*
X103685363Y-161185241D01*
X103528320Y-161420273D01*
X103420147Y-161681426D01*
X103365000Y-161958665D01*
X103365000Y-162241335D01*
X103420147Y-162518574D01*
X103528320Y-162779727D01*
X103685363Y-163014759D01*
X103810604Y-163140000D01*
X96264802Y-163140000D01*
X95013804Y-161889003D01*
X94990001Y-161859999D01*
X94874276Y-161765026D01*
X94838072Y-161745674D01*
X94838072Y-161600000D01*
X94825812Y-161475518D01*
X94789502Y-161355820D01*
X94730537Y-161245506D01*
X94651185Y-161148815D01*
X94554494Y-161069463D01*
X94444180Y-161010498D01*
X94324482Y-160974188D01*
X94200000Y-160961928D01*
X92600000Y-160961928D01*
X92475518Y-160974188D01*
X92355820Y-161010498D01*
X92245506Y-161069463D01*
X92148815Y-161148815D01*
X92069463Y-161245506D01*
X92055998Y-161270697D01*
X92054494Y-161269463D01*
X91944180Y-161210498D01*
X91824482Y-161174188D01*
X91700000Y-161161928D01*
X90100000Y-161161928D01*
X89975518Y-161174188D01*
X89855820Y-161210498D01*
X89745506Y-161269463D01*
X89648815Y-161348815D01*
X89569463Y-161445506D01*
X89510498Y-161555820D01*
X89500000Y-161590427D01*
X89489502Y-161555820D01*
X89430537Y-161445506D01*
X89351185Y-161348815D01*
X89254494Y-161269463D01*
X89144180Y-161210498D01*
X89024482Y-161174188D01*
X88900000Y-161161928D01*
X87300000Y-161161928D01*
X87175518Y-161174188D01*
X87055820Y-161210498D01*
X86945506Y-161269463D01*
X86848815Y-161348815D01*
X86769463Y-161445506D01*
X86733959Y-161511928D01*
X86732469Y-161511928D01*
X86714637Y-161485241D01*
X86514759Y-161285363D01*
X86279727Y-161128320D01*
X86018574Y-161020147D01*
X85741335Y-160965000D01*
X85458665Y-160965000D01*
X85181426Y-161020147D01*
X84920273Y-161128320D01*
X84685241Y-161285363D01*
X84485363Y-161485241D01*
X84328320Y-161720273D01*
X84220147Y-161981426D01*
X84165000Y-162258665D01*
X84165000Y-162541335D01*
X84220147Y-162818574D01*
X84328320Y-163079727D01*
X84368593Y-163140000D01*
X75938072Y-163140000D01*
X75938072Y-161600000D01*
X75925812Y-161475518D01*
X75889502Y-161355820D01*
X75830537Y-161245506D01*
X75751185Y-161148815D01*
X75654494Y-161069463D01*
X75544180Y-161010498D01*
X75424482Y-160974188D01*
X75300000Y-160961928D01*
X73700000Y-160961928D01*
X73575518Y-160974188D01*
X73455820Y-161010498D01*
X73345506Y-161069463D01*
X73248815Y-161148815D01*
X73169463Y-161245506D01*
X73155998Y-161270697D01*
X73154494Y-161269463D01*
X73044180Y-161210498D01*
X72924482Y-161174188D01*
X72800000Y-161161928D01*
X71200000Y-161161928D01*
X71075518Y-161174188D01*
X70955820Y-161210498D01*
X70845506Y-161269463D01*
X70748815Y-161348815D01*
X70669463Y-161445506D01*
X70610498Y-161555820D01*
X70600000Y-161590427D01*
X70589502Y-161555820D01*
X70530537Y-161445506D01*
X70451185Y-161348815D01*
X70354494Y-161269463D01*
X70244180Y-161210498D01*
X70124482Y-161174188D01*
X70000000Y-161161928D01*
X68400000Y-161161928D01*
X68275518Y-161174188D01*
X68155820Y-161210498D01*
X68045506Y-161269463D01*
X67948815Y-161348815D01*
X67869463Y-161445506D01*
X67833959Y-161511928D01*
X67832469Y-161511928D01*
X67814637Y-161485241D01*
X67614759Y-161285363D01*
X67379727Y-161128320D01*
X67118574Y-161020147D01*
X66841335Y-160965000D01*
X66558665Y-160965000D01*
X66281426Y-161020147D01*
X66020273Y-161128320D01*
X65785241Y-161285363D01*
X65585363Y-161485241D01*
X65428320Y-161720273D01*
X65320147Y-161981426D01*
X65265000Y-162258665D01*
X65265000Y-162541335D01*
X65320147Y-162818574D01*
X65428320Y-163079727D01*
X65585363Y-163314759D01*
X65785241Y-163514637D01*
X66020273Y-163671680D01*
X66281426Y-163779853D01*
X66558665Y-163835000D01*
X66841335Y-163835000D01*
X67118574Y-163779853D01*
X67379727Y-163671680D01*
X67614759Y-163514637D01*
X67814637Y-163314759D01*
X67832469Y-163288072D01*
X67833959Y-163288072D01*
X67869463Y-163354494D01*
X67948815Y-163451185D01*
X68045506Y-163530537D01*
X68155820Y-163589502D01*
X68275518Y-163625812D01*
X68400000Y-163638072D01*
X70000000Y-163638072D01*
X70124482Y-163625812D01*
X70244180Y-163589502D01*
X70354494Y-163530537D01*
X70451185Y-163451185D01*
X70530537Y-163354494D01*
X70589502Y-163244180D01*
X70600000Y-163209573D01*
X70610498Y-163244180D01*
X70669463Y-163354494D01*
X70748815Y-163451185D01*
X70845506Y-163530537D01*
X70955820Y-163589502D01*
X71075518Y-163625812D01*
X71200000Y-163638072D01*
X72800000Y-163638072D01*
X72924482Y-163625812D01*
X73044180Y-163589502D01*
X73154494Y-163530537D01*
X73155998Y-163529303D01*
X73169463Y-163554494D01*
X73248815Y-163651185D01*
X73345506Y-163730537D01*
X73455820Y-163789502D01*
X73575518Y-163825812D01*
X73700000Y-163838072D01*
X73845674Y-163838072D01*
X73865026Y-163874276D01*
X73897362Y-163913677D01*
X73959999Y-163990001D01*
X73989003Y-164013804D01*
X74015199Y-164040000D01*
X59160000Y-164040000D01*
X59160000Y-152566316D01*
X63885000Y-152566316D01*
X63885000Y-152868684D01*
X63943989Y-153165243D01*
X64059701Y-153444595D01*
X64227688Y-153696005D01*
X64441495Y-153909812D01*
X64692905Y-154077799D01*
X64972257Y-154193511D01*
X65268816Y-154252500D01*
X65571184Y-154252500D01*
X65867743Y-154193511D01*
X66147095Y-154077799D01*
X66398505Y-153909812D01*
X66612312Y-153696005D01*
X66780299Y-153444595D01*
X66896011Y-153165243D01*
X66955000Y-152868684D01*
X66955000Y-152566316D01*
X66933570Y-152458576D01*
X67871100Y-152458576D01*
X67871100Y-152976424D01*
X67972127Y-153484322D01*
X68170299Y-153962751D01*
X68458000Y-154393326D01*
X68824174Y-154759500D01*
X69254749Y-155047201D01*
X69733178Y-155245373D01*
X70241076Y-155346400D01*
X70758924Y-155346400D01*
X71266822Y-155245373D01*
X71745251Y-155047201D01*
X72175826Y-154759500D01*
X72542000Y-154393326D01*
X72829701Y-153962751D01*
X73027873Y-153484322D01*
X73128900Y-152976424D01*
X73128900Y-152566316D01*
X74045000Y-152566316D01*
X74045000Y-152868684D01*
X74103989Y-153165243D01*
X74219701Y-153444595D01*
X74387688Y-153696005D01*
X74601495Y-153909812D01*
X74852905Y-154077799D01*
X75132257Y-154193511D01*
X75428816Y-154252500D01*
X75731184Y-154252500D01*
X76027743Y-154193511D01*
X76307095Y-154077799D01*
X76558505Y-153909812D01*
X76772312Y-153696005D01*
X76940299Y-153444595D01*
X77056011Y-153165243D01*
X77115000Y-152868684D01*
X77115000Y-152566316D01*
X82845000Y-152566316D01*
X82845000Y-152868684D01*
X82903989Y-153165243D01*
X83019701Y-153444595D01*
X83187688Y-153696005D01*
X83401495Y-153909812D01*
X83652905Y-154077799D01*
X83932257Y-154193511D01*
X84228816Y-154252500D01*
X84531184Y-154252500D01*
X84827743Y-154193511D01*
X85107095Y-154077799D01*
X85358505Y-153909812D01*
X85572312Y-153696005D01*
X85740299Y-153444595D01*
X85856011Y-153165243D01*
X85915000Y-152868684D01*
X85915000Y-152566316D01*
X85893570Y-152458576D01*
X86831100Y-152458576D01*
X86831100Y-152976424D01*
X86932127Y-153484322D01*
X87130299Y-153962751D01*
X87418000Y-154393326D01*
X87784174Y-154759500D01*
X88214749Y-155047201D01*
X88693178Y-155245373D01*
X89201076Y-155346400D01*
X89718924Y-155346400D01*
X90226822Y-155245373D01*
X90705251Y-155047201D01*
X91135826Y-154759500D01*
X91502000Y-154393326D01*
X91789701Y-153962751D01*
X91987873Y-153484322D01*
X92088900Y-152976424D01*
X92088900Y-152566316D01*
X93005000Y-152566316D01*
X93005000Y-152868684D01*
X93063989Y-153165243D01*
X93179701Y-153444595D01*
X93347688Y-153696005D01*
X93561495Y-153909812D01*
X93812905Y-154077799D01*
X94092257Y-154193511D01*
X94388816Y-154252500D01*
X94691184Y-154252500D01*
X94987743Y-154193511D01*
X95267095Y-154077799D01*
X95518505Y-153909812D01*
X95732312Y-153696005D01*
X95900299Y-153444595D01*
X96016011Y-153165243D01*
X96075000Y-152868684D01*
X96075000Y-152566316D01*
X101845000Y-152566316D01*
X101845000Y-152868684D01*
X101903989Y-153165243D01*
X102019701Y-153444595D01*
X102187688Y-153696005D01*
X102401495Y-153909812D01*
X102652905Y-154077799D01*
X102932257Y-154193511D01*
X103228816Y-154252500D01*
X103531184Y-154252500D01*
X103827743Y-154193511D01*
X104107095Y-154077799D01*
X104358505Y-153909812D01*
X104572312Y-153696005D01*
X104740299Y-153444595D01*
X104856011Y-153165243D01*
X104915000Y-152868684D01*
X104915000Y-152566316D01*
X104893570Y-152458576D01*
X105831100Y-152458576D01*
X105831100Y-152976424D01*
X105932127Y-153484322D01*
X106130299Y-153962751D01*
X106418000Y-154393326D01*
X106784174Y-154759500D01*
X107214749Y-155047201D01*
X107693178Y-155245373D01*
X108201076Y-155346400D01*
X108718924Y-155346400D01*
X109226822Y-155245373D01*
X109705251Y-155047201D01*
X110135826Y-154759500D01*
X110502000Y-154393326D01*
X110789701Y-153962751D01*
X110987873Y-153484322D01*
X111088900Y-152976424D01*
X111088900Y-152566316D01*
X112005000Y-152566316D01*
X112005000Y-152868684D01*
X112063989Y-153165243D01*
X112179701Y-153444595D01*
X112347688Y-153696005D01*
X112561495Y-153909812D01*
X112812905Y-154077799D01*
X113092257Y-154193511D01*
X113388816Y-154252500D01*
X113691184Y-154252500D01*
X113987743Y-154193511D01*
X114267095Y-154077799D01*
X114518505Y-153909812D01*
X114732312Y-153696005D01*
X114900299Y-153444595D01*
X115016011Y-153165243D01*
X115075000Y-152868684D01*
X115075000Y-152566316D01*
X115016011Y-152269757D01*
X114900299Y-151990405D01*
X114732312Y-151738995D01*
X114518505Y-151525188D01*
X114267095Y-151357201D01*
X113987743Y-151241489D01*
X113691184Y-151182500D01*
X113388816Y-151182500D01*
X113092257Y-151241489D01*
X112812905Y-151357201D01*
X112561495Y-151525188D01*
X112347688Y-151738995D01*
X112179701Y-151990405D01*
X112063989Y-152269757D01*
X112005000Y-152566316D01*
X111088900Y-152566316D01*
X111088900Y-152458576D01*
X110987873Y-151950678D01*
X110789701Y-151472249D01*
X110502000Y-151041674D01*
X110135826Y-150675500D01*
X109705251Y-150387799D01*
X109226822Y-150189627D01*
X108718924Y-150088600D01*
X108201076Y-150088600D01*
X107693178Y-150189627D01*
X107214749Y-150387799D01*
X106784174Y-150675500D01*
X106418000Y-151041674D01*
X106130299Y-151472249D01*
X105932127Y-151950678D01*
X105831100Y-152458576D01*
X104893570Y-152458576D01*
X104856011Y-152269757D01*
X104740299Y-151990405D01*
X104716976Y-151955500D01*
X104825118Y-151955500D01*
X105168623Y-151887172D01*
X105492199Y-151753143D01*
X105783409Y-151558563D01*
X106031063Y-151310909D01*
X106225643Y-151019699D01*
X106359672Y-150696123D01*
X106428000Y-150352618D01*
X106428000Y-150002382D01*
X106359672Y-149658877D01*
X106225643Y-149335301D01*
X106031063Y-149044091D01*
X105783409Y-148796437D01*
X105492199Y-148601857D01*
X105168623Y-148467828D01*
X104825118Y-148399500D01*
X104474882Y-148399500D01*
X104131377Y-148467828D01*
X103807801Y-148601857D01*
X103516591Y-148796437D01*
X103268937Y-149044091D01*
X103074357Y-149335301D01*
X102940328Y-149658877D01*
X102872000Y-150002382D01*
X102872000Y-150352618D01*
X102940328Y-150696123D01*
X103074357Y-151019699D01*
X103188496Y-151190520D01*
X102932257Y-151241489D01*
X102652905Y-151357201D01*
X102401495Y-151525188D01*
X102187688Y-151738995D01*
X102019701Y-151990405D01*
X101903989Y-152269757D01*
X101845000Y-152566316D01*
X96075000Y-152566316D01*
X96016011Y-152269757D01*
X95900299Y-151990405D01*
X95732312Y-151738995D01*
X95518505Y-151525188D01*
X95267095Y-151357201D01*
X94987743Y-151241489D01*
X94691184Y-151182500D01*
X94388816Y-151182500D01*
X94092257Y-151241489D01*
X93812905Y-151357201D01*
X93561495Y-151525188D01*
X93347688Y-151738995D01*
X93179701Y-151990405D01*
X93063989Y-152269757D01*
X93005000Y-152566316D01*
X92088900Y-152566316D01*
X92088900Y-152458576D01*
X91987873Y-151950678D01*
X91789701Y-151472249D01*
X91502000Y-151041674D01*
X91135826Y-150675500D01*
X90705251Y-150387799D01*
X90226822Y-150189627D01*
X89718924Y-150088600D01*
X89201076Y-150088600D01*
X88693178Y-150189627D01*
X88214749Y-150387799D01*
X87784174Y-150675500D01*
X87418000Y-151041674D01*
X87130299Y-151472249D01*
X86932127Y-151950678D01*
X86831100Y-152458576D01*
X85893570Y-152458576D01*
X85856011Y-152269757D01*
X85740299Y-151990405D01*
X85716976Y-151955500D01*
X85825118Y-151955500D01*
X86168623Y-151887172D01*
X86492199Y-151753143D01*
X86783409Y-151558563D01*
X87031063Y-151310909D01*
X87225643Y-151019699D01*
X87359672Y-150696123D01*
X87428000Y-150352618D01*
X87428000Y-150002382D01*
X87359672Y-149658877D01*
X87225643Y-149335301D01*
X87031063Y-149044091D01*
X86783409Y-148796437D01*
X86492199Y-148601857D01*
X86168623Y-148467828D01*
X85825118Y-148399500D01*
X85474882Y-148399500D01*
X85131377Y-148467828D01*
X84807801Y-148601857D01*
X84516591Y-148796437D01*
X84268937Y-149044091D01*
X84074357Y-149335301D01*
X83940328Y-149658877D01*
X83872000Y-150002382D01*
X83872000Y-150352618D01*
X83940328Y-150696123D01*
X84074357Y-151019699D01*
X84188496Y-151190520D01*
X83932257Y-151241489D01*
X83652905Y-151357201D01*
X83401495Y-151525188D01*
X83187688Y-151738995D01*
X83019701Y-151990405D01*
X82903989Y-152269757D01*
X82845000Y-152566316D01*
X77115000Y-152566316D01*
X77056011Y-152269757D01*
X76940299Y-151990405D01*
X76772312Y-151738995D01*
X76558505Y-151525188D01*
X76307095Y-151357201D01*
X76027743Y-151241489D01*
X75731184Y-151182500D01*
X75428816Y-151182500D01*
X75132257Y-151241489D01*
X74852905Y-151357201D01*
X74601495Y-151525188D01*
X74387688Y-151738995D01*
X74219701Y-151990405D01*
X74103989Y-152269757D01*
X74045000Y-152566316D01*
X73128900Y-152566316D01*
X73128900Y-152458576D01*
X73027873Y-151950678D01*
X72829701Y-151472249D01*
X72542000Y-151041674D01*
X72175826Y-150675500D01*
X71745251Y-150387799D01*
X71266822Y-150189627D01*
X70758924Y-150088600D01*
X70241076Y-150088600D01*
X69733178Y-150189627D01*
X69254749Y-150387799D01*
X68824174Y-150675500D01*
X68458000Y-151041674D01*
X68170299Y-151472249D01*
X67972127Y-151950678D01*
X67871100Y-152458576D01*
X66933570Y-152458576D01*
X66896011Y-152269757D01*
X66780299Y-151990405D01*
X66756976Y-151955500D01*
X66865118Y-151955500D01*
X67208623Y-151887172D01*
X67532199Y-151753143D01*
X67823409Y-151558563D01*
X68071063Y-151310909D01*
X68265643Y-151019699D01*
X68399672Y-150696123D01*
X68468000Y-150352618D01*
X68468000Y-150002382D01*
X68399672Y-149658877D01*
X68265643Y-149335301D01*
X68071063Y-149044091D01*
X67823409Y-148796437D01*
X67532199Y-148601857D01*
X67208623Y-148467828D01*
X66865118Y-148399500D01*
X66514882Y-148399500D01*
X66171377Y-148467828D01*
X65847801Y-148601857D01*
X65556591Y-148796437D01*
X65308937Y-149044091D01*
X65114357Y-149335301D01*
X64980328Y-149658877D01*
X64912000Y-150002382D01*
X64912000Y-150352618D01*
X64980328Y-150696123D01*
X65114357Y-151019699D01*
X65228496Y-151190520D01*
X64972257Y-151241489D01*
X64692905Y-151357201D01*
X64441495Y-151525188D01*
X64227688Y-151738995D01*
X64059701Y-151990405D01*
X63943989Y-152269757D01*
X63885000Y-152566316D01*
X59160000Y-152566316D01*
X59160000Y-147462382D01*
X71262000Y-147462382D01*
X71262000Y-147812618D01*
X71330328Y-148156123D01*
X71464357Y-148479699D01*
X71658937Y-148770909D01*
X71906591Y-149018563D01*
X72197801Y-149213143D01*
X72521377Y-149347172D01*
X72864882Y-149415500D01*
X73215118Y-149415500D01*
X73558623Y-149347172D01*
X73882199Y-149213143D01*
X74173409Y-149018563D01*
X74421063Y-148770909D01*
X74615643Y-148479699D01*
X74749672Y-148156123D01*
X74818000Y-147812618D01*
X74818000Y-147462382D01*
X74749672Y-147118877D01*
X74615643Y-146795301D01*
X74421063Y-146504091D01*
X74173409Y-146256437D01*
X73882199Y-146061857D01*
X73558623Y-145927828D01*
X73215118Y-145859500D01*
X72864882Y-145859500D01*
X72521377Y-145927828D01*
X72197801Y-146061857D01*
X71906591Y-146256437D01*
X71658937Y-146504091D01*
X71464357Y-146795301D01*
X71330328Y-147118877D01*
X71262000Y-147462382D01*
X59160000Y-147462382D01*
X59160000Y-126638967D01*
X66365000Y-126638967D01*
X66365000Y-126961033D01*
X66427832Y-127276912D01*
X66551082Y-127574463D01*
X66730013Y-127842252D01*
X66957748Y-128069987D01*
X67225537Y-128248918D01*
X67523088Y-128372168D01*
X67838967Y-128435000D01*
X68161033Y-128435000D01*
X68476912Y-128372168D01*
X68774463Y-128248918D01*
X69042252Y-128069987D01*
X69269987Y-127842252D01*
X69448918Y-127574463D01*
X69572168Y-127276912D01*
X69635000Y-126961033D01*
X69635000Y-126638967D01*
X69572168Y-126323088D01*
X69448918Y-126025537D01*
X69269987Y-125757748D01*
X69042252Y-125530013D01*
X68774463Y-125351082D01*
X68476912Y-125227832D01*
X68161033Y-125165000D01*
X67838967Y-125165000D01*
X67523088Y-125227832D01*
X67225537Y-125351082D01*
X66957748Y-125530013D01*
X66730013Y-125757748D01*
X66551082Y-126025537D01*
X66427832Y-126323088D01*
X66365000Y-126638967D01*
X59160000Y-126638967D01*
X59160000Y-115680000D01*
X137590001Y-115680000D01*
X137590001Y-117579869D01*
G36*
X108710498Y-162944180D02*
G01*
X108769463Y-163054494D01*
X108839636Y-163140000D01*
X108560364Y-163140000D01*
X108630537Y-163054494D01*
X108689502Y-162944180D01*
X108700000Y-162909573D01*
X108710498Y-162944180D01*
G37*
X108710498Y-162944180D02*
X108769463Y-163054494D01*
X108839636Y-163140000D01*
X108560364Y-163140000D01*
X108630537Y-163054494D01*
X108689502Y-162944180D01*
X108700000Y-162909573D01*
X108710498Y-162944180D01*
G36*
X105969463Y-163054494D02*
G01*
X106039636Y-163140000D01*
X105789396Y-163140000D01*
X105914637Y-163014759D01*
X105932469Y-162988072D01*
X105933959Y-162988072D01*
X105969463Y-163054494D01*
G37*
X105969463Y-163054494D02*
X106039636Y-163140000D01*
X105789396Y-163140000D01*
X105914637Y-163014759D01*
X105932469Y-162988072D01*
X105933959Y-162988072D01*
X105969463Y-163054494D01*
G36*
X137590000Y-145930198D02*
G01*
X137488398Y-145828596D01*
X137344580Y-145732500D01*
X137488398Y-145636404D01*
X137590000Y-145534802D01*
X137590000Y-145930198D01*
G37*
X137590000Y-145930198D02*
X137488398Y-145828596D01*
X137344580Y-145732500D01*
X137488398Y-145636404D01*
X137590000Y-145534802D01*
X137590000Y-145930198D01*
G36*
X120465420Y-145732500D02*
G01*
X120460000Y-145736122D01*
X120460000Y-145728878D01*
X120465420Y-145732500D01*
G37*
X120465420Y-145732500D02*
X120460000Y-145736122D01*
X120460000Y-145728878D01*
X120465420Y-145732500D01*
G36*
X110961716Y-144840000D02*
G01*
X110936790Y-144840000D01*
X110954494Y-144830537D01*
X110955998Y-144829303D01*
X110961716Y-144840000D01*
G37*
X110961716Y-144840000D02*
X110936790Y-144840000D01*
X110954494Y-144830537D01*
X110955998Y-144829303D01*
X110961716Y-144840000D01*
G36*
X103720311Y-142495112D02*
G01*
X103585241Y-142585363D01*
X103385363Y-142785241D01*
X103228320Y-143020273D01*
X103120147Y-143281426D01*
X103065000Y-143558665D01*
X103065000Y-143841335D01*
X103120147Y-144118574D01*
X103228320Y-144379727D01*
X103385363Y-144614759D01*
X103585241Y-144814637D01*
X103623199Y-144840000D01*
X96664802Y-144840000D01*
X94913804Y-143089003D01*
X94890001Y-143059999D01*
X94774276Y-142965026D01*
X94738072Y-142945674D01*
X94738072Y-142800000D01*
X94725812Y-142675518D01*
X94689502Y-142555820D01*
X94630537Y-142445506D01*
X94551185Y-142348815D01*
X94454494Y-142269463D01*
X94344180Y-142210498D01*
X94224482Y-142174188D01*
X94100000Y-142161928D01*
X92500000Y-142161928D01*
X92375518Y-142174188D01*
X92255820Y-142210498D01*
X92145506Y-142269463D01*
X92048815Y-142348815D01*
X91969463Y-142445506D01*
X91955998Y-142470697D01*
X91954494Y-142469463D01*
X91844180Y-142410498D01*
X91724482Y-142374188D01*
X91600000Y-142361928D01*
X90000000Y-142361928D01*
X89875518Y-142374188D01*
X89755820Y-142410498D01*
X89645506Y-142469463D01*
X89548815Y-142548815D01*
X89469463Y-142645506D01*
X89410498Y-142755820D01*
X89400000Y-142790427D01*
X89389502Y-142755820D01*
X89330537Y-142645506D01*
X89251185Y-142548815D01*
X89154494Y-142469463D01*
X89044180Y-142410498D01*
X88924482Y-142374188D01*
X88800000Y-142361928D01*
X87200000Y-142361928D01*
X87075518Y-142374188D01*
X86955820Y-142410498D01*
X86845506Y-142469463D01*
X86748815Y-142548815D01*
X86669463Y-142645506D01*
X86633959Y-142711928D01*
X86632469Y-142711928D01*
X86614637Y-142685241D01*
X86414759Y-142485363D01*
X86179727Y-142328320D01*
X85918574Y-142220147D01*
X85641335Y-142165000D01*
X85358665Y-142165000D01*
X85081426Y-142220147D01*
X84820273Y-142328320D01*
X84585241Y-142485363D01*
X84385363Y-142685241D01*
X84228320Y-142920273D01*
X84120147Y-143181426D01*
X84065000Y-143458665D01*
X84065000Y-143741335D01*
X84120147Y-144018574D01*
X84228320Y-144279727D01*
X84385363Y-144514759D01*
X84585241Y-144714637D01*
X84623199Y-144740000D01*
X77364802Y-144740000D01*
X75713804Y-143089003D01*
X75690001Y-143059999D01*
X75574276Y-142965026D01*
X75538072Y-142945674D01*
X75538072Y-142800000D01*
X75525812Y-142675518D01*
X75489502Y-142555820D01*
X75430537Y-142445506D01*
X75351185Y-142348815D01*
X75254494Y-142269463D01*
X75144180Y-142210498D01*
X75024482Y-142174188D01*
X74900000Y-142161928D01*
X74390476Y-142161928D01*
X74448918Y-142074463D01*
X74454909Y-142060000D01*
X103285199Y-142060000D01*
X103720311Y-142495112D01*
G37*
X103720311Y-142495112D02*
X103585241Y-142585363D01*
X103385363Y-142785241D01*
X103228320Y-143020273D01*
X103120147Y-143281426D01*
X103065000Y-143558665D01*
X103065000Y-143841335D01*
X103120147Y-144118574D01*
X103228320Y-144379727D01*
X103385363Y-144614759D01*
X103585241Y-144814637D01*
X103623199Y-144840000D01*
X96664802Y-144840000D01*
X94913804Y-143089003D01*
X94890001Y-143059999D01*
X94774276Y-142965026D01*
X94738072Y-142945674D01*
X94738072Y-142800000D01*
X94725812Y-142675518D01*
X94689502Y-142555820D01*
X94630537Y-142445506D01*
X94551185Y-142348815D01*
X94454494Y-142269463D01*
X94344180Y-142210498D01*
X94224482Y-142174188D01*
X94100000Y-142161928D01*
X92500000Y-142161928D01*
X92375518Y-142174188D01*
X92255820Y-142210498D01*
X92145506Y-142269463D01*
X92048815Y-142348815D01*
X91969463Y-142445506D01*
X91955998Y-142470697D01*
X91954494Y-142469463D01*
X91844180Y-142410498D01*
X91724482Y-142374188D01*
X91600000Y-142361928D01*
X90000000Y-142361928D01*
X89875518Y-142374188D01*
X89755820Y-142410498D01*
X89645506Y-142469463D01*
X89548815Y-142548815D01*
X89469463Y-142645506D01*
X89410498Y-142755820D01*
X89400000Y-142790427D01*
X89389502Y-142755820D01*
X89330537Y-142645506D01*
X89251185Y-142548815D01*
X89154494Y-142469463D01*
X89044180Y-142410498D01*
X88924482Y-142374188D01*
X88800000Y-142361928D01*
X87200000Y-142361928D01*
X87075518Y-142374188D01*
X86955820Y-142410498D01*
X86845506Y-142469463D01*
X86748815Y-142548815D01*
X86669463Y-142645506D01*
X86633959Y-142711928D01*
X86632469Y-142711928D01*
X86614637Y-142685241D01*
X86414759Y-142485363D01*
X86179727Y-142328320D01*
X85918574Y-142220147D01*
X85641335Y-142165000D01*
X85358665Y-142165000D01*
X85081426Y-142220147D01*
X84820273Y-142328320D01*
X84585241Y-142485363D01*
X84385363Y-142685241D01*
X84228320Y-142920273D01*
X84120147Y-143181426D01*
X84065000Y-143458665D01*
X84065000Y-143741335D01*
X84120147Y-144018574D01*
X84228320Y-144279727D01*
X84385363Y-144514759D01*
X84585241Y-144714637D01*
X84623199Y-144740000D01*
X77364802Y-144740000D01*
X75713804Y-143089003D01*
X75690001Y-143059999D01*
X75574276Y-142965026D01*
X75538072Y-142945674D01*
X75538072Y-142800000D01*
X75525812Y-142675518D01*
X75489502Y-142555820D01*
X75430537Y-142445506D01*
X75351185Y-142348815D01*
X75254494Y-142269463D01*
X75144180Y-142210498D01*
X75024482Y-142174188D01*
X74900000Y-142161928D01*
X74390476Y-142161928D01*
X74448918Y-142074463D01*
X74454909Y-142060000D01*
X103285199Y-142060000D01*
X103720311Y-142495112D01*
G36*
X108410498Y-144544180D02*
G01*
X108469463Y-144654494D01*
X108548815Y-144751185D01*
X108645506Y-144830537D01*
X108663210Y-144840000D01*
X108136790Y-144840000D01*
X108154494Y-144830537D01*
X108251185Y-144751185D01*
X108330537Y-144654494D01*
X108389502Y-144544180D01*
X108400000Y-144509573D01*
X108410498Y-144544180D01*
G37*
X108410498Y-144544180D02*
X108469463Y-144654494D01*
X108548815Y-144751185D01*
X108645506Y-144830537D01*
X108663210Y-144840000D01*
X108136790Y-144840000D01*
X108154494Y-144830537D01*
X108251185Y-144751185D01*
X108330537Y-144654494D01*
X108389502Y-144544180D01*
X108400000Y-144509573D01*
X108410498Y-144544180D01*
G36*
X105669463Y-144654494D02*
G01*
X105748815Y-144751185D01*
X105845506Y-144830537D01*
X105863210Y-144840000D01*
X105376801Y-144840000D01*
X105414759Y-144814637D01*
X105614637Y-144614759D01*
X105632469Y-144588072D01*
X105633959Y-144588072D01*
X105669463Y-144654494D01*
G37*
X105669463Y-144654494D02*
X105748815Y-144751185D01*
X105845506Y-144830537D01*
X105863210Y-144840000D01*
X105376801Y-144840000D01*
X105414759Y-144814637D01*
X105614637Y-144614759D01*
X105632469Y-144588072D01*
X105633959Y-144588072D01*
X105669463Y-144654494D01*
G36*
X91961716Y-144740000D02*
G01*
X91936790Y-144740000D01*
X91954494Y-144730537D01*
X91955998Y-144729303D01*
X91961716Y-144740000D01*
G37*
X91961716Y-144740000D02*
X91936790Y-144740000D01*
X91954494Y-144730537D01*
X91955998Y-144729303D01*
X91961716Y-144740000D01*
G36*
X86669463Y-144554494D02*
G01*
X86748815Y-144651185D01*
X86845506Y-144730537D01*
X86863210Y-144740000D01*
X86376801Y-144740000D01*
X86414759Y-144714637D01*
X86614637Y-144514759D01*
X86632469Y-144488072D01*
X86633959Y-144488072D01*
X86669463Y-144554494D01*
G37*
X86669463Y-144554494D02*
X86748815Y-144651185D01*
X86845506Y-144730537D01*
X86863210Y-144740000D01*
X86376801Y-144740000D01*
X86414759Y-144714637D01*
X86614637Y-144514759D01*
X86632469Y-144488072D01*
X86633959Y-144488072D01*
X86669463Y-144554494D01*
G36*
X89410498Y-144444180D02*
G01*
X89469463Y-144554494D01*
X89548815Y-144651185D01*
X89645506Y-144730537D01*
X89663210Y-144740000D01*
X89136790Y-144740000D01*
X89154494Y-144730537D01*
X89251185Y-144651185D01*
X89330537Y-144554494D01*
X89389502Y-144444180D01*
X89400000Y-144409573D01*
X89410498Y-144444180D01*
G37*
X89410498Y-144444180D02*
X89469463Y-144554494D01*
X89548815Y-144651185D01*
X89645506Y-144730537D01*
X89663210Y-144740000D01*
X89136790Y-144740000D01*
X89154494Y-144730537D01*
X89251185Y-144651185D01*
X89330537Y-144554494D01*
X89389502Y-144444180D01*
X89400000Y-144409573D01*
X89410498Y-144444180D01*
G36*
X137590000Y-143390198D02*
G01*
X137488398Y-143288596D01*
X137344580Y-143192500D01*
X137488398Y-143096404D01*
X137590000Y-142994802D01*
X137590000Y-143390198D01*
G37*
X137590000Y-143390198D02*
X137488398Y-143288596D01*
X137344580Y-143192500D01*
X137488398Y-143096404D01*
X137590000Y-142994802D01*
X137590000Y-143390198D01*
G36*
X120465420Y-143192500D02*
G01*
X120460000Y-143196122D01*
X120460000Y-143188878D01*
X120465420Y-143192500D01*
G37*
X120465420Y-143192500D02*
X120460000Y-143196122D01*
X120460000Y-143188878D01*
X120465420Y-143192500D01*
G36*
X117740226Y-142003937D02*
G01*
X117909744Y-142117205D01*
X118098102Y-142195226D01*
X118298061Y-142235000D01*
X118489991Y-142235000D01*
X118489991Y-142635207D01*
X118185199Y-142940000D01*
X113738072Y-142940000D01*
X113738072Y-142900000D01*
X113725812Y-142775518D01*
X113689502Y-142655820D01*
X113630537Y-142545506D01*
X113551185Y-142448815D01*
X113454494Y-142369463D01*
X113344180Y-142310498D01*
X113224482Y-142274188D01*
X113100000Y-142261928D01*
X112250311Y-142261928D01*
X112269987Y-142242252D01*
X112448918Y-141974463D01*
X112454909Y-141960000D01*
X117696289Y-141960000D01*
X117740226Y-142003937D01*
G37*
X117740226Y-142003937D02*
X117909744Y-142117205D01*
X118098102Y-142195226D01*
X118298061Y-142235000D01*
X118489991Y-142235000D01*
X118489991Y-142635207D01*
X118185199Y-142940000D01*
X113738072Y-142940000D01*
X113738072Y-142900000D01*
X113725812Y-142775518D01*
X113689502Y-142655820D01*
X113630537Y-142545506D01*
X113551185Y-142448815D01*
X113454494Y-142369463D01*
X113344180Y-142310498D01*
X113224482Y-142274188D01*
X113100000Y-142261928D01*
X112250311Y-142261928D01*
X112269987Y-142242252D01*
X112448918Y-141974463D01*
X112454909Y-141960000D01*
X117696289Y-141960000D01*
X117740226Y-142003937D01*
G36*
X104645042Y-139669844D02*
G01*
X104548815Y-139748815D01*
X104469463Y-139845506D01*
X104410498Y-139955820D01*
X104374188Y-140075518D01*
X104361928Y-140200000D01*
X104361928Y-140987127D01*
X104163804Y-140789003D01*
X104140001Y-140759999D01*
X104024276Y-140665026D01*
X103892247Y-140594454D01*
X103748986Y-140550997D01*
X103637333Y-140540000D01*
X103637322Y-140540000D01*
X103600000Y-140536324D01*
X103562678Y-140540000D01*
X74454909Y-140540000D01*
X74448918Y-140525537D01*
X74269987Y-140257748D01*
X74042252Y-140030013D01*
X73774463Y-139851082D01*
X73476912Y-139727832D01*
X73161033Y-139665000D01*
X72838967Y-139665000D01*
X72523088Y-139727832D01*
X72225537Y-139851082D01*
X71957748Y-140030013D01*
X71750000Y-140237761D01*
X71542252Y-140030013D01*
X71274463Y-139851082D01*
X70976912Y-139727832D01*
X70661033Y-139665000D01*
X70338967Y-139665000D01*
X70023088Y-139727832D01*
X69725537Y-139851082D01*
X69544665Y-139971937D01*
X69530537Y-139945506D01*
X69451185Y-139848815D01*
X69354958Y-139769844D01*
X69964803Y-139160000D01*
X104135199Y-139160000D01*
X104645042Y-139669844D01*
G37*
X104645042Y-139669844D02*
X104548815Y-139748815D01*
X104469463Y-139845506D01*
X104410498Y-139955820D01*
X104374188Y-140075518D01*
X104361928Y-140200000D01*
X104361928Y-140987127D01*
X104163804Y-140789003D01*
X104140001Y-140759999D01*
X104024276Y-140665026D01*
X103892247Y-140594454D01*
X103748986Y-140550997D01*
X103637333Y-140540000D01*
X103637322Y-140540000D01*
X103600000Y-140536324D01*
X103562678Y-140540000D01*
X74454909Y-140540000D01*
X74448918Y-140525537D01*
X74269987Y-140257748D01*
X74042252Y-140030013D01*
X73774463Y-139851082D01*
X73476912Y-139727832D01*
X73161033Y-139665000D01*
X72838967Y-139665000D01*
X72523088Y-139727832D01*
X72225537Y-139851082D01*
X71957748Y-140030013D01*
X71750000Y-140237761D01*
X71542252Y-140030013D01*
X71274463Y-139851082D01*
X70976912Y-139727832D01*
X70661033Y-139665000D01*
X70338967Y-139665000D01*
X70023088Y-139727832D01*
X69725537Y-139851082D01*
X69544665Y-139971937D01*
X69530537Y-139945506D01*
X69451185Y-139848815D01*
X69354958Y-139769844D01*
X69964803Y-139160000D01*
X104135199Y-139160000D01*
X104645042Y-139669844D01*
G36*
X137590000Y-140850198D02*
G01*
X137488398Y-140748596D01*
X137344580Y-140652500D01*
X137488398Y-140556404D01*
X137590000Y-140454802D01*
X137590000Y-140850198D01*
G37*
X137590000Y-140850198D02*
X137488398Y-140748596D01*
X137344580Y-140652500D01*
X137488398Y-140556404D01*
X137590000Y-140454802D01*
X137590000Y-140850198D01*
G36*
X118140226Y-137103937D02*
G01*
X118309744Y-137217205D01*
X118498102Y-137295226D01*
X118564516Y-137308437D01*
X118544444Y-137345989D01*
X118500987Y-137489250D01*
X118489990Y-137600903D01*
X118489990Y-137600913D01*
X118486314Y-137638235D01*
X118489990Y-137675558D01*
X118489990Y-140165000D01*
X118298061Y-140165000D01*
X118098102Y-140204774D01*
X117909744Y-140282795D01*
X117740226Y-140396063D01*
X117696289Y-140440000D01*
X112454909Y-140440000D01*
X112448918Y-140425537D01*
X112269987Y-140157748D01*
X112042252Y-139930013D01*
X111774463Y-139751082D01*
X111476912Y-139627832D01*
X111161033Y-139565000D01*
X110838967Y-139565000D01*
X110523088Y-139627832D01*
X110225537Y-139751082D01*
X109957748Y-139930013D01*
X109750000Y-140137761D01*
X109542252Y-139930013D01*
X109274463Y-139751082D01*
X108976912Y-139627832D01*
X108661033Y-139565000D01*
X108338967Y-139565000D01*
X108023088Y-139627832D01*
X107725537Y-139751082D01*
X107544665Y-139871937D01*
X107530537Y-139845506D01*
X107451185Y-139748815D01*
X107354958Y-139669844D01*
X109964802Y-137060000D01*
X118096289Y-137060000D01*
X118140226Y-137103937D01*
G37*
X118140226Y-137103937D02*
X118309744Y-137217205D01*
X118498102Y-137295226D01*
X118564516Y-137308437D01*
X118544444Y-137345989D01*
X118500987Y-137489250D01*
X118489990Y-137600903D01*
X118489990Y-137600913D01*
X118486314Y-137638235D01*
X118489990Y-137675558D01*
X118489990Y-140165000D01*
X118298061Y-140165000D01*
X118098102Y-140204774D01*
X117909744Y-140282795D01*
X117740226Y-140396063D01*
X117696289Y-140440000D01*
X112454909Y-140440000D01*
X112448918Y-140425537D01*
X112269987Y-140157748D01*
X112042252Y-139930013D01*
X111774463Y-139751082D01*
X111476912Y-139627832D01*
X111161033Y-139565000D01*
X110838967Y-139565000D01*
X110523088Y-139627832D01*
X110225537Y-139751082D01*
X109957748Y-139930013D01*
X109750000Y-140137761D01*
X109542252Y-139930013D01*
X109274463Y-139751082D01*
X108976912Y-139627832D01*
X108661033Y-139565000D01*
X108338967Y-139565000D01*
X108023088Y-139627832D01*
X107725537Y-139751082D01*
X107544665Y-139871937D01*
X107530537Y-139845506D01*
X107451185Y-139748815D01*
X107354958Y-139669844D01*
X109964802Y-137060000D01*
X118096289Y-137060000D01*
X118140226Y-137103937D01*
G36*
X120321602Y-138016404D02*
G01*
X120465420Y-138112500D01*
X120321602Y-138208596D01*
X120111096Y-138419102D01*
X120009990Y-138570418D01*
X120009990Y-137953036D01*
X120134112Y-137828914D01*
X120321602Y-138016404D01*
G37*
X120321602Y-138016404D02*
X120465420Y-138112500D01*
X120321602Y-138208596D01*
X120111096Y-138419102D01*
X120009990Y-138570418D01*
X120009990Y-137953036D01*
X120134112Y-137828914D01*
X120321602Y-138016404D01*
G36*
X137590001Y-138310199D02*
G01*
X137488398Y-138208596D01*
X137344580Y-138112500D01*
X137488398Y-138016404D01*
X137590001Y-137914801D01*
X137590001Y-138310199D01*
G37*
X137590001Y-138310199D02*
X137488398Y-138208596D01*
X137344580Y-138112500D01*
X137488398Y-138016404D01*
X137590001Y-137914801D01*
X137590001Y-138310199D01*
G36*
X137590001Y-135770199D02*
G01*
X137488398Y-135668596D01*
X137344580Y-135572500D01*
X137488398Y-135476404D01*
X137590001Y-135374801D01*
X137590001Y-135770199D01*
G37*
X137590001Y-135770199D02*
X137488398Y-135668596D01*
X137344580Y-135572500D01*
X137488398Y-135476404D01*
X137590001Y-135374801D01*
X137590001Y-135770199D01*
G36*
X137590001Y-133230199D02*
G01*
X137488398Y-133128596D01*
X137344580Y-133032500D01*
X137488398Y-132936404D01*
X137590001Y-132834801D01*
X137590001Y-133230199D01*
G37*
X137590001Y-133230199D02*
X137488398Y-133128596D01*
X137344580Y-133032500D01*
X137488398Y-132936404D01*
X137590001Y-132834801D01*
X137590001Y-133230199D01*
G36*
X119821424Y-131373725D02*
G01*
X119773700Y-131613650D01*
X119773700Y-131716398D01*
X116133804Y-128076503D01*
X116110001Y-128047499D01*
X115994276Y-127952526D01*
X115862247Y-127881954D01*
X115718986Y-127838497D01*
X115607333Y-127827500D01*
X115607322Y-127827500D01*
X115570000Y-127823824D01*
X115532678Y-127827500D01*
X112649691Y-127827500D01*
X112615643Y-127745301D01*
X112441797Y-127485121D01*
X112448918Y-127474463D01*
X112572168Y-127176912D01*
X112635000Y-126861033D01*
X112635000Y-126538967D01*
X112572168Y-126223088D01*
X112535680Y-126134999D01*
X114582698Y-126134999D01*
X119821424Y-131373725D01*
G37*
X119821424Y-131373725D02*
X119773700Y-131613650D01*
X119773700Y-131716398D01*
X116133804Y-128076503D01*
X116110001Y-128047499D01*
X115994276Y-127952526D01*
X115862247Y-127881954D01*
X115718986Y-127838497D01*
X115607333Y-127827500D01*
X115607322Y-127827500D01*
X115570000Y-127823824D01*
X115532678Y-127827500D01*
X112649691Y-127827500D01*
X112615643Y-127745301D01*
X112441797Y-127485121D01*
X112448918Y-127474463D01*
X112572168Y-127176912D01*
X112635000Y-126861033D01*
X112635000Y-126538967D01*
X112572168Y-126223088D01*
X112535680Y-126134999D01*
X114582698Y-126134999D01*
X119821424Y-131373725D01*
G36*
X137590001Y-130690199D02*
G01*
X137488398Y-130588596D01*
X137344580Y-130492500D01*
X137488398Y-130396404D01*
X137590001Y-130294801D01*
X137590001Y-130690199D01*
G37*
X137590001Y-130690199D02*
X137488398Y-130588596D01*
X137344580Y-130492500D01*
X137488398Y-130396404D01*
X137590001Y-130294801D01*
X137590001Y-130690199D01*
G36*
X137590001Y-128150199D02*
G01*
X137488398Y-128048596D01*
X137344580Y-127952500D01*
X137488398Y-127856404D01*
X137590001Y-127754801D01*
X137590001Y-128150199D01*
G37*
X137590001Y-128150199D02*
X137488398Y-128048596D01*
X137344580Y-127952500D01*
X137488398Y-127856404D01*
X137590001Y-127754801D01*
X137590001Y-128150199D01*
G36*
X137590001Y-125610199D02*
G01*
X137488398Y-125508596D01*
X137344580Y-125412500D01*
X137488398Y-125316404D01*
X137590001Y-125214801D01*
X137590001Y-125610199D01*
G37*
X137590001Y-125610199D02*
X137488398Y-125508596D01*
X137344580Y-125412500D01*
X137488398Y-125316404D01*
X137590001Y-125214801D01*
X137590001Y-125610199D01*
G36*
X137590001Y-123070199D02*
G01*
X137488398Y-122968596D01*
X137344580Y-122872500D01*
X137488398Y-122776404D01*
X137590001Y-122674801D01*
X137590001Y-123070199D01*
G37*
X137590001Y-123070199D02*
X137488398Y-122968596D01*
X137344580Y-122872500D01*
X137488398Y-122776404D01*
X137590001Y-122674801D01*
X137590001Y-123070199D01*
M02*
